M48
; DRILL file {KiCad (5.1.8)-1} date 12/13/20 01:13:41
; FORMAT={-:-/ absolute / inch / decimal}
; #@! TF.CreationDate,2020-12-13T01:13:41+07:00
; #@! TF.GenerationSoftware,Kicad,Pcbnew,(5.1.8)-1
FMAT,2
INCH
T1C0.0157
T2C0.0197
T3C0.0291
T4C0.0300
T5C0.0315
T6C0.0335
T7C0.0350
T8C0.0354
T9C0.0394
T10C0.0472
T11C0.0906
T12C0.0161
T13C0.0394
T14C0.1181
%
G90
G05
T1
X0.8858Y0.9449
X0.8858Y0.7874
X0.8858Y0.7087
X1.0153Y1.0335
X1.0153Y0.5719
X1.0811Y1.5
X1.1811Y2.0039
X1.1811Y1.5394
X1.2811Y1.4606
X1.2992Y1.1811
X1.4961Y2.6772
X1.5354Y2.7165
X1.5748Y2.5197
X1.5748Y1.1811
X1.6142Y2.4409
X1.6535Y2.4803
X1.6929Y2.4016
X1.7323Y2.3222
X1.8504Y1.1811
X1.9488Y3.1102
X1.9488Y2.9528
X1.9488Y2.7953
X1.9488Y2.6378
X1.9882Y3.1102
X1.9882Y2.9528
X1.9882Y2.7953
X1.9882Y2.6378
X2.126Y1.1811
X2.2303Y2.5827
X2.2303Y1.7898
X2.3228Y2.874
X2.3622Y2.9978
X2.374Y2.3622
X2.374Y1.8291
X2.4016Y1.1811
X2.5354Y3.2283
X2.5748Y3.0315
X2.6063Y3.0709
X2.6378Y3.1102
X2.6693Y3.1496
X2.6772Y1.1811
X2.6776Y2.5969
X2.7008Y3.189
X2.911Y3.189
X2.9528Y1.1811
X2.9921Y3.2283
X3.1831Y2.7087
X3.2224Y2.3504
X3.2283Y4.1732
X3.2283Y1.1811
X3.2618Y2.7717
X3.2677Y4.2126
X3.3012Y2.6142
X3.3071Y4.252
X3.3406Y2.6772
X3.3425Y3.1902
X3.3465Y4.2913
X3.3858Y4.3307
X3.4252Y4.3701
X3.4646Y4.4094
X3.5039Y4.4488
X3.6614Y0.6693
X3.7008Y3.9764
X3.7008Y3.5039
X3.7795Y3.2283
X3.7795Y2.6457
X3.7795Y2.1929
X3.7795Y1.1811
X3.8189Y2.2323
X3.8583Y3.2677
X3.8583Y2.311
X3.8583Y2.2717
X3.8976Y3.0118
X3.937Y2.815
X3.937Y2.6969
X3.937Y1.7898
X3.9764Y2.8543
X3.9764Y2.6575
X4.0157Y2.8937
X4.0157Y2.6181
X4.0551Y2.9331
X4.0551Y2.5787
X4.0945Y2.9724
X4.0945Y2.5394
X4.1339Y3.0512
X4.1339Y2.7756
X4.1732Y3.0118
X4.1732Y2.7362
X4.1732Y1.1811
X4.1732Y0.6693
X4.311Y3.7439
X4.3307Y1.7248
X4.3504Y3.7939
X4.3701Y1.4764
X4.3898Y3.8439
X4.4094Y1.5157
X4.4291Y3.8939
X4.4488Y1.7248
X4.4488Y1.5551
X4.4882Y1.5945
X4.5669Y1.1811
X4.8031Y0.6693
X4.8622Y3.8152
X4.8622Y1.3854
X4.8819Y1.6339
X4.9016Y3.7652
X4.9213Y1.5945
X4.9409Y3.7152
X4.9606Y1.5551
X4.9606Y1.1811
X4.9803Y3.6652
X5.0Y1.5157
X5.0394Y1.7598
X5.315Y0.6693
X5.3346Y3.9639
X5.3346Y3.465
X5.3543Y1.1811
X5.374Y4.0409
X5.374Y1.839
X5.6693Y1.5748
X5.7087Y1.5157
X5.748Y3.6652
X5.748Y1.4567
X5.748Y1.1811
X5.7874Y3.7152
X5.7874Y1.6339
X5.8268Y3.7652
X5.8268Y0.6693
X5.8661Y3.8152
X6.1417Y1.1811
X6.2205Y2.8937
X6.2205Y2.6969
X6.2598Y3.8152
X6.2598Y2.8543
X6.2598Y2.6575
X6.2598Y1.5354
X6.2992Y3.7652
X6.2992Y2.815
X6.2992Y2.6181
X6.2992Y1.6535
X6.3386Y3.7152
X6.3386Y3.0512
X6.3386Y2.5787
X6.3386Y1.5945
X6.378Y3.6652
X6.378Y3.0118
X6.378Y2.5394
X6.378Y1.4764
X6.4173Y2.9331
X6.4173Y2.7756
X6.4567Y2.9724
X6.4567Y2.7362
X6.5354Y1.1811
T2
X5.1268Y3.8504
X5.1268Y3.7717
X5.1661Y3.811
X5.2055Y3.8504
X5.2055Y3.7717
X5.3728Y1.565
X5.3728Y1.4862
X5.4122Y1.5256
X5.4516Y1.565
X5.4516Y1.4862
X5.1268Y4.1945
X5.1268Y4.1157
X5.1661Y4.1551
X5.2055Y4.1945
X5.2055Y4.1157
X3.9846Y1.987
X3.9846Y1.9083
X4.024Y1.9476
X4.0634Y1.987
X4.0634Y1.9083
X3.9846Y3.4421
X3.9846Y3.3634
X4.024Y3.4028
X4.0634Y3.4421
X4.0634Y3.3634
X3.0181Y2.4969
X3.0181Y2.4181
X3.0575Y2.4575
X3.0969Y2.4969
X3.0969Y2.4181
X5.1268Y3.6768
X5.1268Y3.598
X5.1661Y3.6374
X5.2055Y3.6768
X5.2055Y3.598
X6.061Y4.3252
X6.061Y4.2465
X6.1004Y4.2858
X6.1398Y4.3252
X6.1398Y4.2465
X3.0181Y1.987
X3.0181Y1.9083
X3.0575Y1.9476
X3.0969Y1.987
X3.0969Y1.9083
X5.0933Y1.6098
X5.0933Y1.5311
X5.1327Y1.5705
X5.172Y1.6098
X5.172Y1.5311
X6.4925Y1.565
X6.4925Y1.4862
X6.5319Y1.5256
X6.5713Y1.565
X6.5713Y1.4862
X5.4925Y3.6768
X5.4925Y3.598
X5.5319Y3.6374
X5.5713Y3.6768
X5.5713Y3.598
T3
X0.748Y2.7772
X0.748Y2.6772
X0.748Y2.5772
T4
X0.1181Y3.7008
X1.063Y3.7008
T5
X3.1102Y0.5118
X3.1102Y0.3937
X3.1102Y0.2756
X5.4724Y3.2378
X5.4724Y2.6378
X5.5724Y3.2378
X5.5724Y2.6378
X5.6724Y3.2378
X5.6724Y2.6378
X5.7724Y3.2378
X5.7724Y2.6378
X5.8724Y3.2378
X5.8724Y2.6378
X2.0079Y0.5118
X2.0079Y0.3937
X2.0079Y0.2756
X1.7323Y0.5118
X1.7323Y0.3937
X1.7323Y0.2756
X2.5591Y0.5118
X2.5591Y0.3937
X2.5591Y0.2756
X1.4567Y0.5118
X1.4567Y0.3937
X1.4567Y0.2756
X4.8819Y3.2378
X4.8819Y2.6378
X4.9819Y3.2378
X4.9819Y2.6378
X5.0819Y3.2378
X5.0819Y2.6378
X5.1819Y3.2378
X5.1819Y2.6378
X5.2819Y3.2378
X5.2819Y2.6378
X1.1811Y0.5118
X1.1811Y0.3937
X1.1811Y0.2756
X2.2835Y0.5118
X2.2835Y0.3937
X2.2835Y0.2756
X2.8346Y0.5118
X2.8346Y0.3937
X2.8346Y0.2756
T7
X4.5713Y2.276
X4.5713Y1.976
X4.6713Y2.276
X4.6713Y1.976
X4.7713Y2.276
X4.7713Y1.976
X4.8713Y2.276
X4.8713Y1.976
X4.9713Y2.276
X4.9713Y1.976
X5.0713Y2.276
X5.0713Y1.976
X5.1713Y2.276
X5.1713Y1.976
X5.2713Y2.276
X5.2713Y1.976
X5.4768Y2.276
X5.4768Y1.976
X5.5768Y2.276
X5.5768Y1.976
X5.6768Y2.276
X5.6768Y1.976
X5.7768Y2.276
X5.7768Y1.976
X5.8768Y2.276
X5.8768Y1.976
X5.9768Y2.276
X5.9768Y1.976
X6.0768Y2.276
X6.0768Y1.976
X6.1768Y2.276
X6.1768Y1.976
T8
X0.5394Y0.7579
X0.5394Y0.6594
X0.6181Y0.7579
X0.6181Y0.6594
T9
X4.3394Y4.8819
X4.3394Y4.7819
X4.4394Y4.8819
X4.4394Y4.7819
X4.5394Y4.8819
X4.5394Y4.7819
X4.6394Y4.8819
X4.6394Y4.7819
X4.7394Y4.8819
X4.7394Y4.7819
X4.8394Y4.8819
X4.8394Y4.7819
X4.9394Y4.8819
X4.9394Y4.7819
X5.0394Y4.8819
X5.0394Y4.7819
X6.7898Y3.3559
X6.7898Y3.2559
X6.7898Y3.1559
X6.7898Y3.0559
X6.7898Y2.9559
X6.7898Y2.8559
X6.7898Y2.7559
X6.8898Y3.3559
X6.8898Y3.2559
X6.8898Y3.1559
X6.8898Y3.0559
X6.8898Y2.9559
X6.8898Y2.8559
X6.8898Y2.7559
X1.8197Y4.8819
X1.8197Y4.7819
X1.9197Y4.8819
X1.9197Y4.7819
X2.0197Y4.8819
X2.0197Y4.7819
X2.1197Y4.8819
X2.1197Y4.7819
X2.2197Y4.8819
X2.2197Y4.7819
X2.3197Y4.8819
X2.3197Y4.7819
X2.4197Y4.8819
X2.4197Y4.7819
X2.5197Y4.8819
X2.5197Y4.7819
X6.3142Y4.8819
X6.3142Y4.7819
X6.4142Y4.8819
X6.4142Y4.7819
X6.5142Y4.8819
X6.5142Y4.7819
X6.6142Y4.8819
X6.6142Y4.7819
X1.1386Y4.8819
X1.1386Y4.7819
X1.2386Y4.8819
X1.2386Y4.7819
X1.3386Y4.8819
X1.3386Y4.7819
X3.6583Y4.8819
X3.6583Y4.7819
X3.7583Y4.8819
X3.7583Y4.7819
X3.8583Y4.8819
X3.8583Y4.7819
X6.0843Y0.2071
X6.1811Y0.2071
X6.2811Y0.2071
X6.7898Y2.2142
X6.7898Y2.1142
X6.7898Y2.0142
X6.7898Y1.9142
X6.7898Y1.8142
X6.7898Y1.7142
X6.7898Y1.6142
X6.8898Y2.2142
X6.8898Y2.1142
X6.8898Y2.0142
X6.8898Y1.9142
X6.8898Y1.8142
X6.8898Y1.7142
X6.8898Y1.6142
X5.5268Y4.8819
X5.5268Y4.7819
X5.6268Y4.8819
X5.6268Y4.7819
X5.7268Y4.8819
X5.7268Y4.7819
X5.8268Y4.8819
X5.8268Y4.7819
X2.989Y4.8819
X2.989Y4.7819
X3.089Y4.8819
X3.089Y4.7819
X3.189Y4.8819
X3.189Y4.7819
X0.4693Y4.8819
X0.4693Y4.7819
X0.5693Y4.8819
X0.5693Y4.7819
X0.6693Y4.8819
X0.6693Y4.7819
X0.1181Y4.1339
X1.063Y4.1339
T10
X1.5748Y3.6024
X1.6748Y3.6024
X1.7748Y3.6024
X1.8748Y3.6024
X1.9748Y3.6024
X2.0748Y3.6024
X2.1748Y3.6024
X2.2748Y3.6024
X2.3748Y3.6024
X2.4748Y3.6024
X2.5748Y3.6024
X2.6748Y3.6024
X2.7748Y3.6024
X2.8748Y3.6024
X2.9748Y3.6024
X3.0748Y3.6024
T11
X0.4331Y0.9457
X0.4331Y0.4717
T14
X0.1575Y0.1575
X1.3386Y3.937
X1.3583Y3.5827
X1.3583Y2.3622
X4.311Y3.5827
X4.311Y2.3622
X6.9291Y0.1575
X6.9291Y3.937
T6
G00X0.5217Y2.3504
M15
G01X0.502Y2.3504
M16
G05
G00X0.5217Y2.1654
M15
G01X0.502Y2.1654
M16
G05
G00X0.5217Y1.9803
M15
G01X0.502Y1.9803
M16
G05
T9
G00X0.315Y1.378
M15
G01X0.315Y1.2992
M16
G05
G00X0.3937Y1.1535
M15
G01X0.4724Y1.1535
M16
G05
G00X0.5512Y1.378
M15
G01X0.5512Y1.2992
M16
G05
T12
G00X3.126Y0.6299
M15
G01X3.0945Y0.6299
M16
G05
G00X3.126Y0.1575
M15
G01X3.0945Y0.1575
M16
G05
G00X2.0236Y0.6299
M15
G01X1.9921Y0.6299
M16
G05
G00X2.0236Y0.1575
M15
G01X1.9921Y0.1575
M16
G05
G00X1.748Y0.6299
M15
G01X1.7165Y0.6299
M16
G05
G00X1.748Y0.1575
M15
G01X1.7165Y0.1575
M16
G05
G00X2.5748Y0.6299
M15
G01X2.5433Y0.6299
M16
G05
G00X2.5748Y0.1575
M15
G01X2.5433Y0.1575
M16
G05
G00X1.4724Y0.6299
M15
G01X1.4409Y0.6299
M16
G05
G00X1.4724Y0.1575
M15
G01X1.4409Y0.1575
M16
G05
G00X1.1969Y0.6299
M15
G01X1.1654Y0.6299
M16
G05
G00X1.1969Y0.1575
M15
G01X1.1654Y0.1575
M16
G05
G00X2.2992Y0.6299
M15
G01X2.2677Y0.6299
M16
G05
G00X2.2992Y0.1575
M15
G01X2.2677Y0.1575
M16
G05
G00X2.8504Y0.6299
M15
G01X2.8189Y0.6299
M16
G05
G00X2.8504Y0.1575
M15
G01X2.8189Y0.1575
M16
G05
T13
G00X5.998Y0.461
M15
G01X5.998Y0.5043
M16
G05
G00X6.3642Y0.461
M15
G01X6.3642Y0.5043
M16
G05
T0
M30
