G04 #@! TF.GenerationSoftware,KiCad,Pcbnew,(5.1.8)-1*
G04 #@! TF.CreationDate,2020-12-12T15:17:09+07:00*
G04 #@! TF.ProjectId,digitalSystemBoard,64696769-7461-46c5-9379-7374656d426f,rev?*
G04 #@! TF.SameCoordinates,PX2faf080PY9896800*
G04 #@! TF.FileFunction,Soldermask,Bot*
G04 #@! TF.FilePolarity,Negative*
%FSLAX46Y46*%
G04 Gerber Fmt 4.6, Leading zero omitted, Abs format (unit mm)*
G04 Created by KiCad (PCBNEW (5.1.8)-1) date 2020-12-12 15:17:09*
%MOMM*%
%LPD*%
G01*
G04 APERTURE LIST*
%ADD10C,2.102000*%
%ADD11C,5.102000*%
%ADD12O,1.902000X2.702000*%
%ADD13C,0.852000*%
%ADD14O,1.626000X2.626000*%
%ADD15C,1.802000*%
%ADD16C,1.499000*%
%ADD17C,1.626000*%
%ADD18C,1.350000*%
%ADD19C,5.402000*%
%ADD20C,1.510000*%
%ADD21C,3.418000*%
%ADD22C,0.100000*%
G04 APERTURE END LIST*
D10*
X27000000Y105000000D03*
X3000000Y105000000D03*
D11*
X109500000Y91000000D03*
X109500000Y60000000D03*
X34500000Y60000000D03*
X34500000Y91000000D03*
D12*
X78100000Y91500000D03*
X75560000Y91500000D03*
X73020000Y91500000D03*
X70480000Y91500000D03*
X67940000Y91500000D03*
X65400000Y91500000D03*
X62860000Y91500000D03*
X60320000Y91500000D03*
X57780000Y91500000D03*
X55240000Y91500000D03*
X52700000Y91500000D03*
X50160000Y91500000D03*
X47620000Y91500000D03*
X45080000Y91500000D03*
X42540000Y91500000D03*
G36*
G01*
X39049000Y90200000D02*
X39049000Y92800000D01*
G75*
G02*
X39100000Y92851000I51000J0D01*
G01*
X40900000Y92851000D01*
G75*
G02*
X40951000Y92800000I0J-51000D01*
G01*
X40951000Y90200000D01*
G75*
G02*
X40900000Y90149000I-51000J0D01*
G01*
X39100000Y90149000D01*
G75*
G02*
X39049000Y90200000I0J51000D01*
G01*
G37*
D13*
X77660000Y49470000D03*
X78660000Y50470000D03*
X76660000Y50470000D03*
X76660000Y48470000D03*
X78660000Y48470000D03*
X103210000Y48470000D03*
X101210000Y48470000D03*
X101210000Y50470000D03*
X103210000Y50470000D03*
X102210000Y49470000D03*
X130370000Y39890000D03*
X131370000Y40890000D03*
X129370000Y40890000D03*
X129370000Y38890000D03*
X131370000Y38890000D03*
X137470000Y38750000D03*
X138470000Y39750000D03*
X136470000Y39750000D03*
X136470000Y37750000D03*
X138470000Y37750000D03*
X166910000Y37750000D03*
X164910000Y37750000D03*
X164910000Y39750000D03*
X166910000Y39750000D03*
X165910000Y38750000D03*
X78660000Y61420000D03*
X76660000Y61420000D03*
X76660000Y63420000D03*
X78660000Y63420000D03*
X77660000Y62420000D03*
X131220000Y105540000D03*
X132220000Y106540000D03*
X130220000Y106540000D03*
X130220000Y104540000D03*
X132220000Y104540000D03*
X132220000Y95800000D03*
X130220000Y95800000D03*
X130220000Y97800000D03*
X132220000Y97800000D03*
X131220000Y96800000D03*
X140510000Y92390000D03*
X141510000Y93390000D03*
X139510000Y93390000D03*
X139510000Y91390000D03*
X141510000Y91390000D03*
X155950000Y107860000D03*
X153950000Y107860000D03*
X153950000Y109860000D03*
X155950000Y109860000D03*
X154950000Y108860000D03*
X132220000Y91390000D03*
X130220000Y91390000D03*
X130220000Y93390000D03*
X132220000Y93390000D03*
X131220000Y92390000D03*
X103210000Y85430000D03*
X101210000Y85430000D03*
X101210000Y87430000D03*
X103210000Y87430000D03*
X102210000Y86430000D03*
G36*
G01*
X123187000Y65738000D02*
X123187000Y68262000D01*
G75*
G02*
X123238000Y68313000I51000J0D01*
G01*
X124762000Y68313000D01*
G75*
G02*
X124813000Y68262000I0J-51000D01*
G01*
X124813000Y65738000D01*
G75*
G02*
X124762000Y65687000I-51000J0D01*
G01*
X123238000Y65687000D01*
G75*
G02*
X123187000Y65738000I0J51000D01*
G01*
G37*
D14*
X126540000Y67000000D03*
X129080000Y67000000D03*
X131620000Y67000000D03*
X134160000Y67000000D03*
X134160000Y82240000D03*
X131620000Y82240000D03*
X129080000Y82240000D03*
X126540000Y82240000D03*
X124000000Y82240000D03*
D15*
X92920000Y121460000D03*
X95460000Y121460000D03*
X98000000Y121460000D03*
X92920000Y124000000D03*
X95460000Y124000000D03*
G36*
G01*
X97364000Y124901000D02*
X98636000Y124901000D01*
G75*
G02*
X98901000Y124636000I0J-265000D01*
G01*
X98901000Y123364000D01*
G75*
G02*
X98636000Y123099000I-265000J0D01*
G01*
X97364000Y123099000D01*
G75*
G02*
X97099000Y123364000I0J265000D01*
G01*
X97099000Y124636000D01*
G75*
G02*
X97364000Y124901000I265000J0D01*
G01*
G37*
D16*
X116110000Y57810000D03*
X118650000Y57810000D03*
X133890000Y50190000D03*
X123730000Y57810000D03*
X126270000Y57810000D03*
X128810000Y57810000D03*
X131350000Y57810000D03*
X133890000Y57810000D03*
X131350000Y50190000D03*
X128810000Y50190000D03*
X126270000Y50190000D03*
X121190000Y57810000D03*
X123730000Y50190000D03*
X121190000Y50190000D03*
X118650000Y50190000D03*
G36*
G01*
X116808501Y49440500D02*
X115411499Y49440500D01*
G75*
G02*
X115360500Y49491499I0J50999D01*
G01*
X115360500Y50888501D01*
G75*
G02*
X115411499Y50939500I50999J0D01*
G01*
X116808501Y50939500D01*
G75*
G02*
X116859500Y50888501I0J-50999D01*
G01*
X116859500Y49491499D01*
G75*
G02*
X116808501Y49440500I-50999J0D01*
G01*
G37*
D17*
X79000000Y16000000D03*
X79000000Y4000000D03*
X79000000Y13000000D03*
X79000000Y7000000D03*
X79000000Y10000000D03*
X30000000Y16000000D03*
X30000000Y4000000D03*
X30000000Y13000000D03*
X30000000Y7000000D03*
X30000000Y10000000D03*
D15*
X28920000Y121460000D03*
X31460000Y121460000D03*
X34000000Y121460000D03*
X28920000Y124000000D03*
X31460000Y124000000D03*
G36*
G01*
X33364000Y124901000D02*
X34636000Y124901000D01*
G75*
G02*
X34901000Y124636000I0J-265000D01*
G01*
X34901000Y123364000D01*
G75*
G02*
X34636000Y123099000I-265000J0D01*
G01*
X33364000Y123099000D01*
G75*
G02*
X33099000Y123364000I0J265000D01*
G01*
X33099000Y124636000D01*
G75*
G02*
X33364000Y124901000I265000J0D01*
G01*
G37*
X11920000Y121460000D03*
X14460000Y121460000D03*
X17000000Y121460000D03*
X11920000Y124000000D03*
X14460000Y124000000D03*
G36*
G01*
X16364000Y124901000D02*
X17636000Y124901000D01*
G75*
G02*
X17901000Y124636000I0J-265000D01*
G01*
X17901000Y123364000D01*
G75*
G02*
X17636000Y123099000I-265000J0D01*
G01*
X16364000Y123099000D01*
G75*
G02*
X16099000Y123364000I0J265000D01*
G01*
X16099000Y124636000D01*
G75*
G02*
X16364000Y124901000I265000J0D01*
G01*
G37*
X75920000Y121460000D03*
X78460000Y121460000D03*
X81000000Y121460000D03*
X75920000Y124000000D03*
X78460000Y124000000D03*
G36*
G01*
X80364000Y124901000D02*
X81636000Y124901000D01*
G75*
G02*
X81901000Y124636000I0J-265000D01*
G01*
X81901000Y123364000D01*
G75*
G02*
X81636000Y123099000I-265000J0D01*
G01*
X80364000Y123099000D01*
G75*
G02*
X80099000Y123364000I0J265000D01*
G01*
X80099000Y124636000D01*
G75*
G02*
X80364000Y124901000I265000J0D01*
G01*
G37*
X46220000Y121460000D03*
X48760000Y121460000D03*
X51300000Y121460000D03*
X53840000Y121460000D03*
X56380000Y121460000D03*
X58920000Y121460000D03*
X61460000Y121460000D03*
X64000000Y121460000D03*
X46220000Y124000000D03*
X48760000Y124000000D03*
X51300000Y124000000D03*
X53840000Y124000000D03*
X56380000Y124000000D03*
X58920000Y124000000D03*
X61460000Y124000000D03*
G36*
G01*
X63364000Y124901000D02*
X64636000Y124901000D01*
G75*
G02*
X64901000Y124636000I0J-265000D01*
G01*
X64901000Y123364000D01*
G75*
G02*
X64636000Y123099000I-265000J0D01*
G01*
X63364000Y123099000D01*
G75*
G02*
X63099000Y123364000I0J265000D01*
G01*
X63099000Y124636000D01*
G75*
G02*
X63364000Y124901000I265000J0D01*
G01*
G37*
X172460000Y56240000D03*
X172460000Y53700000D03*
X172460000Y51160000D03*
X172460000Y48620000D03*
X172460000Y46080000D03*
X172460000Y43540000D03*
X172460000Y41000000D03*
X175000000Y56240000D03*
X175000000Y53700000D03*
X175000000Y51160000D03*
X175000000Y48620000D03*
X175000000Y46080000D03*
X175000000Y43540000D03*
G36*
G01*
X175901000Y41636000D02*
X175901000Y40364000D01*
G75*
G02*
X175636000Y40099000I-265000J0D01*
G01*
X174364000Y40099000D01*
G75*
G02*
X174099000Y40364000I0J265000D01*
G01*
X174099000Y41636000D01*
G75*
G02*
X174364000Y41901000I265000J0D01*
G01*
X175636000Y41901000D01*
G75*
G02*
X175901000Y41636000I0J-265000D01*
G01*
G37*
X172460000Y85240000D03*
X172460000Y82700000D03*
X172460000Y80160000D03*
X172460000Y77620000D03*
X172460000Y75080000D03*
X172460000Y72540000D03*
X172460000Y70000000D03*
X175000000Y85240000D03*
X175000000Y82700000D03*
X175000000Y80160000D03*
X175000000Y77620000D03*
X175000000Y75080000D03*
X175000000Y72540000D03*
G36*
G01*
X175901000Y70636000D02*
X175901000Y69364000D01*
G75*
G02*
X175636000Y69099000I-265000J0D01*
G01*
X174364000Y69099000D01*
G75*
G02*
X174099000Y69364000I0J265000D01*
G01*
X174099000Y70636000D01*
G75*
G02*
X174364000Y70901000I265000J0D01*
G01*
X175636000Y70901000D01*
G75*
G02*
X175901000Y70636000I0J-265000D01*
G01*
G37*
X110220000Y121460000D03*
X112760000Y121460000D03*
X115300000Y121460000D03*
X117840000Y121460000D03*
X120380000Y121460000D03*
X122920000Y121460000D03*
X125460000Y121460000D03*
X128000000Y121460000D03*
X110220000Y124000000D03*
X112760000Y124000000D03*
X115300000Y124000000D03*
X117840000Y124000000D03*
X120380000Y124000000D03*
X122920000Y124000000D03*
X125460000Y124000000D03*
G36*
G01*
X127364000Y124901000D02*
X128636000Y124901000D01*
G75*
G02*
X128901000Y124636000I0J-265000D01*
G01*
X128901000Y123364000D01*
G75*
G02*
X128636000Y123099000I-265000J0D01*
G01*
X127364000Y123099000D01*
G75*
G02*
X127099000Y123364000I0J265000D01*
G01*
X127099000Y124636000D01*
G75*
G02*
X127364000Y124901000I265000J0D01*
G01*
G37*
X140380000Y121460000D03*
X142920000Y121460000D03*
X145460000Y121460000D03*
X148000000Y121460000D03*
X140380000Y124000000D03*
X142920000Y124000000D03*
X145460000Y124000000D03*
G36*
G01*
X147364000Y124901000D02*
X148636000Y124901000D01*
G75*
G02*
X148901000Y124636000I0J-265000D01*
G01*
X148901000Y123364000D01*
G75*
G02*
X148636000Y123099000I-265000J0D01*
G01*
X147364000Y123099000D01*
G75*
G02*
X147099000Y123364000I0J265000D01*
G01*
X147099000Y124636000D01*
G75*
G02*
X147364000Y124901000I265000J0D01*
G01*
G37*
X160380000Y121460000D03*
X162920000Y121460000D03*
X165460000Y121460000D03*
X168000000Y121460000D03*
X160380000Y124000000D03*
X162920000Y124000000D03*
X165460000Y124000000D03*
G36*
G01*
X167364000Y124901000D02*
X168636000Y124901000D01*
G75*
G02*
X168901000Y124636000I0J-265000D01*
G01*
X168901000Y123364000D01*
G75*
G02*
X168636000Y123099000I-265000J0D01*
G01*
X167364000Y123099000D01*
G75*
G02*
X167099000Y123364000I0J265000D01*
G01*
X167099000Y124636000D01*
G75*
G02*
X167364000Y124901000I265000J0D01*
G01*
G37*
D18*
X19000000Y70540000D03*
X19000000Y68000000D03*
G36*
G01*
X19675000Y66084000D02*
X19675000Y64836000D01*
G75*
G02*
X19624000Y64785000I-51000J0D01*
G01*
X18376000Y64785000D01*
G75*
G02*
X18325000Y64836000I0J51000D01*
G01*
X18325000Y66084000D01*
G75*
G02*
X18376000Y66135000I51000J0D01*
G01*
X19624000Y66135000D01*
G75*
G02*
X19675000Y66084000I0J-51000D01*
G01*
G37*
G36*
G01*
X9199000Y28399500D02*
X9199000Y30200500D01*
G75*
G02*
X10099500Y31101000I900500J0D01*
G01*
X11900500Y31101000D01*
G75*
G02*
X12801000Y30200500I0J-900500D01*
G01*
X12801000Y28399500D01*
G75*
G02*
X11900500Y27499000I-900500J0D01*
G01*
X10099500Y27499000D01*
G75*
G02*
X9199000Y28399500I0J900500D01*
G01*
G37*
G36*
G01*
X6449000Y32974500D02*
X6449000Y35025500D01*
G75*
G02*
X7224500Y35801000I775500J0D01*
G01*
X8775500Y35801000D01*
G75*
G02*
X9551000Y35025500I0J-775500D01*
G01*
X9551000Y32974500D01*
G75*
G02*
X8775500Y32199000I-775500J0D01*
G01*
X7224500Y32199000D01*
G75*
G02*
X6449000Y32974500I0J775500D01*
G01*
G37*
G36*
G01*
X12199000Y32250000D02*
X12199000Y35750000D01*
G75*
G02*
X12250000Y35801000I51000J0D01*
G01*
X15750000Y35801000D01*
G75*
G02*
X15801000Y35750000I0J-51000D01*
G01*
X15801000Y32250000D01*
G75*
G02*
X15750000Y32199000I-51000J0D01*
G01*
X12250000Y32199000D01*
G75*
G02*
X12199000Y32250000I0J51000D01*
G01*
G37*
D17*
X27000000Y94000000D03*
X3000000Y94000000D03*
X37000000Y16000000D03*
X37000000Y4000000D03*
X37000000Y13000000D03*
X37000000Y7000000D03*
X37000000Y10000000D03*
X44000000Y16000000D03*
X44000000Y4000000D03*
X44000000Y13000000D03*
X44000000Y7000000D03*
X44000000Y10000000D03*
X51000000Y16000000D03*
X51000000Y4000000D03*
X51000000Y13000000D03*
X51000000Y7000000D03*
X51000000Y10000000D03*
X58000000Y16000000D03*
X58000000Y4000000D03*
X58000000Y13000000D03*
X58000000Y7000000D03*
X58000000Y10000000D03*
X65000000Y16000000D03*
X65000000Y4000000D03*
X65000000Y13000000D03*
X65000000Y7000000D03*
X65000000Y10000000D03*
X72000000Y16000000D03*
X72000000Y4000000D03*
X72000000Y13000000D03*
X72000000Y7000000D03*
X72000000Y10000000D03*
G36*
G01*
X162601000Y12985500D02*
X162601000Y11534500D01*
G75*
G02*
X162125500Y11059000I-475500J0D01*
G01*
X161174500Y11059000D01*
G75*
G02*
X160699000Y11534500I0J475500D01*
G01*
X160699000Y12985500D01*
G75*
G02*
X161174500Y13461000I475500J0D01*
G01*
X162125500Y13461000D01*
G75*
G02*
X162601000Y12985500I0J-475500D01*
G01*
G37*
G36*
G01*
X153301000Y12985500D02*
X153301000Y11534500D01*
G75*
G02*
X152825500Y11059000I-475500J0D01*
G01*
X151874500Y11059000D01*
G75*
G02*
X151399000Y11534500I0J475500D01*
G01*
X151399000Y12985500D01*
G75*
G02*
X151874500Y13461000I475500J0D01*
G01*
X152825500Y13461000D01*
G75*
G02*
X153301000Y12985500I0J-475500D01*
G01*
G37*
X157000000Y5260000D03*
X154540000Y5260000D03*
X159540000Y5260000D03*
D19*
X176000000Y100000000D03*
X34000000Y100000000D03*
X176000000Y4000000D03*
X4000000Y4000000D03*
D16*
X139110000Y57810000D03*
X141650000Y57810000D03*
X156890000Y50190000D03*
X146730000Y57810000D03*
X149270000Y57810000D03*
X151810000Y57810000D03*
X154350000Y57810000D03*
X156890000Y57810000D03*
X154350000Y50190000D03*
X151810000Y50190000D03*
X149270000Y50190000D03*
X144190000Y57810000D03*
X146730000Y50190000D03*
X144190000Y50190000D03*
X141650000Y50190000D03*
G36*
G01*
X139808501Y49440500D02*
X138411499Y49440500D01*
G75*
G02*
X138360500Y49491499I0J50999D01*
G01*
X138360500Y50888501D01*
G75*
G02*
X138411499Y50939500I50999J0D01*
G01*
X139808501Y50939500D01*
G75*
G02*
X139859500Y50888501I0J-50999D01*
G01*
X139859500Y49491499D01*
G75*
G02*
X139808501Y49440500I-50999J0D01*
G01*
G37*
G36*
G01*
X138187000Y65738000D02*
X138187000Y68262000D01*
G75*
G02*
X138238000Y68313000I51000J0D01*
G01*
X139762000Y68313000D01*
G75*
G02*
X139813000Y68262000I0J-51000D01*
G01*
X139813000Y65738000D01*
G75*
G02*
X139762000Y65687000I-51000J0D01*
G01*
X138238000Y65687000D01*
G75*
G02*
X138187000Y65738000I0J51000D01*
G01*
G37*
D14*
X141540000Y67000000D03*
X144080000Y67000000D03*
X146620000Y67000000D03*
X149160000Y67000000D03*
X149160000Y82240000D03*
X146620000Y82240000D03*
X144080000Y82240000D03*
X141540000Y82240000D03*
X139000000Y82240000D03*
D17*
X13000000Y50300000D03*
X13000000Y59700000D03*
X13000000Y55000000D03*
G36*
G01*
X14996000Y17505000D02*
X16404000Y17505000D01*
G75*
G02*
X16455000Y17454000I0J-51000D01*
G01*
X16455000Y16046000D01*
G75*
G02*
X16404000Y15995000I-51000J0D01*
G01*
X14996000Y15995000D01*
G75*
G02*
X14945000Y16046000I0J51000D01*
G01*
X14945000Y17454000D01*
G75*
G02*
X14996000Y17505000I51000J0D01*
G01*
G37*
D20*
X15700000Y19250000D03*
X13700000Y19250000D03*
X13700000Y16750000D03*
D21*
X11000000Y24020000D03*
X11000000Y11980000D03*
D22*
G36*
X162602165Y11536126D02*
G01*
X162603000Y11534500D01*
X162603000Y11478140D01*
X162602990Y11477944D01*
X162594462Y11391349D01*
X162594386Y11390964D01*
X162570919Y11313607D01*
X162570769Y11313245D01*
X162532656Y11241940D01*
X162532438Y11241614D01*
X162481154Y11179123D01*
X162480877Y11178846D01*
X162418386Y11127562D01*
X162418060Y11127344D01*
X162346755Y11089231D01*
X162346393Y11089081D01*
X162269036Y11065614D01*
X162268651Y11065538D01*
X162182056Y11057010D01*
X162181860Y11057000D01*
X162125500Y11057000D01*
X162123768Y11058000D01*
X162123768Y11060000D01*
X162125304Y11060990D01*
X162217870Y11070107D01*
X162306697Y11097052D01*
X162388558Y11140807D01*
X162460308Y11199692D01*
X162519193Y11271442D01*
X162562948Y11353303D01*
X162589893Y11442130D01*
X162599010Y11534696D01*
X162600175Y11536322D01*
X162602165Y11536126D01*
G37*
G36*
X153302165Y11536126D02*
G01*
X153303000Y11534500D01*
X153303000Y11478140D01*
X153302990Y11477944D01*
X153294462Y11391349D01*
X153294386Y11390964D01*
X153270919Y11313607D01*
X153270769Y11313245D01*
X153232656Y11241940D01*
X153232438Y11241614D01*
X153181154Y11179123D01*
X153180877Y11178846D01*
X153118386Y11127562D01*
X153118060Y11127344D01*
X153046755Y11089231D01*
X153046393Y11089081D01*
X152969036Y11065614D01*
X152968651Y11065538D01*
X152882056Y11057010D01*
X152881860Y11057000D01*
X152825500Y11057000D01*
X152823768Y11058000D01*
X152823768Y11060000D01*
X152825304Y11060990D01*
X152917870Y11070107D01*
X153006697Y11097052D01*
X153088558Y11140807D01*
X153160308Y11199692D01*
X153219193Y11271442D01*
X153262948Y11353303D01*
X153289893Y11442130D01*
X153299010Y11534696D01*
X153300175Y11536322D01*
X153302165Y11536126D01*
G37*
G36*
X160700990Y11534696D02*
G01*
X160710107Y11442130D01*
X160737052Y11353303D01*
X160780807Y11271442D01*
X160839692Y11199692D01*
X160911442Y11140807D01*
X160993303Y11097052D01*
X161082130Y11070107D01*
X161174696Y11060990D01*
X161176322Y11059825D01*
X161176126Y11057835D01*
X161174500Y11057000D01*
X161118140Y11057000D01*
X161117944Y11057010D01*
X161031349Y11065538D01*
X161030964Y11065614D01*
X160953607Y11089081D01*
X160953245Y11089231D01*
X160881940Y11127344D01*
X160881614Y11127562D01*
X160819123Y11178846D01*
X160818846Y11179123D01*
X160767562Y11241614D01*
X160767344Y11241940D01*
X160729231Y11313245D01*
X160729081Y11313607D01*
X160705614Y11390964D01*
X160705538Y11391349D01*
X160697010Y11477944D01*
X160697000Y11478140D01*
X160697000Y11534500D01*
X160698000Y11536232D01*
X160700000Y11536232D01*
X160700990Y11534696D01*
G37*
G36*
X151400990Y11534696D02*
G01*
X151410107Y11442130D01*
X151437052Y11353303D01*
X151480807Y11271442D01*
X151539692Y11199692D01*
X151611442Y11140807D01*
X151693303Y11097052D01*
X151782130Y11070107D01*
X151874696Y11060990D01*
X151876322Y11059825D01*
X151876126Y11057835D01*
X151874500Y11057000D01*
X151818140Y11057000D01*
X151817944Y11057010D01*
X151731349Y11065538D01*
X151730964Y11065614D01*
X151653607Y11089081D01*
X151653245Y11089231D01*
X151581940Y11127344D01*
X151581614Y11127562D01*
X151519123Y11178846D01*
X151518846Y11179123D01*
X151467562Y11241614D01*
X151467344Y11241940D01*
X151429231Y11313245D01*
X151429081Y11313607D01*
X151405614Y11390964D01*
X151405538Y11391349D01*
X151397010Y11477944D01*
X151397000Y11478140D01*
X151397000Y11534500D01*
X151398000Y11536232D01*
X151400000Y11536232D01*
X151400990Y11534696D01*
G37*
G36*
X161176232Y13462000D02*
G01*
X161176232Y13460000D01*
X161174696Y13459010D01*
X161082130Y13449893D01*
X160993303Y13422948D01*
X160911442Y13379193D01*
X160839692Y13320308D01*
X160780807Y13248558D01*
X160737052Y13166697D01*
X160710107Y13077870D01*
X160700990Y12985304D01*
X160699825Y12983678D01*
X160697835Y12983874D01*
X160697000Y12985500D01*
X160697000Y13041860D01*
X160697010Y13042056D01*
X160705538Y13128651D01*
X160705614Y13129036D01*
X160729081Y13206393D01*
X160729231Y13206755D01*
X160767344Y13278060D01*
X160767562Y13278386D01*
X160818846Y13340877D01*
X160819123Y13341154D01*
X160881614Y13392438D01*
X160881940Y13392656D01*
X160953245Y13430769D01*
X160953607Y13430919D01*
X161030964Y13454386D01*
X161031349Y13454462D01*
X161117944Y13462990D01*
X161118140Y13463000D01*
X161174500Y13463000D01*
X161176232Y13462000D01*
G37*
G36*
X151876232Y13462000D02*
G01*
X151876232Y13460000D01*
X151874696Y13459010D01*
X151782130Y13449893D01*
X151693303Y13422948D01*
X151611442Y13379193D01*
X151539692Y13320308D01*
X151480807Y13248558D01*
X151437052Y13166697D01*
X151410107Y13077870D01*
X151400990Y12985304D01*
X151399825Y12983678D01*
X151397835Y12983874D01*
X151397000Y12985500D01*
X151397000Y13041860D01*
X151397010Y13042056D01*
X151405538Y13128651D01*
X151405614Y13129036D01*
X151429081Y13206393D01*
X151429231Y13206755D01*
X151467344Y13278060D01*
X151467562Y13278386D01*
X151518846Y13340877D01*
X151519123Y13341154D01*
X151581614Y13392438D01*
X151581940Y13392656D01*
X151653245Y13430769D01*
X151653607Y13430919D01*
X151730964Y13454386D01*
X151731349Y13454462D01*
X151817944Y13462990D01*
X151818140Y13463000D01*
X151874500Y13463000D01*
X151876232Y13462000D01*
G37*
G36*
X152882056Y13462990D02*
G01*
X152968651Y13454462D01*
X152969036Y13454386D01*
X153046393Y13430919D01*
X153046755Y13430769D01*
X153118060Y13392656D01*
X153118386Y13392438D01*
X153180877Y13341154D01*
X153181154Y13340877D01*
X153232438Y13278386D01*
X153232656Y13278060D01*
X153270769Y13206755D01*
X153270919Y13206393D01*
X153294386Y13129036D01*
X153294462Y13128651D01*
X153302990Y13042056D01*
X153303000Y13041860D01*
X153303000Y12985500D01*
X153302000Y12983768D01*
X153300000Y12983768D01*
X153299010Y12985304D01*
X153289893Y13077870D01*
X153262948Y13166697D01*
X153219193Y13248558D01*
X153160308Y13320308D01*
X153088558Y13379193D01*
X153006697Y13422948D01*
X152917870Y13449893D01*
X152825304Y13459010D01*
X152823678Y13460175D01*
X152823874Y13462165D01*
X152825500Y13463000D01*
X152881860Y13463000D01*
X152882056Y13462990D01*
G37*
G36*
X162182056Y13462990D02*
G01*
X162268651Y13454462D01*
X162269036Y13454386D01*
X162346393Y13430919D01*
X162346755Y13430769D01*
X162418060Y13392656D01*
X162418386Y13392438D01*
X162480877Y13341154D01*
X162481154Y13340877D01*
X162532438Y13278386D01*
X162532656Y13278060D01*
X162570769Y13206755D01*
X162570919Y13206393D01*
X162594386Y13129036D01*
X162594462Y13128651D01*
X162602990Y13042056D01*
X162603000Y13041860D01*
X162603000Y12985500D01*
X162602000Y12983768D01*
X162600000Y12983768D01*
X162599010Y12985304D01*
X162589893Y13077870D01*
X162562948Y13166697D01*
X162519193Y13248558D01*
X162460308Y13320308D01*
X162388558Y13379193D01*
X162306697Y13422948D01*
X162217870Y13449893D01*
X162125304Y13459010D01*
X162123678Y13460175D01*
X162123874Y13462165D01*
X162125500Y13463000D01*
X162181860Y13463000D01*
X162182056Y13462990D01*
G37*
G36*
X12802165Y28401126D02*
G01*
X12803000Y28399500D01*
X12803000Y28343140D01*
X12802990Y28342944D01*
X12786295Y28173438D01*
X12786219Y28173053D01*
X12738565Y28015959D01*
X12738415Y28015597D01*
X12661033Y27870826D01*
X12660815Y27870500D01*
X12556674Y27743603D01*
X12556397Y27743326D01*
X12429500Y27639185D01*
X12429174Y27638967D01*
X12284403Y27561585D01*
X12284041Y27561435D01*
X12126947Y27513781D01*
X12126562Y27513705D01*
X11957056Y27497010D01*
X11956860Y27497000D01*
X11900500Y27497000D01*
X11898768Y27498000D01*
X11898768Y27500000D01*
X11900304Y27500990D01*
X12075784Y27518273D01*
X12244337Y27569403D01*
X12399675Y27652433D01*
X12535829Y27764171D01*
X12647567Y27900325D01*
X12730597Y28055663D01*
X12781727Y28224216D01*
X12799010Y28399696D01*
X12800175Y28401322D01*
X12802165Y28401126D01*
G37*
G36*
X9200990Y28399696D02*
G01*
X9218273Y28224216D01*
X9269403Y28055663D01*
X9352433Y27900325D01*
X9464171Y27764171D01*
X9600325Y27652433D01*
X9755663Y27569403D01*
X9924216Y27518273D01*
X10099696Y27500990D01*
X10101322Y27499825D01*
X10101126Y27497835D01*
X10099500Y27497000D01*
X10043140Y27497000D01*
X10042944Y27497010D01*
X9873438Y27513705D01*
X9873053Y27513781D01*
X9715959Y27561435D01*
X9715597Y27561585D01*
X9570826Y27638967D01*
X9570500Y27639185D01*
X9443603Y27743326D01*
X9443326Y27743603D01*
X9339185Y27870500D01*
X9338967Y27870826D01*
X9261585Y28015597D01*
X9261435Y28015959D01*
X9213781Y28173053D01*
X9213705Y28173438D01*
X9197010Y28342944D01*
X9197000Y28343140D01*
X9197000Y28399500D01*
X9198000Y28401232D01*
X9200000Y28401232D01*
X9200990Y28399696D01*
G37*
G36*
X10101232Y31102000D02*
G01*
X10101232Y31100000D01*
X10099696Y31099010D01*
X9924216Y31081727D01*
X9755663Y31030597D01*
X9600325Y30947567D01*
X9464171Y30835829D01*
X9352433Y30699675D01*
X9269403Y30544337D01*
X9218273Y30375784D01*
X9200990Y30200304D01*
X9199825Y30198678D01*
X9197835Y30198874D01*
X9197000Y30200500D01*
X9197000Y30256860D01*
X9197010Y30257056D01*
X9213705Y30426562D01*
X9213781Y30426947D01*
X9261435Y30584041D01*
X9261585Y30584403D01*
X9338967Y30729174D01*
X9339185Y30729500D01*
X9443326Y30856397D01*
X9443603Y30856674D01*
X9570500Y30960815D01*
X9570826Y30961033D01*
X9715597Y31038415D01*
X9715959Y31038565D01*
X9873053Y31086219D01*
X9873438Y31086295D01*
X10042944Y31102990D01*
X10043140Y31103000D01*
X10099500Y31103000D01*
X10101232Y31102000D01*
G37*
G36*
X11957056Y31102990D02*
G01*
X12126562Y31086295D01*
X12126947Y31086219D01*
X12284041Y31038565D01*
X12284403Y31038415D01*
X12429174Y30961033D01*
X12429500Y30960815D01*
X12556397Y30856674D01*
X12556674Y30856397D01*
X12660815Y30729500D01*
X12661033Y30729174D01*
X12738415Y30584403D01*
X12738565Y30584041D01*
X12786219Y30426947D01*
X12786295Y30426562D01*
X12802990Y30257056D01*
X12803000Y30256860D01*
X12803000Y30200500D01*
X12802000Y30198768D01*
X12800000Y30198768D01*
X12799010Y30200304D01*
X12781727Y30375784D01*
X12730597Y30544337D01*
X12647567Y30699675D01*
X12535829Y30835829D01*
X12399675Y30947567D01*
X12244337Y31030597D01*
X12075784Y31081727D01*
X11900304Y31099010D01*
X11898678Y31100175D01*
X11898874Y31102165D01*
X11900500Y31103000D01*
X11956860Y31103000D01*
X11957056Y31102990D01*
G37*
G36*
X6450990Y32974696D02*
G01*
X6465871Y32823602D01*
X6509888Y32678498D01*
X6581366Y32544771D01*
X6677560Y32427560D01*
X6794771Y32331366D01*
X6928498Y32259888D01*
X7073602Y32215871D01*
X7224696Y32200990D01*
X7226322Y32199825D01*
X7226126Y32197835D01*
X7224500Y32197000D01*
X7168140Y32197000D01*
X7167944Y32197010D01*
X7022825Y32211303D01*
X7022440Y32211379D01*
X6888794Y32251920D01*
X6888432Y32252070D01*
X6765273Y32317900D01*
X6764947Y32318118D01*
X6656991Y32406714D01*
X6656714Y32406991D01*
X6568118Y32514947D01*
X6567900Y32515273D01*
X6502070Y32638432D01*
X6501920Y32638794D01*
X6461379Y32772440D01*
X6461303Y32772825D01*
X6447010Y32917944D01*
X6447000Y32918140D01*
X6447000Y32974500D01*
X6448000Y32976232D01*
X6450000Y32976232D01*
X6450990Y32974696D01*
G37*
G36*
X9552165Y32976126D02*
G01*
X9553000Y32974500D01*
X9553000Y32918140D01*
X9552990Y32917944D01*
X9538697Y32772825D01*
X9538621Y32772440D01*
X9498080Y32638794D01*
X9497930Y32638432D01*
X9432100Y32515273D01*
X9431882Y32514947D01*
X9343286Y32406991D01*
X9343009Y32406714D01*
X9235053Y32318118D01*
X9234727Y32317900D01*
X9111568Y32252070D01*
X9111206Y32251920D01*
X8977560Y32211379D01*
X8977175Y32211303D01*
X8832056Y32197010D01*
X8831860Y32197000D01*
X8775500Y32197000D01*
X8773768Y32198000D01*
X8773768Y32200000D01*
X8775304Y32200990D01*
X8926398Y32215871D01*
X9071502Y32259888D01*
X9205229Y32331366D01*
X9322440Y32427560D01*
X9418634Y32544771D01*
X9490112Y32678498D01*
X9534129Y32823602D01*
X9549010Y32974696D01*
X9550175Y32976322D01*
X9552165Y32976126D01*
G37*
G36*
X7226232Y35802000D02*
G01*
X7226232Y35800000D01*
X7224696Y35799010D01*
X7073602Y35784129D01*
X6928498Y35740112D01*
X6794771Y35668634D01*
X6677560Y35572440D01*
X6581366Y35455229D01*
X6509888Y35321502D01*
X6465871Y35176398D01*
X6450990Y35025304D01*
X6449825Y35023678D01*
X6447835Y35023874D01*
X6447000Y35025500D01*
X6447000Y35081860D01*
X6447010Y35082056D01*
X6461303Y35227175D01*
X6461379Y35227560D01*
X6501920Y35361206D01*
X6502070Y35361568D01*
X6567900Y35484727D01*
X6568118Y35485053D01*
X6656714Y35593009D01*
X6656991Y35593286D01*
X6764947Y35681882D01*
X6765273Y35682100D01*
X6888432Y35747930D01*
X6888794Y35748080D01*
X7022440Y35788621D01*
X7022825Y35788697D01*
X7167944Y35802990D01*
X7168140Y35803000D01*
X7224500Y35803000D01*
X7226232Y35802000D01*
G37*
G36*
X8832056Y35802990D02*
G01*
X8977175Y35788697D01*
X8977560Y35788621D01*
X9111206Y35748080D01*
X9111568Y35747930D01*
X9234727Y35682100D01*
X9235053Y35681882D01*
X9343009Y35593286D01*
X9343286Y35593009D01*
X9431882Y35485053D01*
X9432100Y35484727D01*
X9497930Y35361568D01*
X9498080Y35361206D01*
X9538621Y35227560D01*
X9538697Y35227175D01*
X9552990Y35082056D01*
X9553000Y35081860D01*
X9553000Y35025500D01*
X9552000Y35023768D01*
X9550000Y35023768D01*
X9549010Y35025304D01*
X9534129Y35176398D01*
X9490112Y35321502D01*
X9418634Y35455229D01*
X9322440Y35572440D01*
X9205229Y35668634D01*
X9071502Y35740112D01*
X8926398Y35784129D01*
X8775304Y35799010D01*
X8773678Y35800175D01*
X8773874Y35802165D01*
X8775500Y35803000D01*
X8831860Y35803000D01*
X8832056Y35802990D01*
G37*
G36*
X175902165Y40365626D02*
G01*
X175903000Y40364000D01*
X175903000Y40281903D01*
X175902990Y40281707D01*
X175899001Y40241204D01*
X175898925Y40240819D01*
X175888899Y40207767D01*
X175888749Y40207405D01*
X175872472Y40176954D01*
X175872254Y40176628D01*
X175850345Y40149932D01*
X175850068Y40149655D01*
X175823372Y40127746D01*
X175823046Y40127528D01*
X175792595Y40111251D01*
X175792233Y40111101D01*
X175759181Y40101075D01*
X175758796Y40100999D01*
X175718293Y40097010D01*
X175718097Y40097000D01*
X175636000Y40097000D01*
X175634268Y40098000D01*
X175634268Y40100000D01*
X175635804Y40100990D01*
X175687304Y40106062D01*
X175736642Y40121029D01*
X175782110Y40145332D01*
X175821962Y40178038D01*
X175854668Y40217890D01*
X175878971Y40263358D01*
X175893938Y40312696D01*
X175899010Y40364196D01*
X175900175Y40365822D01*
X175902165Y40365626D01*
G37*
G36*
X174100990Y40364196D02*
G01*
X174106062Y40312696D01*
X174121029Y40263358D01*
X174145332Y40217890D01*
X174178038Y40178038D01*
X174217890Y40145332D01*
X174263358Y40121029D01*
X174312696Y40106062D01*
X174364196Y40100990D01*
X174365822Y40099825D01*
X174365626Y40097835D01*
X174364000Y40097000D01*
X174281903Y40097000D01*
X174281707Y40097010D01*
X174241204Y40100999D01*
X174240819Y40101075D01*
X174207767Y40111101D01*
X174207405Y40111251D01*
X174176954Y40127528D01*
X174176628Y40127746D01*
X174149932Y40149655D01*
X174149655Y40149932D01*
X174127746Y40176628D01*
X174127528Y40176954D01*
X174111251Y40207405D01*
X174111101Y40207767D01*
X174101075Y40240819D01*
X174100999Y40241204D01*
X174097010Y40281707D01*
X174097000Y40281903D01*
X174097000Y40364000D01*
X174098000Y40365732D01*
X174100000Y40365732D01*
X174100990Y40364196D01*
G37*
G36*
X174365732Y41902000D02*
G01*
X174365732Y41900000D01*
X174364196Y41899010D01*
X174312696Y41893938D01*
X174263358Y41878971D01*
X174217890Y41854668D01*
X174178038Y41821962D01*
X174145332Y41782110D01*
X174121029Y41736642D01*
X174106062Y41687304D01*
X174100990Y41635804D01*
X174099825Y41634178D01*
X174097835Y41634374D01*
X174097000Y41636000D01*
X174097000Y41718097D01*
X174097010Y41718293D01*
X174100999Y41758796D01*
X174101075Y41759181D01*
X174111101Y41792233D01*
X174111251Y41792595D01*
X174127528Y41823046D01*
X174127746Y41823372D01*
X174149655Y41850068D01*
X174149932Y41850345D01*
X174176628Y41872254D01*
X174176954Y41872472D01*
X174207405Y41888749D01*
X174207767Y41888899D01*
X174240819Y41898925D01*
X174241204Y41899001D01*
X174281707Y41902990D01*
X174281903Y41903000D01*
X174364000Y41903000D01*
X174365732Y41902000D01*
G37*
G36*
X175718293Y41902990D02*
G01*
X175758796Y41899001D01*
X175759181Y41898925D01*
X175792233Y41888899D01*
X175792595Y41888749D01*
X175823046Y41872472D01*
X175823372Y41872254D01*
X175850068Y41850345D01*
X175850345Y41850068D01*
X175872254Y41823372D01*
X175872472Y41823046D01*
X175888749Y41792595D01*
X175888899Y41792233D01*
X175898925Y41759181D01*
X175899001Y41758796D01*
X175902990Y41718293D01*
X175903000Y41718097D01*
X175903000Y41636000D01*
X175902000Y41634268D01*
X175900000Y41634268D01*
X175899010Y41635804D01*
X175893938Y41687304D01*
X175878971Y41736642D01*
X175854668Y41782110D01*
X175821962Y41821962D01*
X175782110Y41854668D01*
X175736642Y41878971D01*
X175687304Y41893938D01*
X175635804Y41899010D01*
X175634178Y41900175D01*
X175634374Y41902165D01*
X175636000Y41903000D01*
X175718097Y41903000D01*
X175718293Y41902990D01*
G37*
G36*
X174100990Y69364196D02*
G01*
X174106062Y69312696D01*
X174121029Y69263358D01*
X174145332Y69217890D01*
X174178038Y69178038D01*
X174217890Y69145332D01*
X174263358Y69121029D01*
X174312696Y69106062D01*
X174364196Y69100990D01*
X174365822Y69099825D01*
X174365626Y69097835D01*
X174364000Y69097000D01*
X174281903Y69097000D01*
X174281707Y69097010D01*
X174241204Y69100999D01*
X174240819Y69101075D01*
X174207767Y69111101D01*
X174207405Y69111251D01*
X174176954Y69127528D01*
X174176628Y69127746D01*
X174149932Y69149655D01*
X174149655Y69149932D01*
X174127746Y69176628D01*
X174127528Y69176954D01*
X174111251Y69207405D01*
X174111101Y69207767D01*
X174101075Y69240819D01*
X174100999Y69241204D01*
X174097010Y69281707D01*
X174097000Y69281903D01*
X174097000Y69364000D01*
X174098000Y69365732D01*
X174100000Y69365732D01*
X174100990Y69364196D01*
G37*
G36*
X175902165Y69365626D02*
G01*
X175903000Y69364000D01*
X175903000Y69281903D01*
X175902990Y69281707D01*
X175899001Y69241204D01*
X175898925Y69240819D01*
X175888899Y69207767D01*
X175888749Y69207405D01*
X175872472Y69176954D01*
X175872254Y69176628D01*
X175850345Y69149932D01*
X175850068Y69149655D01*
X175823372Y69127746D01*
X175823046Y69127528D01*
X175792595Y69111251D01*
X175792233Y69111101D01*
X175759181Y69101075D01*
X175758796Y69100999D01*
X175718293Y69097010D01*
X175718097Y69097000D01*
X175636000Y69097000D01*
X175634268Y69098000D01*
X175634268Y69100000D01*
X175635804Y69100990D01*
X175687304Y69106062D01*
X175736642Y69121029D01*
X175782110Y69145332D01*
X175821962Y69178038D01*
X175854668Y69217890D01*
X175878971Y69263358D01*
X175893938Y69312696D01*
X175899010Y69364196D01*
X175900175Y69365822D01*
X175902165Y69365626D01*
G37*
G36*
X174365732Y70902000D02*
G01*
X174365732Y70900000D01*
X174364196Y70899010D01*
X174312696Y70893938D01*
X174263358Y70878971D01*
X174217890Y70854668D01*
X174178038Y70821962D01*
X174145332Y70782110D01*
X174121029Y70736642D01*
X174106062Y70687304D01*
X174100990Y70635804D01*
X174099825Y70634178D01*
X174097835Y70634374D01*
X174097000Y70636000D01*
X174097000Y70718097D01*
X174097010Y70718293D01*
X174100999Y70758796D01*
X174101075Y70759181D01*
X174111101Y70792233D01*
X174111251Y70792595D01*
X174127528Y70823046D01*
X174127746Y70823372D01*
X174149655Y70850068D01*
X174149932Y70850345D01*
X174176628Y70872254D01*
X174176954Y70872472D01*
X174207405Y70888749D01*
X174207767Y70888899D01*
X174240819Y70898925D01*
X174241204Y70899001D01*
X174281707Y70902990D01*
X174281903Y70903000D01*
X174364000Y70903000D01*
X174365732Y70902000D01*
G37*
G36*
X175718293Y70902990D02*
G01*
X175758796Y70899001D01*
X175759181Y70898925D01*
X175792233Y70888899D01*
X175792595Y70888749D01*
X175823046Y70872472D01*
X175823372Y70872254D01*
X175850068Y70850345D01*
X175850345Y70850068D01*
X175872254Y70823372D01*
X175872472Y70823046D01*
X175888749Y70792595D01*
X175888899Y70792233D01*
X175898925Y70759181D01*
X175899001Y70758796D01*
X175902990Y70718293D01*
X175903000Y70718097D01*
X175903000Y70636000D01*
X175902000Y70634268D01*
X175900000Y70634268D01*
X175899010Y70635804D01*
X175893938Y70687304D01*
X175878971Y70736642D01*
X175854668Y70782110D01*
X175821962Y70821962D01*
X175782110Y70854668D01*
X175736642Y70878971D01*
X175687304Y70893938D01*
X175635804Y70899010D01*
X175634178Y70900175D01*
X175634374Y70902165D01*
X175636000Y70903000D01*
X175718097Y70903000D01*
X175718293Y70902990D01*
G37*
G36*
X97100990Y123364196D02*
G01*
X97106062Y123312696D01*
X97121029Y123263358D01*
X97145332Y123217890D01*
X97178038Y123178038D01*
X97217890Y123145332D01*
X97263358Y123121029D01*
X97312696Y123106062D01*
X97364196Y123100990D01*
X97365822Y123099825D01*
X97365626Y123097835D01*
X97364000Y123097000D01*
X97281903Y123097000D01*
X97281707Y123097010D01*
X97241204Y123100999D01*
X97240819Y123101075D01*
X97207767Y123111101D01*
X97207405Y123111251D01*
X97176954Y123127528D01*
X97176628Y123127746D01*
X97149932Y123149655D01*
X97149655Y123149932D01*
X97127746Y123176628D01*
X97127528Y123176954D01*
X97111251Y123207405D01*
X97111101Y123207767D01*
X97101075Y123240819D01*
X97100999Y123241204D01*
X97097010Y123281707D01*
X97097000Y123281903D01*
X97097000Y123364000D01*
X97098000Y123365732D01*
X97100000Y123365732D01*
X97100990Y123364196D01*
G37*
G36*
X17902165Y123365626D02*
G01*
X17903000Y123364000D01*
X17903000Y123281903D01*
X17902990Y123281707D01*
X17899001Y123241204D01*
X17898925Y123240819D01*
X17888899Y123207767D01*
X17888749Y123207405D01*
X17872472Y123176954D01*
X17872254Y123176628D01*
X17850345Y123149932D01*
X17850068Y123149655D01*
X17823372Y123127746D01*
X17823046Y123127528D01*
X17792595Y123111251D01*
X17792233Y123111101D01*
X17759181Y123101075D01*
X17758796Y123100999D01*
X17718293Y123097010D01*
X17718097Y123097000D01*
X17636000Y123097000D01*
X17634268Y123098000D01*
X17634268Y123100000D01*
X17635804Y123100990D01*
X17687304Y123106062D01*
X17736642Y123121029D01*
X17782110Y123145332D01*
X17821962Y123178038D01*
X17854668Y123217890D01*
X17878971Y123263358D01*
X17893938Y123312696D01*
X17899010Y123364196D01*
X17900175Y123365822D01*
X17902165Y123365626D01*
G37*
G36*
X63100990Y123364196D02*
G01*
X63106062Y123312696D01*
X63121029Y123263358D01*
X63145332Y123217890D01*
X63178038Y123178038D01*
X63217890Y123145332D01*
X63263358Y123121029D01*
X63312696Y123106062D01*
X63364196Y123100990D01*
X63365822Y123099825D01*
X63365626Y123097835D01*
X63364000Y123097000D01*
X63281903Y123097000D01*
X63281707Y123097010D01*
X63241204Y123100999D01*
X63240819Y123101075D01*
X63207767Y123111101D01*
X63207405Y123111251D01*
X63176954Y123127528D01*
X63176628Y123127746D01*
X63149932Y123149655D01*
X63149655Y123149932D01*
X63127746Y123176628D01*
X63127528Y123176954D01*
X63111251Y123207405D01*
X63111101Y123207767D01*
X63101075Y123240819D01*
X63100999Y123241204D01*
X63097010Y123281707D01*
X63097000Y123281903D01*
X63097000Y123364000D01*
X63098000Y123365732D01*
X63100000Y123365732D01*
X63100990Y123364196D01*
G37*
G36*
X34902165Y123365626D02*
G01*
X34903000Y123364000D01*
X34903000Y123281903D01*
X34902990Y123281707D01*
X34899001Y123241204D01*
X34898925Y123240819D01*
X34888899Y123207767D01*
X34888749Y123207405D01*
X34872472Y123176954D01*
X34872254Y123176628D01*
X34850345Y123149932D01*
X34850068Y123149655D01*
X34823372Y123127746D01*
X34823046Y123127528D01*
X34792595Y123111251D01*
X34792233Y123111101D01*
X34759181Y123101075D01*
X34758796Y123100999D01*
X34718293Y123097010D01*
X34718097Y123097000D01*
X34636000Y123097000D01*
X34634268Y123098000D01*
X34634268Y123100000D01*
X34635804Y123100990D01*
X34687304Y123106062D01*
X34736642Y123121029D01*
X34782110Y123145332D01*
X34821962Y123178038D01*
X34854668Y123217890D01*
X34878971Y123263358D01*
X34893938Y123312696D01*
X34899010Y123364196D01*
X34900175Y123365822D01*
X34902165Y123365626D01*
G37*
G36*
X16100990Y123364196D02*
G01*
X16106062Y123312696D01*
X16121029Y123263358D01*
X16145332Y123217890D01*
X16178038Y123178038D01*
X16217890Y123145332D01*
X16263358Y123121029D01*
X16312696Y123106062D01*
X16364196Y123100990D01*
X16365822Y123099825D01*
X16365626Y123097835D01*
X16364000Y123097000D01*
X16281903Y123097000D01*
X16281707Y123097010D01*
X16241204Y123100999D01*
X16240819Y123101075D01*
X16207767Y123111101D01*
X16207405Y123111251D01*
X16176954Y123127528D01*
X16176628Y123127746D01*
X16149932Y123149655D01*
X16149655Y123149932D01*
X16127746Y123176628D01*
X16127528Y123176954D01*
X16111251Y123207405D01*
X16111101Y123207767D01*
X16101075Y123240819D01*
X16100999Y123241204D01*
X16097010Y123281707D01*
X16097000Y123281903D01*
X16097000Y123364000D01*
X16098000Y123365732D01*
X16100000Y123365732D01*
X16100990Y123364196D01*
G37*
G36*
X64902165Y123365626D02*
G01*
X64903000Y123364000D01*
X64903000Y123281903D01*
X64902990Y123281707D01*
X64899001Y123241204D01*
X64898925Y123240819D01*
X64888899Y123207767D01*
X64888749Y123207405D01*
X64872472Y123176954D01*
X64872254Y123176628D01*
X64850345Y123149932D01*
X64850068Y123149655D01*
X64823372Y123127746D01*
X64823046Y123127528D01*
X64792595Y123111251D01*
X64792233Y123111101D01*
X64759181Y123101075D01*
X64758796Y123100999D01*
X64718293Y123097010D01*
X64718097Y123097000D01*
X64636000Y123097000D01*
X64634268Y123098000D01*
X64634268Y123100000D01*
X64635804Y123100990D01*
X64687304Y123106062D01*
X64736642Y123121029D01*
X64782110Y123145332D01*
X64821962Y123178038D01*
X64854668Y123217890D01*
X64878971Y123263358D01*
X64893938Y123312696D01*
X64899010Y123364196D01*
X64900175Y123365822D01*
X64902165Y123365626D01*
G37*
G36*
X81902165Y123365626D02*
G01*
X81903000Y123364000D01*
X81903000Y123281903D01*
X81902990Y123281707D01*
X81899001Y123241204D01*
X81898925Y123240819D01*
X81888899Y123207767D01*
X81888749Y123207405D01*
X81872472Y123176954D01*
X81872254Y123176628D01*
X81850345Y123149932D01*
X81850068Y123149655D01*
X81823372Y123127746D01*
X81823046Y123127528D01*
X81792595Y123111251D01*
X81792233Y123111101D01*
X81759181Y123101075D01*
X81758796Y123100999D01*
X81718293Y123097010D01*
X81718097Y123097000D01*
X81636000Y123097000D01*
X81634268Y123098000D01*
X81634268Y123100000D01*
X81635804Y123100990D01*
X81687304Y123106062D01*
X81736642Y123121029D01*
X81782110Y123145332D01*
X81821962Y123178038D01*
X81854668Y123217890D01*
X81878971Y123263358D01*
X81893938Y123312696D01*
X81899010Y123364196D01*
X81900175Y123365822D01*
X81902165Y123365626D01*
G37*
G36*
X98902165Y123365626D02*
G01*
X98903000Y123364000D01*
X98903000Y123281903D01*
X98902990Y123281707D01*
X98899001Y123241204D01*
X98898925Y123240819D01*
X98888899Y123207767D01*
X98888749Y123207405D01*
X98872472Y123176954D01*
X98872254Y123176628D01*
X98850345Y123149932D01*
X98850068Y123149655D01*
X98823372Y123127746D01*
X98823046Y123127528D01*
X98792595Y123111251D01*
X98792233Y123111101D01*
X98759181Y123101075D01*
X98758796Y123100999D01*
X98718293Y123097010D01*
X98718097Y123097000D01*
X98636000Y123097000D01*
X98634268Y123098000D01*
X98634268Y123100000D01*
X98635804Y123100990D01*
X98687304Y123106062D01*
X98736642Y123121029D01*
X98782110Y123145332D01*
X98821962Y123178038D01*
X98854668Y123217890D01*
X98878971Y123263358D01*
X98893938Y123312696D01*
X98899010Y123364196D01*
X98900175Y123365822D01*
X98902165Y123365626D01*
G37*
G36*
X128902165Y123365626D02*
G01*
X128903000Y123364000D01*
X128903000Y123281903D01*
X128902990Y123281707D01*
X128899001Y123241204D01*
X128898925Y123240819D01*
X128888899Y123207767D01*
X128888749Y123207405D01*
X128872472Y123176954D01*
X128872254Y123176628D01*
X128850345Y123149932D01*
X128850068Y123149655D01*
X128823372Y123127746D01*
X128823046Y123127528D01*
X128792595Y123111251D01*
X128792233Y123111101D01*
X128759181Y123101075D01*
X128758796Y123100999D01*
X128718293Y123097010D01*
X128718097Y123097000D01*
X128636000Y123097000D01*
X128634268Y123098000D01*
X128634268Y123100000D01*
X128635804Y123100990D01*
X128687304Y123106062D01*
X128736642Y123121029D01*
X128782110Y123145332D01*
X128821962Y123178038D01*
X128854668Y123217890D01*
X128878971Y123263358D01*
X128893938Y123312696D01*
X128899010Y123364196D01*
X128900175Y123365822D01*
X128902165Y123365626D01*
G37*
G36*
X148902165Y123365626D02*
G01*
X148903000Y123364000D01*
X148903000Y123281903D01*
X148902990Y123281707D01*
X148899001Y123241204D01*
X148898925Y123240819D01*
X148888899Y123207767D01*
X148888749Y123207405D01*
X148872472Y123176954D01*
X148872254Y123176628D01*
X148850345Y123149932D01*
X148850068Y123149655D01*
X148823372Y123127746D01*
X148823046Y123127528D01*
X148792595Y123111251D01*
X148792233Y123111101D01*
X148759181Y123101075D01*
X148758796Y123100999D01*
X148718293Y123097010D01*
X148718097Y123097000D01*
X148636000Y123097000D01*
X148634268Y123098000D01*
X148634268Y123100000D01*
X148635804Y123100990D01*
X148687304Y123106062D01*
X148736642Y123121029D01*
X148782110Y123145332D01*
X148821962Y123178038D01*
X148854668Y123217890D01*
X148878971Y123263358D01*
X148893938Y123312696D01*
X148899010Y123364196D01*
X148900175Y123365822D01*
X148902165Y123365626D01*
G37*
G36*
X168902165Y123365626D02*
G01*
X168903000Y123364000D01*
X168903000Y123281903D01*
X168902990Y123281707D01*
X168899001Y123241204D01*
X168898925Y123240819D01*
X168888899Y123207767D01*
X168888749Y123207405D01*
X168872472Y123176954D01*
X168872254Y123176628D01*
X168850345Y123149932D01*
X168850068Y123149655D01*
X168823372Y123127746D01*
X168823046Y123127528D01*
X168792595Y123111251D01*
X168792233Y123111101D01*
X168759181Y123101075D01*
X168758796Y123100999D01*
X168718293Y123097010D01*
X168718097Y123097000D01*
X168636000Y123097000D01*
X168634268Y123098000D01*
X168634268Y123100000D01*
X168635804Y123100990D01*
X168687304Y123106062D01*
X168736642Y123121029D01*
X168782110Y123145332D01*
X168821962Y123178038D01*
X168854668Y123217890D01*
X168878971Y123263358D01*
X168893938Y123312696D01*
X168899010Y123364196D01*
X168900175Y123365822D01*
X168902165Y123365626D01*
G37*
G36*
X80100990Y123364196D02*
G01*
X80106062Y123312696D01*
X80121029Y123263358D01*
X80145332Y123217890D01*
X80178038Y123178038D01*
X80217890Y123145332D01*
X80263358Y123121029D01*
X80312696Y123106062D01*
X80364196Y123100990D01*
X80365822Y123099825D01*
X80365626Y123097835D01*
X80364000Y123097000D01*
X80281903Y123097000D01*
X80281707Y123097010D01*
X80241204Y123100999D01*
X80240819Y123101075D01*
X80207767Y123111101D01*
X80207405Y123111251D01*
X80176954Y123127528D01*
X80176628Y123127746D01*
X80149932Y123149655D01*
X80149655Y123149932D01*
X80127746Y123176628D01*
X80127528Y123176954D01*
X80111251Y123207405D01*
X80111101Y123207767D01*
X80101075Y123240819D01*
X80100999Y123241204D01*
X80097010Y123281707D01*
X80097000Y123281903D01*
X80097000Y123364000D01*
X80098000Y123365732D01*
X80100000Y123365732D01*
X80100990Y123364196D01*
G37*
G36*
X127100990Y123364196D02*
G01*
X127106062Y123312696D01*
X127121029Y123263358D01*
X127145332Y123217890D01*
X127178038Y123178038D01*
X127217890Y123145332D01*
X127263358Y123121029D01*
X127312696Y123106062D01*
X127364196Y123100990D01*
X127365822Y123099825D01*
X127365626Y123097835D01*
X127364000Y123097000D01*
X127281903Y123097000D01*
X127281707Y123097010D01*
X127241204Y123100999D01*
X127240819Y123101075D01*
X127207767Y123111101D01*
X127207405Y123111251D01*
X127176954Y123127528D01*
X127176628Y123127746D01*
X127149932Y123149655D01*
X127149655Y123149932D01*
X127127746Y123176628D01*
X127127528Y123176954D01*
X127111251Y123207405D01*
X127111101Y123207767D01*
X127101075Y123240819D01*
X127100999Y123241204D01*
X127097010Y123281707D01*
X127097000Y123281903D01*
X127097000Y123364000D01*
X127098000Y123365732D01*
X127100000Y123365732D01*
X127100990Y123364196D01*
G37*
G36*
X167100990Y123364196D02*
G01*
X167106062Y123312696D01*
X167121029Y123263358D01*
X167145332Y123217890D01*
X167178038Y123178038D01*
X167217890Y123145332D01*
X167263358Y123121029D01*
X167312696Y123106062D01*
X167364196Y123100990D01*
X167365822Y123099825D01*
X167365626Y123097835D01*
X167364000Y123097000D01*
X167281903Y123097000D01*
X167281707Y123097010D01*
X167241204Y123100999D01*
X167240819Y123101075D01*
X167207767Y123111101D01*
X167207405Y123111251D01*
X167176954Y123127528D01*
X167176628Y123127746D01*
X167149932Y123149655D01*
X167149655Y123149932D01*
X167127746Y123176628D01*
X167127528Y123176954D01*
X167111251Y123207405D01*
X167111101Y123207767D01*
X167101075Y123240819D01*
X167100999Y123241204D01*
X167097010Y123281707D01*
X167097000Y123281903D01*
X167097000Y123364000D01*
X167098000Y123365732D01*
X167100000Y123365732D01*
X167100990Y123364196D01*
G37*
G36*
X147100990Y123364196D02*
G01*
X147106062Y123312696D01*
X147121029Y123263358D01*
X147145332Y123217890D01*
X147178038Y123178038D01*
X147217890Y123145332D01*
X147263358Y123121029D01*
X147312696Y123106062D01*
X147364196Y123100990D01*
X147365822Y123099825D01*
X147365626Y123097835D01*
X147364000Y123097000D01*
X147281903Y123097000D01*
X147281707Y123097010D01*
X147241204Y123100999D01*
X147240819Y123101075D01*
X147207767Y123111101D01*
X147207405Y123111251D01*
X147176954Y123127528D01*
X147176628Y123127746D01*
X147149932Y123149655D01*
X147149655Y123149932D01*
X147127746Y123176628D01*
X147127528Y123176954D01*
X147111251Y123207405D01*
X147111101Y123207767D01*
X147101075Y123240819D01*
X147100999Y123241204D01*
X147097010Y123281707D01*
X147097000Y123281903D01*
X147097000Y123364000D01*
X147098000Y123365732D01*
X147100000Y123365732D01*
X147100990Y123364196D01*
G37*
G36*
X33100990Y123364196D02*
G01*
X33106062Y123312696D01*
X33121029Y123263358D01*
X33145332Y123217890D01*
X33178038Y123178038D01*
X33217890Y123145332D01*
X33263358Y123121029D01*
X33312696Y123106062D01*
X33364196Y123100990D01*
X33365822Y123099825D01*
X33365626Y123097835D01*
X33364000Y123097000D01*
X33281903Y123097000D01*
X33281707Y123097010D01*
X33241204Y123100999D01*
X33240819Y123101075D01*
X33207767Y123111101D01*
X33207405Y123111251D01*
X33176954Y123127528D01*
X33176628Y123127746D01*
X33149932Y123149655D01*
X33149655Y123149932D01*
X33127746Y123176628D01*
X33127528Y123176954D01*
X33111251Y123207405D01*
X33111101Y123207767D01*
X33101075Y123240819D01*
X33100999Y123241204D01*
X33097010Y123281707D01*
X33097000Y123281903D01*
X33097000Y123364000D01*
X33098000Y123365732D01*
X33100000Y123365732D01*
X33100990Y123364196D01*
G37*
G36*
X97365732Y124902000D02*
G01*
X97365732Y124900000D01*
X97364196Y124899010D01*
X97312696Y124893938D01*
X97263358Y124878971D01*
X97217890Y124854668D01*
X97178038Y124821962D01*
X97145332Y124782110D01*
X97121029Y124736642D01*
X97106062Y124687304D01*
X97100990Y124635804D01*
X97099825Y124634178D01*
X97097835Y124634374D01*
X97097000Y124636000D01*
X97097000Y124718097D01*
X97097010Y124718293D01*
X97100999Y124758796D01*
X97101075Y124759181D01*
X97111101Y124792233D01*
X97111251Y124792595D01*
X97127528Y124823046D01*
X97127746Y124823372D01*
X97149655Y124850068D01*
X97149932Y124850345D01*
X97176628Y124872254D01*
X97176954Y124872472D01*
X97207405Y124888749D01*
X97207767Y124888899D01*
X97240819Y124898925D01*
X97241204Y124899001D01*
X97281707Y124902990D01*
X97281903Y124903000D01*
X97364000Y124903000D01*
X97365732Y124902000D01*
G37*
G36*
X167365732Y124902000D02*
G01*
X167365732Y124900000D01*
X167364196Y124899010D01*
X167312696Y124893938D01*
X167263358Y124878971D01*
X167217890Y124854668D01*
X167178038Y124821962D01*
X167145332Y124782110D01*
X167121029Y124736642D01*
X167106062Y124687304D01*
X167100990Y124635804D01*
X167099825Y124634178D01*
X167097835Y124634374D01*
X167097000Y124636000D01*
X167097000Y124718097D01*
X167097010Y124718293D01*
X167100999Y124758796D01*
X167101075Y124759181D01*
X167111101Y124792233D01*
X167111251Y124792595D01*
X167127528Y124823046D01*
X167127746Y124823372D01*
X167149655Y124850068D01*
X167149932Y124850345D01*
X167176628Y124872254D01*
X167176954Y124872472D01*
X167207405Y124888749D01*
X167207767Y124888899D01*
X167240819Y124898925D01*
X167241204Y124899001D01*
X167281707Y124902990D01*
X167281903Y124903000D01*
X167364000Y124903000D01*
X167365732Y124902000D01*
G37*
G36*
X147365732Y124902000D02*
G01*
X147365732Y124900000D01*
X147364196Y124899010D01*
X147312696Y124893938D01*
X147263358Y124878971D01*
X147217890Y124854668D01*
X147178038Y124821962D01*
X147145332Y124782110D01*
X147121029Y124736642D01*
X147106062Y124687304D01*
X147100990Y124635804D01*
X147099825Y124634178D01*
X147097835Y124634374D01*
X147097000Y124636000D01*
X147097000Y124718097D01*
X147097010Y124718293D01*
X147100999Y124758796D01*
X147101075Y124759181D01*
X147111101Y124792233D01*
X147111251Y124792595D01*
X147127528Y124823046D01*
X147127746Y124823372D01*
X147149655Y124850068D01*
X147149932Y124850345D01*
X147176628Y124872254D01*
X147176954Y124872472D01*
X147207405Y124888749D01*
X147207767Y124888899D01*
X147240819Y124898925D01*
X147241204Y124899001D01*
X147281707Y124902990D01*
X147281903Y124903000D01*
X147364000Y124903000D01*
X147365732Y124902000D01*
G37*
G36*
X127365732Y124902000D02*
G01*
X127365732Y124900000D01*
X127364196Y124899010D01*
X127312696Y124893938D01*
X127263358Y124878971D01*
X127217890Y124854668D01*
X127178038Y124821962D01*
X127145332Y124782110D01*
X127121029Y124736642D01*
X127106062Y124687304D01*
X127100990Y124635804D01*
X127099825Y124634178D01*
X127097835Y124634374D01*
X127097000Y124636000D01*
X127097000Y124718097D01*
X127097010Y124718293D01*
X127100999Y124758796D01*
X127101075Y124759181D01*
X127111101Y124792233D01*
X127111251Y124792595D01*
X127127528Y124823046D01*
X127127746Y124823372D01*
X127149655Y124850068D01*
X127149932Y124850345D01*
X127176628Y124872254D01*
X127176954Y124872472D01*
X127207405Y124888749D01*
X127207767Y124888899D01*
X127240819Y124898925D01*
X127241204Y124899001D01*
X127281707Y124902990D01*
X127281903Y124903000D01*
X127364000Y124903000D01*
X127365732Y124902000D01*
G37*
G36*
X80365732Y124902000D02*
G01*
X80365732Y124900000D01*
X80364196Y124899010D01*
X80312696Y124893938D01*
X80263358Y124878971D01*
X80217890Y124854668D01*
X80178038Y124821962D01*
X80145332Y124782110D01*
X80121029Y124736642D01*
X80106062Y124687304D01*
X80100990Y124635804D01*
X80099825Y124634178D01*
X80097835Y124634374D01*
X80097000Y124636000D01*
X80097000Y124718097D01*
X80097010Y124718293D01*
X80100999Y124758796D01*
X80101075Y124759181D01*
X80111101Y124792233D01*
X80111251Y124792595D01*
X80127528Y124823046D01*
X80127746Y124823372D01*
X80149655Y124850068D01*
X80149932Y124850345D01*
X80176628Y124872254D01*
X80176954Y124872472D01*
X80207405Y124888749D01*
X80207767Y124888899D01*
X80240819Y124898925D01*
X80241204Y124899001D01*
X80281707Y124902990D01*
X80281903Y124903000D01*
X80364000Y124903000D01*
X80365732Y124902000D01*
G37*
G36*
X63365732Y124902000D02*
G01*
X63365732Y124900000D01*
X63364196Y124899010D01*
X63312696Y124893938D01*
X63263358Y124878971D01*
X63217890Y124854668D01*
X63178038Y124821962D01*
X63145332Y124782110D01*
X63121029Y124736642D01*
X63106062Y124687304D01*
X63100990Y124635804D01*
X63099825Y124634178D01*
X63097835Y124634374D01*
X63097000Y124636000D01*
X63097000Y124718097D01*
X63097010Y124718293D01*
X63100999Y124758796D01*
X63101075Y124759181D01*
X63111101Y124792233D01*
X63111251Y124792595D01*
X63127528Y124823046D01*
X63127746Y124823372D01*
X63149655Y124850068D01*
X63149932Y124850345D01*
X63176628Y124872254D01*
X63176954Y124872472D01*
X63207405Y124888749D01*
X63207767Y124888899D01*
X63240819Y124898925D01*
X63241204Y124899001D01*
X63281707Y124902990D01*
X63281903Y124903000D01*
X63364000Y124903000D01*
X63365732Y124902000D01*
G37*
G36*
X33365732Y124902000D02*
G01*
X33365732Y124900000D01*
X33364196Y124899010D01*
X33312696Y124893938D01*
X33263358Y124878971D01*
X33217890Y124854668D01*
X33178038Y124821962D01*
X33145332Y124782110D01*
X33121029Y124736642D01*
X33106062Y124687304D01*
X33100990Y124635804D01*
X33099825Y124634178D01*
X33097835Y124634374D01*
X33097000Y124636000D01*
X33097000Y124718097D01*
X33097010Y124718293D01*
X33100999Y124758796D01*
X33101075Y124759181D01*
X33111101Y124792233D01*
X33111251Y124792595D01*
X33127528Y124823046D01*
X33127746Y124823372D01*
X33149655Y124850068D01*
X33149932Y124850345D01*
X33176628Y124872254D01*
X33176954Y124872472D01*
X33207405Y124888749D01*
X33207767Y124888899D01*
X33240819Y124898925D01*
X33241204Y124899001D01*
X33281707Y124902990D01*
X33281903Y124903000D01*
X33364000Y124903000D01*
X33365732Y124902000D01*
G37*
G36*
X16365732Y124902000D02*
G01*
X16365732Y124900000D01*
X16364196Y124899010D01*
X16312696Y124893938D01*
X16263358Y124878971D01*
X16217890Y124854668D01*
X16178038Y124821962D01*
X16145332Y124782110D01*
X16121029Y124736642D01*
X16106062Y124687304D01*
X16100990Y124635804D01*
X16099825Y124634178D01*
X16097835Y124634374D01*
X16097000Y124636000D01*
X16097000Y124718097D01*
X16097010Y124718293D01*
X16100999Y124758796D01*
X16101075Y124759181D01*
X16111101Y124792233D01*
X16111251Y124792595D01*
X16127528Y124823046D01*
X16127746Y124823372D01*
X16149655Y124850068D01*
X16149932Y124850345D01*
X16176628Y124872254D01*
X16176954Y124872472D01*
X16207405Y124888749D01*
X16207767Y124888899D01*
X16240819Y124898925D01*
X16241204Y124899001D01*
X16281707Y124902990D01*
X16281903Y124903000D01*
X16364000Y124903000D01*
X16365732Y124902000D01*
G37*
G36*
X98718293Y124902990D02*
G01*
X98758796Y124899001D01*
X98759181Y124898925D01*
X98792233Y124888899D01*
X98792595Y124888749D01*
X98823046Y124872472D01*
X98823372Y124872254D01*
X98850068Y124850345D01*
X98850345Y124850068D01*
X98872254Y124823372D01*
X98872472Y124823046D01*
X98888749Y124792595D01*
X98888899Y124792233D01*
X98898925Y124759181D01*
X98899001Y124758796D01*
X98902990Y124718293D01*
X98903000Y124718097D01*
X98903000Y124636000D01*
X98902000Y124634268D01*
X98900000Y124634268D01*
X98899010Y124635804D01*
X98893938Y124687304D01*
X98878971Y124736642D01*
X98854668Y124782110D01*
X98821962Y124821962D01*
X98782110Y124854668D01*
X98736642Y124878971D01*
X98687304Y124893938D01*
X98635804Y124899010D01*
X98634178Y124900175D01*
X98634374Y124902165D01*
X98636000Y124903000D01*
X98718097Y124903000D01*
X98718293Y124902990D01*
G37*
G36*
X148718293Y124902990D02*
G01*
X148758796Y124899001D01*
X148759181Y124898925D01*
X148792233Y124888899D01*
X148792595Y124888749D01*
X148823046Y124872472D01*
X148823372Y124872254D01*
X148850068Y124850345D01*
X148850345Y124850068D01*
X148872254Y124823372D01*
X148872472Y124823046D01*
X148888749Y124792595D01*
X148888899Y124792233D01*
X148898925Y124759181D01*
X148899001Y124758796D01*
X148902990Y124718293D01*
X148903000Y124718097D01*
X148903000Y124636000D01*
X148902000Y124634268D01*
X148900000Y124634268D01*
X148899010Y124635804D01*
X148893938Y124687304D01*
X148878971Y124736642D01*
X148854668Y124782110D01*
X148821962Y124821962D01*
X148782110Y124854668D01*
X148736642Y124878971D01*
X148687304Y124893938D01*
X148635804Y124899010D01*
X148634178Y124900175D01*
X148634374Y124902165D01*
X148636000Y124903000D01*
X148718097Y124903000D01*
X148718293Y124902990D01*
G37*
G36*
X168718293Y124902990D02*
G01*
X168758796Y124899001D01*
X168759181Y124898925D01*
X168792233Y124888899D01*
X168792595Y124888749D01*
X168823046Y124872472D01*
X168823372Y124872254D01*
X168850068Y124850345D01*
X168850345Y124850068D01*
X168872254Y124823372D01*
X168872472Y124823046D01*
X168888749Y124792595D01*
X168888899Y124792233D01*
X168898925Y124759181D01*
X168899001Y124758796D01*
X168902990Y124718293D01*
X168903000Y124718097D01*
X168903000Y124636000D01*
X168902000Y124634268D01*
X168900000Y124634268D01*
X168899010Y124635804D01*
X168893938Y124687304D01*
X168878971Y124736642D01*
X168854668Y124782110D01*
X168821962Y124821962D01*
X168782110Y124854668D01*
X168736642Y124878971D01*
X168687304Y124893938D01*
X168635804Y124899010D01*
X168634178Y124900175D01*
X168634374Y124902165D01*
X168636000Y124903000D01*
X168718097Y124903000D01*
X168718293Y124902990D01*
G37*
G36*
X34718293Y124902990D02*
G01*
X34758796Y124899001D01*
X34759181Y124898925D01*
X34792233Y124888899D01*
X34792595Y124888749D01*
X34823046Y124872472D01*
X34823372Y124872254D01*
X34850068Y124850345D01*
X34850345Y124850068D01*
X34872254Y124823372D01*
X34872472Y124823046D01*
X34888749Y124792595D01*
X34888899Y124792233D01*
X34898925Y124759181D01*
X34899001Y124758796D01*
X34902990Y124718293D01*
X34903000Y124718097D01*
X34903000Y124636000D01*
X34902000Y124634268D01*
X34900000Y124634268D01*
X34899010Y124635804D01*
X34893938Y124687304D01*
X34878971Y124736642D01*
X34854668Y124782110D01*
X34821962Y124821962D01*
X34782110Y124854668D01*
X34736642Y124878971D01*
X34687304Y124893938D01*
X34635804Y124899010D01*
X34634178Y124900175D01*
X34634374Y124902165D01*
X34636000Y124903000D01*
X34718097Y124903000D01*
X34718293Y124902990D01*
G37*
G36*
X17718293Y124902990D02*
G01*
X17758796Y124899001D01*
X17759181Y124898925D01*
X17792233Y124888899D01*
X17792595Y124888749D01*
X17823046Y124872472D01*
X17823372Y124872254D01*
X17850068Y124850345D01*
X17850345Y124850068D01*
X17872254Y124823372D01*
X17872472Y124823046D01*
X17888749Y124792595D01*
X17888899Y124792233D01*
X17898925Y124759181D01*
X17899001Y124758796D01*
X17902990Y124718293D01*
X17903000Y124718097D01*
X17903000Y124636000D01*
X17902000Y124634268D01*
X17900000Y124634268D01*
X17899010Y124635804D01*
X17893938Y124687304D01*
X17878971Y124736642D01*
X17854668Y124782110D01*
X17821962Y124821962D01*
X17782110Y124854668D01*
X17736642Y124878971D01*
X17687304Y124893938D01*
X17635804Y124899010D01*
X17634178Y124900175D01*
X17634374Y124902165D01*
X17636000Y124903000D01*
X17718097Y124903000D01*
X17718293Y124902990D01*
G37*
G36*
X64718293Y124902990D02*
G01*
X64758796Y124899001D01*
X64759181Y124898925D01*
X64792233Y124888899D01*
X64792595Y124888749D01*
X64823046Y124872472D01*
X64823372Y124872254D01*
X64850068Y124850345D01*
X64850345Y124850068D01*
X64872254Y124823372D01*
X64872472Y124823046D01*
X64888749Y124792595D01*
X64888899Y124792233D01*
X64898925Y124759181D01*
X64899001Y124758796D01*
X64902990Y124718293D01*
X64903000Y124718097D01*
X64903000Y124636000D01*
X64902000Y124634268D01*
X64900000Y124634268D01*
X64899010Y124635804D01*
X64893938Y124687304D01*
X64878971Y124736642D01*
X64854668Y124782110D01*
X64821962Y124821962D01*
X64782110Y124854668D01*
X64736642Y124878971D01*
X64687304Y124893938D01*
X64635804Y124899010D01*
X64634178Y124900175D01*
X64634374Y124902165D01*
X64636000Y124903000D01*
X64718097Y124903000D01*
X64718293Y124902990D01*
G37*
G36*
X128718293Y124902990D02*
G01*
X128758796Y124899001D01*
X128759181Y124898925D01*
X128792233Y124888899D01*
X128792595Y124888749D01*
X128823046Y124872472D01*
X128823372Y124872254D01*
X128850068Y124850345D01*
X128850345Y124850068D01*
X128872254Y124823372D01*
X128872472Y124823046D01*
X128888749Y124792595D01*
X128888899Y124792233D01*
X128898925Y124759181D01*
X128899001Y124758796D01*
X128902990Y124718293D01*
X128903000Y124718097D01*
X128903000Y124636000D01*
X128902000Y124634268D01*
X128900000Y124634268D01*
X128899010Y124635804D01*
X128893938Y124687304D01*
X128878971Y124736642D01*
X128854668Y124782110D01*
X128821962Y124821962D01*
X128782110Y124854668D01*
X128736642Y124878971D01*
X128687304Y124893938D01*
X128635804Y124899010D01*
X128634178Y124900175D01*
X128634374Y124902165D01*
X128636000Y124903000D01*
X128718097Y124903000D01*
X128718293Y124902990D01*
G37*
G36*
X81718293Y124902990D02*
G01*
X81758796Y124899001D01*
X81759181Y124898925D01*
X81792233Y124888899D01*
X81792595Y124888749D01*
X81823046Y124872472D01*
X81823372Y124872254D01*
X81850068Y124850345D01*
X81850345Y124850068D01*
X81872254Y124823372D01*
X81872472Y124823046D01*
X81888749Y124792595D01*
X81888899Y124792233D01*
X81898925Y124759181D01*
X81899001Y124758796D01*
X81902990Y124718293D01*
X81903000Y124718097D01*
X81903000Y124636000D01*
X81902000Y124634268D01*
X81900000Y124634268D01*
X81899010Y124635804D01*
X81893938Y124687304D01*
X81878971Y124736642D01*
X81854668Y124782110D01*
X81821962Y124821962D01*
X81782110Y124854668D01*
X81736642Y124878971D01*
X81687304Y124893938D01*
X81635804Y124899010D01*
X81634178Y124900175D01*
X81634374Y124902165D01*
X81636000Y124903000D01*
X81718097Y124903000D01*
X81718293Y124902990D01*
G37*
M02*
