M48
; DRILL file {KiCad (5.1.6)-1} date 11/15/21 16:27:54
; FORMAT={-:-/ absolute / metric / decimal}
; #@! TF.CreationDate,2021-11-15T16:27:54+07:00
; #@! TF.GenerationSoftware,Kicad,Pcbnew,(5.1.6)-1
; #@! TF.FileFunction,Plated,1,2,PTH
FMAT,2
METRIC
T1C0.400
T2C0.500
T3C0.740
T4C0.800
T5C0.889
T6C0.900
T7C1.000
T8C1.200
T9C1.250
T10C1.300
T11C1.350
T12C2.300
%
G90
G05
T1
X72.5Y-136.0
X72.5Y-140.0
X75.787Y-133.75
X75.787Y-145.475
X77.46Y-121.9
X80.0Y-109.1
X80.0Y-120.9
X82.54Y-122.9
X83.0Y-130.0
X90.0Y-130.0
X96.0Y-88.0
X97.0Y-87.0
X97.0Y-130.0
X104.0Y-130.0
X110.0Y-94.8
X110.5Y-79.0
X110.5Y-82.0
X111.0Y-94.0
X111.0Y-130.0
X111.5Y-79.0
X111.5Y-82.0
X112.0Y-95.6
X113.0Y-103.0
X114.0Y-102.0
X118.0Y-130.0
X119.2Y-82.5
X120.0Y-81.5
X120.8Y-82.5
X121.6Y-81.5
X122.4Y-82.5
X123.2Y-81.5
X124.0Y-82.5
X125.0Y-130.0
X126.4Y-82.5
X127.2Y-81.5
X128.0Y-82.5
X132.0Y-54.0
X132.0Y-130.0
X132.6Y-96.4
X132.6Y-112.0
X133.0Y-53.0
X133.7Y-91.6
X133.7Y-111.0
X134.0Y-52.0
X135.0Y-51.0
X136.0Y-50.0
X137.0Y-49.0
X138.0Y-48.0
X139.0Y-47.0
X143.0Y-143.0
X143.0Y-157.25
X144.0Y-59.0
X144.0Y-71.0
X144.125Y-125.595
X146.0Y-78.0
X146.0Y-95.0
X146.0Y-104.3
X146.0Y-130.0
X147.0Y-103.3
X148.0Y-77.0
X148.0Y-100.3
X148.0Y-102.3
X149.0Y-80.5
X150.0Y-88.5
X150.0Y-91.5
X150.0Y-104.3
X151.0Y-87.5
X151.0Y-92.5
X152.0Y-86.5
X152.0Y-93.5
X153.0Y-85.5
X153.0Y-94.5
X154.0Y-84.5
X154.0Y-95.5
X155.0Y-82.5
X155.0Y-89.5
X156.0Y-83.5
X156.0Y-90.5
X156.0Y-130.0
X156.0Y-143.0
X156.0Y-157.25
X158.0Y-122.175
X159.0Y-120.905
X159.5Y-64.905
X160.0Y-119.635
X160.5Y-63.635
X161.0Y-118.365
X161.5Y-62.365
X162.0Y-117.095
X162.5Y-61.095
X163.0Y-115.825
X164.0Y-114.555
X166.0Y-130.0
X172.0Y-143.0
X172.0Y-157.25
X173.5Y-63.095
X174.0Y-119.635
X174.0Y-125.595
X174.5Y-64.365
X175.0Y-113.54
X175.0Y-120.905
X175.5Y-65.635
X176.0Y-113.54
X176.0Y-123.445
X176.0Y-130.0
X176.5Y-66.905
X177.0Y-115.825
X181.5Y-115.3
X185.0Y-143.0
X185.0Y-157.25
X185.5Y-59.316
X185.5Y-71.99
X186.0Y-130.0
X186.5Y-57.36
X186.5Y-112.74
X196.0Y-66.905
X196.0Y-119.635
X196.0Y-130.0
X197.0Y-65.635
X197.0Y-114.555
X197.0Y-120.905
X198.0Y-64.365
X198.0Y-115.825
X198.0Y-122.175
X198.0Y-143.0
X198.0Y-157.25
X199.0Y-63.095
X199.0Y-117.095
X199.0Y-118.365
X206.0Y-130.0
X208.0Y-86.5
X208.0Y-91.5
X209.0Y-63.095
X209.0Y-87.5
X209.0Y-92.5
X209.0Y-113.54
X209.0Y-120.905
X210.0Y-64.365
X210.0Y-88.5
X210.0Y-93.5
X210.0Y-115.825
X210.0Y-119.635
X211.0Y-65.635
X211.0Y-82.5
X211.0Y-94.5
X211.0Y-123.445
X212.0Y-66.905
X212.0Y-83.5
X212.0Y-95.5
X213.0Y-85.5
X213.0Y-89.5
X214.0Y-84.5
X214.0Y-90.5
X216.0Y-130.0
T2
X180.22Y-53.46
X180.22Y-55.46
X181.22Y-54.46
X182.22Y-53.46
X182.22Y-55.46
X182.0Y-120.0
X182.0Y-122.0
X183.0Y-121.0
X184.0Y-120.0
X184.0Y-122.0
X190.0Y-120.0
X190.0Y-122.0
X191.0Y-121.0
X192.0Y-120.0
X192.0Y-122.0
X180.22Y-66.61
X180.22Y-68.61
X181.22Y-67.61
X182.22Y-66.61
X182.22Y-68.61
X189.51Y-66.61
X189.51Y-68.61
X190.51Y-67.61
X191.51Y-66.61
X191.51Y-68.61
X180.22Y-62.2
X180.22Y-64.2
X181.22Y-63.2
X182.22Y-62.2
X182.22Y-64.2
X151.21Y-72.57
X151.21Y-74.57
X152.21Y-73.57
X153.21Y-72.57
X153.21Y-74.57
X214.91Y-120.25
X214.91Y-122.25
X215.91Y-121.25
X216.91Y-120.25
X216.91Y-122.25
X203.95Y-53.46
X203.95Y-55.46
X204.95Y-54.46
X205.95Y-53.46
X205.95Y-55.46
T3
X92.46Y-60.0
X95.0Y-60.0
X97.54Y-60.0
T4
X174.0Y-77.76
X174.0Y-93.0
X176.54Y-77.76
X176.54Y-93.0
X179.08Y-77.76
X179.08Y-93.0
X181.62Y-77.76
X181.62Y-93.0
X184.16Y-77.76
X184.16Y-93.0
X115.0Y-147.0
X115.0Y-150.0
X115.0Y-153.0
X101.0Y-147.0
X101.0Y-150.0
X101.0Y-153.0
X80.0Y-147.0
X80.0Y-150.0
X80.0Y-153.0
X87.0Y-147.0
X87.0Y-150.0
X87.0Y-153.0
X189.0Y-77.76
X189.0Y-93.0
X191.54Y-77.76
X191.54Y-93.0
X194.08Y-77.76
X194.08Y-93.0
X196.62Y-77.76
X196.62Y-93.0
X199.16Y-77.76
X199.16Y-93.0
X129.0Y-147.0
X129.0Y-150.0
X129.0Y-153.0
X94.0Y-147.0
X94.0Y-150.0
X94.0Y-153.0
X122.0Y-147.0
X122.0Y-150.0
X122.0Y-153.0
X108.0Y-147.0
X108.0Y-150.0
X108.0Y-153.0
T5
X166.11Y-102.19
X166.11Y-109.81
X168.65Y-102.19
X168.65Y-109.81
X171.19Y-102.19
X171.19Y-109.81
X173.73Y-102.19
X173.73Y-109.81
X176.27Y-102.19
X176.27Y-109.81
X178.81Y-102.19
X178.81Y-109.81
X181.35Y-102.19
X181.35Y-109.81
X183.89Y-102.19
X183.89Y-109.81
X189.11Y-102.19
X189.11Y-109.81
X191.65Y-102.19
X191.65Y-109.81
X194.19Y-102.19
X194.19Y-109.81
X196.73Y-102.19
X196.73Y-109.81
X199.27Y-102.19
X199.27Y-109.81
X201.81Y-102.19
X201.81Y-109.81
X204.35Y-102.19
X204.35Y-109.81
X206.89Y-102.19
X206.89Y-109.81
T6
X63.7Y-140.75
X63.7Y-143.25
X65.7Y-140.75
X65.7Y-143.25
T7
X204.54Y-154.74
X207.0Y-154.74
X209.54Y-154.74
X210.38Y-36.0
X210.38Y-38.54
X212.92Y-36.0
X212.92Y-38.54
X215.46Y-36.0
X215.46Y-38.54
X218.0Y-36.0
X218.0Y-38.54
X160.22Y-36.0
X160.22Y-38.54
X162.76Y-36.0
X162.76Y-38.54
X165.3Y-36.0
X165.3Y-38.54
X167.84Y-36.0
X167.84Y-38.54
X170.38Y-36.0
X170.38Y-38.54
X172.92Y-36.0
X172.92Y-38.54
X175.46Y-36.0
X175.46Y-38.54
X178.0Y-36.0
X178.0Y-38.54
X61.92Y-36.0
X61.92Y-38.54
X64.46Y-36.0
X64.46Y-38.54
X67.0Y-36.0
X67.0Y-38.54
X222.46Y-74.76
X222.46Y-77.3
X222.46Y-79.84
X222.46Y-82.38
X222.46Y-84.92
X222.46Y-87.46
X222.46Y-90.0
X225.0Y-74.76
X225.0Y-77.3
X225.0Y-79.84
X225.0Y-82.38
X225.0Y-84.92
X225.0Y-87.46
X225.0Y-90.0
X125.92Y-36.0
X125.92Y-38.54
X128.46Y-36.0
X128.46Y-38.54
X131.0Y-36.0
X131.0Y-38.54
X78.92Y-36.0
X78.92Y-38.54
X81.46Y-36.0
X81.46Y-38.54
X84.0Y-36.0
X84.0Y-38.54
X142.92Y-36.0
X142.92Y-38.54
X145.46Y-36.0
X145.46Y-38.54
X148.0Y-36.0
X148.0Y-38.54
X96.22Y-36.0
X96.22Y-38.54
X98.76Y-36.0
X98.76Y-38.54
X101.3Y-36.0
X101.3Y-38.54
X103.84Y-36.0
X103.84Y-38.54
X106.38Y-36.0
X106.38Y-38.54
X108.92Y-36.0
X108.92Y-38.54
X111.46Y-36.0
X111.46Y-38.54
X114.0Y-36.0
X114.0Y-38.54
X222.46Y-103.76
X222.46Y-106.3
X222.46Y-108.84
X222.46Y-111.38
X222.46Y-113.92
X222.46Y-116.46
X222.46Y-119.0
X225.0Y-103.76
X225.0Y-106.3
X225.0Y-108.84
X225.0Y-111.38
X225.0Y-113.92
X225.0Y-116.46
X225.0Y-119.0
X190.38Y-36.0
X190.38Y-38.54
X192.92Y-36.0
X192.92Y-38.54
X195.46Y-36.0
X195.46Y-38.54
X198.0Y-36.0
X198.0Y-38.54
T8
X90.0Y-68.5
X92.54Y-68.5
X95.08Y-68.5
X97.62Y-68.5
X100.16Y-68.5
X102.7Y-68.5
X105.24Y-68.5
X107.78Y-68.5
X110.32Y-68.5
X112.86Y-68.5
X115.4Y-68.5
X117.94Y-68.5
X120.48Y-68.5
X123.02Y-68.5
X125.56Y-68.5
X128.1Y-68.5
T10
X59.92Y-99.92
T11
X65.0Y-99.92
X70.08Y-99.92
T12
X61.0Y-135.98
X61.0Y-148.02
T4
X53.875Y-54.35G85X53.875Y-53.65
G05
X76.125Y-54.35G85X76.125Y-53.65
G05
T7
X58.0Y-125.0G85X58.0Y-127.0
G05
X60.0Y-130.7G85X62.0Y-130.7
G05
X64.0Y-125.0G85X64.0Y-127.0
G05
T9
X63.25Y-108.3G85X62.75Y-108.3
G05
X63.25Y-113.0G85X62.75Y-113.0
G05
X63.25Y-117.7G85X62.75Y-117.7
G05
T0
M30
