M48
; DRILL file {KiCad (5.1.6)-1} date 12/03/21 21:04:36
; FORMAT={-:-/ absolute / metric / decimal}
; #@! TF.CreationDate,2021-12-03T21:04:36+07:00
; #@! TF.GenerationSoftware,Kicad,Pcbnew,(5.1.6)-1
; #@! TF.FileFunction,NonPlated,1,2,NPTH
FMAT,2
METRIC
T1C0.410
T2C1.000
T3C3.000
T4C3.500
%
G90
G05
T3
X226.0Y-60.0
X84.5Y-69.0
X84.5Y-100.0
X159.5Y-69.0
X159.5Y-100.0
X226.0Y-156.0
X54.0Y-156.0
X85.0Y-60.0
T4
X53.5Y-101.42
X65.0Y-65.37
X76.5Y-101.42
T1
X101.4Y-144.0G85X100.6Y-144.0
G05
X129.4Y-144.0G85X128.6Y-144.0
G05
X129.4Y-156.0G85X128.6Y-156.0
G05
X87.4Y-144.0G85X86.6Y-144.0
G05
X87.4Y-156.0G85X86.6Y-156.0
G05
X108.4Y-144.0G85X107.6Y-144.0
G05
X108.4Y-156.0G85X107.6Y-156.0
G05
X94.4Y-144.0G85X93.6Y-144.0
G05
X94.4Y-156.0G85X93.6Y-156.0
G05
X122.4Y-144.0G85X121.6Y-144.0
G05
X122.4Y-156.0G85X121.6Y-156.0
G05
X115.4Y-144.0G85X114.6Y-144.0
G05
X115.4Y-156.0G85X114.6Y-156.0
G05
X80.4Y-144.0G85X79.6Y-144.0
G05
X80.4Y-156.0G85X79.6Y-156.0
G05
X101.4Y-156.0G85X100.6Y-156.0
G05
T2
X202.35Y-148.29G85X202.35Y-147.19
G05
X211.65Y-148.29G85X211.65Y-147.19
G05
T0
M30
