G04 #@! TF.GenerationSoftware,KiCad,Pcbnew,(5.1.6)-1*
G04 #@! TF.CreationDate,2021-05-08T07:02:18+07:00*
G04 #@! TF.ProjectId,digitalSystemBoard,64696769-7461-46c5-9379-7374656d426f,rev?*
G04 #@! TF.SameCoordinates,Original*
G04 #@! TF.FileFunction,Legend,Bot*
G04 #@! TF.FilePolarity,Positive*
%FSLAX46Y46*%
G04 Gerber Fmt 4.6, Leading zero omitted, Abs format (unit mm)*
G04 Created by KiCad (PCBNEW (5.1.6)-1) date 2021-05-08 07:02:18*
%MOMM*%
%LPD*%
G01*
G04 APERTURE LIST*
%ADD10C,0.852000*%
%ADD11C,3.102000*%
%ADD12C,3.652000*%
%ADD13C,1.350000*%
%ADD14R,1.350000X1.350000*%
%ADD15C,2.102000*%
%ADD16O,2.602000X2.352000*%
%ADD17C,5.102000*%
%ADD18O,1.902000X2.702000*%
%ADD19R,1.902000X2.702000*%
%ADD20R,1.626000X2.626000*%
%ADD21O,1.626000X2.626000*%
%ADD22C,1.802000*%
%ADD23C,1.499000*%
%ADD24R,1.499000X1.499000*%
%ADD25C,1.626000*%
%ADD26R,3.602000X3.602000*%
%ADD27C,5.402000*%
%ADD28R,1.510000X1.510000*%
%ADD29C,1.510000*%
%ADD30C,3.418000*%
G04 APERTURE END LIST*
%LPC*%
D10*
X184000000Y-122000000D03*
X182000000Y-122000000D03*
X182000000Y-120000000D03*
X184000000Y-120000000D03*
X183000000Y-121000000D03*
X191000000Y-121000000D03*
X192000000Y-120000000D03*
X190000000Y-120000000D03*
X190000000Y-122000000D03*
X192000000Y-122000000D03*
X216910000Y-122250000D03*
X214910000Y-122250000D03*
X214910000Y-120250000D03*
X216910000Y-120250000D03*
X215910000Y-121250000D03*
X128660000Y-98580000D03*
X126660000Y-98580000D03*
X126660000Y-96580000D03*
X128660000Y-96580000D03*
X127660000Y-97580000D03*
X181220000Y-54460000D03*
X182220000Y-53460000D03*
X180220000Y-53460000D03*
X180220000Y-55460000D03*
X182220000Y-55460000D03*
X182220000Y-64200000D03*
X180220000Y-64200000D03*
X180220000Y-62200000D03*
X182220000Y-62200000D03*
X181220000Y-63200000D03*
X190510000Y-67610000D03*
X191510000Y-66610000D03*
X189510000Y-66610000D03*
X189510000Y-68610000D03*
X191510000Y-68610000D03*
X205950000Y-55460000D03*
X203950000Y-55460000D03*
X203950000Y-53460000D03*
X205950000Y-53460000D03*
X204950000Y-54460000D03*
X182220000Y-68610000D03*
X180220000Y-68610000D03*
X180220000Y-66610000D03*
X182220000Y-66610000D03*
X181220000Y-67610000D03*
X153210000Y-74570000D03*
X151210000Y-74570000D03*
X151210000Y-72570000D03*
X153210000Y-72570000D03*
X152210000Y-73570000D03*
D11*
X70000000Y-99920000D03*
X60000000Y-99920000D03*
X65000000Y-99920000D03*
D12*
X77000000Y-101420000D03*
X53000000Y-101420000D03*
X65000000Y-65370000D03*
D13*
X97540000Y-60000000D03*
X95000000Y-60000000D03*
D14*
X92460000Y-60000000D03*
D15*
X76125000Y-54000000D03*
X53875000Y-54000000D03*
D16*
X63000000Y-117700000D03*
X63000000Y-108300000D03*
X63000000Y-113000000D03*
D17*
X159500000Y-69000000D03*
X159500000Y-100000000D03*
X84500000Y-100000000D03*
X84500000Y-69000000D03*
D18*
X128100000Y-68500000D03*
X125560000Y-68500000D03*
X123020000Y-68500000D03*
X120480000Y-68500000D03*
X117940000Y-68500000D03*
X115400000Y-68500000D03*
X112860000Y-68500000D03*
X110320000Y-68500000D03*
X107780000Y-68500000D03*
X105240000Y-68500000D03*
X102700000Y-68500000D03*
X100160000Y-68500000D03*
X97620000Y-68500000D03*
X95080000Y-68500000D03*
X92540000Y-68500000D03*
D19*
X90000000Y-68500000D03*
D20*
X174000000Y-93000000D03*
D21*
X176540000Y-93000000D03*
X179080000Y-93000000D03*
X181620000Y-93000000D03*
X184160000Y-93000000D03*
X184160000Y-77760000D03*
X181620000Y-77760000D03*
X179080000Y-77760000D03*
X176540000Y-77760000D03*
X174000000Y-77760000D03*
D22*
X142920000Y-38540000D03*
X145460000Y-38540000D03*
X148000000Y-38540000D03*
X142920000Y-36000000D03*
X145460000Y-36000000D03*
G36*
G01*
X147364000Y-35099000D02*
X148636000Y-35099000D01*
G75*
G02*
X148901000Y-35364000I0J-265000D01*
G01*
X148901000Y-36636000D01*
G75*
G02*
X148636000Y-36901000I-265000J0D01*
G01*
X147364000Y-36901000D01*
G75*
G02*
X147099000Y-36636000I0J265000D01*
G01*
X147099000Y-35364000D01*
G75*
G02*
X147364000Y-35099000I265000J0D01*
G01*
G37*
D23*
X166110000Y-102190000D03*
X168650000Y-102190000D03*
X183890000Y-109810000D03*
X173730000Y-102190000D03*
X176270000Y-102190000D03*
X178810000Y-102190000D03*
X181350000Y-102190000D03*
X183890000Y-102190000D03*
X181350000Y-109810000D03*
X178810000Y-109810000D03*
X176270000Y-109810000D03*
X171190000Y-102190000D03*
X173730000Y-109810000D03*
X171190000Y-109810000D03*
X168650000Y-109810000D03*
D24*
X166110000Y-109810000D03*
D25*
X129000000Y-144000000D03*
X129000000Y-156000000D03*
X129000000Y-147000000D03*
X129000000Y-153000000D03*
X129000000Y-150000000D03*
X80000000Y-144000000D03*
X80000000Y-156000000D03*
X80000000Y-147000000D03*
X80000000Y-153000000D03*
X80000000Y-150000000D03*
D22*
X78920000Y-38540000D03*
X81460000Y-38540000D03*
X84000000Y-38540000D03*
X78920000Y-36000000D03*
X81460000Y-36000000D03*
G36*
G01*
X83364000Y-35099000D02*
X84636000Y-35099000D01*
G75*
G02*
X84901000Y-35364000I0J-265000D01*
G01*
X84901000Y-36636000D01*
G75*
G02*
X84636000Y-36901000I-265000J0D01*
G01*
X83364000Y-36901000D01*
G75*
G02*
X83099000Y-36636000I0J265000D01*
G01*
X83099000Y-35364000D01*
G75*
G02*
X83364000Y-35099000I265000J0D01*
G01*
G37*
X61920000Y-38540000D03*
X64460000Y-38540000D03*
X67000000Y-38540000D03*
X61920000Y-36000000D03*
X64460000Y-36000000D03*
G36*
G01*
X66364000Y-35099000D02*
X67636000Y-35099000D01*
G75*
G02*
X67901000Y-35364000I0J-265000D01*
G01*
X67901000Y-36636000D01*
G75*
G02*
X67636000Y-36901000I-265000J0D01*
G01*
X66364000Y-36901000D01*
G75*
G02*
X66099000Y-36636000I0J265000D01*
G01*
X66099000Y-35364000D01*
G75*
G02*
X66364000Y-35099000I265000J0D01*
G01*
G37*
X125920000Y-38540000D03*
X128460000Y-38540000D03*
X131000000Y-38540000D03*
X125920000Y-36000000D03*
X128460000Y-36000000D03*
G36*
G01*
X130364000Y-35099000D02*
X131636000Y-35099000D01*
G75*
G02*
X131901000Y-35364000I0J-265000D01*
G01*
X131901000Y-36636000D01*
G75*
G02*
X131636000Y-36901000I-265000J0D01*
G01*
X130364000Y-36901000D01*
G75*
G02*
X130099000Y-36636000I0J265000D01*
G01*
X130099000Y-35364000D01*
G75*
G02*
X130364000Y-35099000I265000J0D01*
G01*
G37*
X96220000Y-38540000D03*
X98760000Y-38540000D03*
X101300000Y-38540000D03*
X103840000Y-38540000D03*
X106380000Y-38540000D03*
X108920000Y-38540000D03*
X111460000Y-38540000D03*
X114000000Y-38540000D03*
X96220000Y-36000000D03*
X98760000Y-36000000D03*
X101300000Y-36000000D03*
X103840000Y-36000000D03*
X106380000Y-36000000D03*
X108920000Y-36000000D03*
X111460000Y-36000000D03*
G36*
G01*
X113364000Y-35099000D02*
X114636000Y-35099000D01*
G75*
G02*
X114901000Y-35364000I0J-265000D01*
G01*
X114901000Y-36636000D01*
G75*
G02*
X114636000Y-36901000I-265000J0D01*
G01*
X113364000Y-36901000D01*
G75*
G02*
X113099000Y-36636000I0J265000D01*
G01*
X113099000Y-35364000D01*
G75*
G02*
X113364000Y-35099000I265000J0D01*
G01*
G37*
X222460000Y-103760000D03*
X222460000Y-106300000D03*
X222460000Y-108840000D03*
X222460000Y-111380000D03*
X222460000Y-113920000D03*
X222460000Y-116460000D03*
X222460000Y-119000000D03*
X225000000Y-103760000D03*
X225000000Y-106300000D03*
X225000000Y-108840000D03*
X225000000Y-111380000D03*
X225000000Y-113920000D03*
X225000000Y-116460000D03*
G36*
G01*
X225901000Y-118364000D02*
X225901000Y-119636000D01*
G75*
G02*
X225636000Y-119901000I-265000J0D01*
G01*
X224364000Y-119901000D01*
G75*
G02*
X224099000Y-119636000I0J265000D01*
G01*
X224099000Y-118364000D01*
G75*
G02*
X224364000Y-118099000I265000J0D01*
G01*
X225636000Y-118099000D01*
G75*
G02*
X225901000Y-118364000I0J-265000D01*
G01*
G37*
X222460000Y-74760000D03*
X222460000Y-77300000D03*
X222460000Y-79840000D03*
X222460000Y-82380000D03*
X222460000Y-84920000D03*
X222460000Y-87460000D03*
X222460000Y-90000000D03*
X225000000Y-74760000D03*
X225000000Y-77300000D03*
X225000000Y-79840000D03*
X225000000Y-82380000D03*
X225000000Y-84920000D03*
X225000000Y-87460000D03*
G36*
G01*
X225901000Y-89364000D02*
X225901000Y-90636000D01*
G75*
G02*
X225636000Y-90901000I-265000J0D01*
G01*
X224364000Y-90901000D01*
G75*
G02*
X224099000Y-90636000I0J265000D01*
G01*
X224099000Y-89364000D01*
G75*
G02*
X224364000Y-89099000I265000J0D01*
G01*
X225636000Y-89099000D01*
G75*
G02*
X225901000Y-89364000I0J-265000D01*
G01*
G37*
X160220000Y-38540000D03*
X162760000Y-38540000D03*
X165300000Y-38540000D03*
X167840000Y-38540000D03*
X170380000Y-38540000D03*
X172920000Y-38540000D03*
X175460000Y-38540000D03*
X178000000Y-38540000D03*
X160220000Y-36000000D03*
X162760000Y-36000000D03*
X165300000Y-36000000D03*
X167840000Y-36000000D03*
X170380000Y-36000000D03*
X172920000Y-36000000D03*
X175460000Y-36000000D03*
G36*
G01*
X177364000Y-35099000D02*
X178636000Y-35099000D01*
G75*
G02*
X178901000Y-35364000I0J-265000D01*
G01*
X178901000Y-36636000D01*
G75*
G02*
X178636000Y-36901000I-265000J0D01*
G01*
X177364000Y-36901000D01*
G75*
G02*
X177099000Y-36636000I0J265000D01*
G01*
X177099000Y-35364000D01*
G75*
G02*
X177364000Y-35099000I265000J0D01*
G01*
G37*
X190380000Y-38540000D03*
X192920000Y-38540000D03*
X195460000Y-38540000D03*
X198000000Y-38540000D03*
X190380000Y-36000000D03*
X192920000Y-36000000D03*
X195460000Y-36000000D03*
G36*
G01*
X197364000Y-35099000D02*
X198636000Y-35099000D01*
G75*
G02*
X198901000Y-35364000I0J-265000D01*
G01*
X198901000Y-36636000D01*
G75*
G02*
X198636000Y-36901000I-265000J0D01*
G01*
X197364000Y-36901000D01*
G75*
G02*
X197099000Y-36636000I0J265000D01*
G01*
X197099000Y-35364000D01*
G75*
G02*
X197364000Y-35099000I265000J0D01*
G01*
G37*
X210380000Y-38540000D03*
X212920000Y-38540000D03*
X215460000Y-38540000D03*
X218000000Y-38540000D03*
X210380000Y-36000000D03*
X212920000Y-36000000D03*
X215460000Y-36000000D03*
G36*
G01*
X217364000Y-35099000D02*
X218636000Y-35099000D01*
G75*
G02*
X218901000Y-35364000I0J-265000D01*
G01*
X218901000Y-36636000D01*
G75*
G02*
X218636000Y-36901000I-265000J0D01*
G01*
X217364000Y-36901000D01*
G75*
G02*
X217099000Y-36636000I0J265000D01*
G01*
X217099000Y-35364000D01*
G75*
G02*
X217364000Y-35099000I265000J0D01*
G01*
G37*
G36*
G01*
X59199000Y-131600500D02*
X59199000Y-129799500D01*
G75*
G02*
X60099500Y-128899000I900500J0D01*
G01*
X61900500Y-128899000D01*
G75*
G02*
X62801000Y-129799500I0J-900500D01*
G01*
X62801000Y-131600500D01*
G75*
G02*
X61900500Y-132501000I-900500J0D01*
G01*
X60099500Y-132501000D01*
G75*
G02*
X59199000Y-131600500I0J900500D01*
G01*
G37*
G36*
G01*
X56449000Y-127025500D02*
X56449000Y-124974500D01*
G75*
G02*
X57224500Y-124199000I775500J0D01*
G01*
X58775500Y-124199000D01*
G75*
G02*
X59551000Y-124974500I0J-775500D01*
G01*
X59551000Y-127025500D01*
G75*
G02*
X58775500Y-127801000I-775500J0D01*
G01*
X57224500Y-127801000D01*
G75*
G02*
X56449000Y-127025500I0J775500D01*
G01*
G37*
D26*
X64000000Y-126000000D03*
D25*
X87000000Y-144000000D03*
X87000000Y-156000000D03*
X87000000Y-147000000D03*
X87000000Y-153000000D03*
X87000000Y-150000000D03*
X94000000Y-144000000D03*
X94000000Y-156000000D03*
X94000000Y-147000000D03*
X94000000Y-153000000D03*
X94000000Y-150000000D03*
X101000000Y-144000000D03*
X101000000Y-156000000D03*
X101000000Y-147000000D03*
X101000000Y-153000000D03*
X101000000Y-150000000D03*
X108000000Y-144000000D03*
X108000000Y-156000000D03*
X108000000Y-147000000D03*
X108000000Y-153000000D03*
X108000000Y-150000000D03*
X115000000Y-144000000D03*
X115000000Y-156000000D03*
X115000000Y-147000000D03*
X115000000Y-153000000D03*
X115000000Y-150000000D03*
X122000000Y-144000000D03*
X122000000Y-156000000D03*
X122000000Y-147000000D03*
X122000000Y-153000000D03*
X122000000Y-150000000D03*
G36*
G01*
X212601000Y-147014500D02*
X212601000Y-148465500D01*
G75*
G02*
X212125500Y-148941000I-475500J0D01*
G01*
X211174500Y-148941000D01*
G75*
G02*
X210699000Y-148465500I0J475500D01*
G01*
X210699000Y-147014500D01*
G75*
G02*
X211174500Y-146539000I475500J0D01*
G01*
X212125500Y-146539000D01*
G75*
G02*
X212601000Y-147014500I0J-475500D01*
G01*
G37*
G36*
G01*
X203301000Y-147014500D02*
X203301000Y-148465500D01*
G75*
G02*
X202825500Y-148941000I-475500J0D01*
G01*
X201874500Y-148941000D01*
G75*
G02*
X201399000Y-148465500I0J475500D01*
G01*
X201399000Y-147014500D01*
G75*
G02*
X201874500Y-146539000I475500J0D01*
G01*
X202825500Y-146539000D01*
G75*
G02*
X203301000Y-147014500I0J-475500D01*
G01*
G37*
X207000000Y-154740000D03*
X204540000Y-154740000D03*
X209540000Y-154740000D03*
D27*
X226000000Y-60000000D03*
X85000000Y-60000000D03*
X226000000Y-156000000D03*
X54000000Y-156000000D03*
D23*
X189110000Y-102190000D03*
X191650000Y-102190000D03*
X206890000Y-109810000D03*
X196730000Y-102190000D03*
X199270000Y-102190000D03*
X201810000Y-102190000D03*
X204350000Y-102190000D03*
X206890000Y-102190000D03*
X204350000Y-109810000D03*
X201810000Y-109810000D03*
X199270000Y-109810000D03*
X194190000Y-102190000D03*
X196730000Y-109810000D03*
X194190000Y-109810000D03*
X191650000Y-109810000D03*
D24*
X189110000Y-109810000D03*
D20*
X189000000Y-93000000D03*
D21*
X191540000Y-93000000D03*
X194080000Y-93000000D03*
X196620000Y-93000000D03*
X199160000Y-93000000D03*
X199160000Y-77760000D03*
X196620000Y-77760000D03*
X194080000Y-77760000D03*
X191540000Y-77760000D03*
X189000000Y-77760000D03*
D28*
X65700000Y-143250000D03*
D29*
X65700000Y-140750000D03*
X63700000Y-140750000D03*
X63700000Y-143250000D03*
D30*
X61000000Y-135980000D03*
X61000000Y-148020000D03*
M02*
