G04 #@! TF.GenerationSoftware,KiCad,Pcbnew,(5.1.8)-1*
G04 #@! TF.CreationDate,2021-01-23T12:46:17+07:00*
G04 #@! TF.ProjectId,digitalSystemBoard,64696769-7461-46c5-9379-7374656d426f,rev?*
G04 #@! TF.SameCoordinates,PX2faf080PY9896800*
G04 #@! TF.FileFunction,Legend,Top*
G04 #@! TF.FilePolarity,Positive*
%FSLAX46Y46*%
G04 Gerber Fmt 4.6, Leading zero omitted, Abs format (unit mm)*
G04 Created by KiCad (PCBNEW (5.1.8)-1) date 2021-01-23 12:46:17*
%MOMM*%
%LPD*%
G01*
G04 APERTURE LIST*
%ADD10C,0.120000*%
%ADD11C,0.200000*%
%ADD12C,0.300000*%
%ADD13C,0.150000*%
%ADD14C,0.250000*%
%ADD15C,0.152400*%
%ADD16C,0.127000*%
G04 APERTURE END LIST*
D10*
X23800000Y18600000D02*
X23800000Y17400000D01*
D11*
X75494571Y7495143D02*
X75637428Y7495143D01*
X75780285Y7438000D01*
X75851714Y7380858D01*
X75923142Y7266572D01*
X75994571Y7038000D01*
X75994571Y6752286D01*
X75923142Y6523715D01*
X75851714Y6409429D01*
X75780285Y6352286D01*
X75637428Y6295143D01*
X75494571Y6295143D01*
X75351714Y6352286D01*
X75280285Y6409429D01*
X75208857Y6523715D01*
X75137428Y6752286D01*
X75137428Y7038000D01*
X75208857Y7266572D01*
X75280285Y7380858D01*
X75351714Y7438000D01*
X75494571Y7495143D01*
X68494571Y7495143D02*
X68637428Y7495143D01*
X68780285Y7438000D01*
X68851714Y7380858D01*
X68923142Y7266572D01*
X68994571Y7038000D01*
X68994571Y6752286D01*
X68923142Y6523715D01*
X68851714Y6409429D01*
X68780285Y6352286D01*
X68637428Y6295143D01*
X68494571Y6295143D01*
X68351714Y6352286D01*
X68280285Y6409429D01*
X68208857Y6523715D01*
X68137428Y6752286D01*
X68137428Y7038000D01*
X68208857Y7266572D01*
X68280285Y7380858D01*
X68351714Y7438000D01*
X68494571Y7495143D01*
X61494571Y7495143D02*
X61637428Y7495143D01*
X61780285Y7438000D01*
X61851714Y7380858D01*
X61923142Y7266572D01*
X61994571Y7038000D01*
X61994571Y6752286D01*
X61923142Y6523715D01*
X61851714Y6409429D01*
X61780285Y6352286D01*
X61637428Y6295143D01*
X61494571Y6295143D01*
X61351714Y6352286D01*
X61280285Y6409429D01*
X61208857Y6523715D01*
X61137428Y6752286D01*
X61137428Y7038000D01*
X61208857Y7266572D01*
X61280285Y7380858D01*
X61351714Y7438000D01*
X61494571Y7495143D01*
X54494571Y7495143D02*
X54637428Y7495143D01*
X54780285Y7438000D01*
X54851714Y7380858D01*
X54923142Y7266572D01*
X54994571Y7038000D01*
X54994571Y6752286D01*
X54923142Y6523715D01*
X54851714Y6409429D01*
X54780285Y6352286D01*
X54637428Y6295143D01*
X54494571Y6295143D01*
X54351714Y6352286D01*
X54280285Y6409429D01*
X54208857Y6523715D01*
X54137428Y6752286D01*
X54137428Y7038000D01*
X54208857Y7266572D01*
X54280285Y7380858D01*
X54351714Y7438000D01*
X54494571Y7495143D01*
X47494571Y7495143D02*
X47637428Y7495143D01*
X47780285Y7438000D01*
X47851714Y7380858D01*
X47923142Y7266572D01*
X47994571Y7038000D01*
X47994571Y6752286D01*
X47923142Y6523715D01*
X47851714Y6409429D01*
X47780285Y6352286D01*
X47637428Y6295143D01*
X47494571Y6295143D01*
X47351714Y6352286D01*
X47280285Y6409429D01*
X47208857Y6523715D01*
X47137428Y6752286D01*
X47137428Y7038000D01*
X47208857Y7266572D01*
X47280285Y7380858D01*
X47351714Y7438000D01*
X47494571Y7495143D01*
X40494571Y7495143D02*
X40637428Y7495143D01*
X40780285Y7438000D01*
X40851714Y7380858D01*
X40923142Y7266572D01*
X40994571Y7038000D01*
X40994571Y6752286D01*
X40923142Y6523715D01*
X40851714Y6409429D01*
X40780285Y6352286D01*
X40637428Y6295143D01*
X40494571Y6295143D01*
X40351714Y6352286D01*
X40280285Y6409429D01*
X40208857Y6523715D01*
X40137428Y6752286D01*
X40137428Y7038000D01*
X40208857Y7266572D01*
X40280285Y7380858D01*
X40351714Y7438000D01*
X40494571Y7495143D01*
X75994571Y12645143D02*
X75137428Y12645143D01*
X75566000Y12645143D02*
X75566000Y13845143D01*
X75423142Y13673715D01*
X75280285Y13559429D01*
X75137428Y13502286D01*
X68994571Y12645143D02*
X68137428Y12645143D01*
X68566000Y12645143D02*
X68566000Y13845143D01*
X68423142Y13673715D01*
X68280285Y13559429D01*
X68137428Y13502286D01*
X61994571Y12645143D02*
X61137428Y12645143D01*
X61566000Y12645143D02*
X61566000Y13845143D01*
X61423142Y13673715D01*
X61280285Y13559429D01*
X61137428Y13502286D01*
X54994571Y12645143D02*
X54137428Y12645143D01*
X54566000Y12645143D02*
X54566000Y13845143D01*
X54423142Y13673715D01*
X54280285Y13559429D01*
X54137428Y13502286D01*
X47994571Y12645143D02*
X47137428Y12645143D01*
X47566000Y12645143D02*
X47566000Y13845143D01*
X47423142Y13673715D01*
X47280285Y13559429D01*
X47137428Y13502286D01*
X40994571Y12645143D02*
X40137428Y12645143D01*
X40566000Y12645143D02*
X40566000Y13845143D01*
X40423142Y13673715D01*
X40280285Y13559429D01*
X40137428Y13502286D01*
X33494571Y7495143D02*
X33637428Y7495143D01*
X33780285Y7438000D01*
X33851714Y7380858D01*
X33923142Y7266572D01*
X33994571Y7038000D01*
X33994571Y6752286D01*
X33923142Y6523715D01*
X33851714Y6409429D01*
X33780285Y6352286D01*
X33637428Y6295143D01*
X33494571Y6295143D01*
X33351714Y6352286D01*
X33280285Y6409429D01*
X33208857Y6523715D01*
X33137428Y6752286D01*
X33137428Y7038000D01*
X33208857Y7266572D01*
X33280285Y7380858D01*
X33351714Y7438000D01*
X33494571Y7495143D01*
X33994571Y12645143D02*
X33137428Y12645143D01*
X33566000Y12645143D02*
X33566000Y13845143D01*
X33423142Y13673715D01*
X33280285Y13559429D01*
X33137428Y13502286D01*
D12*
X29640714Y109755239D02*
X30878809Y109755239D01*
X30212142Y108993334D01*
X30497857Y108993334D01*
X30688333Y108898096D01*
X30783571Y108802858D01*
X30878809Y108612381D01*
X30878809Y108136191D01*
X30783571Y107945715D01*
X30688333Y107850477D01*
X30497857Y107755239D01*
X29926428Y107755239D01*
X29735952Y107850477D01*
X29640714Y107945715D01*
X31640714Y108326667D02*
X32593095Y108326667D01*
X31450238Y107755239D02*
X32116904Y109755239D01*
X32783571Y107755239D01*
X30497857Y105502858D02*
X29831190Y105502858D01*
X29831190Y104455239D02*
X29831190Y106455239D01*
X30783571Y106455239D01*
X31545476Y106455239D02*
X31545476Y104836191D01*
X31640714Y104645715D01*
X31735952Y104550477D01*
X31926428Y104455239D01*
X32307380Y104455239D01*
X32497857Y104550477D01*
X32593095Y104645715D01*
X32688333Y104836191D01*
X32688333Y106455239D01*
X33545476Y104550477D02*
X33831190Y104455239D01*
X34307380Y104455239D01*
X34497857Y104550477D01*
X34593095Y104645715D01*
X34688333Y104836191D01*
X34688333Y105026667D01*
X34593095Y105217143D01*
X34497857Y105312381D01*
X34307380Y105407620D01*
X33926428Y105502858D01*
X33735952Y105598096D01*
X33640714Y105693334D01*
X33545476Y105883810D01*
X33545476Y106074286D01*
X33640714Y106264762D01*
X33735952Y106360000D01*
X33926428Y106455239D01*
X34402619Y106455239D01*
X34688333Y106360000D01*
X35545476Y105502858D02*
X36212142Y105502858D01*
X36497857Y104455239D02*
X35545476Y104455239D01*
X35545476Y106455239D01*
X36497857Y106455239D01*
D13*
X23477380Y62496429D02*
X22477380Y62496429D01*
X22477380Y62734524D01*
X22525000Y62877381D01*
X22620238Y62972620D01*
X22715476Y63020239D01*
X22905952Y63067858D01*
X23048809Y63067858D01*
X23239285Y63020239D01*
X23334523Y62972620D01*
X23429761Y62877381D01*
X23477380Y62734524D01*
X23477380Y62496429D01*
X22477380Y63686905D02*
X22477380Y63877381D01*
X22525000Y63972620D01*
X22620238Y64067858D01*
X22810714Y64115477D01*
X23144047Y64115477D01*
X23334523Y64067858D01*
X23429761Y63972620D01*
X23477380Y63877381D01*
X23477380Y63686905D01*
X23429761Y63591667D01*
X23334523Y63496429D01*
X23144047Y63448810D01*
X22810714Y63448810D01*
X22620238Y63496429D01*
X22525000Y63591667D01*
X22477380Y63686905D01*
X23477380Y65305953D02*
X22477380Y65305953D01*
X23477380Y65877381D01*
X22477380Y65877381D01*
X22477380Y66544048D02*
X22477380Y66734524D01*
X22525000Y66829762D01*
X22620238Y66925000D01*
X22810714Y66972620D01*
X23144047Y66972620D01*
X23334523Y66925000D01*
X23429761Y66829762D01*
X23477380Y66734524D01*
X23477380Y66544048D01*
X23429761Y66448810D01*
X23334523Y66353572D01*
X23144047Y66305953D01*
X22810714Y66305953D01*
X22620238Y66353572D01*
X22525000Y66448810D01*
X22477380Y66544048D01*
X22477380Y67258334D02*
X22477380Y67829762D01*
X23477380Y67544048D02*
X22477380Y67544048D01*
X22477380Y68782143D02*
X22477380Y69353572D01*
X23477380Y69067858D02*
X22477380Y69067858D01*
X22477380Y69877381D02*
X22477380Y70067858D01*
X22525000Y70163096D01*
X22620238Y70258334D01*
X22810714Y70305953D01*
X23144047Y70305953D01*
X23334523Y70258334D01*
X23429761Y70163096D01*
X23477380Y70067858D01*
X23477380Y69877381D01*
X23429761Y69782143D01*
X23334523Y69686905D01*
X23144047Y69639286D01*
X22810714Y69639286D01*
X22620238Y69686905D01*
X22525000Y69782143D01*
X22477380Y69877381D01*
X22477380Y70734524D02*
X23286904Y70734524D01*
X23382142Y70782143D01*
X23429761Y70829762D01*
X23477380Y70925000D01*
X23477380Y71115477D01*
X23429761Y71210715D01*
X23382142Y71258334D01*
X23286904Y71305953D01*
X22477380Y71305953D01*
X23382142Y72353572D02*
X23429761Y72305953D01*
X23477380Y72163096D01*
X23477380Y72067858D01*
X23429761Y71925000D01*
X23334523Y71829762D01*
X23239285Y71782143D01*
X23048809Y71734524D01*
X22905952Y71734524D01*
X22715476Y71782143D01*
X22620238Y71829762D01*
X22525000Y71925000D01*
X22477380Y72067858D01*
X22477380Y72163096D01*
X22525000Y72305953D01*
X22572619Y72353572D01*
X23477380Y72782143D02*
X22477380Y72782143D01*
X22953571Y72782143D02*
X22953571Y73353572D01*
X23477380Y73353572D02*
X22477380Y73353572D01*
D12*
X17011904Y60595239D02*
X17392857Y60595239D01*
X17583333Y60500000D01*
X17773809Y60309524D01*
X17869047Y59928572D01*
X17869047Y59261905D01*
X17773809Y58880953D01*
X17583333Y58690477D01*
X17392857Y58595239D01*
X17011904Y58595239D01*
X16821428Y58690477D01*
X16630952Y58880953D01*
X16535714Y59261905D01*
X16535714Y59928572D01*
X16630952Y60309524D01*
X16821428Y60500000D01*
X17011904Y60595239D01*
X18726190Y58595239D02*
X18726190Y60595239D01*
X19869047Y58595239D01*
X19869047Y60595239D01*
X16845238Y51240239D02*
X17226190Y51240239D01*
X17416666Y51145000D01*
X17607142Y50954524D01*
X17702380Y50573572D01*
X17702380Y49906905D01*
X17607142Y49525953D01*
X17416666Y49335477D01*
X17226190Y49240239D01*
X16845238Y49240239D01*
X16654761Y49335477D01*
X16464285Y49525953D01*
X16369047Y49906905D01*
X16369047Y50573572D01*
X16464285Y50954524D01*
X16654761Y51145000D01*
X16845238Y51240239D01*
X19226190Y50287858D02*
X18559523Y50287858D01*
X18559523Y49240239D02*
X18559523Y51240239D01*
X19511904Y51240239D01*
X20940476Y50287858D02*
X20273809Y50287858D01*
X20273809Y49240239D02*
X20273809Y51240239D01*
X21226190Y51240239D01*
D11*
X27035714Y49957143D02*
X27035714Y51157143D01*
X28607142Y50071429D02*
X28535714Y50014286D01*
X28321428Y49957143D01*
X28178571Y49957143D01*
X27964285Y50014286D01*
X27821428Y50128572D01*
X27750000Y50242858D01*
X27678571Y50471429D01*
X27678571Y50642858D01*
X27750000Y50871429D01*
X27821428Y50985715D01*
X27964285Y51100000D01*
X28178571Y51157143D01*
X28321428Y51157143D01*
X28535714Y51100000D01*
X28607142Y51042858D01*
X29178571Y50014286D02*
X29392857Y49957143D01*
X29750000Y49957143D01*
X29892857Y50014286D01*
X29964285Y50071429D01*
X30035714Y50185715D01*
X30035714Y50300000D01*
X29964285Y50414286D01*
X29892857Y50471429D01*
X29750000Y50528572D01*
X29464285Y50585715D01*
X29321428Y50642858D01*
X29250000Y50700000D01*
X29178571Y50814286D01*
X29178571Y50928572D01*
X29250000Y51042858D01*
X29321428Y51100000D01*
X29464285Y51157143D01*
X29821428Y51157143D01*
X30035714Y51100000D01*
X30678571Y49957143D02*
X30678571Y51157143D01*
X31250000Y51157143D01*
X31392857Y51100000D01*
X31464285Y51042858D01*
X31535714Y50928572D01*
X31535714Y50757143D01*
X31464285Y50642858D01*
X31392857Y50585715D01*
X31250000Y50528572D01*
X30678571Y50528572D01*
D12*
X18849761Y31031905D02*
X18849761Y29889048D01*
X18849761Y30460477D02*
X16849761Y30460477D01*
X17135476Y30270000D01*
X17325952Y30079524D01*
X17421190Y29889048D01*
X17040238Y31793810D02*
X16945000Y31889048D01*
X16849761Y32079524D01*
X16849761Y32555715D01*
X16945000Y32746191D01*
X17040238Y32841429D01*
X17230714Y32936667D01*
X17421190Y32936667D01*
X17706904Y32841429D01*
X18849761Y31698572D01*
X18849761Y32936667D01*
X16849761Y33508096D02*
X18849761Y34174762D01*
X16849761Y34841429D01*
X18849761Y35508096D02*
X16849761Y35508096D01*
X16849761Y35984286D01*
X16945000Y36270000D01*
X17135476Y36460477D01*
X17325952Y36555715D01*
X17706904Y36650953D01*
X17992619Y36650953D01*
X18373571Y36555715D01*
X18564047Y36460477D01*
X18754523Y36270000D01*
X18849761Y35984286D01*
X18849761Y35508096D01*
X18659285Y38650953D02*
X18754523Y38555715D01*
X18849761Y38270000D01*
X18849761Y38079524D01*
X18754523Y37793810D01*
X18564047Y37603334D01*
X18373571Y37508096D01*
X17992619Y37412858D01*
X17706904Y37412858D01*
X17325952Y37508096D01*
X17135476Y37603334D01*
X16945000Y37793810D01*
X16849761Y38079524D01*
X16849761Y38270000D01*
X16945000Y38555715D01*
X17040238Y38650953D01*
D14*
X167805000Y73875000D02*
X167805000Y76415000D01*
X158915000Y78955000D02*
X167805000Y78955000D01*
X158915000Y71335000D02*
X158915000Y68795000D01*
X167805000Y71335000D02*
X167805000Y73875000D01*
X158915000Y76415000D02*
X158915000Y73875000D01*
X158915000Y81495000D02*
X158915000Y78955000D01*
X167805000Y78955000D02*
X167805000Y81495000D01*
X167805000Y81495000D02*
X167805000Y84035000D01*
X158915000Y76415000D02*
X167805000Y76415000D01*
X158915000Y81495000D02*
X167805000Y81495000D01*
X158915000Y71335000D02*
X167805000Y71335000D01*
X158915000Y78955000D02*
X158915000Y76415000D01*
X167805000Y68795000D02*
X167805000Y71335000D01*
X158915000Y84035000D02*
X167805000Y84035000D01*
X158915000Y73875000D02*
X158915000Y71335000D01*
X158915000Y73875000D02*
X167805000Y73875000D01*
X158915000Y84035000D02*
X158915000Y81495000D01*
X167805000Y76415000D02*
X167805000Y78955000D01*
X158915000Y68795000D02*
X167805000Y68795000D01*
D11*
X159467142Y72119286D02*
X159681428Y72062143D01*
X160038571Y72062143D01*
X160181428Y72119286D01*
X160252857Y72176429D01*
X160324285Y72290715D01*
X160324285Y72405000D01*
X160252857Y72519286D01*
X160181428Y72576429D01*
X160038571Y72633572D01*
X159752857Y72690715D01*
X159610000Y72747858D01*
X159538571Y72805000D01*
X159467142Y72919286D01*
X159467142Y73033572D01*
X159538571Y73147858D01*
X159610000Y73205000D01*
X159752857Y73262143D01*
X160110000Y73262143D01*
X160324285Y73205000D01*
X160967142Y72690715D02*
X161467142Y72690715D01*
X161681428Y72062143D02*
X160967142Y72062143D01*
X160967142Y73262143D01*
X161681428Y73262143D01*
X163110000Y73205000D02*
X162967142Y73262143D01*
X162752857Y73262143D01*
X162538571Y73205000D01*
X162395714Y73090715D01*
X162324285Y72976429D01*
X162252857Y72747858D01*
X162252857Y72576429D01*
X162324285Y72347858D01*
X162395714Y72233572D01*
X162538571Y72119286D01*
X162752857Y72062143D01*
X162895714Y72062143D01*
X163110000Y72119286D01*
X163181428Y72176429D01*
X163181428Y72576429D01*
X162895714Y72576429D01*
X164110000Y73262143D02*
X164252857Y73262143D01*
X164395714Y73205000D01*
X164467142Y73147858D01*
X164538571Y73033572D01*
X164610000Y72805000D01*
X164610000Y72519286D01*
X164538571Y72290715D01*
X164467142Y72176429D01*
X164395714Y72119286D01*
X164252857Y72062143D01*
X164110000Y72062143D01*
X163967142Y72119286D01*
X163895714Y72176429D01*
X163824285Y72290715D01*
X163752857Y72519286D01*
X163752857Y72805000D01*
X163824285Y73033572D01*
X163895714Y73147858D01*
X163967142Y73205000D01*
X164110000Y73262143D01*
X164895714Y71947858D02*
X166038571Y71947858D01*
X166895714Y72690715D02*
X167110000Y72633572D01*
X167181428Y72576429D01*
X167252857Y72462143D01*
X167252857Y72290715D01*
X167181428Y72176429D01*
X167110000Y72119286D01*
X166967142Y72062143D01*
X166395714Y72062143D01*
X166395714Y73262143D01*
X166895714Y73262143D01*
X167038571Y73205000D01*
X167110000Y73147858D01*
X167181428Y73033572D01*
X167181428Y72919286D01*
X167110000Y72805000D01*
X167038571Y72747858D01*
X166895714Y72690715D01*
X166395714Y72690715D01*
X159574285Y69579286D02*
X159788571Y69522143D01*
X160145714Y69522143D01*
X160288571Y69579286D01*
X160360000Y69636429D01*
X160431428Y69750715D01*
X160431428Y69865000D01*
X160360000Y69979286D01*
X160288571Y70036429D01*
X160145714Y70093572D01*
X159860000Y70150715D01*
X159717142Y70207858D01*
X159645714Y70265000D01*
X159574285Y70379286D01*
X159574285Y70493572D01*
X159645714Y70607858D01*
X159717142Y70665000D01*
X159860000Y70722143D01*
X160217142Y70722143D01*
X160431428Y70665000D01*
X161074285Y70150715D02*
X161574285Y70150715D01*
X161788571Y69522143D02*
X161074285Y69522143D01*
X161074285Y70722143D01*
X161788571Y70722143D01*
X163217142Y70665000D02*
X163074285Y70722143D01*
X162860000Y70722143D01*
X162645714Y70665000D01*
X162502857Y70550715D01*
X162431428Y70436429D01*
X162360000Y70207858D01*
X162360000Y70036429D01*
X162431428Y69807858D01*
X162502857Y69693572D01*
X162645714Y69579286D01*
X162860000Y69522143D01*
X163002857Y69522143D01*
X163217142Y69579286D01*
X163288571Y69636429D01*
X163288571Y70036429D01*
X163002857Y70036429D01*
X164217142Y70722143D02*
X164360000Y70722143D01*
X164502857Y70665000D01*
X164574285Y70607858D01*
X164645714Y70493572D01*
X164717142Y70265000D01*
X164717142Y69979286D01*
X164645714Y69750715D01*
X164574285Y69636429D01*
X164502857Y69579286D01*
X164360000Y69522143D01*
X164217142Y69522143D01*
X164074285Y69579286D01*
X164002857Y69636429D01*
X163931428Y69750715D01*
X163860000Y69979286D01*
X163860000Y70265000D01*
X163931428Y70493572D01*
X164002857Y70607858D01*
X164074285Y70665000D01*
X164217142Y70722143D01*
X165002857Y69407858D02*
X166145714Y69407858D01*
X166431428Y69865000D02*
X167145714Y69865000D01*
X166288571Y69522143D02*
X166788571Y70722143D01*
X167288571Y69522143D01*
X159467142Y77199286D02*
X159681428Y77142143D01*
X160038571Y77142143D01*
X160181428Y77199286D01*
X160252857Y77256429D01*
X160324285Y77370715D01*
X160324285Y77485000D01*
X160252857Y77599286D01*
X160181428Y77656429D01*
X160038571Y77713572D01*
X159752857Y77770715D01*
X159610000Y77827858D01*
X159538571Y77885000D01*
X159467142Y77999286D01*
X159467142Y78113572D01*
X159538571Y78227858D01*
X159610000Y78285000D01*
X159752857Y78342143D01*
X160110000Y78342143D01*
X160324285Y78285000D01*
X160967142Y77770715D02*
X161467142Y77770715D01*
X161681428Y77142143D02*
X160967142Y77142143D01*
X160967142Y78342143D01*
X161681428Y78342143D01*
X163110000Y78285000D02*
X162967142Y78342143D01*
X162752857Y78342143D01*
X162538571Y78285000D01*
X162395714Y78170715D01*
X162324285Y78056429D01*
X162252857Y77827858D01*
X162252857Y77656429D01*
X162324285Y77427858D01*
X162395714Y77313572D01*
X162538571Y77199286D01*
X162752857Y77142143D01*
X162895714Y77142143D01*
X163110000Y77199286D01*
X163181428Y77256429D01*
X163181428Y77656429D01*
X162895714Y77656429D01*
X164110000Y78342143D02*
X164252857Y78342143D01*
X164395714Y78285000D01*
X164467142Y78227858D01*
X164538571Y78113572D01*
X164610000Y77885000D01*
X164610000Y77599286D01*
X164538571Y77370715D01*
X164467142Y77256429D01*
X164395714Y77199286D01*
X164252857Y77142143D01*
X164110000Y77142143D01*
X163967142Y77199286D01*
X163895714Y77256429D01*
X163824285Y77370715D01*
X163752857Y77599286D01*
X163752857Y77885000D01*
X163824285Y78113572D01*
X163895714Y78227858D01*
X163967142Y78285000D01*
X164110000Y78342143D01*
X164895714Y77027858D02*
X166038571Y77027858D01*
X166395714Y77142143D02*
X166395714Y78342143D01*
X166752857Y78342143D01*
X166967142Y78285000D01*
X167110000Y78170715D01*
X167181428Y78056429D01*
X167252857Y77827858D01*
X167252857Y77656429D01*
X167181428Y77427858D01*
X167110000Y77313572D01*
X166967142Y77199286D01*
X166752857Y77142143D01*
X166395714Y77142143D01*
X159574285Y82279286D02*
X159788571Y82222143D01*
X160145714Y82222143D01*
X160288571Y82279286D01*
X160360000Y82336429D01*
X160431428Y82450715D01*
X160431428Y82565000D01*
X160360000Y82679286D01*
X160288571Y82736429D01*
X160145714Y82793572D01*
X159860000Y82850715D01*
X159717142Y82907858D01*
X159645714Y82965000D01*
X159574285Y83079286D01*
X159574285Y83193572D01*
X159645714Y83307858D01*
X159717142Y83365000D01*
X159860000Y83422143D01*
X160217142Y83422143D01*
X160431428Y83365000D01*
X161074285Y82850715D02*
X161574285Y82850715D01*
X161788571Y82222143D02*
X161074285Y82222143D01*
X161074285Y83422143D01*
X161788571Y83422143D01*
X163217142Y83365000D02*
X163074285Y83422143D01*
X162860000Y83422143D01*
X162645714Y83365000D01*
X162502857Y83250715D01*
X162431428Y83136429D01*
X162360000Y82907858D01*
X162360000Y82736429D01*
X162431428Y82507858D01*
X162502857Y82393572D01*
X162645714Y82279286D01*
X162860000Y82222143D01*
X163002857Y82222143D01*
X163217142Y82279286D01*
X163288571Y82336429D01*
X163288571Y82736429D01*
X163002857Y82736429D01*
X164217142Y83422143D02*
X164360000Y83422143D01*
X164502857Y83365000D01*
X164574285Y83307858D01*
X164645714Y83193572D01*
X164717142Y82965000D01*
X164717142Y82679286D01*
X164645714Y82450715D01*
X164574285Y82336429D01*
X164502857Y82279286D01*
X164360000Y82222143D01*
X164217142Y82222143D01*
X164074285Y82279286D01*
X164002857Y82336429D01*
X163931428Y82450715D01*
X163860000Y82679286D01*
X163860000Y82965000D01*
X163931428Y83193572D01*
X164002857Y83307858D01*
X164074285Y83365000D01*
X164217142Y83422143D01*
X165002857Y82107858D02*
X166145714Y82107858D01*
X167002857Y82850715D02*
X166502857Y82850715D01*
X166502857Y82222143D02*
X166502857Y83422143D01*
X167217142Y83422143D01*
X159538571Y79739286D02*
X159752857Y79682143D01*
X160110000Y79682143D01*
X160252857Y79739286D01*
X160324285Y79796429D01*
X160395714Y79910715D01*
X160395714Y80025000D01*
X160324285Y80139286D01*
X160252857Y80196429D01*
X160110000Y80253572D01*
X159824285Y80310715D01*
X159681428Y80367858D01*
X159610000Y80425000D01*
X159538571Y80539286D01*
X159538571Y80653572D01*
X159610000Y80767858D01*
X159681428Y80825000D01*
X159824285Y80882143D01*
X160181428Y80882143D01*
X160395714Y80825000D01*
X161038571Y80310715D02*
X161538571Y80310715D01*
X161752857Y79682143D02*
X161038571Y79682143D01*
X161038571Y80882143D01*
X161752857Y80882143D01*
X163181428Y80825000D02*
X163038571Y80882143D01*
X162824285Y80882143D01*
X162610000Y80825000D01*
X162467142Y80710715D01*
X162395714Y80596429D01*
X162324285Y80367858D01*
X162324285Y80196429D01*
X162395714Y79967858D01*
X162467142Y79853572D01*
X162610000Y79739286D01*
X162824285Y79682143D01*
X162967142Y79682143D01*
X163181428Y79739286D01*
X163252857Y79796429D01*
X163252857Y80196429D01*
X162967142Y80196429D01*
X164181428Y80882143D02*
X164324285Y80882143D01*
X164467142Y80825000D01*
X164538571Y80767858D01*
X164610000Y80653572D01*
X164681428Y80425000D01*
X164681428Y80139286D01*
X164610000Y79910715D01*
X164538571Y79796429D01*
X164467142Y79739286D01*
X164324285Y79682143D01*
X164181428Y79682143D01*
X164038571Y79739286D01*
X163967142Y79796429D01*
X163895714Y79910715D01*
X163824285Y80139286D01*
X163824285Y80425000D01*
X163895714Y80653572D01*
X163967142Y80767858D01*
X164038571Y80825000D01*
X164181428Y80882143D01*
X164967142Y79567858D02*
X166110000Y79567858D01*
X166467142Y80310715D02*
X166967142Y80310715D01*
X167181428Y79682143D02*
X166467142Y79682143D01*
X166467142Y80882143D01*
X167181428Y80882143D01*
X159467142Y84819286D02*
X159681428Y84762143D01*
X160038571Y84762143D01*
X160181428Y84819286D01*
X160252857Y84876429D01*
X160324285Y84990715D01*
X160324285Y85105000D01*
X160252857Y85219286D01*
X160181428Y85276429D01*
X160038571Y85333572D01*
X159752857Y85390715D01*
X159610000Y85447858D01*
X159538571Y85505000D01*
X159467142Y85619286D01*
X159467142Y85733572D01*
X159538571Y85847858D01*
X159610000Y85905000D01*
X159752857Y85962143D01*
X160110000Y85962143D01*
X160324285Y85905000D01*
X160967142Y85390715D02*
X161467142Y85390715D01*
X161681428Y84762143D02*
X160967142Y84762143D01*
X160967142Y85962143D01*
X161681428Y85962143D01*
X163110000Y85905000D02*
X162967142Y85962143D01*
X162752857Y85962143D01*
X162538571Y85905000D01*
X162395714Y85790715D01*
X162324285Y85676429D01*
X162252857Y85447858D01*
X162252857Y85276429D01*
X162324285Y85047858D01*
X162395714Y84933572D01*
X162538571Y84819286D01*
X162752857Y84762143D01*
X162895714Y84762143D01*
X163110000Y84819286D01*
X163181428Y84876429D01*
X163181428Y85276429D01*
X162895714Y85276429D01*
X164110000Y85962143D02*
X164252857Y85962143D01*
X164395714Y85905000D01*
X164467142Y85847858D01*
X164538571Y85733572D01*
X164610000Y85505000D01*
X164610000Y85219286D01*
X164538571Y84990715D01*
X164467142Y84876429D01*
X164395714Y84819286D01*
X164252857Y84762143D01*
X164110000Y84762143D01*
X163967142Y84819286D01*
X163895714Y84876429D01*
X163824285Y84990715D01*
X163752857Y85219286D01*
X163752857Y85505000D01*
X163824285Y85733572D01*
X163895714Y85847858D01*
X163967142Y85905000D01*
X164110000Y85962143D01*
X164895714Y84647858D02*
X166038571Y84647858D01*
X167181428Y85905000D02*
X167038571Y85962143D01*
X166824285Y85962143D01*
X166610000Y85905000D01*
X166467142Y85790715D01*
X166395714Y85676429D01*
X166324285Y85447858D01*
X166324285Y85276429D01*
X166395714Y85047858D01*
X166467142Y84933572D01*
X166610000Y84819286D01*
X166824285Y84762143D01*
X166967142Y84762143D01*
X167181428Y84819286D01*
X167252857Y84876429D01*
X167252857Y85276429D01*
X166967142Y85276429D01*
X159467142Y74659286D02*
X159681428Y74602143D01*
X160038571Y74602143D01*
X160181428Y74659286D01*
X160252857Y74716429D01*
X160324285Y74830715D01*
X160324285Y74945000D01*
X160252857Y75059286D01*
X160181428Y75116429D01*
X160038571Y75173572D01*
X159752857Y75230715D01*
X159610000Y75287858D01*
X159538571Y75345000D01*
X159467142Y75459286D01*
X159467142Y75573572D01*
X159538571Y75687858D01*
X159610000Y75745000D01*
X159752857Y75802143D01*
X160110000Y75802143D01*
X160324285Y75745000D01*
X160967142Y75230715D02*
X161467142Y75230715D01*
X161681428Y74602143D02*
X160967142Y74602143D01*
X160967142Y75802143D01*
X161681428Y75802143D01*
X163110000Y75745000D02*
X162967142Y75802143D01*
X162752857Y75802143D01*
X162538571Y75745000D01*
X162395714Y75630715D01*
X162324285Y75516429D01*
X162252857Y75287858D01*
X162252857Y75116429D01*
X162324285Y74887858D01*
X162395714Y74773572D01*
X162538571Y74659286D01*
X162752857Y74602143D01*
X162895714Y74602143D01*
X163110000Y74659286D01*
X163181428Y74716429D01*
X163181428Y75116429D01*
X162895714Y75116429D01*
X164110000Y75802143D02*
X164252857Y75802143D01*
X164395714Y75745000D01*
X164467142Y75687858D01*
X164538571Y75573572D01*
X164610000Y75345000D01*
X164610000Y75059286D01*
X164538571Y74830715D01*
X164467142Y74716429D01*
X164395714Y74659286D01*
X164252857Y74602143D01*
X164110000Y74602143D01*
X163967142Y74659286D01*
X163895714Y74716429D01*
X163824285Y74830715D01*
X163752857Y75059286D01*
X163752857Y75345000D01*
X163824285Y75573572D01*
X163895714Y75687858D01*
X163967142Y75745000D01*
X164110000Y75802143D01*
X164895714Y74487858D02*
X166038571Y74487858D01*
X167252857Y74716429D02*
X167181428Y74659286D01*
X166967142Y74602143D01*
X166824285Y74602143D01*
X166610000Y74659286D01*
X166467142Y74773572D01*
X166395714Y74887858D01*
X166324285Y75116429D01*
X166324285Y75287858D01*
X166395714Y75516429D01*
X166467142Y75630715D01*
X166610000Y75745000D01*
X166824285Y75802143D01*
X166967142Y75802143D01*
X167181428Y75745000D01*
X167252857Y75687858D01*
D14*
X158915000Y86575000D02*
X158915000Y84035000D01*
X167805000Y84035000D02*
X167805000Y86575000D01*
X158915000Y86575000D02*
X167805000Y86575000D01*
X158915000Y39785000D02*
X167805000Y39785000D01*
D11*
X159574285Y40569286D02*
X159788571Y40512143D01*
X160145714Y40512143D01*
X160288571Y40569286D01*
X160360000Y40626429D01*
X160431428Y40740715D01*
X160431428Y40855000D01*
X160360000Y40969286D01*
X160288571Y41026429D01*
X160145714Y41083572D01*
X159860000Y41140715D01*
X159717142Y41197858D01*
X159645714Y41255000D01*
X159574285Y41369286D01*
X159574285Y41483572D01*
X159645714Y41597858D01*
X159717142Y41655000D01*
X159860000Y41712143D01*
X160217142Y41712143D01*
X160431428Y41655000D01*
X161074285Y41140715D02*
X161574285Y41140715D01*
X161788571Y40512143D02*
X161074285Y40512143D01*
X161074285Y41712143D01*
X161788571Y41712143D01*
X163217142Y41655000D02*
X163074285Y41712143D01*
X162860000Y41712143D01*
X162645714Y41655000D01*
X162502857Y41540715D01*
X162431428Y41426429D01*
X162360000Y41197858D01*
X162360000Y41026429D01*
X162431428Y40797858D01*
X162502857Y40683572D01*
X162645714Y40569286D01*
X162860000Y40512143D01*
X163002857Y40512143D01*
X163217142Y40569286D01*
X163288571Y40626429D01*
X163288571Y41026429D01*
X163002857Y41026429D01*
X164717142Y40512143D02*
X163860000Y40512143D01*
X164288571Y40512143D02*
X164288571Y41712143D01*
X164145714Y41540715D01*
X164002857Y41426429D01*
X163860000Y41369286D01*
X165002857Y40397858D02*
X166145714Y40397858D01*
X166431428Y40855000D02*
X167145714Y40855000D01*
X166288571Y40512143D02*
X166788571Y41712143D01*
X167288571Y40512143D01*
X159467142Y43109286D02*
X159681428Y43052143D01*
X160038571Y43052143D01*
X160181428Y43109286D01*
X160252857Y43166429D01*
X160324285Y43280715D01*
X160324285Y43395000D01*
X160252857Y43509286D01*
X160181428Y43566429D01*
X160038571Y43623572D01*
X159752857Y43680715D01*
X159610000Y43737858D01*
X159538571Y43795000D01*
X159467142Y43909286D01*
X159467142Y44023572D01*
X159538571Y44137858D01*
X159610000Y44195000D01*
X159752857Y44252143D01*
X160110000Y44252143D01*
X160324285Y44195000D01*
X160967142Y43680715D02*
X161467142Y43680715D01*
X161681428Y43052143D02*
X160967142Y43052143D01*
X160967142Y44252143D01*
X161681428Y44252143D01*
X163110000Y44195000D02*
X162967142Y44252143D01*
X162752857Y44252143D01*
X162538571Y44195000D01*
X162395714Y44080715D01*
X162324285Y43966429D01*
X162252857Y43737858D01*
X162252857Y43566429D01*
X162324285Y43337858D01*
X162395714Y43223572D01*
X162538571Y43109286D01*
X162752857Y43052143D01*
X162895714Y43052143D01*
X163110000Y43109286D01*
X163181428Y43166429D01*
X163181428Y43566429D01*
X162895714Y43566429D01*
X164610000Y43052143D02*
X163752857Y43052143D01*
X164181428Y43052143D02*
X164181428Y44252143D01*
X164038571Y44080715D01*
X163895714Y43966429D01*
X163752857Y43909286D01*
X164895714Y42937858D02*
X166038571Y42937858D01*
X166895714Y43680715D02*
X167110000Y43623572D01*
X167181428Y43566429D01*
X167252857Y43452143D01*
X167252857Y43280715D01*
X167181428Y43166429D01*
X167110000Y43109286D01*
X166967142Y43052143D01*
X166395714Y43052143D01*
X166395714Y44252143D01*
X166895714Y44252143D01*
X167038571Y44195000D01*
X167110000Y44137858D01*
X167181428Y44023572D01*
X167181428Y43909286D01*
X167110000Y43795000D01*
X167038571Y43737858D01*
X166895714Y43680715D01*
X166395714Y43680715D01*
X159467142Y45649286D02*
X159681428Y45592143D01*
X160038571Y45592143D01*
X160181428Y45649286D01*
X160252857Y45706429D01*
X160324285Y45820715D01*
X160324285Y45935000D01*
X160252857Y46049286D01*
X160181428Y46106429D01*
X160038571Y46163572D01*
X159752857Y46220715D01*
X159610000Y46277858D01*
X159538571Y46335000D01*
X159467142Y46449286D01*
X159467142Y46563572D01*
X159538571Y46677858D01*
X159610000Y46735000D01*
X159752857Y46792143D01*
X160110000Y46792143D01*
X160324285Y46735000D01*
X160967142Y46220715D02*
X161467142Y46220715D01*
X161681428Y45592143D02*
X160967142Y45592143D01*
X160967142Y46792143D01*
X161681428Y46792143D01*
X163110000Y46735000D02*
X162967142Y46792143D01*
X162752857Y46792143D01*
X162538571Y46735000D01*
X162395714Y46620715D01*
X162324285Y46506429D01*
X162252857Y46277858D01*
X162252857Y46106429D01*
X162324285Y45877858D01*
X162395714Y45763572D01*
X162538571Y45649286D01*
X162752857Y45592143D01*
X162895714Y45592143D01*
X163110000Y45649286D01*
X163181428Y45706429D01*
X163181428Y46106429D01*
X162895714Y46106429D01*
X164610000Y45592143D02*
X163752857Y45592143D01*
X164181428Y45592143D02*
X164181428Y46792143D01*
X164038571Y46620715D01*
X163895714Y46506429D01*
X163752857Y46449286D01*
X164895714Y45477858D02*
X166038571Y45477858D01*
X167252857Y45706429D02*
X167181428Y45649286D01*
X166967142Y45592143D01*
X166824285Y45592143D01*
X166610000Y45649286D01*
X166467142Y45763572D01*
X166395714Y45877858D01*
X166324285Y46106429D01*
X166324285Y46277858D01*
X166395714Y46506429D01*
X166467142Y46620715D01*
X166610000Y46735000D01*
X166824285Y46792143D01*
X166967142Y46792143D01*
X167181428Y46735000D01*
X167252857Y46677858D01*
X159467142Y48189286D02*
X159681428Y48132143D01*
X160038571Y48132143D01*
X160181428Y48189286D01*
X160252857Y48246429D01*
X160324285Y48360715D01*
X160324285Y48475000D01*
X160252857Y48589286D01*
X160181428Y48646429D01*
X160038571Y48703572D01*
X159752857Y48760715D01*
X159610000Y48817858D01*
X159538571Y48875000D01*
X159467142Y48989286D01*
X159467142Y49103572D01*
X159538571Y49217858D01*
X159610000Y49275000D01*
X159752857Y49332143D01*
X160110000Y49332143D01*
X160324285Y49275000D01*
X160967142Y48760715D02*
X161467142Y48760715D01*
X161681428Y48132143D02*
X160967142Y48132143D01*
X160967142Y49332143D01*
X161681428Y49332143D01*
X163110000Y49275000D02*
X162967142Y49332143D01*
X162752857Y49332143D01*
X162538571Y49275000D01*
X162395714Y49160715D01*
X162324285Y49046429D01*
X162252857Y48817858D01*
X162252857Y48646429D01*
X162324285Y48417858D01*
X162395714Y48303572D01*
X162538571Y48189286D01*
X162752857Y48132143D01*
X162895714Y48132143D01*
X163110000Y48189286D01*
X163181428Y48246429D01*
X163181428Y48646429D01*
X162895714Y48646429D01*
X164610000Y48132143D02*
X163752857Y48132143D01*
X164181428Y48132143D02*
X164181428Y49332143D01*
X164038571Y49160715D01*
X163895714Y49046429D01*
X163752857Y48989286D01*
X164895714Y48017858D02*
X166038571Y48017858D01*
X166395714Y48132143D02*
X166395714Y49332143D01*
X166752857Y49332143D01*
X166967142Y49275000D01*
X167110000Y49160715D01*
X167181428Y49046429D01*
X167252857Y48817858D01*
X167252857Y48646429D01*
X167181428Y48417858D01*
X167110000Y48303572D01*
X166967142Y48189286D01*
X166752857Y48132143D01*
X166395714Y48132143D01*
X159538571Y50729286D02*
X159752857Y50672143D01*
X160110000Y50672143D01*
X160252857Y50729286D01*
X160324285Y50786429D01*
X160395714Y50900715D01*
X160395714Y51015000D01*
X160324285Y51129286D01*
X160252857Y51186429D01*
X160110000Y51243572D01*
X159824285Y51300715D01*
X159681428Y51357858D01*
X159610000Y51415000D01*
X159538571Y51529286D01*
X159538571Y51643572D01*
X159610000Y51757858D01*
X159681428Y51815000D01*
X159824285Y51872143D01*
X160181428Y51872143D01*
X160395714Y51815000D01*
X161038571Y51300715D02*
X161538571Y51300715D01*
X161752857Y50672143D02*
X161038571Y50672143D01*
X161038571Y51872143D01*
X161752857Y51872143D01*
X163181428Y51815000D02*
X163038571Y51872143D01*
X162824285Y51872143D01*
X162610000Y51815000D01*
X162467142Y51700715D01*
X162395714Y51586429D01*
X162324285Y51357858D01*
X162324285Y51186429D01*
X162395714Y50957858D01*
X162467142Y50843572D01*
X162610000Y50729286D01*
X162824285Y50672143D01*
X162967142Y50672143D01*
X163181428Y50729286D01*
X163252857Y50786429D01*
X163252857Y51186429D01*
X162967142Y51186429D01*
X164681428Y50672143D02*
X163824285Y50672143D01*
X164252857Y50672143D02*
X164252857Y51872143D01*
X164110000Y51700715D01*
X163967142Y51586429D01*
X163824285Y51529286D01*
X164967142Y50557858D02*
X166110000Y50557858D01*
X166467142Y51300715D02*
X166967142Y51300715D01*
X167181428Y50672143D02*
X166467142Y50672143D01*
X166467142Y51872143D01*
X167181428Y51872143D01*
X159574285Y53269286D02*
X159788571Y53212143D01*
X160145714Y53212143D01*
X160288571Y53269286D01*
X160360000Y53326429D01*
X160431428Y53440715D01*
X160431428Y53555000D01*
X160360000Y53669286D01*
X160288571Y53726429D01*
X160145714Y53783572D01*
X159860000Y53840715D01*
X159717142Y53897858D01*
X159645714Y53955000D01*
X159574285Y54069286D01*
X159574285Y54183572D01*
X159645714Y54297858D01*
X159717142Y54355000D01*
X159860000Y54412143D01*
X160217142Y54412143D01*
X160431428Y54355000D01*
X161074285Y53840715D02*
X161574285Y53840715D01*
X161788571Y53212143D02*
X161074285Y53212143D01*
X161074285Y54412143D01*
X161788571Y54412143D01*
X163217142Y54355000D02*
X163074285Y54412143D01*
X162860000Y54412143D01*
X162645714Y54355000D01*
X162502857Y54240715D01*
X162431428Y54126429D01*
X162360000Y53897858D01*
X162360000Y53726429D01*
X162431428Y53497858D01*
X162502857Y53383572D01*
X162645714Y53269286D01*
X162860000Y53212143D01*
X163002857Y53212143D01*
X163217142Y53269286D01*
X163288571Y53326429D01*
X163288571Y53726429D01*
X163002857Y53726429D01*
X164717142Y53212143D02*
X163860000Y53212143D01*
X164288571Y53212143D02*
X164288571Y54412143D01*
X164145714Y54240715D01*
X164002857Y54126429D01*
X163860000Y54069286D01*
X165002857Y53097858D02*
X166145714Y53097858D01*
X167002857Y53840715D02*
X166502857Y53840715D01*
X166502857Y53212143D02*
X166502857Y54412143D01*
X167217142Y54412143D01*
D14*
X158915000Y42325000D02*
X158915000Y39785000D01*
X158915000Y44865000D02*
X158915000Y42325000D01*
X158915000Y47405000D02*
X158915000Y44865000D01*
X158915000Y49945000D02*
X158915000Y47405000D01*
X158915000Y52485000D02*
X158915000Y49945000D01*
X158915000Y55025000D02*
X158915000Y52485000D01*
X167805000Y39785000D02*
X167805000Y42325000D01*
X167805000Y42325000D02*
X167805000Y44865000D01*
X167805000Y44865000D02*
X167805000Y47405000D01*
X167805000Y47405000D02*
X167805000Y49945000D01*
X167805000Y49945000D02*
X167805000Y52485000D01*
X167805000Y52485000D02*
X167805000Y55025000D01*
X158915000Y42325000D02*
X167805000Y42325000D01*
X158915000Y44865000D02*
X167805000Y44865000D01*
X158915000Y47405000D02*
X167805000Y47405000D01*
X158915000Y49945000D02*
X167805000Y49945000D01*
X158915000Y52485000D02*
X167805000Y52485000D01*
X158915000Y55025000D02*
X167805000Y55025000D01*
X167805000Y55025000D02*
X167805000Y57565000D01*
X158915000Y57565000D02*
X167805000Y57565000D01*
X158915000Y57565000D02*
X158915000Y55025000D01*
D11*
X159467142Y55809286D02*
X159681428Y55752143D01*
X160038571Y55752143D01*
X160181428Y55809286D01*
X160252857Y55866429D01*
X160324285Y55980715D01*
X160324285Y56095000D01*
X160252857Y56209286D01*
X160181428Y56266429D01*
X160038571Y56323572D01*
X159752857Y56380715D01*
X159610000Y56437858D01*
X159538571Y56495000D01*
X159467142Y56609286D01*
X159467142Y56723572D01*
X159538571Y56837858D01*
X159610000Y56895000D01*
X159752857Y56952143D01*
X160110000Y56952143D01*
X160324285Y56895000D01*
X160967142Y56380715D02*
X161467142Y56380715D01*
X161681428Y55752143D02*
X160967142Y55752143D01*
X160967142Y56952143D01*
X161681428Y56952143D01*
X163110000Y56895000D02*
X162967142Y56952143D01*
X162752857Y56952143D01*
X162538571Y56895000D01*
X162395714Y56780715D01*
X162324285Y56666429D01*
X162252857Y56437858D01*
X162252857Y56266429D01*
X162324285Y56037858D01*
X162395714Y55923572D01*
X162538571Y55809286D01*
X162752857Y55752143D01*
X162895714Y55752143D01*
X163110000Y55809286D01*
X163181428Y55866429D01*
X163181428Y56266429D01*
X162895714Y56266429D01*
X164610000Y55752143D02*
X163752857Y55752143D01*
X164181428Y55752143D02*
X164181428Y56952143D01*
X164038571Y56780715D01*
X163895714Y56666429D01*
X163752857Y56609286D01*
X164895714Y55637858D02*
X166038571Y55637858D01*
X167181428Y56895000D02*
X167038571Y56952143D01*
X166824285Y56952143D01*
X166610000Y56895000D01*
X166467142Y56780715D01*
X166395714Y56666429D01*
X166324285Y56437858D01*
X166324285Y56266429D01*
X166395714Y56037858D01*
X166467142Y55923572D01*
X166610000Y55809286D01*
X166824285Y55752143D01*
X166967142Y55752143D01*
X167181428Y55809286D01*
X167252857Y55866429D01*
X167252857Y56266429D01*
X166967142Y56266429D01*
X17821428Y657143D02*
X17321428Y1228572D01*
X16964285Y657143D02*
X16964285Y1857143D01*
X17535714Y1857143D01*
X17678571Y1800000D01*
X17750000Y1742858D01*
X17821428Y1628572D01*
X17821428Y1457143D01*
X17750000Y1342858D01*
X17678571Y1285715D01*
X17535714Y1228572D01*
X16964285Y1228572D01*
X18464285Y1285715D02*
X18964285Y1285715D01*
X19178571Y657143D02*
X18464285Y657143D01*
X18464285Y1857143D01*
X19178571Y1857143D01*
X19750000Y714286D02*
X19964285Y657143D01*
X20321428Y657143D01*
X20464285Y714286D01*
X20535714Y771429D01*
X20607142Y885715D01*
X20607142Y1000000D01*
X20535714Y1114286D01*
X20464285Y1171429D01*
X20321428Y1228572D01*
X20035714Y1285715D01*
X19892857Y1342858D01*
X19821428Y1400000D01*
X19750000Y1514286D01*
X19750000Y1628572D01*
X19821428Y1742858D01*
X19892857Y1800000D01*
X20035714Y1857143D01*
X20392857Y1857143D01*
X20607142Y1800000D01*
X21250000Y1285715D02*
X21750000Y1285715D01*
X21964285Y657143D02*
X21250000Y657143D01*
X21250000Y1857143D01*
X21964285Y1857143D01*
X22392857Y1857143D02*
X23250000Y1857143D01*
X22821428Y657143D02*
X22821428Y1857143D01*
D12*
X140881428Y61400477D02*
X141167142Y61305239D01*
X141643333Y61305239D01*
X141833809Y61400477D01*
X141929047Y61495715D01*
X142024285Y61686191D01*
X142024285Y61876667D01*
X141929047Y62067143D01*
X141833809Y62162381D01*
X141643333Y62257620D01*
X141262380Y62352858D01*
X141071904Y62448096D01*
X140976666Y62543334D01*
X140881428Y62733810D01*
X140881428Y62924286D01*
X140976666Y63114762D01*
X141071904Y63210000D01*
X141262380Y63305239D01*
X141738571Y63305239D01*
X142024285Y63210000D01*
X142881428Y62352858D02*
X143548095Y62352858D01*
X143833809Y61305239D02*
X142881428Y61305239D01*
X142881428Y63305239D01*
X143833809Y63305239D01*
X145738571Y63210000D02*
X145548095Y63305239D01*
X145262380Y63305239D01*
X144976666Y63210000D01*
X144786190Y63019524D01*
X144690952Y62829048D01*
X144595714Y62448096D01*
X144595714Y62162381D01*
X144690952Y61781429D01*
X144786190Y61590953D01*
X144976666Y61400477D01*
X145262380Y61305239D01*
X145452857Y61305239D01*
X145738571Y61400477D01*
X145833809Y61495715D01*
X145833809Y62162381D01*
X145452857Y62162381D01*
X147071904Y63305239D02*
X147262380Y63305239D01*
X147452857Y63210000D01*
X147548095Y63114762D01*
X147643333Y62924286D01*
X147738571Y62543334D01*
X147738571Y62067143D01*
X147643333Y61686191D01*
X147548095Y61495715D01*
X147452857Y61400477D01*
X147262380Y61305239D01*
X147071904Y61305239D01*
X146881428Y61400477D01*
X146786190Y61495715D01*
X146690952Y61686191D01*
X146595714Y62067143D01*
X146595714Y62543334D01*
X146690952Y62924286D01*
X146786190Y63114762D01*
X146881428Y63210000D01*
X147071904Y63305239D01*
X125641428Y61400477D02*
X125927142Y61305239D01*
X126403333Y61305239D01*
X126593809Y61400477D01*
X126689047Y61495715D01*
X126784285Y61686191D01*
X126784285Y61876667D01*
X126689047Y62067143D01*
X126593809Y62162381D01*
X126403333Y62257620D01*
X126022380Y62352858D01*
X125831904Y62448096D01*
X125736666Y62543334D01*
X125641428Y62733810D01*
X125641428Y62924286D01*
X125736666Y63114762D01*
X125831904Y63210000D01*
X126022380Y63305239D01*
X126498571Y63305239D01*
X126784285Y63210000D01*
X127641428Y62352858D02*
X128308095Y62352858D01*
X128593809Y61305239D02*
X127641428Y61305239D01*
X127641428Y63305239D01*
X128593809Y63305239D01*
X130498571Y63210000D02*
X130308095Y63305239D01*
X130022380Y63305239D01*
X129736666Y63210000D01*
X129546190Y63019524D01*
X129450952Y62829048D01*
X129355714Y62448096D01*
X129355714Y62162381D01*
X129450952Y61781429D01*
X129546190Y61590953D01*
X129736666Y61400477D01*
X130022380Y61305239D01*
X130212857Y61305239D01*
X130498571Y61400477D01*
X130593809Y61495715D01*
X130593809Y62162381D01*
X130212857Y62162381D01*
X132498571Y61305239D02*
X131355714Y61305239D01*
X131927142Y61305239D02*
X131927142Y63305239D01*
X131736666Y63019524D01*
X131546190Y62829048D01*
X131355714Y62733810D01*
D11*
X160434285Y108311429D02*
X160491428Y108525715D01*
X160548571Y108597143D01*
X160662857Y108668572D01*
X160834285Y108668572D01*
X160948571Y108597143D01*
X161005714Y108525715D01*
X161062857Y108382858D01*
X161062857Y107811429D01*
X159862857Y107811429D01*
X159862857Y108311429D01*
X159920000Y108454286D01*
X159977142Y108525715D01*
X160091428Y108597143D01*
X160205714Y108597143D01*
X160320000Y108525715D01*
X160377142Y108454286D01*
X160434285Y108311429D01*
X160434285Y107811429D01*
X160948571Y110168572D02*
X161005714Y110097143D01*
X161062857Y109882858D01*
X161062857Y109740000D01*
X161005714Y109525715D01*
X160891428Y109382858D01*
X160777142Y109311429D01*
X160548571Y109240000D01*
X160377142Y109240000D01*
X160148571Y109311429D01*
X160034285Y109382858D01*
X159920000Y109525715D01*
X159862857Y109740000D01*
X159862857Y109882858D01*
X159920000Y110097143D01*
X159977142Y110168572D01*
X161062857Y110811429D02*
X159862857Y110811429D01*
X159862857Y111168572D01*
X159920000Y111382858D01*
X160034285Y111525715D01*
X160148571Y111597143D01*
X160377142Y111668572D01*
X160548571Y111668572D01*
X160777142Y111597143D01*
X160891428Y111525715D01*
X161005714Y111382858D01*
X161062857Y111168572D01*
X161062857Y110811429D01*
X159862857Y112597143D02*
X159862857Y112740000D01*
X159920000Y112882858D01*
X159977142Y112954286D01*
X160091428Y113025715D01*
X160320000Y113097143D01*
X160605714Y113097143D01*
X160834285Y113025715D01*
X160948571Y112954286D01*
X161005714Y112882858D01*
X161062857Y112740000D01*
X161062857Y112597143D01*
X161005714Y112454286D01*
X160948571Y112382858D01*
X160834285Y112311429D01*
X160605714Y112240000D01*
X160320000Y112240000D01*
X160091428Y112311429D01*
X159977142Y112382858D01*
X159920000Y112454286D01*
X159862857Y112597143D01*
X161177142Y113382858D02*
X161177142Y114525715D01*
X161062857Y114882858D02*
X159862857Y114882858D01*
X159862857Y115240000D01*
X159920000Y115454286D01*
X160034285Y115597143D01*
X160148571Y115668572D01*
X160377142Y115740000D01*
X160548571Y115740000D01*
X160777142Y115668572D01*
X160891428Y115597143D01*
X161005714Y115454286D01*
X161062857Y115240000D01*
X161062857Y114882858D01*
X165514285Y108311429D02*
X165571428Y108525715D01*
X165628571Y108597143D01*
X165742857Y108668572D01*
X165914285Y108668572D01*
X166028571Y108597143D01*
X166085714Y108525715D01*
X166142857Y108382858D01*
X166142857Y107811429D01*
X164942857Y107811429D01*
X164942857Y108311429D01*
X165000000Y108454286D01*
X165057142Y108525715D01*
X165171428Y108597143D01*
X165285714Y108597143D01*
X165400000Y108525715D01*
X165457142Y108454286D01*
X165514285Y108311429D01*
X165514285Y107811429D01*
X166028571Y110168572D02*
X166085714Y110097143D01*
X166142857Y109882858D01*
X166142857Y109740000D01*
X166085714Y109525715D01*
X165971428Y109382858D01*
X165857142Y109311429D01*
X165628571Y109240000D01*
X165457142Y109240000D01*
X165228571Y109311429D01*
X165114285Y109382858D01*
X165000000Y109525715D01*
X164942857Y109740000D01*
X164942857Y109882858D01*
X165000000Y110097143D01*
X165057142Y110168572D01*
X166142857Y110811429D02*
X164942857Y110811429D01*
X164942857Y111168572D01*
X165000000Y111382858D01*
X165114285Y111525715D01*
X165228571Y111597143D01*
X165457142Y111668572D01*
X165628571Y111668572D01*
X165857142Y111597143D01*
X165971428Y111525715D01*
X166085714Y111382858D01*
X166142857Y111168572D01*
X166142857Y110811429D01*
X164942857Y112597143D02*
X164942857Y112740000D01*
X165000000Y112882858D01*
X165057142Y112954286D01*
X165171428Y113025715D01*
X165400000Y113097143D01*
X165685714Y113097143D01*
X165914285Y113025715D01*
X166028571Y112954286D01*
X166085714Y112882858D01*
X166142857Y112740000D01*
X166142857Y112597143D01*
X166085714Y112454286D01*
X166028571Y112382858D01*
X165914285Y112311429D01*
X165685714Y112240000D01*
X165400000Y112240000D01*
X165171428Y112311429D01*
X165057142Y112382858D01*
X165000000Y112454286D01*
X164942857Y112597143D01*
X166257142Y113382858D02*
X166257142Y114525715D01*
X165514285Y115382858D02*
X165571428Y115597143D01*
X165628571Y115668572D01*
X165742857Y115740000D01*
X165914285Y115740000D01*
X166028571Y115668572D01*
X166085714Y115597143D01*
X166142857Y115454286D01*
X166142857Y114882858D01*
X164942857Y114882858D01*
X164942857Y115382858D01*
X165000000Y115525715D01*
X165057142Y115597143D01*
X165171428Y115668572D01*
X165285714Y115668572D01*
X165400000Y115597143D01*
X165457142Y115525715D01*
X165514285Y115382858D01*
X165514285Y114882858D01*
X168054285Y108418572D02*
X168111428Y108632858D01*
X168168571Y108704286D01*
X168282857Y108775715D01*
X168454285Y108775715D01*
X168568571Y108704286D01*
X168625714Y108632858D01*
X168682857Y108490000D01*
X168682857Y107918572D01*
X167482857Y107918572D01*
X167482857Y108418572D01*
X167540000Y108561429D01*
X167597142Y108632858D01*
X167711428Y108704286D01*
X167825714Y108704286D01*
X167940000Y108632858D01*
X167997142Y108561429D01*
X168054285Y108418572D01*
X168054285Y107918572D01*
X168568571Y110275715D02*
X168625714Y110204286D01*
X168682857Y109990000D01*
X168682857Y109847143D01*
X168625714Y109632858D01*
X168511428Y109490000D01*
X168397142Y109418572D01*
X168168571Y109347143D01*
X167997142Y109347143D01*
X167768571Y109418572D01*
X167654285Y109490000D01*
X167540000Y109632858D01*
X167482857Y109847143D01*
X167482857Y109990000D01*
X167540000Y110204286D01*
X167597142Y110275715D01*
X168682857Y110918572D02*
X167482857Y110918572D01*
X167482857Y111275715D01*
X167540000Y111490000D01*
X167654285Y111632858D01*
X167768571Y111704286D01*
X167997142Y111775715D01*
X168168571Y111775715D01*
X168397142Y111704286D01*
X168511428Y111632858D01*
X168625714Y111490000D01*
X168682857Y111275715D01*
X168682857Y110918572D01*
X167482857Y112704286D02*
X167482857Y112847143D01*
X167540000Y112990000D01*
X167597142Y113061429D01*
X167711428Y113132858D01*
X167940000Y113204286D01*
X168225714Y113204286D01*
X168454285Y113132858D01*
X168568571Y113061429D01*
X168625714Y112990000D01*
X168682857Y112847143D01*
X168682857Y112704286D01*
X168625714Y112561429D01*
X168568571Y112490000D01*
X168454285Y112418572D01*
X168225714Y112347143D01*
X167940000Y112347143D01*
X167711428Y112418572D01*
X167597142Y112490000D01*
X167540000Y112561429D01*
X167482857Y112704286D01*
X168797142Y113490000D02*
X168797142Y114632858D01*
X168340000Y114918572D02*
X168340000Y115632858D01*
X168682857Y114775715D02*
X167482857Y115275715D01*
X168682857Y115775715D01*
X162974285Y108311429D02*
X163031428Y108525715D01*
X163088571Y108597143D01*
X163202857Y108668572D01*
X163374285Y108668572D01*
X163488571Y108597143D01*
X163545714Y108525715D01*
X163602857Y108382858D01*
X163602857Y107811429D01*
X162402857Y107811429D01*
X162402857Y108311429D01*
X162460000Y108454286D01*
X162517142Y108525715D01*
X162631428Y108597143D01*
X162745714Y108597143D01*
X162860000Y108525715D01*
X162917142Y108454286D01*
X162974285Y108311429D01*
X162974285Y107811429D01*
X163488571Y110168572D02*
X163545714Y110097143D01*
X163602857Y109882858D01*
X163602857Y109740000D01*
X163545714Y109525715D01*
X163431428Y109382858D01*
X163317142Y109311429D01*
X163088571Y109240000D01*
X162917142Y109240000D01*
X162688571Y109311429D01*
X162574285Y109382858D01*
X162460000Y109525715D01*
X162402857Y109740000D01*
X162402857Y109882858D01*
X162460000Y110097143D01*
X162517142Y110168572D01*
X163602857Y110811429D02*
X162402857Y110811429D01*
X162402857Y111168572D01*
X162460000Y111382858D01*
X162574285Y111525715D01*
X162688571Y111597143D01*
X162917142Y111668572D01*
X163088571Y111668572D01*
X163317142Y111597143D01*
X163431428Y111525715D01*
X163545714Y111382858D01*
X163602857Y111168572D01*
X163602857Y110811429D01*
X162402857Y112597143D02*
X162402857Y112740000D01*
X162460000Y112882858D01*
X162517142Y112954286D01*
X162631428Y113025715D01*
X162860000Y113097143D01*
X163145714Y113097143D01*
X163374285Y113025715D01*
X163488571Y112954286D01*
X163545714Y112882858D01*
X163602857Y112740000D01*
X163602857Y112597143D01*
X163545714Y112454286D01*
X163488571Y112382858D01*
X163374285Y112311429D01*
X163145714Y112240000D01*
X162860000Y112240000D01*
X162631428Y112311429D01*
X162517142Y112382858D01*
X162460000Y112454286D01*
X162402857Y112597143D01*
X163717142Y113382858D02*
X163717142Y114525715D01*
X163488571Y115740000D02*
X163545714Y115668572D01*
X163602857Y115454286D01*
X163602857Y115311429D01*
X163545714Y115097143D01*
X163431428Y114954286D01*
X163317142Y114882858D01*
X163088571Y114811429D01*
X162917142Y114811429D01*
X162688571Y114882858D01*
X162574285Y114954286D01*
X162460000Y115097143D01*
X162402857Y115311429D01*
X162402857Y115454286D01*
X162460000Y115668572D01*
X162517142Y115740000D01*
D14*
X161790000Y116820000D02*
X164330000Y116820000D01*
X169410000Y106660000D02*
X169410000Y116820000D01*
X164330000Y106660000D02*
X166870000Y106660000D01*
X164330000Y116820000D02*
X164330000Y106660000D01*
X166870000Y116820000D02*
X166870000Y106660000D01*
X166870000Y106660000D02*
X169410000Y106660000D01*
X161790000Y116820000D02*
X161790000Y106660000D01*
X159250000Y106660000D02*
X161790000Y106660000D01*
X159250000Y116820000D02*
X161790000Y116820000D01*
X161790000Y106660000D02*
X164330000Y106660000D01*
X164330000Y116820000D02*
X166870000Y116820000D01*
X159250000Y116820000D02*
X159250000Y106660000D01*
X166870000Y116820000D02*
X169410000Y116820000D01*
X149390000Y106660000D02*
X149390000Y116820000D01*
D11*
X148034285Y108418572D02*
X148091428Y108632858D01*
X148148571Y108704286D01*
X148262857Y108775715D01*
X148434285Y108775715D01*
X148548571Y108704286D01*
X148605714Y108632858D01*
X148662857Y108490000D01*
X148662857Y107918572D01*
X147462857Y107918572D01*
X147462857Y108418572D01*
X147520000Y108561429D01*
X147577142Y108632858D01*
X147691428Y108704286D01*
X147805714Y108704286D01*
X147920000Y108632858D01*
X147977142Y108561429D01*
X148034285Y108418572D01*
X148034285Y107918572D01*
X148548571Y110275715D02*
X148605714Y110204286D01*
X148662857Y109990000D01*
X148662857Y109847143D01*
X148605714Y109632858D01*
X148491428Y109490000D01*
X148377142Y109418572D01*
X148148571Y109347143D01*
X147977142Y109347143D01*
X147748571Y109418572D01*
X147634285Y109490000D01*
X147520000Y109632858D01*
X147462857Y109847143D01*
X147462857Y109990000D01*
X147520000Y110204286D01*
X147577142Y110275715D01*
X148662857Y110918572D02*
X147462857Y110918572D01*
X147462857Y111275715D01*
X147520000Y111490000D01*
X147634285Y111632858D01*
X147748571Y111704286D01*
X147977142Y111775715D01*
X148148571Y111775715D01*
X148377142Y111704286D01*
X148491428Y111632858D01*
X148605714Y111490000D01*
X148662857Y111275715D01*
X148662857Y110918572D01*
X148662857Y113204286D02*
X148662857Y112347143D01*
X148662857Y112775715D02*
X147462857Y112775715D01*
X147634285Y112632858D01*
X147748571Y112490000D01*
X147805714Y112347143D01*
X148777142Y113490000D02*
X148777142Y114632858D01*
X148320000Y114918572D02*
X148320000Y115632858D01*
X148662857Y114775715D02*
X147462857Y115275715D01*
X148662857Y115775715D01*
X145494285Y108311429D02*
X145551428Y108525715D01*
X145608571Y108597143D01*
X145722857Y108668572D01*
X145894285Y108668572D01*
X146008571Y108597143D01*
X146065714Y108525715D01*
X146122857Y108382858D01*
X146122857Y107811429D01*
X144922857Y107811429D01*
X144922857Y108311429D01*
X144980000Y108454286D01*
X145037142Y108525715D01*
X145151428Y108597143D01*
X145265714Y108597143D01*
X145380000Y108525715D01*
X145437142Y108454286D01*
X145494285Y108311429D01*
X145494285Y107811429D01*
X146008571Y110168572D02*
X146065714Y110097143D01*
X146122857Y109882858D01*
X146122857Y109740000D01*
X146065714Y109525715D01*
X145951428Y109382858D01*
X145837142Y109311429D01*
X145608571Y109240000D01*
X145437142Y109240000D01*
X145208571Y109311429D01*
X145094285Y109382858D01*
X144980000Y109525715D01*
X144922857Y109740000D01*
X144922857Y109882858D01*
X144980000Y110097143D01*
X145037142Y110168572D01*
X146122857Y110811429D02*
X144922857Y110811429D01*
X144922857Y111168572D01*
X144980000Y111382858D01*
X145094285Y111525715D01*
X145208571Y111597143D01*
X145437142Y111668572D01*
X145608571Y111668572D01*
X145837142Y111597143D01*
X145951428Y111525715D01*
X146065714Y111382858D01*
X146122857Y111168572D01*
X146122857Y110811429D01*
X146122857Y113097143D02*
X146122857Y112240000D01*
X146122857Y112668572D02*
X144922857Y112668572D01*
X145094285Y112525715D01*
X145208571Y112382858D01*
X145265714Y112240000D01*
X146237142Y113382858D02*
X146237142Y114525715D01*
X145494285Y115382858D02*
X145551428Y115597143D01*
X145608571Y115668572D01*
X145722857Y115740000D01*
X145894285Y115740000D01*
X146008571Y115668572D01*
X146065714Y115597143D01*
X146122857Y115454286D01*
X146122857Y114882858D01*
X144922857Y114882858D01*
X144922857Y115382858D01*
X144980000Y115525715D01*
X145037142Y115597143D01*
X145151428Y115668572D01*
X145265714Y115668572D01*
X145380000Y115597143D01*
X145437142Y115525715D01*
X145494285Y115382858D01*
X145494285Y114882858D01*
X142954285Y108311429D02*
X143011428Y108525715D01*
X143068571Y108597143D01*
X143182857Y108668572D01*
X143354285Y108668572D01*
X143468571Y108597143D01*
X143525714Y108525715D01*
X143582857Y108382858D01*
X143582857Y107811429D01*
X142382857Y107811429D01*
X142382857Y108311429D01*
X142440000Y108454286D01*
X142497142Y108525715D01*
X142611428Y108597143D01*
X142725714Y108597143D01*
X142840000Y108525715D01*
X142897142Y108454286D01*
X142954285Y108311429D01*
X142954285Y107811429D01*
X143468571Y110168572D02*
X143525714Y110097143D01*
X143582857Y109882858D01*
X143582857Y109740000D01*
X143525714Y109525715D01*
X143411428Y109382858D01*
X143297142Y109311429D01*
X143068571Y109240000D01*
X142897142Y109240000D01*
X142668571Y109311429D01*
X142554285Y109382858D01*
X142440000Y109525715D01*
X142382857Y109740000D01*
X142382857Y109882858D01*
X142440000Y110097143D01*
X142497142Y110168572D01*
X143582857Y110811429D02*
X142382857Y110811429D01*
X142382857Y111168572D01*
X142440000Y111382858D01*
X142554285Y111525715D01*
X142668571Y111597143D01*
X142897142Y111668572D01*
X143068571Y111668572D01*
X143297142Y111597143D01*
X143411428Y111525715D01*
X143525714Y111382858D01*
X143582857Y111168572D01*
X143582857Y110811429D01*
X143582857Y113097143D02*
X143582857Y112240000D01*
X143582857Y112668572D02*
X142382857Y112668572D01*
X142554285Y112525715D01*
X142668571Y112382858D01*
X142725714Y112240000D01*
X143697142Y113382858D02*
X143697142Y114525715D01*
X143468571Y115740000D02*
X143525714Y115668572D01*
X143582857Y115454286D01*
X143582857Y115311429D01*
X143525714Y115097143D01*
X143411428Y114954286D01*
X143297142Y114882858D01*
X143068571Y114811429D01*
X142897142Y114811429D01*
X142668571Y114882858D01*
X142554285Y114954286D01*
X142440000Y115097143D01*
X142382857Y115311429D01*
X142382857Y115454286D01*
X142440000Y115668572D01*
X142497142Y115740000D01*
D14*
X146850000Y106660000D02*
X149390000Y106660000D01*
X144310000Y106660000D02*
X146850000Y106660000D01*
X141770000Y106660000D02*
X144310000Y106660000D01*
X146850000Y116820000D02*
X149390000Y116820000D01*
X144310000Y116820000D02*
X146850000Y116820000D01*
X141770000Y116820000D02*
X144310000Y116820000D01*
X146850000Y116820000D02*
X146850000Y106660000D01*
X144310000Y116820000D02*
X144310000Y106660000D01*
X141770000Y116820000D02*
X141770000Y106660000D01*
D11*
X140414285Y108311429D02*
X140471428Y108525715D01*
X140528571Y108597143D01*
X140642857Y108668572D01*
X140814285Y108668572D01*
X140928571Y108597143D01*
X140985714Y108525715D01*
X141042857Y108382858D01*
X141042857Y107811429D01*
X139842857Y107811429D01*
X139842857Y108311429D01*
X139900000Y108454286D01*
X139957142Y108525715D01*
X140071428Y108597143D01*
X140185714Y108597143D01*
X140300000Y108525715D01*
X140357142Y108454286D01*
X140414285Y108311429D01*
X140414285Y107811429D01*
X140928571Y110168572D02*
X140985714Y110097143D01*
X141042857Y109882858D01*
X141042857Y109740000D01*
X140985714Y109525715D01*
X140871428Y109382858D01*
X140757142Y109311429D01*
X140528571Y109240000D01*
X140357142Y109240000D01*
X140128571Y109311429D01*
X140014285Y109382858D01*
X139900000Y109525715D01*
X139842857Y109740000D01*
X139842857Y109882858D01*
X139900000Y110097143D01*
X139957142Y110168572D01*
X141042857Y110811429D02*
X139842857Y110811429D01*
X139842857Y111168572D01*
X139900000Y111382858D01*
X140014285Y111525715D01*
X140128571Y111597143D01*
X140357142Y111668572D01*
X140528571Y111668572D01*
X140757142Y111597143D01*
X140871428Y111525715D01*
X140985714Y111382858D01*
X141042857Y111168572D01*
X141042857Y110811429D01*
X141042857Y113097143D02*
X141042857Y112240000D01*
X141042857Y112668572D02*
X139842857Y112668572D01*
X140014285Y112525715D01*
X140128571Y112382858D01*
X140185714Y112240000D01*
X141157142Y113382858D02*
X141157142Y114525715D01*
X141042857Y114882858D02*
X139842857Y114882858D01*
X139842857Y115240000D01*
X139900000Y115454286D01*
X140014285Y115597143D01*
X140128571Y115668572D01*
X140357142Y115740000D01*
X140528571Y115740000D01*
X140757142Y115668572D01*
X140871428Y115597143D01*
X140985714Y115454286D01*
X141042857Y115240000D01*
X141042857Y114882858D01*
D14*
X139230000Y116820000D02*
X141770000Y116820000D01*
X139230000Y106660000D02*
X141770000Y106660000D01*
X139230000Y116820000D02*
X139230000Y106660000D01*
D11*
X159750000Y21457143D02*
X159035714Y21457143D01*
X159035714Y22657143D01*
X160250000Y22085715D02*
X160750000Y22085715D01*
X160964285Y21457143D02*
X160250000Y21457143D01*
X160250000Y22657143D01*
X160964285Y22657143D01*
X161607142Y21457143D02*
X161607142Y22657143D01*
X161964285Y22657143D01*
X162178571Y22600000D01*
X162321428Y22485715D01*
X162392857Y22371429D01*
X162464285Y22142858D01*
X162464285Y21971429D01*
X162392857Y21742858D01*
X162321428Y21628572D01*
X162178571Y21514286D01*
X161964285Y21457143D01*
X161607142Y21457143D01*
X162750000Y21342858D02*
X163892857Y21342858D01*
X164535714Y22657143D02*
X164678571Y22657143D01*
X164821428Y22600000D01*
X164892857Y22542858D01*
X164964285Y22428572D01*
X165035714Y22200000D01*
X165035714Y21914286D01*
X164964285Y21685715D01*
X164892857Y21571429D01*
X164821428Y21514286D01*
X164678571Y21457143D01*
X164535714Y21457143D01*
X164392857Y21514286D01*
X164321428Y21571429D01*
X164250000Y21685715D01*
X164178571Y21914286D01*
X164178571Y22200000D01*
X164250000Y22428572D01*
X164321428Y22542858D01*
X164392857Y22600000D01*
X164535714Y22657143D01*
X149750000Y21457143D02*
X149035714Y21457143D01*
X149035714Y22657143D01*
X150250000Y22085715D02*
X150750000Y22085715D01*
X150964285Y21457143D02*
X150250000Y21457143D01*
X150250000Y22657143D01*
X150964285Y22657143D01*
X151607142Y21457143D02*
X151607142Y22657143D01*
X151964285Y22657143D01*
X152178571Y22600000D01*
X152321428Y22485715D01*
X152392857Y22371429D01*
X152464285Y22142858D01*
X152464285Y21971429D01*
X152392857Y21742858D01*
X152321428Y21628572D01*
X152178571Y21514286D01*
X151964285Y21457143D01*
X151607142Y21457143D01*
X152750000Y21342858D02*
X153892857Y21342858D01*
X155035714Y21457143D02*
X154178571Y21457143D01*
X154607142Y21457143D02*
X154607142Y22657143D01*
X154464285Y22485715D01*
X154321428Y22371429D01*
X154178571Y22314286D01*
X139750000Y21457143D02*
X139035714Y21457143D01*
X139035714Y22657143D01*
X140250000Y22085715D02*
X140750000Y22085715D01*
X140964285Y21457143D02*
X140250000Y21457143D01*
X140250000Y22657143D01*
X140964285Y22657143D01*
X141607142Y21457143D02*
X141607142Y22657143D01*
X141964285Y22657143D01*
X142178571Y22600000D01*
X142321428Y22485715D01*
X142392857Y22371429D01*
X142464285Y22142858D01*
X142464285Y21971429D01*
X142392857Y21742858D01*
X142321428Y21628572D01*
X142178571Y21514286D01*
X141964285Y21457143D01*
X141607142Y21457143D01*
X142750000Y21342858D02*
X143892857Y21342858D01*
X144178571Y22542858D02*
X144250000Y22600000D01*
X144392857Y22657143D01*
X144750000Y22657143D01*
X144892857Y22600000D01*
X144964285Y22542858D01*
X145035714Y22428572D01*
X145035714Y22314286D01*
X144964285Y22142858D01*
X144107142Y21457143D01*
X145035714Y21457143D01*
X129750000Y21457143D02*
X129035714Y21457143D01*
X129035714Y22657143D01*
X130250000Y22085715D02*
X130750000Y22085715D01*
X130964285Y21457143D02*
X130250000Y21457143D01*
X130250000Y22657143D01*
X130964285Y22657143D01*
X131607142Y21457143D02*
X131607142Y22657143D01*
X131964285Y22657143D01*
X132178571Y22600000D01*
X132321428Y22485715D01*
X132392857Y22371429D01*
X132464285Y22142858D01*
X132464285Y21971429D01*
X132392857Y21742858D01*
X132321428Y21628572D01*
X132178571Y21514286D01*
X131964285Y21457143D01*
X131607142Y21457143D01*
X132750000Y21342858D02*
X133892857Y21342858D01*
X134107142Y22657143D02*
X135035714Y22657143D01*
X134535714Y22200000D01*
X134750000Y22200000D01*
X134892857Y22142858D01*
X134964285Y22085715D01*
X135035714Y21971429D01*
X135035714Y21685715D01*
X134964285Y21571429D01*
X134892857Y21514286D01*
X134750000Y21457143D01*
X134321428Y21457143D01*
X134178571Y21514286D01*
X134107142Y21571429D01*
X119750000Y21457143D02*
X119035714Y21457143D01*
X119035714Y22657143D01*
X120250000Y22085715D02*
X120750000Y22085715D01*
X120964285Y21457143D02*
X120250000Y21457143D01*
X120250000Y22657143D01*
X120964285Y22657143D01*
X121607142Y21457143D02*
X121607142Y22657143D01*
X121964285Y22657143D01*
X122178571Y22600000D01*
X122321428Y22485715D01*
X122392857Y22371429D01*
X122464285Y22142858D01*
X122464285Y21971429D01*
X122392857Y21742858D01*
X122321428Y21628572D01*
X122178571Y21514286D01*
X121964285Y21457143D01*
X121607142Y21457143D01*
X122750000Y21342858D02*
X123892857Y21342858D01*
X124892857Y22257143D02*
X124892857Y21457143D01*
X124535714Y22714286D02*
X124178571Y21857143D01*
X125107142Y21857143D01*
X109750000Y21457143D02*
X109035714Y21457143D01*
X109035714Y22657143D01*
X110250000Y22085715D02*
X110750000Y22085715D01*
X110964285Y21457143D02*
X110250000Y21457143D01*
X110250000Y22657143D01*
X110964285Y22657143D01*
X111607142Y21457143D02*
X111607142Y22657143D01*
X111964285Y22657143D01*
X112178571Y22600000D01*
X112321428Y22485715D01*
X112392857Y22371429D01*
X112464285Y22142858D01*
X112464285Y21971429D01*
X112392857Y21742858D01*
X112321428Y21628572D01*
X112178571Y21514286D01*
X111964285Y21457143D01*
X111607142Y21457143D01*
X112750000Y21342858D02*
X113892857Y21342858D01*
X114964285Y22657143D02*
X114250000Y22657143D01*
X114178571Y22085715D01*
X114250000Y22142858D01*
X114392857Y22200000D01*
X114750000Y22200000D01*
X114892857Y22142858D01*
X114964285Y22085715D01*
X115035714Y21971429D01*
X115035714Y21685715D01*
X114964285Y21571429D01*
X114892857Y21514286D01*
X114750000Y21457143D01*
X114392857Y21457143D01*
X114250000Y21514286D01*
X114178571Y21571429D01*
X99750000Y21457143D02*
X99035714Y21457143D01*
X99035714Y22657143D01*
X100250000Y22085715D02*
X100750000Y22085715D01*
X100964285Y21457143D02*
X100250000Y21457143D01*
X100250000Y22657143D01*
X100964285Y22657143D01*
X101607142Y21457143D02*
X101607142Y22657143D01*
X101964285Y22657143D01*
X102178571Y22600000D01*
X102321428Y22485715D01*
X102392857Y22371429D01*
X102464285Y22142858D01*
X102464285Y21971429D01*
X102392857Y21742858D01*
X102321428Y21628572D01*
X102178571Y21514286D01*
X101964285Y21457143D01*
X101607142Y21457143D01*
X102750000Y21342858D02*
X103892857Y21342858D01*
X104892857Y22657143D02*
X104607142Y22657143D01*
X104464285Y22600000D01*
X104392857Y22542858D01*
X104250000Y22371429D01*
X104178571Y22142858D01*
X104178571Y21685715D01*
X104250000Y21571429D01*
X104321428Y21514286D01*
X104464285Y21457143D01*
X104750000Y21457143D01*
X104892857Y21514286D01*
X104964285Y21571429D01*
X105035714Y21685715D01*
X105035714Y21971429D01*
X104964285Y22085715D01*
X104892857Y22142858D01*
X104750000Y22200000D01*
X104464285Y22200000D01*
X104321428Y22142858D01*
X104250000Y22085715D01*
X104178571Y21971429D01*
X89750000Y21457143D02*
X89035714Y21457143D01*
X89035714Y22657143D01*
X90250000Y22085715D02*
X90750000Y22085715D01*
X90964285Y21457143D02*
X90250000Y21457143D01*
X90250000Y22657143D01*
X90964285Y22657143D01*
X91607142Y21457143D02*
X91607142Y22657143D01*
X91964285Y22657143D01*
X92178571Y22600000D01*
X92321428Y22485715D01*
X92392857Y22371429D01*
X92464285Y22142858D01*
X92464285Y21971429D01*
X92392857Y21742858D01*
X92321428Y21628572D01*
X92178571Y21514286D01*
X91964285Y21457143D01*
X91607142Y21457143D01*
X92750000Y21342858D02*
X93892857Y21342858D01*
X94107142Y22657143D02*
X95107142Y22657143D01*
X94464285Y21457143D01*
D14*
X129220000Y116820000D02*
X129220000Y109200000D01*
D11*
X128492857Y110760000D02*
X128492857Y110045715D01*
X127292857Y110045715D01*
X127864285Y111260000D02*
X127864285Y111760000D01*
X128492857Y111974286D02*
X128492857Y111260000D01*
X127292857Y111260000D01*
X127292857Y111974286D01*
X128492857Y112617143D02*
X127292857Y112617143D01*
X127292857Y112974286D01*
X127350000Y113188572D01*
X127464285Y113331429D01*
X127578571Y113402858D01*
X127807142Y113474286D01*
X127978571Y113474286D01*
X128207142Y113402858D01*
X128321428Y113331429D01*
X128435714Y113188572D01*
X128492857Y112974286D01*
X128492857Y112617143D01*
X128607142Y113760000D02*
X128607142Y114902858D01*
X127292857Y115545715D02*
X127292857Y115688572D01*
X127350000Y115831429D01*
X127407142Y115902858D01*
X127521428Y115974286D01*
X127750000Y116045715D01*
X128035714Y116045715D01*
X128264285Y115974286D01*
X128378571Y115902858D01*
X128435714Y115831429D01*
X128492857Y115688572D01*
X128492857Y115545715D01*
X128435714Y115402858D01*
X128378571Y115331429D01*
X128264285Y115260000D01*
X128035714Y115188572D01*
X127750000Y115188572D01*
X127521428Y115260000D01*
X127407142Y115331429D01*
X127350000Y115402858D01*
X127292857Y115545715D01*
X125952857Y110760000D02*
X125952857Y110045715D01*
X124752857Y110045715D01*
X125324285Y111260000D02*
X125324285Y111760000D01*
X125952857Y111974286D02*
X125952857Y111260000D01*
X124752857Y111260000D01*
X124752857Y111974286D01*
X125952857Y112617143D02*
X124752857Y112617143D01*
X124752857Y112974286D01*
X124810000Y113188572D01*
X124924285Y113331429D01*
X125038571Y113402858D01*
X125267142Y113474286D01*
X125438571Y113474286D01*
X125667142Y113402858D01*
X125781428Y113331429D01*
X125895714Y113188572D01*
X125952857Y112974286D01*
X125952857Y112617143D01*
X126067142Y113760000D02*
X126067142Y114902858D01*
X125952857Y116045715D02*
X125952857Y115188572D01*
X125952857Y115617143D02*
X124752857Y115617143D01*
X124924285Y115474286D01*
X125038571Y115331429D01*
X125095714Y115188572D01*
X123412857Y110760000D02*
X123412857Y110045715D01*
X122212857Y110045715D01*
X122784285Y111260000D02*
X122784285Y111760000D01*
X123412857Y111974286D02*
X123412857Y111260000D01*
X122212857Y111260000D01*
X122212857Y111974286D01*
X123412857Y112617143D02*
X122212857Y112617143D01*
X122212857Y112974286D01*
X122270000Y113188572D01*
X122384285Y113331429D01*
X122498571Y113402858D01*
X122727142Y113474286D01*
X122898571Y113474286D01*
X123127142Y113402858D01*
X123241428Y113331429D01*
X123355714Y113188572D01*
X123412857Y112974286D01*
X123412857Y112617143D01*
X123527142Y113760000D02*
X123527142Y114902858D01*
X122327142Y115188572D02*
X122270000Y115260000D01*
X122212857Y115402858D01*
X122212857Y115760000D01*
X122270000Y115902858D01*
X122327142Y115974286D01*
X122441428Y116045715D01*
X122555714Y116045715D01*
X122727142Y115974286D01*
X123412857Y115117143D01*
X123412857Y116045715D01*
X120872857Y110760000D02*
X120872857Y110045715D01*
X119672857Y110045715D01*
X120244285Y111260000D02*
X120244285Y111760000D01*
X120872857Y111974286D02*
X120872857Y111260000D01*
X119672857Y111260000D01*
X119672857Y111974286D01*
X120872857Y112617143D02*
X119672857Y112617143D01*
X119672857Y112974286D01*
X119730000Y113188572D01*
X119844285Y113331429D01*
X119958571Y113402858D01*
X120187142Y113474286D01*
X120358571Y113474286D01*
X120587142Y113402858D01*
X120701428Y113331429D01*
X120815714Y113188572D01*
X120872857Y112974286D01*
X120872857Y112617143D01*
X120987142Y113760000D02*
X120987142Y114902858D01*
X119672857Y115117143D02*
X119672857Y116045715D01*
X120130000Y115545715D01*
X120130000Y115760000D01*
X120187142Y115902858D01*
X120244285Y115974286D01*
X120358571Y116045715D01*
X120644285Y116045715D01*
X120758571Y115974286D01*
X120815714Y115902858D01*
X120872857Y115760000D01*
X120872857Y115331429D01*
X120815714Y115188572D01*
X120758571Y115117143D01*
X118332857Y110760000D02*
X118332857Y110045715D01*
X117132857Y110045715D01*
X117704285Y111260000D02*
X117704285Y111760000D01*
X118332857Y111974286D02*
X118332857Y111260000D01*
X117132857Y111260000D01*
X117132857Y111974286D01*
X118332857Y112617143D02*
X117132857Y112617143D01*
X117132857Y112974286D01*
X117190000Y113188572D01*
X117304285Y113331429D01*
X117418571Y113402858D01*
X117647142Y113474286D01*
X117818571Y113474286D01*
X118047142Y113402858D01*
X118161428Y113331429D01*
X118275714Y113188572D01*
X118332857Y112974286D01*
X118332857Y112617143D01*
X118447142Y113760000D02*
X118447142Y114902858D01*
X117532857Y115902858D02*
X118332857Y115902858D01*
X117075714Y115545715D02*
X117932857Y115188572D01*
X117932857Y116117143D01*
X115792857Y110760000D02*
X115792857Y110045715D01*
X114592857Y110045715D01*
X115164285Y111260000D02*
X115164285Y111760000D01*
X115792857Y111974286D02*
X115792857Y111260000D01*
X114592857Y111260000D01*
X114592857Y111974286D01*
X115792857Y112617143D02*
X114592857Y112617143D01*
X114592857Y112974286D01*
X114650000Y113188572D01*
X114764285Y113331429D01*
X114878571Y113402858D01*
X115107142Y113474286D01*
X115278571Y113474286D01*
X115507142Y113402858D01*
X115621428Y113331429D01*
X115735714Y113188572D01*
X115792857Y112974286D01*
X115792857Y112617143D01*
X115907142Y113760000D02*
X115907142Y114902858D01*
X114592857Y115974286D02*
X114592857Y115260000D01*
X115164285Y115188572D01*
X115107142Y115260000D01*
X115050000Y115402858D01*
X115050000Y115760000D01*
X115107142Y115902858D01*
X115164285Y115974286D01*
X115278571Y116045715D01*
X115564285Y116045715D01*
X115678571Y115974286D01*
X115735714Y115902858D01*
X115792857Y115760000D01*
X115792857Y115402858D01*
X115735714Y115260000D01*
X115678571Y115188572D01*
X113252857Y110760000D02*
X113252857Y110045715D01*
X112052857Y110045715D01*
X112624285Y111260000D02*
X112624285Y111760000D01*
X113252857Y111974286D02*
X113252857Y111260000D01*
X112052857Y111260000D01*
X112052857Y111974286D01*
X113252857Y112617143D02*
X112052857Y112617143D01*
X112052857Y112974286D01*
X112110000Y113188572D01*
X112224285Y113331429D01*
X112338571Y113402858D01*
X112567142Y113474286D01*
X112738571Y113474286D01*
X112967142Y113402858D01*
X113081428Y113331429D01*
X113195714Y113188572D01*
X113252857Y112974286D01*
X113252857Y112617143D01*
X113367142Y113760000D02*
X113367142Y114902858D01*
X112052857Y115902858D02*
X112052857Y115617143D01*
X112110000Y115474286D01*
X112167142Y115402858D01*
X112338571Y115260000D01*
X112567142Y115188572D01*
X113024285Y115188572D01*
X113138571Y115260000D01*
X113195714Y115331429D01*
X113252857Y115474286D01*
X113252857Y115760000D01*
X113195714Y115902858D01*
X113138571Y115974286D01*
X113024285Y116045715D01*
X112738571Y116045715D01*
X112624285Y115974286D01*
X112567142Y115902858D01*
X112510000Y115760000D01*
X112510000Y115474286D01*
X112567142Y115331429D01*
X112624285Y115260000D01*
X112738571Y115188572D01*
D14*
X126680000Y116820000D02*
X126680000Y109200000D01*
X124140000Y116820000D02*
X124140000Y109200000D01*
X121600000Y116820000D02*
X121600000Y109200000D01*
X119060000Y116820000D02*
X119060000Y109200000D01*
X116520000Y116820000D02*
X116520000Y109200000D01*
X113980000Y116820000D02*
X113980000Y109200000D01*
X111440000Y116820000D02*
X111440000Y109200000D01*
X126680000Y109200000D02*
X129220000Y109200000D01*
X124140000Y109200000D02*
X126680000Y109200000D01*
X121600000Y109200000D02*
X124140000Y109200000D01*
X119060000Y109200000D02*
X121600000Y109200000D01*
X116520000Y109200000D02*
X119060000Y109200000D01*
X113980000Y109200000D02*
X116520000Y109200000D01*
X111440000Y109200000D02*
X113980000Y109200000D01*
X129220000Y116820000D02*
X126680000Y116820000D01*
X126680000Y116820000D02*
X124140000Y116820000D01*
X124140000Y116820000D02*
X121600000Y116820000D01*
X121600000Y116820000D02*
X119060000Y116820000D01*
X119060000Y116820000D02*
X116520000Y116820000D01*
X116520000Y116820000D02*
X113980000Y116820000D01*
X113980000Y116820000D02*
X111440000Y116820000D01*
D11*
X110712857Y110760000D02*
X110712857Y110045715D01*
X109512857Y110045715D01*
X110084285Y111260000D02*
X110084285Y111760000D01*
X110712857Y111974286D02*
X110712857Y111260000D01*
X109512857Y111260000D01*
X109512857Y111974286D01*
X110712857Y112617143D02*
X109512857Y112617143D01*
X109512857Y112974286D01*
X109570000Y113188572D01*
X109684285Y113331429D01*
X109798571Y113402858D01*
X110027142Y113474286D01*
X110198571Y113474286D01*
X110427142Y113402858D01*
X110541428Y113331429D01*
X110655714Y113188572D01*
X110712857Y112974286D01*
X110712857Y112617143D01*
X110827142Y113760000D02*
X110827142Y114902858D01*
X109512857Y115117143D02*
X109512857Y116117143D01*
X110712857Y115474286D01*
D14*
X111440000Y116820000D02*
X108900000Y116820000D01*
X108900000Y109200000D02*
X111440000Y109200000D01*
X108900000Y116820000D02*
X108900000Y109200000D01*
X96685000Y116820000D02*
X94145000Y109200000D01*
X94145000Y116820000D02*
X96685000Y109200000D01*
D11*
X98497857Y110010000D02*
X97297857Y110010000D01*
X98497857Y110867143D02*
X97812142Y110224286D01*
X97297857Y110867143D02*
X97983571Y110010000D01*
X97869285Y111510000D02*
X97869285Y112010000D01*
X98497857Y112224286D02*
X98497857Y111510000D01*
X97297857Y111510000D01*
X97297857Y112224286D01*
X97926428Y113152858D02*
X98497857Y113152858D01*
X97297857Y112652858D02*
X97926428Y113152858D01*
X97297857Y113652858D01*
X98612142Y113795715D02*
X98612142Y114938572D01*
X97297857Y115581429D02*
X97297857Y115724286D01*
X97355000Y115867143D01*
X97412142Y115938572D01*
X97526428Y116010000D01*
X97755000Y116081429D01*
X98040714Y116081429D01*
X98269285Y116010000D01*
X98383571Y115938572D01*
X98440714Y115867143D01*
X98497857Y115724286D01*
X98497857Y115581429D01*
X98440714Y115438572D01*
X98383571Y115367143D01*
X98269285Y115295715D01*
X98040714Y115224286D01*
X97755000Y115224286D01*
X97526428Y115295715D01*
X97412142Y115367143D01*
X97355000Y115438572D01*
X97297857Y115581429D01*
X93417857Y110010000D02*
X92217857Y110010000D01*
X93417857Y110867143D02*
X92732142Y110224286D01*
X92217857Y110867143D02*
X92903571Y110010000D01*
X92789285Y111510000D02*
X92789285Y112010000D01*
X93417857Y112224286D02*
X93417857Y111510000D01*
X92217857Y111510000D01*
X92217857Y112224286D01*
X92846428Y113152858D02*
X93417857Y113152858D01*
X92217857Y112652858D02*
X92846428Y113152858D01*
X92217857Y113652858D01*
X93532142Y113795715D02*
X93532142Y114938572D01*
X93417857Y116081429D02*
X93417857Y115224286D01*
X93417857Y115652858D02*
X92217857Y115652858D01*
X92389285Y115510000D01*
X92503571Y115367143D01*
X92560714Y115224286D01*
D14*
X96685000Y116820000D02*
X96685000Y109200000D01*
X94145000Y116820000D02*
X94145000Y109200000D01*
X91605000Y109200000D02*
X91605000Y116820000D01*
X99225000Y109200000D02*
X91605000Y109200000D01*
X99225000Y116820000D02*
X99225000Y109200000D01*
X91605000Y116820000D02*
X99225000Y116820000D01*
D11*
X81538571Y113387143D02*
X81595714Y113315715D01*
X81652857Y113101429D01*
X81652857Y112958572D01*
X81595714Y112744286D01*
X81481428Y112601429D01*
X81367142Y112530000D01*
X81138571Y112458572D01*
X80967142Y112458572D01*
X80738571Y112530000D01*
X80624285Y112601429D01*
X80510000Y112744286D01*
X80452857Y112958572D01*
X80452857Y113101429D01*
X80510000Y113315715D01*
X80567142Y113387143D01*
X81652857Y114744286D02*
X81652857Y114030000D01*
X80452857Y114030000D01*
X81652857Y115244286D02*
X80452857Y115244286D01*
X81652857Y116101429D02*
X80967142Y115458572D01*
X80452857Y116101429D02*
X81138571Y115244286D01*
X78998571Y113387143D02*
X79055714Y113315715D01*
X79112857Y113101429D01*
X79112857Y112958572D01*
X79055714Y112744286D01*
X78941428Y112601429D01*
X78827142Y112530000D01*
X78598571Y112458572D01*
X78427142Y112458572D01*
X78198571Y112530000D01*
X78084285Y112601429D01*
X77970000Y112744286D01*
X77912857Y112958572D01*
X77912857Y113101429D01*
X77970000Y113315715D01*
X78027142Y113387143D01*
X79112857Y114744286D02*
X79112857Y114030000D01*
X77912857Y114030000D01*
X79112857Y115244286D02*
X77912857Y115244286D01*
X79112857Y116101429D02*
X78427142Y115458572D01*
X77912857Y116101429D02*
X78598571Y115244286D01*
X76458571Y113387143D02*
X76515714Y113315715D01*
X76572857Y113101429D01*
X76572857Y112958572D01*
X76515714Y112744286D01*
X76401428Y112601429D01*
X76287142Y112530000D01*
X76058571Y112458572D01*
X75887142Y112458572D01*
X75658571Y112530000D01*
X75544285Y112601429D01*
X75430000Y112744286D01*
X75372857Y112958572D01*
X75372857Y113101429D01*
X75430000Y113315715D01*
X75487142Y113387143D01*
X76572857Y114744286D02*
X76572857Y114030000D01*
X75372857Y114030000D01*
X76572857Y115244286D02*
X75372857Y115244286D01*
X76572857Y116101429D02*
X75887142Y115458572D01*
X75372857Y116101429D02*
X76058571Y115244286D01*
D14*
X79840000Y116820000D02*
X79840000Y111740000D01*
X77300000Y116820000D02*
X77300000Y111740000D01*
X74760000Y111740000D02*
X74760000Y116820000D01*
X82380000Y111740000D02*
X74760000Y111740000D01*
X82380000Y116820000D02*
X82380000Y111740000D01*
X74760000Y116820000D02*
X82380000Y116820000D01*
D11*
X64485714Y112280000D02*
X64542857Y112494286D01*
X64542857Y112851429D01*
X64485714Y112994286D01*
X64428571Y113065715D01*
X64314285Y113137143D01*
X64200000Y113137143D01*
X64085714Y113065715D01*
X64028571Y112994286D01*
X63971428Y112851429D01*
X63914285Y112565715D01*
X63857142Y112422858D01*
X63800000Y112351429D01*
X63685714Y112280000D01*
X63571428Y112280000D01*
X63457142Y112351429D01*
X63400000Y112422858D01*
X63342857Y112565715D01*
X63342857Y112922858D01*
X63400000Y113137143D01*
X63342857Y113637143D02*
X64542857Y113994286D01*
X63685714Y114280000D01*
X64542857Y114565715D01*
X63342857Y114922858D01*
X63342857Y115780000D02*
X63342857Y115922858D01*
X63400000Y116065715D01*
X63457142Y116137143D01*
X63571428Y116208572D01*
X63800000Y116280000D01*
X64085714Y116280000D01*
X64314285Y116208572D01*
X64428571Y116137143D01*
X64485714Y116065715D01*
X64542857Y115922858D01*
X64542857Y115780000D01*
X64485714Y115637143D01*
X64428571Y115565715D01*
X64314285Y115494286D01*
X64085714Y115422858D01*
X63800000Y115422858D01*
X63571428Y115494286D01*
X63457142Y115565715D01*
X63400000Y115637143D01*
X63342857Y115780000D01*
X61945714Y112280000D02*
X62002857Y112494286D01*
X62002857Y112851429D01*
X61945714Y112994286D01*
X61888571Y113065715D01*
X61774285Y113137143D01*
X61660000Y113137143D01*
X61545714Y113065715D01*
X61488571Y112994286D01*
X61431428Y112851429D01*
X61374285Y112565715D01*
X61317142Y112422858D01*
X61260000Y112351429D01*
X61145714Y112280000D01*
X61031428Y112280000D01*
X60917142Y112351429D01*
X60860000Y112422858D01*
X60802857Y112565715D01*
X60802857Y112922858D01*
X60860000Y113137143D01*
X60802857Y113637143D02*
X62002857Y113994286D01*
X61145714Y114280000D01*
X62002857Y114565715D01*
X60802857Y114922858D01*
X62002857Y116280000D02*
X62002857Y115422858D01*
X62002857Y115851429D02*
X60802857Y115851429D01*
X60974285Y115708572D01*
X61088571Y115565715D01*
X61145714Y115422858D01*
X59405714Y112280000D02*
X59462857Y112494286D01*
X59462857Y112851429D01*
X59405714Y112994286D01*
X59348571Y113065715D01*
X59234285Y113137143D01*
X59120000Y113137143D01*
X59005714Y113065715D01*
X58948571Y112994286D01*
X58891428Y112851429D01*
X58834285Y112565715D01*
X58777142Y112422858D01*
X58720000Y112351429D01*
X58605714Y112280000D01*
X58491428Y112280000D01*
X58377142Y112351429D01*
X58320000Y112422858D01*
X58262857Y112565715D01*
X58262857Y112922858D01*
X58320000Y113137143D01*
X58262857Y113637143D02*
X59462857Y113994286D01*
X58605714Y114280000D01*
X59462857Y114565715D01*
X58262857Y114922858D01*
X58377142Y115422858D02*
X58320000Y115494286D01*
X58262857Y115637143D01*
X58262857Y115994286D01*
X58320000Y116137143D01*
X58377142Y116208572D01*
X58491428Y116280000D01*
X58605714Y116280000D01*
X58777142Y116208572D01*
X59462857Y115351429D01*
X59462857Y116280000D01*
X56865714Y112280000D02*
X56922857Y112494286D01*
X56922857Y112851429D01*
X56865714Y112994286D01*
X56808571Y113065715D01*
X56694285Y113137143D01*
X56580000Y113137143D01*
X56465714Y113065715D01*
X56408571Y112994286D01*
X56351428Y112851429D01*
X56294285Y112565715D01*
X56237142Y112422858D01*
X56180000Y112351429D01*
X56065714Y112280000D01*
X55951428Y112280000D01*
X55837142Y112351429D01*
X55780000Y112422858D01*
X55722857Y112565715D01*
X55722857Y112922858D01*
X55780000Y113137143D01*
X55722857Y113637143D02*
X56922857Y113994286D01*
X56065714Y114280000D01*
X56922857Y114565715D01*
X55722857Y114922858D01*
X55722857Y115351429D02*
X55722857Y116280000D01*
X56180000Y115780000D01*
X56180000Y115994286D01*
X56237142Y116137143D01*
X56294285Y116208572D01*
X56408571Y116280000D01*
X56694285Y116280000D01*
X56808571Y116208572D01*
X56865714Y116137143D01*
X56922857Y115994286D01*
X56922857Y115565715D01*
X56865714Y115422858D01*
X56808571Y115351429D01*
X54325714Y112280000D02*
X54382857Y112494286D01*
X54382857Y112851429D01*
X54325714Y112994286D01*
X54268571Y113065715D01*
X54154285Y113137143D01*
X54040000Y113137143D01*
X53925714Y113065715D01*
X53868571Y112994286D01*
X53811428Y112851429D01*
X53754285Y112565715D01*
X53697142Y112422858D01*
X53640000Y112351429D01*
X53525714Y112280000D01*
X53411428Y112280000D01*
X53297142Y112351429D01*
X53240000Y112422858D01*
X53182857Y112565715D01*
X53182857Y112922858D01*
X53240000Y113137143D01*
X53182857Y113637143D02*
X54382857Y113994286D01*
X53525714Y114280000D01*
X54382857Y114565715D01*
X53182857Y114922858D01*
X53582857Y116137143D02*
X54382857Y116137143D01*
X53125714Y115780000D02*
X53982857Y115422858D01*
X53982857Y116351429D01*
X51785714Y112280000D02*
X51842857Y112494286D01*
X51842857Y112851429D01*
X51785714Y112994286D01*
X51728571Y113065715D01*
X51614285Y113137143D01*
X51500000Y113137143D01*
X51385714Y113065715D01*
X51328571Y112994286D01*
X51271428Y112851429D01*
X51214285Y112565715D01*
X51157142Y112422858D01*
X51100000Y112351429D01*
X50985714Y112280000D01*
X50871428Y112280000D01*
X50757142Y112351429D01*
X50700000Y112422858D01*
X50642857Y112565715D01*
X50642857Y112922858D01*
X50700000Y113137143D01*
X50642857Y113637143D02*
X51842857Y113994286D01*
X50985714Y114280000D01*
X51842857Y114565715D01*
X50642857Y114922858D01*
X50642857Y116208572D02*
X50642857Y115494286D01*
X51214285Y115422858D01*
X51157142Y115494286D01*
X51100000Y115637143D01*
X51100000Y115994286D01*
X51157142Y116137143D01*
X51214285Y116208572D01*
X51328571Y116280000D01*
X51614285Y116280000D01*
X51728571Y116208572D01*
X51785714Y116137143D01*
X51842857Y115994286D01*
X51842857Y115637143D01*
X51785714Y115494286D01*
X51728571Y115422858D01*
X49245714Y112280000D02*
X49302857Y112494286D01*
X49302857Y112851429D01*
X49245714Y112994286D01*
X49188571Y113065715D01*
X49074285Y113137143D01*
X48960000Y113137143D01*
X48845714Y113065715D01*
X48788571Y112994286D01*
X48731428Y112851429D01*
X48674285Y112565715D01*
X48617142Y112422858D01*
X48560000Y112351429D01*
X48445714Y112280000D01*
X48331428Y112280000D01*
X48217142Y112351429D01*
X48160000Y112422858D01*
X48102857Y112565715D01*
X48102857Y112922858D01*
X48160000Y113137143D01*
X48102857Y113637143D02*
X49302857Y113994286D01*
X48445714Y114280000D01*
X49302857Y114565715D01*
X48102857Y114922858D01*
X48102857Y116137143D02*
X48102857Y115851429D01*
X48160000Y115708572D01*
X48217142Y115637143D01*
X48388571Y115494286D01*
X48617142Y115422858D01*
X49074285Y115422858D01*
X49188571Y115494286D01*
X49245714Y115565715D01*
X49302857Y115708572D01*
X49302857Y115994286D01*
X49245714Y116137143D01*
X49188571Y116208572D01*
X49074285Y116280000D01*
X48788571Y116280000D01*
X48674285Y116208572D01*
X48617142Y116137143D01*
X48560000Y115994286D01*
X48560000Y115708572D01*
X48617142Y115565715D01*
X48674285Y115494286D01*
X48788571Y115422858D01*
X46705714Y112280000D02*
X46762857Y112494286D01*
X46762857Y112851429D01*
X46705714Y112994286D01*
X46648571Y113065715D01*
X46534285Y113137143D01*
X46420000Y113137143D01*
X46305714Y113065715D01*
X46248571Y112994286D01*
X46191428Y112851429D01*
X46134285Y112565715D01*
X46077142Y112422858D01*
X46020000Y112351429D01*
X45905714Y112280000D01*
X45791428Y112280000D01*
X45677142Y112351429D01*
X45620000Y112422858D01*
X45562857Y112565715D01*
X45562857Y112922858D01*
X45620000Y113137143D01*
X45562857Y113637143D02*
X46762857Y113994286D01*
X45905714Y114280000D01*
X46762857Y114565715D01*
X45562857Y114922858D01*
X45562857Y115351429D02*
X45562857Y116351429D01*
X46762857Y115708572D01*
D14*
X62730000Y116820000D02*
X62730000Y111740000D01*
X60190000Y116820000D02*
X60190000Y111740000D01*
X57650000Y116820000D02*
X57650000Y111740000D01*
X55110000Y116820000D02*
X55110000Y111740000D01*
X52570000Y116820000D02*
X52570000Y111740000D01*
X65270000Y111740000D02*
X50030000Y111740000D01*
X65270000Y116820000D02*
X65270000Y111740000D01*
X50030000Y116820000D02*
X65270000Y116820000D01*
X50030000Y111740000D02*
X47490000Y111740000D01*
X50030000Y116820000D02*
X50030000Y111740000D01*
X47490000Y116820000D02*
X50030000Y116820000D01*
X47490000Y116820000D02*
X44950000Y116820000D01*
X47490000Y111740000D02*
X47490000Y116820000D01*
X44950000Y111740000D02*
X47490000Y111740000D01*
X44950000Y116820000D02*
X44950000Y111740000D01*
D11*
X33220000Y113137143D02*
X33162857Y112994286D01*
X33162857Y112780000D01*
X33220000Y112565715D01*
X33334285Y112422858D01*
X33448571Y112351429D01*
X33677142Y112280000D01*
X33848571Y112280000D01*
X34077142Y112351429D01*
X34191428Y112422858D01*
X34305714Y112565715D01*
X34362857Y112780000D01*
X34362857Y112922858D01*
X34305714Y113137143D01*
X34248571Y113208572D01*
X33848571Y113208572D01*
X33848571Y112922858D01*
X34362857Y113851429D02*
X33162857Y113851429D01*
X34362857Y114708572D01*
X33162857Y114708572D01*
X34362857Y115422858D02*
X33162857Y115422858D01*
X33162857Y115780000D01*
X33220000Y115994286D01*
X33334285Y116137143D01*
X33448571Y116208572D01*
X33677142Y116280000D01*
X33848571Y116280000D01*
X34077142Y116208572D01*
X34191428Y116137143D01*
X34305714Y115994286D01*
X34362857Y115780000D01*
X34362857Y115422858D01*
X30680000Y113137143D02*
X30622857Y112994286D01*
X30622857Y112780000D01*
X30680000Y112565715D01*
X30794285Y112422858D01*
X30908571Y112351429D01*
X31137142Y112280000D01*
X31308571Y112280000D01*
X31537142Y112351429D01*
X31651428Y112422858D01*
X31765714Y112565715D01*
X31822857Y112780000D01*
X31822857Y112922858D01*
X31765714Y113137143D01*
X31708571Y113208572D01*
X31308571Y113208572D01*
X31308571Y112922858D01*
X31822857Y113851429D02*
X30622857Y113851429D01*
X31822857Y114708572D01*
X30622857Y114708572D01*
X31822857Y115422858D02*
X30622857Y115422858D01*
X30622857Y115780000D01*
X30680000Y115994286D01*
X30794285Y116137143D01*
X30908571Y116208572D01*
X31137142Y116280000D01*
X31308571Y116280000D01*
X31537142Y116208572D01*
X31651428Y116137143D01*
X31765714Y115994286D01*
X31822857Y115780000D01*
X31822857Y115422858D01*
D14*
X35090000Y111740000D02*
X32550000Y111740000D01*
X35090000Y116820000D02*
X35090000Y111740000D01*
X32550000Y116820000D02*
X35090000Y116820000D01*
X32550000Y111740000D02*
X30010000Y111740000D01*
X32550000Y116820000D02*
X32550000Y111740000D01*
X30010000Y116820000D02*
X32550000Y116820000D01*
X27470000Y116820000D02*
X28105000Y116820000D01*
X27470000Y111740000D02*
X27470000Y116820000D01*
X30010000Y111740000D02*
X27470000Y111740000D01*
X30010000Y116820000D02*
X30010000Y111740000D01*
X28105000Y116820000D02*
X30010000Y116820000D01*
D11*
X28140000Y113137143D02*
X28082857Y112994286D01*
X28082857Y112780000D01*
X28140000Y112565715D01*
X28254285Y112422858D01*
X28368571Y112351429D01*
X28597142Y112280000D01*
X28768571Y112280000D01*
X28997142Y112351429D01*
X29111428Y112422858D01*
X29225714Y112565715D01*
X29282857Y112780000D01*
X29282857Y112922858D01*
X29225714Y113137143D01*
X29168571Y113208572D01*
X28768571Y113208572D01*
X28768571Y112922858D01*
X29282857Y113851429D02*
X28082857Y113851429D01*
X29282857Y114708572D01*
X28082857Y114708572D01*
X29282857Y115422858D02*
X28082857Y115422858D01*
X28082857Y115780000D01*
X28140000Y115994286D01*
X28254285Y116137143D01*
X28368571Y116208572D01*
X28597142Y116280000D01*
X28768571Y116280000D01*
X28997142Y116208572D01*
X29111428Y116137143D01*
X29225714Y115994286D01*
X29282857Y115780000D01*
X29282857Y115422858D01*
X16502857Y114629286D02*
X16502857Y113915000D01*
X17074285Y113843572D01*
X17017142Y113915000D01*
X16960000Y114057858D01*
X16960000Y114415000D01*
X17017142Y114557858D01*
X17074285Y114629286D01*
X17188571Y114700715D01*
X17474285Y114700715D01*
X17588571Y114629286D01*
X17645714Y114557858D01*
X17702857Y114415000D01*
X17702857Y114057858D01*
X17645714Y113915000D01*
X17588571Y113843572D01*
X16502857Y115129286D02*
X17702857Y115629286D01*
X16502857Y116129286D01*
X13962857Y114629286D02*
X13962857Y113915000D01*
X14534285Y113843572D01*
X14477142Y113915000D01*
X14420000Y114057858D01*
X14420000Y114415000D01*
X14477142Y114557858D01*
X14534285Y114629286D01*
X14648571Y114700715D01*
X14934285Y114700715D01*
X15048571Y114629286D01*
X15105714Y114557858D01*
X15162857Y114415000D01*
X15162857Y114057858D01*
X15105714Y113915000D01*
X15048571Y113843572D01*
X13962857Y115129286D02*
X15162857Y115629286D01*
X13962857Y116129286D01*
X11422857Y114629286D02*
X11422857Y113915000D01*
X11994285Y113843572D01*
X11937142Y113915000D01*
X11880000Y114057858D01*
X11880000Y114415000D01*
X11937142Y114557858D01*
X11994285Y114629286D01*
X12108571Y114700715D01*
X12394285Y114700715D01*
X12508571Y114629286D01*
X12565714Y114557858D01*
X12622857Y114415000D01*
X12622857Y114057858D01*
X12565714Y113915000D01*
X12508571Y113843572D01*
X11422857Y115129286D02*
X12622857Y115629286D01*
X11422857Y116129286D01*
D14*
X18430000Y113010000D02*
X15890000Y113010000D01*
X18430000Y116820000D02*
X18430000Y113010000D01*
X15890000Y116820000D02*
X18430000Y116820000D01*
X15890000Y113010000D02*
X13350000Y113010000D01*
X15890000Y116820000D02*
X15890000Y113010000D01*
X13350000Y116820000D02*
X15890000Y116820000D01*
X13350000Y116820000D02*
X10810000Y116820000D01*
X13350000Y113010000D02*
X13350000Y116820000D01*
X10810000Y113010000D02*
X13350000Y113010000D01*
X10810000Y116820000D02*
X10810000Y113010000D01*
D11*
X155321428Y1000000D02*
X156035714Y1000000D01*
X155178571Y657143D02*
X155678571Y1857143D01*
X156178571Y657143D01*
X156678571Y657143D02*
X156678571Y1857143D01*
X157035714Y1857143D01*
X157250000Y1800000D01*
X157392857Y1685715D01*
X157464285Y1571429D01*
X157535714Y1342858D01*
X157535714Y1171429D01*
X157464285Y942858D01*
X157392857Y828572D01*
X157250000Y714286D01*
X157035714Y657143D01*
X156678571Y657143D01*
X158607142Y1857143D02*
X158607142Y1000000D01*
X158535714Y828572D01*
X158392857Y714286D01*
X158178571Y657143D01*
X158035714Y657143D01*
X141071428Y657143D02*
X141071428Y1857143D01*
X141928571Y657143D02*
X141285714Y1342858D01*
X141928571Y1857143D02*
X141071428Y1171429D01*
X142571428Y1285715D02*
X143071428Y1285715D01*
X143285714Y657143D02*
X142571428Y657143D01*
X142571428Y1857143D01*
X143285714Y1857143D01*
X144214285Y1228572D02*
X144214285Y657143D01*
X143714285Y1857143D02*
X144214285Y1228572D01*
X144714285Y1857143D01*
X144857142Y542858D02*
X146000000Y542858D01*
X146285714Y1000000D02*
X147000000Y1000000D01*
X146142857Y657143D02*
X146642857Y1857143D01*
X147142857Y657143D01*
X127964285Y657143D02*
X127964285Y1857143D01*
X128821428Y657143D02*
X128178571Y1342858D01*
X128821428Y1857143D02*
X127964285Y1171429D01*
X129464285Y1285715D02*
X129964285Y1285715D01*
X130178571Y657143D02*
X129464285Y657143D01*
X129464285Y1857143D01*
X130178571Y1857143D01*
X131107142Y1228572D02*
X131107142Y657143D01*
X130607142Y1857143D02*
X131107142Y1228572D01*
X131607142Y1857143D01*
X131750000Y542858D02*
X132892857Y542858D01*
X133750000Y1285715D02*
X133964285Y1228572D01*
X134035714Y1171429D01*
X134107142Y1057143D01*
X134107142Y885715D01*
X134035714Y771429D01*
X133964285Y714286D01*
X133821428Y657143D01*
X133250000Y657143D01*
X133250000Y1857143D01*
X133750000Y1857143D01*
X133892857Y1800000D01*
X133964285Y1742858D01*
X134035714Y1628572D01*
X134035714Y1514286D01*
X133964285Y1400000D01*
X133892857Y1342858D01*
X133750000Y1285715D01*
X133250000Y1285715D01*
X114964285Y657143D02*
X114964285Y1857143D01*
X115821428Y657143D02*
X115178571Y1342858D01*
X115821428Y1857143D02*
X114964285Y1171429D01*
X116464285Y1285715D02*
X116964285Y1285715D01*
X117178571Y657143D02*
X116464285Y657143D01*
X116464285Y1857143D01*
X117178571Y1857143D01*
X118107142Y1228572D02*
X118107142Y657143D01*
X117607142Y1857143D02*
X118107142Y1228572D01*
X118607142Y1857143D01*
X118750000Y542858D02*
X119892857Y542858D01*
X121107142Y771429D02*
X121035714Y714286D01*
X120821428Y657143D01*
X120678571Y657143D01*
X120464285Y714286D01*
X120321428Y828572D01*
X120250000Y942858D01*
X120178571Y1171429D01*
X120178571Y1342858D01*
X120250000Y1571429D01*
X120321428Y1685715D01*
X120464285Y1800000D01*
X120678571Y1857143D01*
X120821428Y1857143D01*
X121035714Y1800000D01*
X121107142Y1742858D01*
X99000000Y657143D02*
X99000000Y1857143D01*
X99857142Y657143D02*
X99214285Y1342858D01*
X99857142Y1857143D02*
X99000000Y1171429D01*
X100500000Y1285715D02*
X101000000Y1285715D01*
X101214285Y657143D02*
X100500000Y657143D01*
X100500000Y1857143D01*
X101214285Y1857143D01*
X102142857Y1228572D02*
X102142857Y657143D01*
X101642857Y1857143D02*
X102142857Y1228572D01*
X102642857Y1857143D01*
X102785714Y542858D02*
X103928571Y542858D01*
X104571428Y1857143D02*
X104714285Y1857143D01*
X104857142Y1800000D01*
X104928571Y1742858D01*
X105000000Y1628572D01*
X105071428Y1400000D01*
X105071428Y1114286D01*
X105000000Y885715D01*
X104928571Y771429D01*
X104857142Y714286D01*
X104714285Y657143D01*
X104571428Y657143D01*
X104428571Y714286D01*
X104357142Y771429D01*
X104285714Y885715D01*
X104214285Y1114286D01*
X104214285Y1400000D01*
X104285714Y1628572D01*
X104357142Y1742858D01*
X104428571Y1800000D01*
X104571428Y1857143D01*
X86000000Y657143D02*
X86000000Y1857143D01*
X86857142Y657143D02*
X86214285Y1342858D01*
X86857142Y1857143D02*
X86000000Y1171429D01*
X87500000Y1285715D02*
X88000000Y1285715D01*
X88214285Y657143D02*
X87500000Y657143D01*
X87500000Y1857143D01*
X88214285Y1857143D01*
X89142857Y1228572D02*
X89142857Y657143D01*
X88642857Y1857143D02*
X89142857Y1228572D01*
X89642857Y1857143D01*
X89785714Y542858D02*
X90928571Y542858D01*
X92071428Y657143D02*
X91214285Y657143D01*
X91642857Y657143D02*
X91642857Y1857143D01*
X91500000Y1685715D01*
X91357142Y1571429D01*
X91214285Y1514286D01*
X77000000Y714286D02*
X77214285Y657143D01*
X77571428Y657143D01*
X77714285Y714286D01*
X77785714Y771429D01*
X77857142Y885715D01*
X77857142Y1000000D01*
X77785714Y1114286D01*
X77714285Y1171429D01*
X77571428Y1228572D01*
X77285714Y1285715D01*
X77142857Y1342858D01*
X77071428Y1400000D01*
X77000000Y1514286D01*
X77000000Y1628572D01*
X77071428Y1742858D01*
X77142857Y1800000D01*
X77285714Y1857143D01*
X77642857Y1857143D01*
X77857142Y1800000D01*
X78357142Y1857143D02*
X78714285Y657143D01*
X79000000Y1514286D01*
X79285714Y657143D01*
X79642857Y1857143D01*
X80500000Y1857143D02*
X80642857Y1857143D01*
X80785714Y1800000D01*
X80857142Y1742858D01*
X80928571Y1628572D01*
X81000000Y1400000D01*
X81000000Y1114286D01*
X80928571Y885715D01*
X80857142Y771429D01*
X80785714Y714286D01*
X80642857Y657143D01*
X80500000Y657143D01*
X80357142Y714286D01*
X80285714Y771429D01*
X80214285Y885715D01*
X80142857Y1114286D01*
X80142857Y1400000D01*
X80214285Y1628572D01*
X80285714Y1742858D01*
X80357142Y1800000D01*
X80500000Y1857143D01*
X70000000Y714286D02*
X70214285Y657143D01*
X70571428Y657143D01*
X70714285Y714286D01*
X70785714Y771429D01*
X70857142Y885715D01*
X70857142Y1000000D01*
X70785714Y1114286D01*
X70714285Y1171429D01*
X70571428Y1228572D01*
X70285714Y1285715D01*
X70142857Y1342858D01*
X70071428Y1400000D01*
X70000000Y1514286D01*
X70000000Y1628572D01*
X70071428Y1742858D01*
X70142857Y1800000D01*
X70285714Y1857143D01*
X70642857Y1857143D01*
X70857142Y1800000D01*
X71357142Y1857143D02*
X71714285Y657143D01*
X72000000Y1514286D01*
X72285714Y657143D01*
X72642857Y1857143D01*
X74000000Y657143D02*
X73142857Y657143D01*
X73571428Y657143D02*
X73571428Y1857143D01*
X73428571Y1685715D01*
X73285714Y1571429D01*
X73142857Y1514286D01*
X63000000Y714286D02*
X63214285Y657143D01*
X63571428Y657143D01*
X63714285Y714286D01*
X63785714Y771429D01*
X63857142Y885715D01*
X63857142Y1000000D01*
X63785714Y1114286D01*
X63714285Y1171429D01*
X63571428Y1228572D01*
X63285714Y1285715D01*
X63142857Y1342858D01*
X63071428Y1400000D01*
X63000000Y1514286D01*
X63000000Y1628572D01*
X63071428Y1742858D01*
X63142857Y1800000D01*
X63285714Y1857143D01*
X63642857Y1857143D01*
X63857142Y1800000D01*
X64357142Y1857143D02*
X64714285Y657143D01*
X65000000Y1514286D01*
X65285714Y657143D01*
X65642857Y1857143D01*
X66142857Y1742858D02*
X66214285Y1800000D01*
X66357142Y1857143D01*
X66714285Y1857143D01*
X66857142Y1800000D01*
X66928571Y1742858D01*
X67000000Y1628572D01*
X67000000Y1514286D01*
X66928571Y1342858D01*
X66071428Y657143D01*
X67000000Y657143D01*
X56000000Y714286D02*
X56214285Y657143D01*
X56571428Y657143D01*
X56714285Y714286D01*
X56785714Y771429D01*
X56857142Y885715D01*
X56857142Y1000000D01*
X56785714Y1114286D01*
X56714285Y1171429D01*
X56571428Y1228572D01*
X56285714Y1285715D01*
X56142857Y1342858D01*
X56071428Y1400000D01*
X56000000Y1514286D01*
X56000000Y1628572D01*
X56071428Y1742858D01*
X56142857Y1800000D01*
X56285714Y1857143D01*
X56642857Y1857143D01*
X56857142Y1800000D01*
X57357142Y1857143D02*
X57714285Y657143D01*
X58000000Y1514286D01*
X58285714Y657143D01*
X58642857Y1857143D01*
X59071428Y1857143D02*
X60000000Y1857143D01*
X59500000Y1400000D01*
X59714285Y1400000D01*
X59857142Y1342858D01*
X59928571Y1285715D01*
X60000000Y1171429D01*
X60000000Y885715D01*
X59928571Y771429D01*
X59857142Y714286D01*
X59714285Y657143D01*
X59285714Y657143D01*
X59142857Y714286D01*
X59071428Y771429D01*
X49000000Y714286D02*
X49214285Y657143D01*
X49571428Y657143D01*
X49714285Y714286D01*
X49785714Y771429D01*
X49857142Y885715D01*
X49857142Y1000000D01*
X49785714Y1114286D01*
X49714285Y1171429D01*
X49571428Y1228572D01*
X49285714Y1285715D01*
X49142857Y1342858D01*
X49071428Y1400000D01*
X49000000Y1514286D01*
X49000000Y1628572D01*
X49071428Y1742858D01*
X49142857Y1800000D01*
X49285714Y1857143D01*
X49642857Y1857143D01*
X49857142Y1800000D01*
X50357142Y1857143D02*
X50714285Y657143D01*
X51000000Y1514286D01*
X51285714Y657143D01*
X51642857Y1857143D01*
X52857142Y1457143D02*
X52857142Y657143D01*
X52500000Y1914286D02*
X52142857Y1057143D01*
X53071428Y1057143D01*
X42000000Y714286D02*
X42214285Y657143D01*
X42571428Y657143D01*
X42714285Y714286D01*
X42785714Y771429D01*
X42857142Y885715D01*
X42857142Y1000000D01*
X42785714Y1114286D01*
X42714285Y1171429D01*
X42571428Y1228572D01*
X42285714Y1285715D01*
X42142857Y1342858D01*
X42071428Y1400000D01*
X42000000Y1514286D01*
X42000000Y1628572D01*
X42071428Y1742858D01*
X42142857Y1800000D01*
X42285714Y1857143D01*
X42642857Y1857143D01*
X42857142Y1800000D01*
X43357142Y1857143D02*
X43714285Y657143D01*
X44000000Y1514286D01*
X44285714Y657143D01*
X44642857Y1857143D01*
X45928571Y1857143D02*
X45214285Y1857143D01*
X45142857Y1285715D01*
X45214285Y1342858D01*
X45357142Y1400000D01*
X45714285Y1400000D01*
X45857142Y1342858D01*
X45928571Y1285715D01*
X46000000Y1171429D01*
X46000000Y885715D01*
X45928571Y771429D01*
X45857142Y714286D01*
X45714285Y657143D01*
X45357142Y657143D01*
X45214285Y714286D01*
X45142857Y771429D01*
X35000000Y714286D02*
X35214285Y657143D01*
X35571428Y657143D01*
X35714285Y714286D01*
X35785714Y771429D01*
X35857142Y885715D01*
X35857142Y1000000D01*
X35785714Y1114286D01*
X35714285Y1171429D01*
X35571428Y1228572D01*
X35285714Y1285715D01*
X35142857Y1342858D01*
X35071428Y1400000D01*
X35000000Y1514286D01*
X35000000Y1628572D01*
X35071428Y1742858D01*
X35142857Y1800000D01*
X35285714Y1857143D01*
X35642857Y1857143D01*
X35857142Y1800000D01*
X36357142Y1857143D02*
X36714285Y657143D01*
X37000000Y1514286D01*
X37285714Y657143D01*
X37642857Y1857143D01*
X38857142Y1857143D02*
X38571428Y1857143D01*
X38428571Y1800000D01*
X38357142Y1742858D01*
X38214285Y1571429D01*
X38142857Y1342858D01*
X38142857Y885715D01*
X38214285Y771429D01*
X38285714Y714286D01*
X38428571Y657143D01*
X38714285Y657143D01*
X38857142Y714286D01*
X38928571Y771429D01*
X39000000Y885715D01*
X39000000Y1171429D01*
X38928571Y1285715D01*
X38857142Y1342858D01*
X38714285Y1400000D01*
X38428571Y1400000D01*
X38285714Y1342858D01*
X38214285Y1285715D01*
X38142857Y1171429D01*
X28000000Y714286D02*
X28214285Y657143D01*
X28571428Y657143D01*
X28714285Y714286D01*
X28785714Y771429D01*
X28857142Y885715D01*
X28857142Y1000000D01*
X28785714Y1114286D01*
X28714285Y1171429D01*
X28571428Y1228572D01*
X28285714Y1285715D01*
X28142857Y1342858D01*
X28071428Y1400000D01*
X28000000Y1514286D01*
X28000000Y1628572D01*
X28071428Y1742858D01*
X28142857Y1800000D01*
X28285714Y1857143D01*
X28642857Y1857143D01*
X28857142Y1800000D01*
X29357142Y1857143D02*
X29714285Y657143D01*
X30000000Y1514286D01*
X30285714Y657143D01*
X30642857Y1857143D01*
X31071428Y1857143D02*
X32071428Y1857143D01*
X31428571Y657143D01*
D10*
X16950000Y9050000D02*
X16950000Y2950000D01*
X23050000Y9050000D02*
X23050000Y2950000D01*
X23050000Y9050000D02*
X16950000Y9050000D01*
X23050000Y2950000D02*
X16950000Y2950000D01*
X14270000Y48650000D02*
X14270000Y61350000D01*
X14270000Y48650000D02*
X1800000Y48650000D01*
X14270000Y61350000D02*
X1800000Y61350000D01*
X1800000Y48650000D02*
X1800000Y61350000D01*
X9470000Y48650000D02*
X9470000Y61350000D01*
X29000000Y110000000D02*
X29000000Y100000000D01*
X29000000Y110000000D02*
X1000000Y110000000D01*
X1000000Y110000000D02*
X1000000Y100000000D01*
X1000000Y100000000D02*
X29000000Y100000000D01*
X138000000Y4000000D02*
X138000000Y16000000D01*
X138000000Y16000000D02*
X150000000Y16000000D01*
X150000000Y16000000D02*
X150000000Y4000000D01*
X150000000Y4000000D02*
X138000000Y4000000D01*
X125000000Y4000000D02*
X125000000Y16000000D01*
X125000000Y16000000D02*
X137000000Y16000000D01*
X137000000Y16000000D02*
X137000000Y4000000D01*
X137000000Y4000000D02*
X125000000Y4000000D01*
X112000000Y4000000D02*
X112000000Y16000000D01*
X112000000Y16000000D02*
X124000000Y16000000D01*
X124000000Y16000000D02*
X124000000Y4000000D01*
X124000000Y4000000D02*
X112000000Y4000000D01*
X96000000Y4000000D02*
X96000000Y16000000D01*
X96000000Y16000000D02*
X108000000Y16000000D01*
X108000000Y16000000D02*
X108000000Y4000000D01*
X108000000Y4000000D02*
X96000000Y4000000D01*
X83000000Y4000000D02*
X83000000Y16000000D01*
X83000000Y16000000D02*
X95000000Y16000000D01*
X95000000Y16000000D02*
X95000000Y4000000D01*
X95000000Y4000000D02*
X83000000Y4000000D01*
D15*
X28907800Y21304800D02*
X28907800Y20822200D01*
X28907800Y21685800D02*
X28907800Y21304800D01*
X31092200Y21685800D02*
X30558800Y21685800D01*
X31092200Y20822200D02*
X31092200Y21685800D01*
X29441200Y21685800D02*
X28907800Y21685800D01*
X28907800Y21304799D02*
G75*
G02*
X29187200Y20923800I-3852J-295771D01*
G01*
X35907800Y21304800D02*
X35907800Y20822200D01*
X35907800Y21685800D02*
X35907800Y21304800D01*
X38092200Y21685800D02*
X37558800Y21685800D01*
X38092200Y20822200D02*
X38092200Y21685800D01*
X36441200Y21685800D02*
X35907800Y21685800D01*
X35907800Y21304799D02*
G75*
G02*
X36187200Y20923800I-3852J-295771D01*
G01*
X42907800Y21304800D02*
X42907800Y20822200D01*
X42907800Y21685800D02*
X42907800Y21304800D01*
X45092200Y21685800D02*
X44558800Y21685800D01*
X45092200Y20822200D02*
X45092200Y21685800D01*
X43441200Y21685800D02*
X42907800Y21685800D01*
X42907800Y21304799D02*
G75*
G02*
X43187200Y20923800I-3852J-295771D01*
G01*
X49907800Y21304800D02*
X49907800Y20822200D01*
X49907800Y21685800D02*
X49907800Y21304800D01*
X52092200Y21685800D02*
X51558800Y21685800D01*
X52092200Y20822200D02*
X52092200Y21685800D01*
X50441200Y21685800D02*
X49907800Y21685800D01*
X49907800Y21304799D02*
G75*
G02*
X50187200Y20923800I-3852J-295771D01*
G01*
X56907800Y21304800D02*
X56907800Y20822200D01*
X56907800Y21685800D02*
X56907800Y21304800D01*
X59092200Y21685800D02*
X58558800Y21685800D01*
X59092200Y20822200D02*
X59092200Y21685800D01*
X57441200Y21685800D02*
X56907800Y21685800D01*
X56907800Y21304799D02*
G75*
G02*
X57187200Y20923800I-3852J-295771D01*
G01*
X63907800Y21304800D02*
X63907800Y20822200D01*
X63907800Y21685800D02*
X63907800Y21304800D01*
X66092200Y21685800D02*
X65558800Y21685800D01*
X66092200Y20822200D02*
X66092200Y21685800D01*
X64441200Y21685800D02*
X63907800Y21685800D01*
X63907800Y21304799D02*
G75*
G02*
X64187200Y20923800I-3852J-295771D01*
G01*
X70907800Y21304800D02*
X70907800Y20822200D01*
X70907800Y21685800D02*
X70907800Y21304800D01*
X73092200Y21685800D02*
X72558800Y21685800D01*
X73092200Y20822200D02*
X73092200Y21685800D01*
X71441200Y21685800D02*
X70907800Y21685800D01*
X70907800Y21304799D02*
G75*
G02*
X71187200Y20923800I-3852J-295771D01*
G01*
X77907800Y21304800D02*
X77907800Y20822200D01*
X77907800Y21685800D02*
X77907800Y21304800D01*
X80092200Y21685800D02*
X79558800Y21685800D01*
X80092200Y20822200D02*
X80092200Y21685800D01*
X78441200Y21685800D02*
X77907800Y21685800D01*
X77907800Y21304799D02*
G75*
G02*
X78187200Y20923800I-3852J-295771D01*
G01*
X90092200Y28695200D02*
X90092200Y29177800D01*
X90092200Y28314200D02*
X90092200Y28695200D01*
X87907800Y28314200D02*
X88441200Y28314200D01*
X87907800Y29177800D02*
X87907800Y28314200D01*
X89558800Y28314200D02*
X90092200Y28314200D01*
X90092200Y28695201D02*
G75*
G02*
X89812800Y29076200I3852J295771D01*
G01*
X100092200Y28695200D02*
X100092200Y29177800D01*
X100092200Y28314200D02*
X100092200Y28695200D01*
X97907800Y28314200D02*
X98441200Y28314200D01*
X97907800Y29177800D02*
X97907800Y28314200D01*
X99558800Y28314200D02*
X100092200Y28314200D01*
X100092200Y28695201D02*
G75*
G02*
X99812800Y29076200I3852J295771D01*
G01*
X110092200Y28695200D02*
X110092200Y29177800D01*
X110092200Y28314200D02*
X110092200Y28695200D01*
X107907800Y28314200D02*
X108441200Y28314200D01*
X107907800Y29177800D02*
X107907800Y28314200D01*
X109558800Y28314200D02*
X110092200Y28314200D01*
X110092200Y28695201D02*
G75*
G02*
X109812800Y29076200I3852J295771D01*
G01*
X120092200Y28695200D02*
X120092200Y29177800D01*
X120092200Y28314200D02*
X120092200Y28695200D01*
X117907800Y28314200D02*
X118441200Y28314200D01*
X117907800Y29177800D02*
X117907800Y28314200D01*
X119558800Y28314200D02*
X120092200Y28314200D01*
X120092200Y28695201D02*
G75*
G02*
X119812800Y29076200I3852J295771D01*
G01*
X130092200Y28695200D02*
X130092200Y29177800D01*
X130092200Y28314200D02*
X130092200Y28695200D01*
X127907800Y28314200D02*
X128441200Y28314200D01*
X127907800Y29177800D02*
X127907800Y28314200D01*
X129558800Y28314200D02*
X130092200Y28314200D01*
X130092200Y28695201D02*
G75*
G02*
X129812800Y29076200I3852J295771D01*
G01*
X140092200Y28695200D02*
X140092200Y29177800D01*
X140092200Y28314200D02*
X140092200Y28695200D01*
X137907800Y28314200D02*
X138441200Y28314200D01*
X137907800Y29177800D02*
X137907800Y28314200D01*
X139558800Y28314200D02*
X140092200Y28314200D01*
X140092200Y28695201D02*
G75*
G02*
X139812800Y29076200I3852J295771D01*
G01*
X150092200Y28695200D02*
X150092200Y29177800D01*
X150092200Y28314200D02*
X150092200Y28695200D01*
X147907800Y28314200D02*
X148441200Y28314200D01*
X147907800Y29177800D02*
X147907800Y28314200D01*
X149558800Y28314200D02*
X150092200Y28314200D01*
X150092200Y28695201D02*
G75*
G02*
X149812800Y29076200I3852J295771D01*
G01*
X160092200Y28695200D02*
X160092200Y29177800D01*
X160092200Y28314200D02*
X160092200Y28695200D01*
X157907800Y28314200D02*
X158441200Y28314200D01*
X157907800Y29177800D02*
X157907800Y28314200D01*
X159558800Y28314200D02*
X160092200Y28314200D01*
X160092200Y28695201D02*
G75*
G02*
X159812800Y29076200I3852J295771D01*
G01*
D10*
X9312500Y42002500D02*
X9312500Y42627500D01*
X9625000Y42315000D02*
X9000000Y42315000D01*
X8760000Y45695563D02*
X7695563Y46760000D01*
X8760000Y42304437D02*
X7695563Y41240000D01*
X8760000Y42304437D02*
X8760000Y42940000D01*
X8760000Y45695563D02*
X8760000Y45060000D01*
X7695563Y46760000D02*
X3240000Y46760000D01*
X7695563Y41240000D02*
X3240000Y41240000D01*
X3240000Y41240000D02*
X3240000Y42940000D01*
X3240000Y46760000D02*
X3240000Y45060000D01*
X1956250Y68241250D02*
X1956250Y67453750D01*
X1562500Y67847500D02*
X2350000Y67847500D01*
X2590000Y63654437D02*
X3654437Y62590000D01*
X2590000Y68345563D02*
X3654437Y69410000D01*
X2590000Y68345563D02*
X2590000Y67060000D01*
X2590000Y63654437D02*
X2590000Y64940000D01*
X3654437Y62590000D02*
X9410000Y62590000D01*
X3654437Y69410000D02*
X9410000Y69410000D01*
X9410000Y69410000D02*
X9410000Y67060000D01*
X9410000Y62590000D02*
X9410000Y64940000D01*
X31870000Y93640000D02*
X32660000Y93640000D01*
X38500000Y94000000D02*
X41500000Y94000000D01*
X112150000Y91000000D02*
G75*
G03*
X112150000Y91000000I-2650000J0D01*
G01*
X37150000Y91000000D02*
G75*
G03*
X37150000Y91000000I-2650000J0D01*
G01*
X37150000Y60000000D02*
G75*
G03*
X37150000Y60000000I-2650000J0D01*
G01*
X112150000Y60000000D02*
G75*
G03*
X112150000Y60000000I-2650000J0D01*
G01*
X117162779Y76990000D02*
X116837221Y76990000D01*
X117162779Y78010000D02*
X116837221Y78010000D01*
X120412779Y75990000D02*
X120087221Y75990000D01*
X120412779Y77010000D02*
X120087221Y77010000D01*
X117162779Y70990000D02*
X116837221Y70990000D01*
X117162779Y72010000D02*
X116837221Y72010000D01*
X120412779Y71990000D02*
X120087221Y71990000D01*
X120412779Y73010000D02*
X120087221Y73010000D01*
X117162779Y72990000D02*
X116837221Y72990000D01*
X117162779Y74010000D02*
X116837221Y74010000D01*
X120412779Y73990000D02*
X120087221Y73990000D01*
X120412779Y75010000D02*
X120087221Y75010000D01*
X117162779Y74990000D02*
X116837221Y74990000D01*
X117162779Y76010000D02*
X116837221Y76010000D01*
X155837221Y75010000D02*
X156162779Y75010000D01*
X155837221Y73990000D02*
X156162779Y73990000D01*
X152587221Y76010000D02*
X152912779Y76010000D01*
X152587221Y74990000D02*
X152912779Y74990000D01*
X152587221Y74010000D02*
X152912779Y74010000D01*
X152587221Y72990000D02*
X152912779Y72990000D01*
X155837221Y73010000D02*
X156162779Y73010000D01*
X155837221Y71990000D02*
X156162779Y71990000D01*
X152587221Y72010000D02*
X152912779Y72010000D01*
X152587221Y70990000D02*
X152912779Y70990000D01*
X152587221Y78010000D02*
X152912779Y78010000D01*
X152587221Y76990000D02*
X152912779Y76990000D01*
X155837221Y77010000D02*
X156162779Y77010000D01*
X155837221Y75990000D02*
X156162779Y75990000D01*
X12837221Y63490000D02*
X13162779Y63490000D01*
X12837221Y64510000D02*
X13162779Y64510000D01*
X122670000Y68905000D02*
X122670000Y80335000D01*
X135490000Y68905000D02*
X135490000Y80335000D01*
X123780000Y64985000D02*
X135380000Y64985000D01*
X135380000Y84255000D02*
X122780000Y84255000D01*
X126080000Y79620000D02*
X125080000Y74620000D01*
X125080000Y74620000D02*
X124080000Y69620000D01*
X124080000Y69620000D02*
X131080000Y69620000D01*
X131080000Y69620000D02*
X132080000Y74620000D01*
X133080000Y79620000D02*
X132080000Y74620000D01*
X132080000Y74620000D02*
X125080000Y74620000D01*
X126080000Y79620000D02*
X133080000Y79620000D01*
X133527214Y69620000D02*
G75*
G03*
X133527214Y69620000I-447214J0D01*
G01*
X103210000Y127290000D02*
X103210000Y118170000D01*
X103210000Y118170000D02*
X87710000Y118170000D01*
X87710000Y118170000D02*
X87710000Y127290000D01*
X87710000Y127290000D02*
X103210000Y127290000D01*
X97510000Y127290000D02*
X97510000Y125980000D01*
X97510000Y125980000D02*
X101910000Y125980000D01*
X101910000Y125980000D02*
X101910000Y119480000D01*
X101910000Y119480000D02*
X89010000Y119480000D01*
X89010000Y119480000D02*
X89010000Y125980000D01*
X89010000Y125980000D02*
X93410000Y125980000D01*
X93410000Y125980000D02*
X93410000Y125980000D01*
X93410000Y125980000D02*
X93410000Y127290000D01*
X98000000Y127680000D02*
X98500000Y128680000D01*
X98500000Y128680000D02*
X97500000Y128680000D01*
X97500000Y128680000D02*
X98000000Y127680000D01*
D11*
X116120000Y48200000D02*
G75*
G03*
X116120000Y48200000I-100000J0D01*
G01*
D16*
X135160000Y48920000D02*
X114840000Y48920000D01*
X135160000Y59080000D02*
X135160000Y48920000D01*
X114840000Y59080000D02*
X135160000Y59080000D01*
X114840000Y48920000D02*
X114840000Y59080000D01*
D10*
X132837221Y29490000D02*
X133162779Y29490000D01*
X132837221Y30510000D02*
X133162779Y30510000D01*
X133162779Y28510000D02*
X132837221Y28510000D01*
X133162779Y27490000D02*
X132837221Y27490000D01*
X133162779Y32510000D02*
X132837221Y32510000D01*
X133162779Y31490000D02*
X132837221Y31490000D01*
X81540000Y3000000D02*
X81540000Y17000000D01*
X81540000Y3000000D02*
X76460000Y3000000D01*
X81540000Y17000000D02*
X76460000Y17000000D01*
X76460000Y3000000D02*
X76460000Y17000000D01*
X49515000Y23265000D02*
X51800000Y23265000D01*
X49515000Y24735000D02*
X49515000Y23265000D01*
X51800000Y24735000D02*
X49515000Y24735000D01*
X50837221Y26490000D02*
X51162779Y26490000D01*
X50837221Y27510000D02*
X51162779Y27510000D01*
X50837221Y29490000D02*
X51162779Y29490000D01*
X50837221Y30510000D02*
X51162779Y30510000D01*
X51162779Y33510000D02*
X50837221Y33510000D01*
X51162779Y32490000D02*
X50837221Y32490000D01*
X32540000Y3000000D02*
X32540000Y17000000D01*
X32540000Y3000000D02*
X27460000Y3000000D01*
X32540000Y17000000D02*
X27460000Y17000000D01*
X27460000Y3000000D02*
X27460000Y17000000D01*
X33500000Y128680000D02*
X34000000Y127680000D01*
X34500000Y128680000D02*
X33500000Y128680000D01*
X34000000Y127680000D02*
X34500000Y128680000D01*
X29410000Y125980000D02*
X29410000Y127290000D01*
X29410000Y125980000D02*
X29410000Y125980000D01*
X25010000Y125980000D02*
X29410000Y125980000D01*
X25010000Y119480000D02*
X25010000Y125980000D01*
X37910000Y119480000D02*
X25010000Y119480000D01*
X37910000Y125980000D02*
X37910000Y119480000D01*
X33510000Y125980000D02*
X37910000Y125980000D01*
X33510000Y127290000D02*
X33510000Y125980000D01*
X23710000Y127290000D02*
X39210000Y127290000D01*
X23710000Y118170000D02*
X23710000Y127290000D01*
X39210000Y118170000D02*
X23710000Y118170000D01*
X39210000Y127290000D02*
X39210000Y118170000D01*
X16500000Y128680000D02*
X17000000Y127680000D01*
X17500000Y128680000D02*
X16500000Y128680000D01*
X17000000Y127680000D02*
X17500000Y128680000D01*
X12410000Y125980000D02*
X12410000Y127290000D01*
X12410000Y125980000D02*
X12410000Y125980000D01*
X8010000Y125980000D02*
X12410000Y125980000D01*
X8010000Y119480000D02*
X8010000Y125980000D01*
X20910000Y119480000D02*
X8010000Y119480000D01*
X20910000Y125980000D02*
X20910000Y119480000D01*
X16510000Y125980000D02*
X20910000Y125980000D01*
X16510000Y127290000D02*
X16510000Y125980000D01*
X6710000Y127290000D02*
X22210000Y127290000D01*
X6710000Y118170000D02*
X6710000Y127290000D01*
X22210000Y118170000D02*
X6710000Y118170000D01*
X22210000Y127290000D02*
X22210000Y118170000D01*
X80500000Y128680000D02*
X81000000Y127680000D01*
X81500000Y128680000D02*
X80500000Y128680000D01*
X81000000Y127680000D02*
X81500000Y128680000D01*
X76410000Y125980000D02*
X76410000Y127290000D01*
X76410000Y125980000D02*
X76410000Y125980000D01*
X72010000Y125980000D02*
X76410000Y125980000D01*
X72010000Y119480000D02*
X72010000Y125980000D01*
X84910000Y119480000D02*
X72010000Y119480000D01*
X84910000Y125980000D02*
X84910000Y119480000D01*
X80510000Y125980000D02*
X84910000Y125980000D01*
X80510000Y127290000D02*
X80510000Y125980000D01*
X70710000Y127290000D02*
X86210000Y127290000D01*
X70710000Y118170000D02*
X70710000Y127290000D01*
X86210000Y118170000D02*
X70710000Y118170000D01*
X86210000Y127290000D02*
X86210000Y118170000D01*
X63500000Y128680000D02*
X64000000Y127680000D01*
X64500000Y128680000D02*
X63500000Y128680000D01*
X64000000Y127680000D02*
X64500000Y128680000D01*
X53060000Y125980000D02*
X53060000Y127290000D01*
X53060000Y125980000D02*
X53060000Y125980000D01*
X42310000Y125980000D02*
X53060000Y125980000D01*
X42310000Y119480000D02*
X42310000Y125980000D01*
X67910000Y119480000D02*
X42310000Y119480000D01*
X67910000Y125980000D02*
X67910000Y119480000D01*
X57160000Y125980000D02*
X67910000Y125980000D01*
X57160000Y127290000D02*
X57160000Y125980000D01*
X41010000Y127290000D02*
X69210000Y127290000D01*
X41010000Y118170000D02*
X41010000Y127290000D01*
X69210000Y118170000D02*
X41010000Y118170000D01*
X69210000Y127290000D02*
X69210000Y118170000D01*
X179680000Y41500000D02*
X178680000Y41000000D01*
X179680000Y40500000D02*
X179680000Y41500000D01*
X178680000Y41000000D02*
X179680000Y40500000D01*
X176980000Y50670000D02*
X178290000Y50670000D01*
X176980000Y50670000D02*
X176980000Y50670000D01*
X176980000Y60150000D02*
X176980000Y50670000D01*
X170480000Y60150000D02*
X176980000Y60150000D01*
X170480000Y37090000D02*
X170480000Y60150000D01*
X176980000Y37090000D02*
X170480000Y37090000D01*
X176980000Y46570000D02*
X176980000Y37090000D01*
X178290000Y46570000D02*
X176980000Y46570000D01*
X178290000Y61450000D02*
X178290000Y35790000D01*
X169170000Y61450000D02*
X178290000Y61450000D01*
X169170000Y35790000D02*
X169170000Y61450000D01*
X178290000Y35790000D02*
X169170000Y35790000D01*
X179680000Y70500000D02*
X178680000Y70000000D01*
X179680000Y69500000D02*
X179680000Y70500000D01*
X178680000Y70000000D02*
X179680000Y69500000D01*
X176980000Y79670000D02*
X178290000Y79670000D01*
X176980000Y79670000D02*
X176980000Y79670000D01*
X176980000Y89150000D02*
X176980000Y79670000D01*
X170480000Y89150000D02*
X176980000Y89150000D01*
X170480000Y66090000D02*
X170480000Y89150000D01*
X176980000Y66090000D02*
X170480000Y66090000D01*
X176980000Y75570000D02*
X176980000Y66090000D01*
X178290000Y75570000D02*
X176980000Y75570000D01*
X178290000Y90450000D02*
X178290000Y64790000D01*
X169170000Y90450000D02*
X178290000Y90450000D01*
X169170000Y64790000D02*
X169170000Y90450000D01*
X178290000Y64790000D02*
X169170000Y64790000D01*
X127500000Y128680000D02*
X128000000Y127680000D01*
X128500000Y128680000D02*
X127500000Y128680000D01*
X128000000Y127680000D02*
X128500000Y128680000D01*
X117060000Y125980000D02*
X117060000Y127290000D01*
X117060000Y125980000D02*
X117060000Y125980000D01*
X106310000Y125980000D02*
X117060000Y125980000D01*
X106310000Y119480000D02*
X106310000Y125980000D01*
X131910000Y119480000D02*
X106310000Y119480000D01*
X131910000Y125980000D02*
X131910000Y119480000D01*
X121160000Y125980000D02*
X131910000Y125980000D01*
X121160000Y127290000D02*
X121160000Y125980000D01*
X105010000Y127290000D02*
X133210000Y127290000D01*
X105010000Y118170000D02*
X105010000Y127290000D01*
X133210000Y118170000D02*
X105010000Y118170000D01*
X133210000Y127290000D02*
X133210000Y118170000D01*
X147500000Y128680000D02*
X148000000Y127680000D01*
X148500000Y128680000D02*
X147500000Y128680000D01*
X148000000Y127680000D02*
X148500000Y128680000D01*
X142140000Y125980000D02*
X142140000Y127290000D01*
X142140000Y125980000D02*
X142140000Y125980000D01*
X136470000Y125980000D02*
X142140000Y125980000D01*
X136470000Y119480000D02*
X136470000Y125980000D01*
X151910000Y119480000D02*
X136470000Y119480000D01*
X151910000Y125980000D02*
X151910000Y119480000D01*
X146240000Y125980000D02*
X151910000Y125980000D01*
X146240000Y127290000D02*
X146240000Y125980000D01*
X135170000Y127290000D02*
X153210000Y127290000D01*
X135170000Y118170000D02*
X135170000Y127290000D01*
X153210000Y118170000D02*
X135170000Y118170000D01*
X153210000Y127290000D02*
X153210000Y118170000D01*
X167500000Y128680000D02*
X168000000Y127680000D01*
X168500000Y128680000D02*
X167500000Y128680000D01*
X168000000Y127680000D02*
X168500000Y128680000D01*
X162140000Y125980000D02*
X162140000Y127290000D01*
X162140000Y125980000D02*
X162140000Y125980000D01*
X156470000Y125980000D02*
X162140000Y125980000D01*
X156470000Y119480000D02*
X156470000Y125980000D01*
X171910000Y119480000D02*
X156470000Y119480000D01*
X171910000Y125980000D02*
X171910000Y119480000D01*
X166240000Y125980000D02*
X171910000Y125980000D01*
X166240000Y127290000D02*
X166240000Y125980000D01*
X155170000Y127290000D02*
X173210000Y127290000D01*
X155170000Y118170000D02*
X155170000Y127290000D01*
X173210000Y118170000D02*
X155170000Y118170000D01*
X173210000Y127290000D02*
X173210000Y118170000D01*
D11*
X22100000Y65460000D02*
G75*
G03*
X22100000Y65460000I-100000J0D01*
G01*
D16*
X16580000Y72765000D02*
X16580000Y63235000D01*
X21410000Y72765000D02*
X16580000Y72765000D01*
X21410000Y63235000D02*
X21410000Y72765000D01*
X16580000Y63235000D02*
X21410000Y63235000D01*
D10*
X15100000Y37750000D02*
X15100000Y38800000D01*
X14050000Y38800000D02*
X15100000Y38800000D01*
X9000000Y29400000D02*
X200000Y29400000D01*
X200000Y29400000D02*
X200000Y38600000D01*
X14900000Y32100000D02*
X14900000Y29400000D01*
X14900000Y29400000D02*
X13000000Y29400000D01*
X200000Y38600000D02*
X14900000Y38600000D01*
X14900000Y38600000D02*
X14900000Y36000000D01*
X30760000Y47600000D02*
X31780000Y47600000D01*
X30760000Y42400000D02*
X31780000Y42400000D01*
X28220000Y47600000D02*
X29240000Y47600000D01*
X28220000Y42400000D02*
X29240000Y42400000D01*
X33300000Y47600000D02*
X33870000Y47600000D01*
X33300000Y42400000D02*
X33870000Y42400000D01*
X26130000Y47600000D02*
X26700000Y47600000D01*
X26130000Y42400000D02*
X26700000Y42400000D01*
X26700000Y40960000D02*
X26700000Y42400000D01*
X33870000Y42400000D02*
X33870000Y47600000D01*
X26130000Y42400000D02*
X26130000Y47600000D01*
X2000000Y99000000D02*
X28000000Y99000000D01*
X28000000Y99000000D02*
X28000000Y88200000D01*
X2000000Y88200000D02*
X2000000Y99000000D01*
X2000000Y88200000D02*
X28000000Y88200000D01*
X90000000Y23600000D02*
X90000000Y26400000D01*
X94000000Y23600000D02*
X90000000Y23600000D01*
X94000000Y26400000D02*
X94000000Y23600000D01*
X90000000Y26400000D02*
X94000000Y26400000D01*
X100000000Y23600000D02*
X100000000Y26400000D01*
X104000000Y23600000D02*
X100000000Y23600000D01*
X104000000Y26400000D02*
X104000000Y23600000D01*
X100000000Y26400000D02*
X104000000Y26400000D01*
X110000000Y23600000D02*
X110000000Y26400000D01*
X114000000Y23600000D02*
X110000000Y23600000D01*
X114000000Y26400000D02*
X114000000Y23600000D01*
X110000000Y26400000D02*
X114000000Y26400000D01*
X120000000Y23600000D02*
X120000000Y26400000D01*
X124000000Y23600000D02*
X120000000Y23600000D01*
X124000000Y26400000D02*
X124000000Y23600000D01*
X120000000Y26400000D02*
X124000000Y26400000D01*
X130000000Y23600000D02*
X130000000Y26400000D01*
X134000000Y23600000D02*
X130000000Y23600000D01*
X134000000Y26400000D02*
X134000000Y23600000D01*
X130000000Y26400000D02*
X134000000Y26400000D01*
X140000000Y23600000D02*
X140000000Y26400000D01*
X144000000Y23600000D02*
X140000000Y23600000D01*
X144000000Y26400000D02*
X144000000Y23600000D01*
X140000000Y26400000D02*
X144000000Y26400000D01*
X150000000Y23600000D02*
X150000000Y26400000D01*
X154000000Y23600000D02*
X150000000Y23600000D01*
X154000000Y26400000D02*
X154000000Y23600000D01*
X150000000Y26400000D02*
X154000000Y26400000D01*
X160000000Y23600000D02*
X160000000Y26400000D01*
X164000000Y23600000D02*
X160000000Y23600000D01*
X164000000Y26400000D02*
X164000000Y23600000D01*
X160000000Y26400000D02*
X164000000Y26400000D01*
X39540000Y3000000D02*
X39540000Y17000000D01*
X39540000Y3000000D02*
X34460000Y3000000D01*
X39540000Y17000000D02*
X34460000Y17000000D01*
X34460000Y3000000D02*
X34460000Y17000000D01*
X46540000Y3000000D02*
X46540000Y17000000D01*
X46540000Y3000000D02*
X41460000Y3000000D01*
X46540000Y17000000D02*
X41460000Y17000000D01*
X41460000Y3000000D02*
X41460000Y17000000D01*
X53540000Y3000000D02*
X53540000Y17000000D01*
X53540000Y3000000D02*
X48460000Y3000000D01*
X53540000Y17000000D02*
X48460000Y17000000D01*
X48460000Y3000000D02*
X48460000Y17000000D01*
X60540000Y3000000D02*
X60540000Y17000000D01*
X60540000Y3000000D02*
X55460000Y3000000D01*
X60540000Y17000000D02*
X55460000Y17000000D01*
X55460000Y3000000D02*
X55460000Y17000000D01*
X67540000Y3000000D02*
X67540000Y17000000D01*
X67540000Y3000000D02*
X62460000Y3000000D01*
X67540000Y17000000D02*
X62460000Y17000000D01*
X62460000Y3000000D02*
X62460000Y17000000D01*
X74540000Y3000000D02*
X74540000Y17000000D01*
X74540000Y3000000D02*
X69460000Y3000000D01*
X74540000Y17000000D02*
X69460000Y17000000D01*
X69460000Y3000000D02*
X69460000Y17000000D01*
X28515000Y23265000D02*
X30800000Y23265000D01*
X28515000Y24735000D02*
X28515000Y23265000D01*
X30800000Y24735000D02*
X28515000Y24735000D01*
X35515000Y23265000D02*
X37800000Y23265000D01*
X35515000Y24735000D02*
X35515000Y23265000D01*
X37800000Y24735000D02*
X35515000Y24735000D01*
X42515000Y23265000D02*
X44800000Y23265000D01*
X42515000Y24735000D02*
X42515000Y23265000D01*
X44800000Y24735000D02*
X42515000Y24735000D01*
X56515000Y23265000D02*
X58800000Y23265000D01*
X56515000Y24735000D02*
X56515000Y23265000D01*
X58800000Y24735000D02*
X56515000Y24735000D01*
X63515000Y23265000D02*
X65800000Y23265000D01*
X63515000Y24735000D02*
X63515000Y23265000D01*
X65800000Y24735000D02*
X63515000Y24735000D01*
X70515000Y23265000D02*
X72800000Y23265000D01*
X70515000Y24735000D02*
X70515000Y23265000D01*
X72800000Y24735000D02*
X70515000Y24735000D01*
X77515000Y23265000D02*
X79800000Y23265000D01*
X77515000Y24735000D02*
X77515000Y23265000D01*
X79800000Y24735000D02*
X77515000Y24735000D01*
X20485000Y81735000D02*
X18200000Y81735000D01*
X20485000Y80265000D02*
X20485000Y81735000D01*
X18200000Y80265000D02*
X20485000Y80265000D01*
X162730000Y15390000D02*
X151330000Y15390000D01*
X162730000Y3990000D02*
X162730000Y15390000D01*
X151300000Y3990000D02*
X151300000Y15390000D01*
X162700000Y3990000D02*
X151300000Y3990000D01*
X179000000Y100000000D02*
G75*
G03*
X179000000Y100000000I-3000000J0D01*
G01*
X37000000Y100000000D02*
G75*
G03*
X37000000Y100000000I-3000000J0D01*
G01*
X179000000Y4000000D02*
G75*
G03*
X179000000Y4000000I-3000000J0D01*
G01*
X7000000Y4000000D02*
G75*
G03*
X7000000Y4000000I-3000000J0D01*
G01*
D16*
X3957000Y70730000D02*
X10058000Y70730000D01*
X10058000Y70730000D02*
X10058000Y77270000D01*
X10058000Y77270000D02*
X3957000Y77270000D01*
D11*
X14205000Y71700000D02*
G75*
G03*
X14205000Y71700000I-100000J0D01*
G01*
D16*
X10065000Y86270000D02*
X3970000Y86270000D01*
X10065000Y79730000D02*
X10065000Y86270000D01*
X3970000Y79730000D02*
X10065000Y79730000D01*
D11*
X14300000Y80600000D02*
G75*
G03*
X14300000Y80600000I-100000J0D01*
G01*
D10*
X67900000Y53800000D02*
X67900000Y54040000D01*
X66100000Y53800000D02*
X67900000Y53800000D01*
X67900000Y50200000D02*
X66100000Y50200000D01*
X64300000Y51600000D02*
X64300000Y52400000D01*
X69700000Y52400000D02*
X69700000Y51600000D01*
X70100000Y52400000D02*
X69700000Y52400000D01*
X154000000Y34565000D02*
X157450000Y34565000D01*
X154000000Y34565000D02*
X152050000Y34565000D01*
X154000000Y43435000D02*
X155950000Y43435000D01*
X154000000Y43435000D02*
X152050000Y43435000D01*
X154000000Y100060000D02*
X150550000Y100060000D01*
X154000000Y100060000D02*
X155950000Y100060000D01*
X154000000Y89940000D02*
X152050000Y89940000D01*
X154000000Y89940000D02*
X155950000Y89940000D01*
X119000000Y34565000D02*
X122450000Y34565000D01*
X119000000Y34565000D02*
X117050000Y34565000D01*
X119000000Y43435000D02*
X120950000Y43435000D01*
X119000000Y43435000D02*
X117050000Y43435000D01*
X119000000Y100060000D02*
X115550000Y100060000D01*
X119000000Y100060000D02*
X120950000Y100060000D01*
X119000000Y89940000D02*
X117050000Y89940000D01*
X119000000Y89940000D02*
X120950000Y89940000D01*
D13*
X61825000Y72600000D02*
X60550000Y72600000D01*
X72175000Y73175000D02*
X71500000Y73175000D01*
X72175000Y62825000D02*
X71500000Y62825000D01*
X61825000Y62825000D02*
X62500000Y62825000D01*
X61825000Y73175000D02*
X62500000Y73175000D01*
X61825000Y62825000D02*
X61825000Y63500000D01*
X72175000Y62825000D02*
X72175000Y63500000D01*
X72175000Y73175000D02*
X72175000Y72500000D01*
X61825000Y73175000D02*
X61825000Y72600000D01*
D10*
X95000000Y90565000D02*
X98450000Y90565000D01*
X95000000Y90565000D02*
X93050000Y90565000D01*
X95000000Y99435000D02*
X96950000Y99435000D01*
X95000000Y99435000D02*
X93050000Y99435000D01*
D11*
X139120000Y48200000D02*
G75*
G03*
X139120000Y48200000I-100000J0D01*
G01*
D16*
X158160000Y48920000D02*
X137840000Y48920000D01*
X158160000Y59080000D02*
X158160000Y48920000D01*
X137840000Y59080000D02*
X158160000Y59080000D01*
X137840000Y48920000D02*
X137840000Y59080000D01*
D10*
X137670000Y68905000D02*
X137670000Y80335000D01*
X150490000Y68905000D02*
X150490000Y80335000D01*
X138780000Y64985000D02*
X150380000Y64985000D01*
X150380000Y84255000D02*
X137780000Y84255000D01*
X141080000Y79620000D02*
X140080000Y74620000D01*
X140080000Y74620000D02*
X139080000Y69620000D01*
X139080000Y69620000D02*
X146080000Y69620000D01*
X146080000Y69620000D02*
X147080000Y74620000D01*
X148080000Y79620000D02*
X147080000Y74620000D01*
X147080000Y74620000D02*
X140080000Y74620000D01*
X141080000Y79620000D02*
X148080000Y79620000D01*
X148527214Y69620000D02*
G75*
G03*
X148527214Y69620000I-447214J0D01*
G01*
X67162779Y56510000D02*
X66837221Y56510000D01*
X67162779Y55490000D02*
X66837221Y55490000D01*
X78162779Y73510000D02*
X77837221Y73510000D01*
X78162779Y72490000D02*
X77837221Y72490000D01*
X24837221Y23490000D02*
X25162779Y23490000D01*
X24837221Y24510000D02*
X25162779Y24510000D01*
X20162779Y20510000D02*
X19837221Y20510000D01*
X20162779Y19490000D02*
X19837221Y19490000D01*
X20162779Y24510000D02*
X19837221Y24510000D01*
X20162779Y23490000D02*
X19837221Y23490000D01*
X20162779Y12510000D02*
X19837221Y12510000D01*
X20162779Y11490000D02*
X19837221Y11490000D01*
X146837221Y19490000D02*
X147162779Y19490000D01*
X146837221Y20510000D02*
X147162779Y20510000D01*
X133837221Y19490000D02*
X134162779Y19490000D01*
X133837221Y20510000D02*
X134162779Y20510000D01*
X120837221Y19490000D02*
X121162779Y19490000D01*
X120837221Y20510000D02*
X121162779Y20510000D01*
X91837221Y19490000D02*
X92162779Y19490000D01*
X91837221Y20510000D02*
X92162779Y20510000D01*
X104837221Y19490000D02*
X105162779Y19490000D01*
X104837221Y20510000D02*
X105162779Y20510000D01*
X29837221Y26490000D02*
X30162779Y26490000D01*
X29837221Y27510000D02*
X30162779Y27510000D01*
X30162779Y33510000D02*
X29837221Y33510000D01*
X30162779Y32490000D02*
X29837221Y32490000D01*
X29837221Y29490000D02*
X30162779Y29490000D01*
X29837221Y30510000D02*
X30162779Y30510000D01*
X36837221Y26490000D02*
X37162779Y26490000D01*
X36837221Y27510000D02*
X37162779Y27510000D01*
X37162779Y33510000D02*
X36837221Y33510000D01*
X37162779Y32490000D02*
X36837221Y32490000D01*
X36837221Y29490000D02*
X37162779Y29490000D01*
X36837221Y30510000D02*
X37162779Y30510000D01*
X43837221Y26490000D02*
X44162779Y26490000D01*
X43837221Y27510000D02*
X44162779Y27510000D01*
X44162779Y33510000D02*
X43837221Y33510000D01*
X44162779Y32490000D02*
X43837221Y32490000D01*
X43837221Y29490000D02*
X44162779Y29490000D01*
X43837221Y30510000D02*
X44162779Y30510000D01*
X57837221Y26490000D02*
X58162779Y26490000D01*
X57837221Y27510000D02*
X58162779Y27510000D01*
X58162779Y33510000D02*
X57837221Y33510000D01*
X58162779Y32490000D02*
X57837221Y32490000D01*
X57837221Y29490000D02*
X58162779Y29490000D01*
X57837221Y30510000D02*
X58162779Y30510000D01*
X64837221Y26490000D02*
X65162779Y26490000D01*
X64837221Y27510000D02*
X65162779Y27510000D01*
X65162779Y33510000D02*
X64837221Y33510000D01*
X65162779Y32490000D02*
X64837221Y32490000D01*
X64837221Y29490000D02*
X65162779Y29490000D01*
X64837221Y30510000D02*
X65162779Y30510000D01*
X71837221Y26490000D02*
X72162779Y26490000D01*
X71837221Y27510000D02*
X72162779Y27510000D01*
X72162779Y33510000D02*
X71837221Y33510000D01*
X72162779Y32490000D02*
X71837221Y32490000D01*
X71837221Y29490000D02*
X72162779Y29490000D01*
X71837221Y30510000D02*
X72162779Y30510000D01*
X78837221Y26490000D02*
X79162779Y26490000D01*
X78837221Y27510000D02*
X79162779Y27510000D01*
X79162779Y33510000D02*
X78837221Y33510000D01*
X79162779Y32490000D02*
X78837221Y32490000D01*
X78837221Y29490000D02*
X79162779Y29490000D01*
X78837221Y30510000D02*
X79162779Y30510000D01*
X93162779Y28510000D02*
X92837221Y28510000D01*
X93162779Y27490000D02*
X92837221Y27490000D01*
X93162779Y32510000D02*
X92837221Y32510000D01*
X93162779Y31490000D02*
X92837221Y31490000D01*
X92837221Y29490000D02*
X93162779Y29490000D01*
X92837221Y30510000D02*
X93162779Y30510000D01*
X103162779Y28510000D02*
X102837221Y28510000D01*
X103162779Y27490000D02*
X102837221Y27490000D01*
X103162779Y32510000D02*
X102837221Y32510000D01*
X103162779Y31490000D02*
X102837221Y31490000D01*
X102837221Y29490000D02*
X103162779Y29490000D01*
X102837221Y30510000D02*
X103162779Y30510000D01*
X113162779Y28510000D02*
X112837221Y28510000D01*
X113162779Y27490000D02*
X112837221Y27490000D01*
X113162779Y32510000D02*
X112837221Y32510000D01*
X113162779Y31490000D02*
X112837221Y31490000D01*
X112837221Y29490000D02*
X113162779Y29490000D01*
X112837221Y30510000D02*
X113162779Y30510000D01*
X123162779Y28510000D02*
X122837221Y28510000D01*
X123162779Y27490000D02*
X122837221Y27490000D01*
X123162779Y32510000D02*
X122837221Y32510000D01*
X123162779Y31490000D02*
X122837221Y31490000D01*
X122837221Y29490000D02*
X123162779Y29490000D01*
X122837221Y30510000D02*
X123162779Y30510000D01*
X143162779Y28510000D02*
X142837221Y28510000D01*
X143162779Y27490000D02*
X142837221Y27490000D01*
X143162779Y32510000D02*
X142837221Y32510000D01*
X143162779Y31490000D02*
X142837221Y31490000D01*
X142837221Y29490000D02*
X143162779Y29490000D01*
X142837221Y30510000D02*
X143162779Y30510000D01*
X153162779Y28510000D02*
X152837221Y28510000D01*
X153162779Y27490000D02*
X152837221Y27490000D01*
X153162779Y32510000D02*
X152837221Y32510000D01*
X153162779Y31490000D02*
X152837221Y31490000D01*
X152837221Y29490000D02*
X153162779Y29490000D01*
X152837221Y30510000D02*
X153162779Y30510000D01*
X163162779Y28510000D02*
X162837221Y28510000D01*
X163162779Y27490000D02*
X162837221Y27490000D01*
X163162779Y32510000D02*
X162837221Y32510000D01*
X163162779Y31490000D02*
X162837221Y31490000D01*
X162837221Y29490000D02*
X163162779Y29490000D01*
X162837221Y30510000D02*
X163162779Y30510000D01*
X19162779Y78510000D02*
X18837221Y78510000D01*
X19162779Y77490000D02*
X18837221Y77490000D01*
X12837221Y67490000D02*
X13162779Y67490000D01*
X12837221Y68510000D02*
X13162779Y68510000D01*
D11*
X16800000Y24050000D02*
X16800000Y11950000D01*
X16800000Y11950000D02*
X13010000Y11950000D01*
X8990000Y11950000D02*
X600000Y11950000D01*
X600000Y11950000D02*
X600000Y24050000D01*
X600000Y24050000D02*
X8990000Y24050000D01*
X13010000Y24050000D02*
X16800000Y24050000D01*
X15800000Y11250000D02*
G75*
G03*
X15800000Y11250000I-100000J0D01*
G01*
D10*
X53162779Y75510000D02*
X52837221Y75510000D01*
X53162779Y74490000D02*
X52837221Y74490000D01*
X58490000Y56162779D02*
X58490000Y55837221D01*
X59510000Y56162779D02*
X59510000Y55837221D01*
X53162779Y71510000D02*
X52837221Y71510000D01*
X53162779Y70490000D02*
X52837221Y70490000D01*
X53162779Y67510000D02*
X52837221Y67510000D01*
X53162779Y66490000D02*
X52837221Y66490000D01*
X53162779Y79510000D02*
X52837221Y79510000D01*
X53162779Y78490000D02*
X52837221Y78490000D01*
X62510000Y51837221D02*
X62510000Y52162779D01*
X61490000Y51837221D02*
X61490000Y52162779D01*
X71490000Y52162779D02*
X71490000Y51837221D01*
X72510000Y52162779D02*
X72510000Y51837221D01*
X25162779Y12510000D02*
X24837221Y12510000D01*
X25162779Y11490000D02*
X24837221Y11490000D01*
X141162779Y20510000D02*
X140837221Y20510000D01*
X141162779Y19490000D02*
X140837221Y19490000D01*
X127837221Y19490000D02*
X128162779Y19490000D01*
X127837221Y20510000D02*
X128162779Y20510000D01*
X115162779Y20510000D02*
X114837221Y20510000D01*
X115162779Y19490000D02*
X114837221Y19490000D01*
X86162779Y20510000D02*
X85837221Y20510000D01*
X86162779Y19490000D02*
X85837221Y19490000D01*
X99162779Y20510000D02*
X98837221Y20510000D01*
X99162779Y19490000D02*
X98837221Y19490000D01*
X18837221Y83490000D02*
X19162779Y83490000D01*
X18837221Y84510000D02*
X19162779Y84510000D01*
M02*
