G04 #@! TF.GenerationSoftware,KiCad,Pcbnew,(5.1.8)-1*
G04 #@! TF.CreationDate,2021-01-23T12:46:17+07:00*
G04 #@! TF.ProjectId,digitalSystemBoard,64696769-7461-46c5-9379-7374656d426f,rev?*
G04 #@! TF.SameCoordinates,PX2faf080PY9896800*
G04 #@! TF.FileFunction,Paste,Top*
G04 #@! TF.FilePolarity,Positive*
%FSLAX46Y46*%
G04 Gerber Fmt 4.6, Leading zero omitted, Abs format (unit mm)*
G04 Created by KiCad (PCBNEW (5.1.8)-1) date 2021-01-23 12:46:17*
%MOMM*%
%LPD*%
G01*
G04 APERTURE LIST*
%ADD10C,0.010000*%
%ADD11R,1.300000X1.100000*%
%ADD12R,1.500000X1.500000*%
%ADD13R,0.457200X1.117600*%
%ADD14R,1.000000X3.150000*%
%ADD15R,1.000000X2.500000*%
%ADD16R,1.730000X0.960000*%
%ADD17R,2.830000X0.970000*%
%ADD18R,1.800000X1.200000*%
%ADD19R,0.550000X1.500000*%
%ADD20R,1.500000X0.550000*%
%ADD21R,1.200000X1.470000*%
%ADD22R,1.470000X1.200000*%
G04 APERTURE END LIST*
D10*
G36*
X6395000Y71735000D02*
G01*
X4965000Y71735000D01*
X4965000Y73445000D01*
X6395000Y73445000D01*
X6395000Y71735000D01*
G37*
X6395000Y71735000D02*
X4965000Y71735000D01*
X4965000Y73445000D01*
X6395000Y73445000D01*
X6395000Y71735000D01*
G36*
X4225000Y71735000D02*
G01*
X2795000Y71735000D01*
X2795000Y73445000D01*
X4225000Y73445000D01*
X4225000Y71735000D01*
G37*
X4225000Y71735000D02*
X2795000Y71735000D01*
X2795000Y73445000D01*
X4225000Y73445000D01*
X4225000Y71735000D01*
G36*
X8565000Y71735000D02*
G01*
X7135000Y71735000D01*
X7135000Y73445000D01*
X8565000Y73445000D01*
X8565000Y71735000D01*
G37*
X8565000Y71735000D02*
X7135000Y71735000D01*
X7135000Y73445000D01*
X8565000Y73445000D01*
X8565000Y71735000D01*
G36*
X8565000Y74555000D02*
G01*
X7135000Y74555000D01*
X7135000Y76265000D01*
X8565000Y76265000D01*
X8565000Y74555000D01*
G37*
X8565000Y74555000D02*
X7135000Y74555000D01*
X7135000Y76265000D01*
X8565000Y76265000D01*
X8565000Y74555000D01*
G36*
X6395000Y74555000D02*
G01*
X4965000Y74555000D01*
X4965000Y76265000D01*
X6395000Y76265000D01*
X6395000Y74555000D01*
G37*
X6395000Y74555000D02*
X4965000Y74555000D01*
X4965000Y76265000D01*
X6395000Y76265000D01*
X6395000Y74555000D01*
G36*
X4225000Y74555000D02*
G01*
X2795000Y74555000D01*
X2795000Y76265000D01*
X4225000Y76265000D01*
X4225000Y74555000D01*
G37*
X4225000Y74555000D02*
X2795000Y74555000D01*
X2795000Y76265000D01*
X4225000Y76265000D01*
X4225000Y74555000D01*
G36*
X8175000Y83540000D02*
G01*
X6865000Y83540000D01*
X6865000Y85280000D01*
X8175000Y85280000D01*
X8175000Y83540000D01*
G37*
X8175000Y83540000D02*
X6865000Y83540000D01*
X6865000Y85280000D01*
X8175000Y85280000D01*
X8175000Y83540000D01*
G36*
X4115000Y83540000D02*
G01*
X2805000Y83540000D01*
X2805000Y85280000D01*
X4115000Y85280000D01*
X4115000Y83540000D01*
G37*
X4115000Y83540000D02*
X2805000Y83540000D01*
X2805000Y85280000D01*
X4115000Y85280000D01*
X4115000Y83540000D01*
G36*
X4115000Y80720000D02*
G01*
X2805000Y80720000D01*
X2805000Y82460000D01*
X4115000Y82460000D01*
X4115000Y80720000D01*
G37*
X4115000Y80720000D02*
X2805000Y80720000D01*
X2805000Y82460000D01*
X4115000Y82460000D01*
X4115000Y80720000D01*
G36*
X8175000Y80720000D02*
G01*
X6865000Y80720000D01*
X6865000Y82460000D01*
X8175000Y82460000D01*
X8175000Y80720000D01*
G37*
X8175000Y80720000D02*
X6865000Y80720000D01*
X6865000Y82460000D01*
X8175000Y82460000D01*
X8175000Y80720000D01*
G36*
X6145000Y83540000D02*
G01*
X4835000Y83540000D01*
X4835000Y85280000D01*
X6145000Y85280000D01*
X6145000Y83540000D01*
G37*
X6145000Y83540000D02*
X4835000Y83540000D01*
X4835000Y85280000D01*
X6145000Y85280000D01*
X6145000Y83540000D01*
G36*
X6145000Y80720000D02*
G01*
X4835000Y80720000D01*
X4835000Y82460000D01*
X6145000Y82460000D01*
X6145000Y80720000D01*
G37*
X6145000Y80720000D02*
X4835000Y80720000D01*
X4835000Y82460000D01*
X6145000Y82460000D01*
X6145000Y80720000D01*
G36*
X24198878Y17425000D02*
G01*
X24500000Y17425000D01*
X24500000Y16673140D01*
X24198878Y16673140D01*
X24198878Y17425000D01*
G37*
X24198878Y17425000D02*
X24500000Y17425000D01*
X24500000Y16673140D01*
X24198878Y16673140D01*
X24198878Y17425000D01*
G36*
X24849764Y17425000D02*
G01*
X25150000Y17425000D01*
X25150000Y16672920D01*
X24849764Y16672920D01*
X24849764Y17425000D01*
G37*
X24849764Y17425000D02*
X25150000Y17425000D01*
X25150000Y16672920D01*
X24849764Y16672920D01*
X24849764Y17425000D01*
G36*
X25501185Y17425000D02*
G01*
X25800000Y17425000D01*
X25800000Y16671860D01*
X25501185Y16671860D01*
X25501185Y17425000D01*
G37*
X25501185Y17425000D02*
X25800000Y17425000D01*
X25800000Y16671860D01*
X25501185Y16671860D01*
X25501185Y17425000D01*
G36*
X25501483Y19325000D02*
G01*
X25800000Y19325000D01*
X25800000Y18576706D01*
X25501483Y18576706D01*
X25501483Y19325000D01*
G37*
X25501483Y19325000D02*
X25800000Y19325000D01*
X25800000Y18576706D01*
X25501483Y18576706D01*
X25501483Y19325000D01*
G36*
X24849854Y19325000D02*
G01*
X25150000Y19325000D01*
X25150000Y18575561D01*
X24849854Y18575561D01*
X24849854Y19325000D01*
G37*
X24849854Y19325000D02*
X25150000Y19325000D01*
X25150000Y18575561D01*
X24849854Y18575561D01*
X24849854Y19325000D01*
G36*
X24197179Y19325000D02*
G01*
X24500000Y19325000D01*
X24500000Y18577027D01*
X24197179Y18577027D01*
X24197179Y19325000D01*
G37*
X24197179Y19325000D02*
X24500000Y19325000D01*
X24500000Y18577027D01*
X24197179Y18577027D01*
X24197179Y19325000D01*
D11*
X23900000Y3750000D03*
X23900000Y8250000D03*
X16100000Y3750000D03*
X16100000Y8250000D03*
D12*
X146500000Y2750000D03*
X146500000Y17250000D03*
X141500000Y17250000D03*
X141500000Y2750000D03*
X133500000Y2750000D03*
X133500000Y17250000D03*
X128500000Y17250000D03*
X128500000Y2750000D03*
X120500000Y2750000D03*
X120500000Y17250000D03*
X115500000Y17250000D03*
X115500000Y2750000D03*
X104500000Y2750000D03*
X104500000Y17250000D03*
X99500000Y17250000D03*
X99500000Y2750000D03*
X91500000Y2750000D03*
X91500000Y17250000D03*
X86500000Y17250000D03*
X86500000Y2750000D03*
D13*
X29339600Y20034800D03*
X30660400Y20034800D03*
X30000000Y21965200D03*
X36339600Y20034800D03*
X37660400Y20034800D03*
X37000000Y21965200D03*
X43339600Y20034800D03*
X44660400Y20034800D03*
X44000000Y21965200D03*
X50339600Y20034800D03*
X51660400Y20034800D03*
X51000000Y21965200D03*
X57339600Y20034800D03*
X58660400Y20034800D03*
X58000000Y21965200D03*
X64339600Y20034800D03*
X65660400Y20034800D03*
X65000000Y21965200D03*
X71339600Y20034800D03*
X72660400Y20034800D03*
X72000000Y21965200D03*
X78339600Y20034800D03*
X79660400Y20034800D03*
X79000000Y21965200D03*
X89660400Y29965200D03*
X88339600Y29965200D03*
X89000000Y28034800D03*
X99660400Y29965200D03*
X98339600Y29965200D03*
X99000000Y28034800D03*
X109660400Y29965200D03*
X108339600Y29965200D03*
X109000000Y28034800D03*
X119660400Y29965200D03*
X118339600Y29965200D03*
X119000000Y28034800D03*
X129660400Y29965200D03*
X128339600Y29965200D03*
X129000000Y28034800D03*
X139660400Y29965200D03*
X138339600Y29965200D03*
X139000000Y28034800D03*
X149660400Y29965200D03*
X148339600Y29965200D03*
X149000000Y28034800D03*
X159660400Y29965200D03*
X158339600Y29965200D03*
X159000000Y28034800D03*
G36*
G01*
X5300000Y44550000D02*
X5300000Y43450000D01*
G75*
G02*
X5050000Y43200000I-250000J0D01*
G01*
X2550000Y43200000D01*
G75*
G02*
X2300000Y43450000I0J250000D01*
G01*
X2300000Y44550000D01*
G75*
G02*
X2550000Y44800000I250000J0D01*
G01*
X5050000Y44800000D01*
G75*
G02*
X5300000Y44550000I0J-250000D01*
G01*
G37*
G36*
G01*
X9700000Y44550000D02*
X9700000Y43450000D01*
G75*
G02*
X9450000Y43200000I-250000J0D01*
G01*
X6950000Y43200000D01*
G75*
G02*
X6700000Y43450000I0J250000D01*
G01*
X6700000Y44550000D01*
G75*
G02*
X6950000Y44800000I250000J0D01*
G01*
X9450000Y44800000D01*
G75*
G02*
X9700000Y44550000I0J-250000D01*
G01*
G37*
G36*
G01*
X6950000Y65450000D02*
X6950000Y66550000D01*
G75*
G02*
X7200000Y66800000I250000J0D01*
G01*
X10200000Y66800000D01*
G75*
G02*
X10450000Y66550000I0J-250000D01*
G01*
X10450000Y65450000D01*
G75*
G02*
X10200000Y65200000I-250000J0D01*
G01*
X7200000Y65200000D01*
G75*
G02*
X6950000Y65450000I0J250000D01*
G01*
G37*
G36*
G01*
X1550000Y65450000D02*
X1550000Y66550000D01*
G75*
G02*
X1800000Y66800000I250000J0D01*
G01*
X4800000Y66800000D01*
G75*
G02*
X5050000Y66550000I0J-250000D01*
G01*
X5050000Y65450000D01*
G75*
G02*
X4800000Y65200000I-250000J0D01*
G01*
X1800000Y65200000D01*
G75*
G02*
X1550000Y65450000I0J250000D01*
G01*
G37*
G36*
G01*
X116650000Y77756250D02*
X116650000Y77243750D01*
G75*
G02*
X116431250Y77025000I-218750J0D01*
G01*
X115993750Y77025000D01*
G75*
G02*
X115775000Y77243750I0J218750D01*
G01*
X115775000Y77756250D01*
G75*
G02*
X115993750Y77975000I218750J0D01*
G01*
X116431250Y77975000D01*
G75*
G02*
X116650000Y77756250I0J-218750D01*
G01*
G37*
G36*
G01*
X118225000Y77756250D02*
X118225000Y77243750D01*
G75*
G02*
X118006250Y77025000I-218750J0D01*
G01*
X117568750Y77025000D01*
G75*
G02*
X117350000Y77243750I0J218750D01*
G01*
X117350000Y77756250D01*
G75*
G02*
X117568750Y77975000I218750J0D01*
G01*
X118006250Y77975000D01*
G75*
G02*
X118225000Y77756250I0J-218750D01*
G01*
G37*
G36*
G01*
X119900000Y76756250D02*
X119900000Y76243750D01*
G75*
G02*
X119681250Y76025000I-218750J0D01*
G01*
X119243750Y76025000D01*
G75*
G02*
X119025000Y76243750I0J218750D01*
G01*
X119025000Y76756250D01*
G75*
G02*
X119243750Y76975000I218750J0D01*
G01*
X119681250Y76975000D01*
G75*
G02*
X119900000Y76756250I0J-218750D01*
G01*
G37*
G36*
G01*
X121475000Y76756250D02*
X121475000Y76243750D01*
G75*
G02*
X121256250Y76025000I-218750J0D01*
G01*
X120818750Y76025000D01*
G75*
G02*
X120600000Y76243750I0J218750D01*
G01*
X120600000Y76756250D01*
G75*
G02*
X120818750Y76975000I218750J0D01*
G01*
X121256250Y76975000D01*
G75*
G02*
X121475000Y76756250I0J-218750D01*
G01*
G37*
G36*
G01*
X116650000Y71756250D02*
X116650000Y71243750D01*
G75*
G02*
X116431250Y71025000I-218750J0D01*
G01*
X115993750Y71025000D01*
G75*
G02*
X115775000Y71243750I0J218750D01*
G01*
X115775000Y71756250D01*
G75*
G02*
X115993750Y71975000I218750J0D01*
G01*
X116431250Y71975000D01*
G75*
G02*
X116650000Y71756250I0J-218750D01*
G01*
G37*
G36*
G01*
X118225000Y71756250D02*
X118225000Y71243750D01*
G75*
G02*
X118006250Y71025000I-218750J0D01*
G01*
X117568750Y71025000D01*
G75*
G02*
X117350000Y71243750I0J218750D01*
G01*
X117350000Y71756250D01*
G75*
G02*
X117568750Y71975000I218750J0D01*
G01*
X118006250Y71975000D01*
G75*
G02*
X118225000Y71756250I0J-218750D01*
G01*
G37*
G36*
G01*
X119900000Y72756250D02*
X119900000Y72243750D01*
G75*
G02*
X119681250Y72025000I-218750J0D01*
G01*
X119243750Y72025000D01*
G75*
G02*
X119025000Y72243750I0J218750D01*
G01*
X119025000Y72756250D01*
G75*
G02*
X119243750Y72975000I218750J0D01*
G01*
X119681250Y72975000D01*
G75*
G02*
X119900000Y72756250I0J-218750D01*
G01*
G37*
G36*
G01*
X121475000Y72756250D02*
X121475000Y72243750D01*
G75*
G02*
X121256250Y72025000I-218750J0D01*
G01*
X120818750Y72025000D01*
G75*
G02*
X120600000Y72243750I0J218750D01*
G01*
X120600000Y72756250D01*
G75*
G02*
X120818750Y72975000I218750J0D01*
G01*
X121256250Y72975000D01*
G75*
G02*
X121475000Y72756250I0J-218750D01*
G01*
G37*
G36*
G01*
X116650000Y73756250D02*
X116650000Y73243750D01*
G75*
G02*
X116431250Y73025000I-218750J0D01*
G01*
X115993750Y73025000D01*
G75*
G02*
X115775000Y73243750I0J218750D01*
G01*
X115775000Y73756250D01*
G75*
G02*
X115993750Y73975000I218750J0D01*
G01*
X116431250Y73975000D01*
G75*
G02*
X116650000Y73756250I0J-218750D01*
G01*
G37*
G36*
G01*
X118225000Y73756250D02*
X118225000Y73243750D01*
G75*
G02*
X118006250Y73025000I-218750J0D01*
G01*
X117568750Y73025000D01*
G75*
G02*
X117350000Y73243750I0J218750D01*
G01*
X117350000Y73756250D01*
G75*
G02*
X117568750Y73975000I218750J0D01*
G01*
X118006250Y73975000D01*
G75*
G02*
X118225000Y73756250I0J-218750D01*
G01*
G37*
G36*
G01*
X119900000Y74756250D02*
X119900000Y74243750D01*
G75*
G02*
X119681250Y74025000I-218750J0D01*
G01*
X119243750Y74025000D01*
G75*
G02*
X119025000Y74243750I0J218750D01*
G01*
X119025000Y74756250D01*
G75*
G02*
X119243750Y74975000I218750J0D01*
G01*
X119681250Y74975000D01*
G75*
G02*
X119900000Y74756250I0J-218750D01*
G01*
G37*
G36*
G01*
X121475000Y74756250D02*
X121475000Y74243750D01*
G75*
G02*
X121256250Y74025000I-218750J0D01*
G01*
X120818750Y74025000D01*
G75*
G02*
X120600000Y74243750I0J218750D01*
G01*
X120600000Y74756250D01*
G75*
G02*
X120818750Y74975000I218750J0D01*
G01*
X121256250Y74975000D01*
G75*
G02*
X121475000Y74756250I0J-218750D01*
G01*
G37*
G36*
G01*
X116650000Y75756250D02*
X116650000Y75243750D01*
G75*
G02*
X116431250Y75025000I-218750J0D01*
G01*
X115993750Y75025000D01*
G75*
G02*
X115775000Y75243750I0J218750D01*
G01*
X115775000Y75756250D01*
G75*
G02*
X115993750Y75975000I218750J0D01*
G01*
X116431250Y75975000D01*
G75*
G02*
X116650000Y75756250I0J-218750D01*
G01*
G37*
G36*
G01*
X118225000Y75756250D02*
X118225000Y75243750D01*
G75*
G02*
X118006250Y75025000I-218750J0D01*
G01*
X117568750Y75025000D01*
G75*
G02*
X117350000Y75243750I0J218750D01*
G01*
X117350000Y75756250D01*
G75*
G02*
X117568750Y75975000I218750J0D01*
G01*
X118006250Y75975000D01*
G75*
G02*
X118225000Y75756250I0J-218750D01*
G01*
G37*
G36*
G01*
X156350000Y74243750D02*
X156350000Y74756250D01*
G75*
G02*
X156568750Y74975000I218750J0D01*
G01*
X157006250Y74975000D01*
G75*
G02*
X157225000Y74756250I0J-218750D01*
G01*
X157225000Y74243750D01*
G75*
G02*
X157006250Y74025000I-218750J0D01*
G01*
X156568750Y74025000D01*
G75*
G02*
X156350000Y74243750I0J218750D01*
G01*
G37*
G36*
G01*
X154775000Y74243750D02*
X154775000Y74756250D01*
G75*
G02*
X154993750Y74975000I218750J0D01*
G01*
X155431250Y74975000D01*
G75*
G02*
X155650000Y74756250I0J-218750D01*
G01*
X155650000Y74243750D01*
G75*
G02*
X155431250Y74025000I-218750J0D01*
G01*
X154993750Y74025000D01*
G75*
G02*
X154775000Y74243750I0J218750D01*
G01*
G37*
G36*
G01*
X153100000Y75243750D02*
X153100000Y75756250D01*
G75*
G02*
X153318750Y75975000I218750J0D01*
G01*
X153756250Y75975000D01*
G75*
G02*
X153975000Y75756250I0J-218750D01*
G01*
X153975000Y75243750D01*
G75*
G02*
X153756250Y75025000I-218750J0D01*
G01*
X153318750Y75025000D01*
G75*
G02*
X153100000Y75243750I0J218750D01*
G01*
G37*
G36*
G01*
X151525000Y75243750D02*
X151525000Y75756250D01*
G75*
G02*
X151743750Y75975000I218750J0D01*
G01*
X152181250Y75975000D01*
G75*
G02*
X152400000Y75756250I0J-218750D01*
G01*
X152400000Y75243750D01*
G75*
G02*
X152181250Y75025000I-218750J0D01*
G01*
X151743750Y75025000D01*
G75*
G02*
X151525000Y75243750I0J218750D01*
G01*
G37*
G36*
G01*
X153100000Y73243750D02*
X153100000Y73756250D01*
G75*
G02*
X153318750Y73975000I218750J0D01*
G01*
X153756250Y73975000D01*
G75*
G02*
X153975000Y73756250I0J-218750D01*
G01*
X153975000Y73243750D01*
G75*
G02*
X153756250Y73025000I-218750J0D01*
G01*
X153318750Y73025000D01*
G75*
G02*
X153100000Y73243750I0J218750D01*
G01*
G37*
G36*
G01*
X151525000Y73243750D02*
X151525000Y73756250D01*
G75*
G02*
X151743750Y73975000I218750J0D01*
G01*
X152181250Y73975000D01*
G75*
G02*
X152400000Y73756250I0J-218750D01*
G01*
X152400000Y73243750D01*
G75*
G02*
X152181250Y73025000I-218750J0D01*
G01*
X151743750Y73025000D01*
G75*
G02*
X151525000Y73243750I0J218750D01*
G01*
G37*
G36*
G01*
X156350000Y72243750D02*
X156350000Y72756250D01*
G75*
G02*
X156568750Y72975000I218750J0D01*
G01*
X157006250Y72975000D01*
G75*
G02*
X157225000Y72756250I0J-218750D01*
G01*
X157225000Y72243750D01*
G75*
G02*
X157006250Y72025000I-218750J0D01*
G01*
X156568750Y72025000D01*
G75*
G02*
X156350000Y72243750I0J218750D01*
G01*
G37*
G36*
G01*
X154775000Y72243750D02*
X154775000Y72756250D01*
G75*
G02*
X154993750Y72975000I218750J0D01*
G01*
X155431250Y72975000D01*
G75*
G02*
X155650000Y72756250I0J-218750D01*
G01*
X155650000Y72243750D01*
G75*
G02*
X155431250Y72025000I-218750J0D01*
G01*
X154993750Y72025000D01*
G75*
G02*
X154775000Y72243750I0J218750D01*
G01*
G37*
G36*
G01*
X153100000Y71243750D02*
X153100000Y71756250D01*
G75*
G02*
X153318750Y71975000I218750J0D01*
G01*
X153756250Y71975000D01*
G75*
G02*
X153975000Y71756250I0J-218750D01*
G01*
X153975000Y71243750D01*
G75*
G02*
X153756250Y71025000I-218750J0D01*
G01*
X153318750Y71025000D01*
G75*
G02*
X153100000Y71243750I0J218750D01*
G01*
G37*
G36*
G01*
X151525000Y71243750D02*
X151525000Y71756250D01*
G75*
G02*
X151743750Y71975000I218750J0D01*
G01*
X152181250Y71975000D01*
G75*
G02*
X152400000Y71756250I0J-218750D01*
G01*
X152400000Y71243750D01*
G75*
G02*
X152181250Y71025000I-218750J0D01*
G01*
X151743750Y71025000D01*
G75*
G02*
X151525000Y71243750I0J218750D01*
G01*
G37*
G36*
G01*
X153100000Y77243750D02*
X153100000Y77756250D01*
G75*
G02*
X153318750Y77975000I218750J0D01*
G01*
X153756250Y77975000D01*
G75*
G02*
X153975000Y77756250I0J-218750D01*
G01*
X153975000Y77243750D01*
G75*
G02*
X153756250Y77025000I-218750J0D01*
G01*
X153318750Y77025000D01*
G75*
G02*
X153100000Y77243750I0J218750D01*
G01*
G37*
G36*
G01*
X151525000Y77243750D02*
X151525000Y77756250D01*
G75*
G02*
X151743750Y77975000I218750J0D01*
G01*
X152181250Y77975000D01*
G75*
G02*
X152400000Y77756250I0J-218750D01*
G01*
X152400000Y77243750D01*
G75*
G02*
X152181250Y77025000I-218750J0D01*
G01*
X151743750Y77025000D01*
G75*
G02*
X151525000Y77243750I0J218750D01*
G01*
G37*
G36*
G01*
X156350000Y76243750D02*
X156350000Y76756250D01*
G75*
G02*
X156568750Y76975000I218750J0D01*
G01*
X157006250Y76975000D01*
G75*
G02*
X157225000Y76756250I0J-218750D01*
G01*
X157225000Y76243750D01*
G75*
G02*
X157006250Y76025000I-218750J0D01*
G01*
X156568750Y76025000D01*
G75*
G02*
X156350000Y76243750I0J218750D01*
G01*
G37*
G36*
G01*
X154775000Y76243750D02*
X154775000Y76756250D01*
G75*
G02*
X154993750Y76975000I218750J0D01*
G01*
X155431250Y76975000D01*
G75*
G02*
X155650000Y76756250I0J-218750D01*
G01*
X155650000Y76243750D01*
G75*
G02*
X155431250Y76025000I-218750J0D01*
G01*
X154993750Y76025000D01*
G75*
G02*
X154775000Y76243750I0J218750D01*
G01*
G37*
G36*
G01*
X13350000Y63743750D02*
X13350000Y64256250D01*
G75*
G02*
X13568750Y64475000I218750J0D01*
G01*
X14006250Y64475000D01*
G75*
G02*
X14225000Y64256250I0J-218750D01*
G01*
X14225000Y63743750D01*
G75*
G02*
X14006250Y63525000I-218750J0D01*
G01*
X13568750Y63525000D01*
G75*
G02*
X13350000Y63743750I0J218750D01*
G01*
G37*
G36*
G01*
X11775000Y63743750D02*
X11775000Y64256250D01*
G75*
G02*
X11993750Y64475000I218750J0D01*
G01*
X12431250Y64475000D01*
G75*
G02*
X12650000Y64256250I0J-218750D01*
G01*
X12650000Y63743750D01*
G75*
G02*
X12431250Y63525000I-218750J0D01*
G01*
X11993750Y63525000D01*
G75*
G02*
X11775000Y63743750I0J218750D01*
G01*
G37*
G36*
G01*
X133350000Y29743750D02*
X133350000Y30256250D01*
G75*
G02*
X133568750Y30475000I218750J0D01*
G01*
X134006250Y30475000D01*
G75*
G02*
X134225000Y30256250I0J-218750D01*
G01*
X134225000Y29743750D01*
G75*
G02*
X134006250Y29525000I-218750J0D01*
G01*
X133568750Y29525000D01*
G75*
G02*
X133350000Y29743750I0J218750D01*
G01*
G37*
G36*
G01*
X131775000Y29743750D02*
X131775000Y30256250D01*
G75*
G02*
X131993750Y30475000I218750J0D01*
G01*
X132431250Y30475000D01*
G75*
G02*
X132650000Y30256250I0J-218750D01*
G01*
X132650000Y29743750D01*
G75*
G02*
X132431250Y29525000I-218750J0D01*
G01*
X131993750Y29525000D01*
G75*
G02*
X131775000Y29743750I0J218750D01*
G01*
G37*
G36*
G01*
X132650000Y28256250D02*
X132650000Y27743750D01*
G75*
G02*
X132431250Y27525000I-218750J0D01*
G01*
X131993750Y27525000D01*
G75*
G02*
X131775000Y27743750I0J218750D01*
G01*
X131775000Y28256250D01*
G75*
G02*
X131993750Y28475000I218750J0D01*
G01*
X132431250Y28475000D01*
G75*
G02*
X132650000Y28256250I0J-218750D01*
G01*
G37*
G36*
G01*
X134225000Y28256250D02*
X134225000Y27743750D01*
G75*
G02*
X134006250Y27525000I-218750J0D01*
G01*
X133568750Y27525000D01*
G75*
G02*
X133350000Y27743750I0J218750D01*
G01*
X133350000Y28256250D01*
G75*
G02*
X133568750Y28475000I218750J0D01*
G01*
X134006250Y28475000D01*
G75*
G02*
X134225000Y28256250I0J-218750D01*
G01*
G37*
G36*
G01*
X132650000Y32256250D02*
X132650000Y31743750D01*
G75*
G02*
X132431250Y31525000I-218750J0D01*
G01*
X131993750Y31525000D01*
G75*
G02*
X131775000Y31743750I0J218750D01*
G01*
X131775000Y32256250D01*
G75*
G02*
X131993750Y32475000I218750J0D01*
G01*
X132431250Y32475000D01*
G75*
G02*
X132650000Y32256250I0J-218750D01*
G01*
G37*
G36*
G01*
X134225000Y32256250D02*
X134225000Y31743750D01*
G75*
G02*
X134006250Y31525000I-218750J0D01*
G01*
X133568750Y31525000D01*
G75*
G02*
X133350000Y31743750I0J218750D01*
G01*
X133350000Y32256250D01*
G75*
G02*
X133568750Y32475000I218750J0D01*
G01*
X134006250Y32475000D01*
G75*
G02*
X134225000Y32256250I0J-218750D01*
G01*
G37*
G36*
G01*
X51350000Y23743750D02*
X51350000Y24256250D01*
G75*
G02*
X51568750Y24475000I218750J0D01*
G01*
X52006250Y24475000D01*
G75*
G02*
X52225000Y24256250I0J-218750D01*
G01*
X52225000Y23743750D01*
G75*
G02*
X52006250Y23525000I-218750J0D01*
G01*
X51568750Y23525000D01*
G75*
G02*
X51350000Y23743750I0J218750D01*
G01*
G37*
G36*
G01*
X49775000Y23743750D02*
X49775000Y24256250D01*
G75*
G02*
X49993750Y24475000I218750J0D01*
G01*
X50431250Y24475000D01*
G75*
G02*
X50650000Y24256250I0J-218750D01*
G01*
X50650000Y23743750D01*
G75*
G02*
X50431250Y23525000I-218750J0D01*
G01*
X49993750Y23525000D01*
G75*
G02*
X49775000Y23743750I0J218750D01*
G01*
G37*
G36*
G01*
X51350000Y26743750D02*
X51350000Y27256250D01*
G75*
G02*
X51568750Y27475000I218750J0D01*
G01*
X52006250Y27475000D01*
G75*
G02*
X52225000Y27256250I0J-218750D01*
G01*
X52225000Y26743750D01*
G75*
G02*
X52006250Y26525000I-218750J0D01*
G01*
X51568750Y26525000D01*
G75*
G02*
X51350000Y26743750I0J218750D01*
G01*
G37*
G36*
G01*
X49775000Y26743750D02*
X49775000Y27256250D01*
G75*
G02*
X49993750Y27475000I218750J0D01*
G01*
X50431250Y27475000D01*
G75*
G02*
X50650000Y27256250I0J-218750D01*
G01*
X50650000Y26743750D01*
G75*
G02*
X50431250Y26525000I-218750J0D01*
G01*
X49993750Y26525000D01*
G75*
G02*
X49775000Y26743750I0J218750D01*
G01*
G37*
G36*
G01*
X51350000Y29743750D02*
X51350000Y30256250D01*
G75*
G02*
X51568750Y30475000I218750J0D01*
G01*
X52006250Y30475000D01*
G75*
G02*
X52225000Y30256250I0J-218750D01*
G01*
X52225000Y29743750D01*
G75*
G02*
X52006250Y29525000I-218750J0D01*
G01*
X51568750Y29525000D01*
G75*
G02*
X51350000Y29743750I0J218750D01*
G01*
G37*
G36*
G01*
X49775000Y29743750D02*
X49775000Y30256250D01*
G75*
G02*
X49993750Y30475000I218750J0D01*
G01*
X50431250Y30475000D01*
G75*
G02*
X50650000Y30256250I0J-218750D01*
G01*
X50650000Y29743750D01*
G75*
G02*
X50431250Y29525000I-218750J0D01*
G01*
X49993750Y29525000D01*
G75*
G02*
X49775000Y29743750I0J218750D01*
G01*
G37*
G36*
G01*
X50650000Y33256250D02*
X50650000Y32743750D01*
G75*
G02*
X50431250Y32525000I-218750J0D01*
G01*
X49993750Y32525000D01*
G75*
G02*
X49775000Y32743750I0J218750D01*
G01*
X49775000Y33256250D01*
G75*
G02*
X49993750Y33475000I218750J0D01*
G01*
X50431250Y33475000D01*
G75*
G02*
X50650000Y33256250I0J-218750D01*
G01*
G37*
G36*
G01*
X52225000Y33256250D02*
X52225000Y32743750D01*
G75*
G02*
X52006250Y32525000I-218750J0D01*
G01*
X51568750Y32525000D01*
G75*
G02*
X51350000Y32743750I0J218750D01*
G01*
X51350000Y33256250D01*
G75*
G02*
X51568750Y33475000I218750J0D01*
G01*
X52006250Y33475000D01*
G75*
G02*
X52225000Y33256250I0J-218750D01*
G01*
G37*
D14*
X32540000Y47525000D03*
X32540000Y42475000D03*
X30000000Y47525000D03*
X30000000Y42475000D03*
X27460000Y47525000D03*
X27460000Y42475000D03*
D15*
X93350000Y25000000D03*
X90650000Y25000000D03*
X103350000Y25000000D03*
X100650000Y25000000D03*
X113350000Y25000000D03*
X110650000Y25000000D03*
X123350000Y25000000D03*
X120650000Y25000000D03*
X133350000Y25000000D03*
X130650000Y25000000D03*
X143350000Y25000000D03*
X140650000Y25000000D03*
X153350000Y25000000D03*
X150650000Y25000000D03*
X163350000Y25000000D03*
X160650000Y25000000D03*
G36*
G01*
X30350000Y23743750D02*
X30350000Y24256250D01*
G75*
G02*
X30568750Y24475000I218750J0D01*
G01*
X31006250Y24475000D01*
G75*
G02*
X31225000Y24256250I0J-218750D01*
G01*
X31225000Y23743750D01*
G75*
G02*
X31006250Y23525000I-218750J0D01*
G01*
X30568750Y23525000D01*
G75*
G02*
X30350000Y23743750I0J218750D01*
G01*
G37*
G36*
G01*
X28775000Y23743750D02*
X28775000Y24256250D01*
G75*
G02*
X28993750Y24475000I218750J0D01*
G01*
X29431250Y24475000D01*
G75*
G02*
X29650000Y24256250I0J-218750D01*
G01*
X29650000Y23743750D01*
G75*
G02*
X29431250Y23525000I-218750J0D01*
G01*
X28993750Y23525000D01*
G75*
G02*
X28775000Y23743750I0J218750D01*
G01*
G37*
G36*
G01*
X37350000Y23743750D02*
X37350000Y24256250D01*
G75*
G02*
X37568750Y24475000I218750J0D01*
G01*
X38006250Y24475000D01*
G75*
G02*
X38225000Y24256250I0J-218750D01*
G01*
X38225000Y23743750D01*
G75*
G02*
X38006250Y23525000I-218750J0D01*
G01*
X37568750Y23525000D01*
G75*
G02*
X37350000Y23743750I0J218750D01*
G01*
G37*
G36*
G01*
X35775000Y23743750D02*
X35775000Y24256250D01*
G75*
G02*
X35993750Y24475000I218750J0D01*
G01*
X36431250Y24475000D01*
G75*
G02*
X36650000Y24256250I0J-218750D01*
G01*
X36650000Y23743750D01*
G75*
G02*
X36431250Y23525000I-218750J0D01*
G01*
X35993750Y23525000D01*
G75*
G02*
X35775000Y23743750I0J218750D01*
G01*
G37*
G36*
G01*
X44350000Y23743750D02*
X44350000Y24256250D01*
G75*
G02*
X44568750Y24475000I218750J0D01*
G01*
X45006250Y24475000D01*
G75*
G02*
X45225000Y24256250I0J-218750D01*
G01*
X45225000Y23743750D01*
G75*
G02*
X45006250Y23525000I-218750J0D01*
G01*
X44568750Y23525000D01*
G75*
G02*
X44350000Y23743750I0J218750D01*
G01*
G37*
G36*
G01*
X42775000Y23743750D02*
X42775000Y24256250D01*
G75*
G02*
X42993750Y24475000I218750J0D01*
G01*
X43431250Y24475000D01*
G75*
G02*
X43650000Y24256250I0J-218750D01*
G01*
X43650000Y23743750D01*
G75*
G02*
X43431250Y23525000I-218750J0D01*
G01*
X42993750Y23525000D01*
G75*
G02*
X42775000Y23743750I0J218750D01*
G01*
G37*
G36*
G01*
X58350000Y23743750D02*
X58350000Y24256250D01*
G75*
G02*
X58568750Y24475000I218750J0D01*
G01*
X59006250Y24475000D01*
G75*
G02*
X59225000Y24256250I0J-218750D01*
G01*
X59225000Y23743750D01*
G75*
G02*
X59006250Y23525000I-218750J0D01*
G01*
X58568750Y23525000D01*
G75*
G02*
X58350000Y23743750I0J218750D01*
G01*
G37*
G36*
G01*
X56775000Y23743750D02*
X56775000Y24256250D01*
G75*
G02*
X56993750Y24475000I218750J0D01*
G01*
X57431250Y24475000D01*
G75*
G02*
X57650000Y24256250I0J-218750D01*
G01*
X57650000Y23743750D01*
G75*
G02*
X57431250Y23525000I-218750J0D01*
G01*
X56993750Y23525000D01*
G75*
G02*
X56775000Y23743750I0J218750D01*
G01*
G37*
G36*
G01*
X65350000Y23743750D02*
X65350000Y24256250D01*
G75*
G02*
X65568750Y24475000I218750J0D01*
G01*
X66006250Y24475000D01*
G75*
G02*
X66225000Y24256250I0J-218750D01*
G01*
X66225000Y23743750D01*
G75*
G02*
X66006250Y23525000I-218750J0D01*
G01*
X65568750Y23525000D01*
G75*
G02*
X65350000Y23743750I0J218750D01*
G01*
G37*
G36*
G01*
X63775000Y23743750D02*
X63775000Y24256250D01*
G75*
G02*
X63993750Y24475000I218750J0D01*
G01*
X64431250Y24475000D01*
G75*
G02*
X64650000Y24256250I0J-218750D01*
G01*
X64650000Y23743750D01*
G75*
G02*
X64431250Y23525000I-218750J0D01*
G01*
X63993750Y23525000D01*
G75*
G02*
X63775000Y23743750I0J218750D01*
G01*
G37*
G36*
G01*
X72350000Y23743750D02*
X72350000Y24256250D01*
G75*
G02*
X72568750Y24475000I218750J0D01*
G01*
X73006250Y24475000D01*
G75*
G02*
X73225000Y24256250I0J-218750D01*
G01*
X73225000Y23743750D01*
G75*
G02*
X73006250Y23525000I-218750J0D01*
G01*
X72568750Y23525000D01*
G75*
G02*
X72350000Y23743750I0J218750D01*
G01*
G37*
G36*
G01*
X70775000Y23743750D02*
X70775000Y24256250D01*
G75*
G02*
X70993750Y24475000I218750J0D01*
G01*
X71431250Y24475000D01*
G75*
G02*
X71650000Y24256250I0J-218750D01*
G01*
X71650000Y23743750D01*
G75*
G02*
X71431250Y23525000I-218750J0D01*
G01*
X70993750Y23525000D01*
G75*
G02*
X70775000Y23743750I0J218750D01*
G01*
G37*
G36*
G01*
X79350000Y23743750D02*
X79350000Y24256250D01*
G75*
G02*
X79568750Y24475000I218750J0D01*
G01*
X80006250Y24475000D01*
G75*
G02*
X80225000Y24256250I0J-218750D01*
G01*
X80225000Y23743750D01*
G75*
G02*
X80006250Y23525000I-218750J0D01*
G01*
X79568750Y23525000D01*
G75*
G02*
X79350000Y23743750I0J218750D01*
G01*
G37*
G36*
G01*
X77775000Y23743750D02*
X77775000Y24256250D01*
G75*
G02*
X77993750Y24475000I218750J0D01*
G01*
X78431250Y24475000D01*
G75*
G02*
X78650000Y24256250I0J-218750D01*
G01*
X78650000Y23743750D01*
G75*
G02*
X78431250Y23525000I-218750J0D01*
G01*
X77993750Y23525000D01*
G75*
G02*
X77775000Y23743750I0J218750D01*
G01*
G37*
G36*
G01*
X18650000Y81256250D02*
X18650000Y80743750D01*
G75*
G02*
X18431250Y80525000I-218750J0D01*
G01*
X17993750Y80525000D01*
G75*
G02*
X17775000Y80743750I0J218750D01*
G01*
X17775000Y81256250D01*
G75*
G02*
X17993750Y81475000I218750J0D01*
G01*
X18431250Y81475000D01*
G75*
G02*
X18650000Y81256250I0J-218750D01*
G01*
G37*
G36*
G01*
X20225000Y81256250D02*
X20225000Y80743750D01*
G75*
G02*
X20006250Y80525000I-218750J0D01*
G01*
X19568750Y80525000D01*
G75*
G02*
X19350000Y80743750I0J218750D01*
G01*
X19350000Y81256250D01*
G75*
G02*
X19568750Y81475000I218750J0D01*
G01*
X20006250Y81475000D01*
G75*
G02*
X20225000Y81256250I0J-218750D01*
G01*
G37*
D16*
X12700000Y76285000D03*
X12700000Y71715000D03*
D17*
X12140000Y85290000D03*
X12140000Y80710000D03*
D18*
X69000000Y50800000D03*
X65000000Y50800000D03*
X65000000Y53200000D03*
X69000000Y53200000D03*
G36*
G01*
X152500000Y35340000D02*
X152500000Y35040000D01*
G75*
G02*
X152350000Y34890000I-150000J0D01*
G01*
X150700000Y34890000D01*
G75*
G02*
X150550000Y35040000I0J150000D01*
G01*
X150550000Y35340000D01*
G75*
G02*
X150700000Y35490000I150000J0D01*
G01*
X152350000Y35490000D01*
G75*
G02*
X152500000Y35340000I0J-150000D01*
G01*
G37*
G36*
G01*
X152500000Y36610000D02*
X152500000Y36310000D01*
G75*
G02*
X152350000Y36160000I-150000J0D01*
G01*
X150700000Y36160000D01*
G75*
G02*
X150550000Y36310000I0J150000D01*
G01*
X150550000Y36610000D01*
G75*
G02*
X150700000Y36760000I150000J0D01*
G01*
X152350000Y36760000D01*
G75*
G02*
X152500000Y36610000I0J-150000D01*
G01*
G37*
G36*
G01*
X152500000Y37880000D02*
X152500000Y37580000D01*
G75*
G02*
X152350000Y37430000I-150000J0D01*
G01*
X150700000Y37430000D01*
G75*
G02*
X150550000Y37580000I0J150000D01*
G01*
X150550000Y37880000D01*
G75*
G02*
X150700000Y38030000I150000J0D01*
G01*
X152350000Y38030000D01*
G75*
G02*
X152500000Y37880000I0J-150000D01*
G01*
G37*
G36*
G01*
X152500000Y39150000D02*
X152500000Y38850000D01*
G75*
G02*
X152350000Y38700000I-150000J0D01*
G01*
X150700000Y38700000D01*
G75*
G02*
X150550000Y38850000I0J150000D01*
G01*
X150550000Y39150000D01*
G75*
G02*
X150700000Y39300000I150000J0D01*
G01*
X152350000Y39300000D01*
G75*
G02*
X152500000Y39150000I0J-150000D01*
G01*
G37*
G36*
G01*
X152500000Y40420000D02*
X152500000Y40120000D01*
G75*
G02*
X152350000Y39970000I-150000J0D01*
G01*
X150700000Y39970000D01*
G75*
G02*
X150550000Y40120000I0J150000D01*
G01*
X150550000Y40420000D01*
G75*
G02*
X150700000Y40570000I150000J0D01*
G01*
X152350000Y40570000D01*
G75*
G02*
X152500000Y40420000I0J-150000D01*
G01*
G37*
G36*
G01*
X152500000Y41690000D02*
X152500000Y41390000D01*
G75*
G02*
X152350000Y41240000I-150000J0D01*
G01*
X150700000Y41240000D01*
G75*
G02*
X150550000Y41390000I0J150000D01*
G01*
X150550000Y41690000D01*
G75*
G02*
X150700000Y41840000I150000J0D01*
G01*
X152350000Y41840000D01*
G75*
G02*
X152500000Y41690000I0J-150000D01*
G01*
G37*
G36*
G01*
X152500000Y42960000D02*
X152500000Y42660000D01*
G75*
G02*
X152350000Y42510000I-150000J0D01*
G01*
X150700000Y42510000D01*
G75*
G02*
X150550000Y42660000I0J150000D01*
G01*
X150550000Y42960000D01*
G75*
G02*
X150700000Y43110000I150000J0D01*
G01*
X152350000Y43110000D01*
G75*
G02*
X152500000Y42960000I0J-150000D01*
G01*
G37*
G36*
G01*
X157450000Y42960000D02*
X157450000Y42660000D01*
G75*
G02*
X157300000Y42510000I-150000J0D01*
G01*
X155650000Y42510000D01*
G75*
G02*
X155500000Y42660000I0J150000D01*
G01*
X155500000Y42960000D01*
G75*
G02*
X155650000Y43110000I150000J0D01*
G01*
X157300000Y43110000D01*
G75*
G02*
X157450000Y42960000I0J-150000D01*
G01*
G37*
G36*
G01*
X157450000Y41690000D02*
X157450000Y41390000D01*
G75*
G02*
X157300000Y41240000I-150000J0D01*
G01*
X155650000Y41240000D01*
G75*
G02*
X155500000Y41390000I0J150000D01*
G01*
X155500000Y41690000D01*
G75*
G02*
X155650000Y41840000I150000J0D01*
G01*
X157300000Y41840000D01*
G75*
G02*
X157450000Y41690000I0J-150000D01*
G01*
G37*
G36*
G01*
X157450000Y40420000D02*
X157450000Y40120000D01*
G75*
G02*
X157300000Y39970000I-150000J0D01*
G01*
X155650000Y39970000D01*
G75*
G02*
X155500000Y40120000I0J150000D01*
G01*
X155500000Y40420000D01*
G75*
G02*
X155650000Y40570000I150000J0D01*
G01*
X157300000Y40570000D01*
G75*
G02*
X157450000Y40420000I0J-150000D01*
G01*
G37*
G36*
G01*
X157450000Y39150000D02*
X157450000Y38850000D01*
G75*
G02*
X157300000Y38700000I-150000J0D01*
G01*
X155650000Y38700000D01*
G75*
G02*
X155500000Y38850000I0J150000D01*
G01*
X155500000Y39150000D01*
G75*
G02*
X155650000Y39300000I150000J0D01*
G01*
X157300000Y39300000D01*
G75*
G02*
X157450000Y39150000I0J-150000D01*
G01*
G37*
G36*
G01*
X157450000Y37880000D02*
X157450000Y37580000D01*
G75*
G02*
X157300000Y37430000I-150000J0D01*
G01*
X155650000Y37430000D01*
G75*
G02*
X155500000Y37580000I0J150000D01*
G01*
X155500000Y37880000D01*
G75*
G02*
X155650000Y38030000I150000J0D01*
G01*
X157300000Y38030000D01*
G75*
G02*
X157450000Y37880000I0J-150000D01*
G01*
G37*
G36*
G01*
X157450000Y36610000D02*
X157450000Y36310000D01*
G75*
G02*
X157300000Y36160000I-150000J0D01*
G01*
X155650000Y36160000D01*
G75*
G02*
X155500000Y36310000I0J150000D01*
G01*
X155500000Y36610000D01*
G75*
G02*
X155650000Y36760000I150000J0D01*
G01*
X157300000Y36760000D01*
G75*
G02*
X157450000Y36610000I0J-150000D01*
G01*
G37*
G36*
G01*
X157450000Y35340000D02*
X157450000Y35040000D01*
G75*
G02*
X157300000Y34890000I-150000J0D01*
G01*
X155650000Y34890000D01*
G75*
G02*
X155500000Y35040000I0J150000D01*
G01*
X155500000Y35340000D01*
G75*
G02*
X155650000Y35490000I150000J0D01*
G01*
X157300000Y35490000D01*
G75*
G02*
X157450000Y35340000I0J-150000D01*
G01*
G37*
G36*
G01*
X155500000Y99295000D02*
X155500000Y99595000D01*
G75*
G02*
X155650000Y99745000I150000J0D01*
G01*
X157300000Y99745000D01*
G75*
G02*
X157450000Y99595000I0J-150000D01*
G01*
X157450000Y99295000D01*
G75*
G02*
X157300000Y99145000I-150000J0D01*
G01*
X155650000Y99145000D01*
G75*
G02*
X155500000Y99295000I0J150000D01*
G01*
G37*
G36*
G01*
X155500000Y98025000D02*
X155500000Y98325000D01*
G75*
G02*
X155650000Y98475000I150000J0D01*
G01*
X157300000Y98475000D01*
G75*
G02*
X157450000Y98325000I0J-150000D01*
G01*
X157450000Y98025000D01*
G75*
G02*
X157300000Y97875000I-150000J0D01*
G01*
X155650000Y97875000D01*
G75*
G02*
X155500000Y98025000I0J150000D01*
G01*
G37*
G36*
G01*
X155500000Y96755000D02*
X155500000Y97055000D01*
G75*
G02*
X155650000Y97205000I150000J0D01*
G01*
X157300000Y97205000D01*
G75*
G02*
X157450000Y97055000I0J-150000D01*
G01*
X157450000Y96755000D01*
G75*
G02*
X157300000Y96605000I-150000J0D01*
G01*
X155650000Y96605000D01*
G75*
G02*
X155500000Y96755000I0J150000D01*
G01*
G37*
G36*
G01*
X155500000Y95485000D02*
X155500000Y95785000D01*
G75*
G02*
X155650000Y95935000I150000J0D01*
G01*
X157300000Y95935000D01*
G75*
G02*
X157450000Y95785000I0J-150000D01*
G01*
X157450000Y95485000D01*
G75*
G02*
X157300000Y95335000I-150000J0D01*
G01*
X155650000Y95335000D01*
G75*
G02*
X155500000Y95485000I0J150000D01*
G01*
G37*
G36*
G01*
X155500000Y94215000D02*
X155500000Y94515000D01*
G75*
G02*
X155650000Y94665000I150000J0D01*
G01*
X157300000Y94665000D01*
G75*
G02*
X157450000Y94515000I0J-150000D01*
G01*
X157450000Y94215000D01*
G75*
G02*
X157300000Y94065000I-150000J0D01*
G01*
X155650000Y94065000D01*
G75*
G02*
X155500000Y94215000I0J150000D01*
G01*
G37*
G36*
G01*
X155500000Y92945000D02*
X155500000Y93245000D01*
G75*
G02*
X155650000Y93395000I150000J0D01*
G01*
X157300000Y93395000D01*
G75*
G02*
X157450000Y93245000I0J-150000D01*
G01*
X157450000Y92945000D01*
G75*
G02*
X157300000Y92795000I-150000J0D01*
G01*
X155650000Y92795000D01*
G75*
G02*
X155500000Y92945000I0J150000D01*
G01*
G37*
G36*
G01*
X155500000Y91675000D02*
X155500000Y91975000D01*
G75*
G02*
X155650000Y92125000I150000J0D01*
G01*
X157300000Y92125000D01*
G75*
G02*
X157450000Y91975000I0J-150000D01*
G01*
X157450000Y91675000D01*
G75*
G02*
X157300000Y91525000I-150000J0D01*
G01*
X155650000Y91525000D01*
G75*
G02*
X155500000Y91675000I0J150000D01*
G01*
G37*
G36*
G01*
X155500000Y90405000D02*
X155500000Y90705000D01*
G75*
G02*
X155650000Y90855000I150000J0D01*
G01*
X157300000Y90855000D01*
G75*
G02*
X157450000Y90705000I0J-150000D01*
G01*
X157450000Y90405000D01*
G75*
G02*
X157300000Y90255000I-150000J0D01*
G01*
X155650000Y90255000D01*
G75*
G02*
X155500000Y90405000I0J150000D01*
G01*
G37*
G36*
G01*
X150550000Y90405000D02*
X150550000Y90705000D01*
G75*
G02*
X150700000Y90855000I150000J0D01*
G01*
X152350000Y90855000D01*
G75*
G02*
X152500000Y90705000I0J-150000D01*
G01*
X152500000Y90405000D01*
G75*
G02*
X152350000Y90255000I-150000J0D01*
G01*
X150700000Y90255000D01*
G75*
G02*
X150550000Y90405000I0J150000D01*
G01*
G37*
G36*
G01*
X150550000Y91675000D02*
X150550000Y91975000D01*
G75*
G02*
X150700000Y92125000I150000J0D01*
G01*
X152350000Y92125000D01*
G75*
G02*
X152500000Y91975000I0J-150000D01*
G01*
X152500000Y91675000D01*
G75*
G02*
X152350000Y91525000I-150000J0D01*
G01*
X150700000Y91525000D01*
G75*
G02*
X150550000Y91675000I0J150000D01*
G01*
G37*
G36*
G01*
X150550000Y92945000D02*
X150550000Y93245000D01*
G75*
G02*
X150700000Y93395000I150000J0D01*
G01*
X152350000Y93395000D01*
G75*
G02*
X152500000Y93245000I0J-150000D01*
G01*
X152500000Y92945000D01*
G75*
G02*
X152350000Y92795000I-150000J0D01*
G01*
X150700000Y92795000D01*
G75*
G02*
X150550000Y92945000I0J150000D01*
G01*
G37*
G36*
G01*
X150550000Y94215000D02*
X150550000Y94515000D01*
G75*
G02*
X150700000Y94665000I150000J0D01*
G01*
X152350000Y94665000D01*
G75*
G02*
X152500000Y94515000I0J-150000D01*
G01*
X152500000Y94215000D01*
G75*
G02*
X152350000Y94065000I-150000J0D01*
G01*
X150700000Y94065000D01*
G75*
G02*
X150550000Y94215000I0J150000D01*
G01*
G37*
G36*
G01*
X150550000Y95485000D02*
X150550000Y95785000D01*
G75*
G02*
X150700000Y95935000I150000J0D01*
G01*
X152350000Y95935000D01*
G75*
G02*
X152500000Y95785000I0J-150000D01*
G01*
X152500000Y95485000D01*
G75*
G02*
X152350000Y95335000I-150000J0D01*
G01*
X150700000Y95335000D01*
G75*
G02*
X150550000Y95485000I0J150000D01*
G01*
G37*
G36*
G01*
X150550000Y96755000D02*
X150550000Y97055000D01*
G75*
G02*
X150700000Y97205000I150000J0D01*
G01*
X152350000Y97205000D01*
G75*
G02*
X152500000Y97055000I0J-150000D01*
G01*
X152500000Y96755000D01*
G75*
G02*
X152350000Y96605000I-150000J0D01*
G01*
X150700000Y96605000D01*
G75*
G02*
X150550000Y96755000I0J150000D01*
G01*
G37*
G36*
G01*
X150550000Y98025000D02*
X150550000Y98325000D01*
G75*
G02*
X150700000Y98475000I150000J0D01*
G01*
X152350000Y98475000D01*
G75*
G02*
X152500000Y98325000I0J-150000D01*
G01*
X152500000Y98025000D01*
G75*
G02*
X152350000Y97875000I-150000J0D01*
G01*
X150700000Y97875000D01*
G75*
G02*
X150550000Y98025000I0J150000D01*
G01*
G37*
G36*
G01*
X150550000Y99295000D02*
X150550000Y99595000D01*
G75*
G02*
X150700000Y99745000I150000J0D01*
G01*
X152350000Y99745000D01*
G75*
G02*
X152500000Y99595000I0J-150000D01*
G01*
X152500000Y99295000D01*
G75*
G02*
X152350000Y99145000I-150000J0D01*
G01*
X150700000Y99145000D01*
G75*
G02*
X150550000Y99295000I0J150000D01*
G01*
G37*
G36*
G01*
X117500000Y35340000D02*
X117500000Y35040000D01*
G75*
G02*
X117350000Y34890000I-150000J0D01*
G01*
X115700000Y34890000D01*
G75*
G02*
X115550000Y35040000I0J150000D01*
G01*
X115550000Y35340000D01*
G75*
G02*
X115700000Y35490000I150000J0D01*
G01*
X117350000Y35490000D01*
G75*
G02*
X117500000Y35340000I0J-150000D01*
G01*
G37*
G36*
G01*
X117500000Y36610000D02*
X117500000Y36310000D01*
G75*
G02*
X117350000Y36160000I-150000J0D01*
G01*
X115700000Y36160000D01*
G75*
G02*
X115550000Y36310000I0J150000D01*
G01*
X115550000Y36610000D01*
G75*
G02*
X115700000Y36760000I150000J0D01*
G01*
X117350000Y36760000D01*
G75*
G02*
X117500000Y36610000I0J-150000D01*
G01*
G37*
G36*
G01*
X117500000Y37880000D02*
X117500000Y37580000D01*
G75*
G02*
X117350000Y37430000I-150000J0D01*
G01*
X115700000Y37430000D01*
G75*
G02*
X115550000Y37580000I0J150000D01*
G01*
X115550000Y37880000D01*
G75*
G02*
X115700000Y38030000I150000J0D01*
G01*
X117350000Y38030000D01*
G75*
G02*
X117500000Y37880000I0J-150000D01*
G01*
G37*
G36*
G01*
X117500000Y39150000D02*
X117500000Y38850000D01*
G75*
G02*
X117350000Y38700000I-150000J0D01*
G01*
X115700000Y38700000D01*
G75*
G02*
X115550000Y38850000I0J150000D01*
G01*
X115550000Y39150000D01*
G75*
G02*
X115700000Y39300000I150000J0D01*
G01*
X117350000Y39300000D01*
G75*
G02*
X117500000Y39150000I0J-150000D01*
G01*
G37*
G36*
G01*
X117500000Y40420000D02*
X117500000Y40120000D01*
G75*
G02*
X117350000Y39970000I-150000J0D01*
G01*
X115700000Y39970000D01*
G75*
G02*
X115550000Y40120000I0J150000D01*
G01*
X115550000Y40420000D01*
G75*
G02*
X115700000Y40570000I150000J0D01*
G01*
X117350000Y40570000D01*
G75*
G02*
X117500000Y40420000I0J-150000D01*
G01*
G37*
G36*
G01*
X117500000Y41690000D02*
X117500000Y41390000D01*
G75*
G02*
X117350000Y41240000I-150000J0D01*
G01*
X115700000Y41240000D01*
G75*
G02*
X115550000Y41390000I0J150000D01*
G01*
X115550000Y41690000D01*
G75*
G02*
X115700000Y41840000I150000J0D01*
G01*
X117350000Y41840000D01*
G75*
G02*
X117500000Y41690000I0J-150000D01*
G01*
G37*
G36*
G01*
X117500000Y42960000D02*
X117500000Y42660000D01*
G75*
G02*
X117350000Y42510000I-150000J0D01*
G01*
X115700000Y42510000D01*
G75*
G02*
X115550000Y42660000I0J150000D01*
G01*
X115550000Y42960000D01*
G75*
G02*
X115700000Y43110000I150000J0D01*
G01*
X117350000Y43110000D01*
G75*
G02*
X117500000Y42960000I0J-150000D01*
G01*
G37*
G36*
G01*
X122450000Y42960000D02*
X122450000Y42660000D01*
G75*
G02*
X122300000Y42510000I-150000J0D01*
G01*
X120650000Y42510000D01*
G75*
G02*
X120500000Y42660000I0J150000D01*
G01*
X120500000Y42960000D01*
G75*
G02*
X120650000Y43110000I150000J0D01*
G01*
X122300000Y43110000D01*
G75*
G02*
X122450000Y42960000I0J-150000D01*
G01*
G37*
G36*
G01*
X122450000Y41690000D02*
X122450000Y41390000D01*
G75*
G02*
X122300000Y41240000I-150000J0D01*
G01*
X120650000Y41240000D01*
G75*
G02*
X120500000Y41390000I0J150000D01*
G01*
X120500000Y41690000D01*
G75*
G02*
X120650000Y41840000I150000J0D01*
G01*
X122300000Y41840000D01*
G75*
G02*
X122450000Y41690000I0J-150000D01*
G01*
G37*
G36*
G01*
X122450000Y40420000D02*
X122450000Y40120000D01*
G75*
G02*
X122300000Y39970000I-150000J0D01*
G01*
X120650000Y39970000D01*
G75*
G02*
X120500000Y40120000I0J150000D01*
G01*
X120500000Y40420000D01*
G75*
G02*
X120650000Y40570000I150000J0D01*
G01*
X122300000Y40570000D01*
G75*
G02*
X122450000Y40420000I0J-150000D01*
G01*
G37*
G36*
G01*
X122450000Y39150000D02*
X122450000Y38850000D01*
G75*
G02*
X122300000Y38700000I-150000J0D01*
G01*
X120650000Y38700000D01*
G75*
G02*
X120500000Y38850000I0J150000D01*
G01*
X120500000Y39150000D01*
G75*
G02*
X120650000Y39300000I150000J0D01*
G01*
X122300000Y39300000D01*
G75*
G02*
X122450000Y39150000I0J-150000D01*
G01*
G37*
G36*
G01*
X122450000Y37880000D02*
X122450000Y37580000D01*
G75*
G02*
X122300000Y37430000I-150000J0D01*
G01*
X120650000Y37430000D01*
G75*
G02*
X120500000Y37580000I0J150000D01*
G01*
X120500000Y37880000D01*
G75*
G02*
X120650000Y38030000I150000J0D01*
G01*
X122300000Y38030000D01*
G75*
G02*
X122450000Y37880000I0J-150000D01*
G01*
G37*
G36*
G01*
X122450000Y36610000D02*
X122450000Y36310000D01*
G75*
G02*
X122300000Y36160000I-150000J0D01*
G01*
X120650000Y36160000D01*
G75*
G02*
X120500000Y36310000I0J150000D01*
G01*
X120500000Y36610000D01*
G75*
G02*
X120650000Y36760000I150000J0D01*
G01*
X122300000Y36760000D01*
G75*
G02*
X122450000Y36610000I0J-150000D01*
G01*
G37*
G36*
G01*
X122450000Y35340000D02*
X122450000Y35040000D01*
G75*
G02*
X122300000Y34890000I-150000J0D01*
G01*
X120650000Y34890000D01*
G75*
G02*
X120500000Y35040000I0J150000D01*
G01*
X120500000Y35340000D01*
G75*
G02*
X120650000Y35490000I150000J0D01*
G01*
X122300000Y35490000D01*
G75*
G02*
X122450000Y35340000I0J-150000D01*
G01*
G37*
G36*
G01*
X120500000Y99295000D02*
X120500000Y99595000D01*
G75*
G02*
X120650000Y99745000I150000J0D01*
G01*
X122300000Y99745000D01*
G75*
G02*
X122450000Y99595000I0J-150000D01*
G01*
X122450000Y99295000D01*
G75*
G02*
X122300000Y99145000I-150000J0D01*
G01*
X120650000Y99145000D01*
G75*
G02*
X120500000Y99295000I0J150000D01*
G01*
G37*
G36*
G01*
X120500000Y98025000D02*
X120500000Y98325000D01*
G75*
G02*
X120650000Y98475000I150000J0D01*
G01*
X122300000Y98475000D01*
G75*
G02*
X122450000Y98325000I0J-150000D01*
G01*
X122450000Y98025000D01*
G75*
G02*
X122300000Y97875000I-150000J0D01*
G01*
X120650000Y97875000D01*
G75*
G02*
X120500000Y98025000I0J150000D01*
G01*
G37*
G36*
G01*
X120500000Y96755000D02*
X120500000Y97055000D01*
G75*
G02*
X120650000Y97205000I150000J0D01*
G01*
X122300000Y97205000D01*
G75*
G02*
X122450000Y97055000I0J-150000D01*
G01*
X122450000Y96755000D01*
G75*
G02*
X122300000Y96605000I-150000J0D01*
G01*
X120650000Y96605000D01*
G75*
G02*
X120500000Y96755000I0J150000D01*
G01*
G37*
G36*
G01*
X120500000Y95485000D02*
X120500000Y95785000D01*
G75*
G02*
X120650000Y95935000I150000J0D01*
G01*
X122300000Y95935000D01*
G75*
G02*
X122450000Y95785000I0J-150000D01*
G01*
X122450000Y95485000D01*
G75*
G02*
X122300000Y95335000I-150000J0D01*
G01*
X120650000Y95335000D01*
G75*
G02*
X120500000Y95485000I0J150000D01*
G01*
G37*
G36*
G01*
X120500000Y94215000D02*
X120500000Y94515000D01*
G75*
G02*
X120650000Y94665000I150000J0D01*
G01*
X122300000Y94665000D01*
G75*
G02*
X122450000Y94515000I0J-150000D01*
G01*
X122450000Y94215000D01*
G75*
G02*
X122300000Y94065000I-150000J0D01*
G01*
X120650000Y94065000D01*
G75*
G02*
X120500000Y94215000I0J150000D01*
G01*
G37*
G36*
G01*
X120500000Y92945000D02*
X120500000Y93245000D01*
G75*
G02*
X120650000Y93395000I150000J0D01*
G01*
X122300000Y93395000D01*
G75*
G02*
X122450000Y93245000I0J-150000D01*
G01*
X122450000Y92945000D01*
G75*
G02*
X122300000Y92795000I-150000J0D01*
G01*
X120650000Y92795000D01*
G75*
G02*
X120500000Y92945000I0J150000D01*
G01*
G37*
G36*
G01*
X120500000Y91675000D02*
X120500000Y91975000D01*
G75*
G02*
X120650000Y92125000I150000J0D01*
G01*
X122300000Y92125000D01*
G75*
G02*
X122450000Y91975000I0J-150000D01*
G01*
X122450000Y91675000D01*
G75*
G02*
X122300000Y91525000I-150000J0D01*
G01*
X120650000Y91525000D01*
G75*
G02*
X120500000Y91675000I0J150000D01*
G01*
G37*
G36*
G01*
X120500000Y90405000D02*
X120500000Y90705000D01*
G75*
G02*
X120650000Y90855000I150000J0D01*
G01*
X122300000Y90855000D01*
G75*
G02*
X122450000Y90705000I0J-150000D01*
G01*
X122450000Y90405000D01*
G75*
G02*
X122300000Y90255000I-150000J0D01*
G01*
X120650000Y90255000D01*
G75*
G02*
X120500000Y90405000I0J150000D01*
G01*
G37*
G36*
G01*
X115550000Y90405000D02*
X115550000Y90705000D01*
G75*
G02*
X115700000Y90855000I150000J0D01*
G01*
X117350000Y90855000D01*
G75*
G02*
X117500000Y90705000I0J-150000D01*
G01*
X117500000Y90405000D01*
G75*
G02*
X117350000Y90255000I-150000J0D01*
G01*
X115700000Y90255000D01*
G75*
G02*
X115550000Y90405000I0J150000D01*
G01*
G37*
G36*
G01*
X115550000Y91675000D02*
X115550000Y91975000D01*
G75*
G02*
X115700000Y92125000I150000J0D01*
G01*
X117350000Y92125000D01*
G75*
G02*
X117500000Y91975000I0J-150000D01*
G01*
X117500000Y91675000D01*
G75*
G02*
X117350000Y91525000I-150000J0D01*
G01*
X115700000Y91525000D01*
G75*
G02*
X115550000Y91675000I0J150000D01*
G01*
G37*
G36*
G01*
X115550000Y92945000D02*
X115550000Y93245000D01*
G75*
G02*
X115700000Y93395000I150000J0D01*
G01*
X117350000Y93395000D01*
G75*
G02*
X117500000Y93245000I0J-150000D01*
G01*
X117500000Y92945000D01*
G75*
G02*
X117350000Y92795000I-150000J0D01*
G01*
X115700000Y92795000D01*
G75*
G02*
X115550000Y92945000I0J150000D01*
G01*
G37*
G36*
G01*
X115550000Y94215000D02*
X115550000Y94515000D01*
G75*
G02*
X115700000Y94665000I150000J0D01*
G01*
X117350000Y94665000D01*
G75*
G02*
X117500000Y94515000I0J-150000D01*
G01*
X117500000Y94215000D01*
G75*
G02*
X117350000Y94065000I-150000J0D01*
G01*
X115700000Y94065000D01*
G75*
G02*
X115550000Y94215000I0J150000D01*
G01*
G37*
G36*
G01*
X115550000Y95485000D02*
X115550000Y95785000D01*
G75*
G02*
X115700000Y95935000I150000J0D01*
G01*
X117350000Y95935000D01*
G75*
G02*
X117500000Y95785000I0J-150000D01*
G01*
X117500000Y95485000D01*
G75*
G02*
X117350000Y95335000I-150000J0D01*
G01*
X115700000Y95335000D01*
G75*
G02*
X115550000Y95485000I0J150000D01*
G01*
G37*
G36*
G01*
X115550000Y96755000D02*
X115550000Y97055000D01*
G75*
G02*
X115700000Y97205000I150000J0D01*
G01*
X117350000Y97205000D01*
G75*
G02*
X117500000Y97055000I0J-150000D01*
G01*
X117500000Y96755000D01*
G75*
G02*
X117350000Y96605000I-150000J0D01*
G01*
X115700000Y96605000D01*
G75*
G02*
X115550000Y96755000I0J150000D01*
G01*
G37*
G36*
G01*
X115550000Y98025000D02*
X115550000Y98325000D01*
G75*
G02*
X115700000Y98475000I150000J0D01*
G01*
X117350000Y98475000D01*
G75*
G02*
X117500000Y98325000I0J-150000D01*
G01*
X117500000Y98025000D01*
G75*
G02*
X117350000Y97875000I-150000J0D01*
G01*
X115700000Y97875000D01*
G75*
G02*
X115550000Y98025000I0J150000D01*
G01*
G37*
G36*
G01*
X115550000Y99295000D02*
X115550000Y99595000D01*
G75*
G02*
X115700000Y99745000I150000J0D01*
G01*
X117350000Y99745000D01*
G75*
G02*
X117500000Y99595000I0J-150000D01*
G01*
X117500000Y99295000D01*
G75*
G02*
X117350000Y99145000I-150000J0D01*
G01*
X115700000Y99145000D01*
G75*
G02*
X115550000Y99295000I0J150000D01*
G01*
G37*
D19*
X63000000Y73700000D03*
X63800000Y73700000D03*
X64600000Y73700000D03*
X65400000Y73700000D03*
X66200000Y73700000D03*
X67000000Y73700000D03*
X67800000Y73700000D03*
X68600000Y73700000D03*
X69400000Y73700000D03*
X70200000Y73700000D03*
X71000000Y73700000D03*
D20*
X72700000Y72000000D03*
X72700000Y71200000D03*
X72700000Y70400000D03*
X72700000Y69600000D03*
X72700000Y68800000D03*
X72700000Y68000000D03*
X72700000Y67200000D03*
X72700000Y66400000D03*
X72700000Y65600000D03*
X72700000Y64800000D03*
X72700000Y64000000D03*
D19*
X71000000Y62300000D03*
X70200000Y62300000D03*
X69400000Y62300000D03*
X68600000Y62300000D03*
X67800000Y62300000D03*
X67000000Y62300000D03*
X66200000Y62300000D03*
X65400000Y62300000D03*
X64600000Y62300000D03*
X63800000Y62300000D03*
X63000000Y62300000D03*
D20*
X61300000Y64000000D03*
X61300000Y64800000D03*
X61300000Y65600000D03*
X61300000Y66400000D03*
X61300000Y67200000D03*
X61300000Y68000000D03*
X61300000Y68800000D03*
X61300000Y69600000D03*
X61300000Y70400000D03*
X61300000Y71200000D03*
X61300000Y72000000D03*
G36*
G01*
X93500000Y91340000D02*
X93500000Y91040000D01*
G75*
G02*
X93350000Y90890000I-150000J0D01*
G01*
X91700000Y90890000D01*
G75*
G02*
X91550000Y91040000I0J150000D01*
G01*
X91550000Y91340000D01*
G75*
G02*
X91700000Y91490000I150000J0D01*
G01*
X93350000Y91490000D01*
G75*
G02*
X93500000Y91340000I0J-150000D01*
G01*
G37*
G36*
G01*
X93500000Y92610000D02*
X93500000Y92310000D01*
G75*
G02*
X93350000Y92160000I-150000J0D01*
G01*
X91700000Y92160000D01*
G75*
G02*
X91550000Y92310000I0J150000D01*
G01*
X91550000Y92610000D01*
G75*
G02*
X91700000Y92760000I150000J0D01*
G01*
X93350000Y92760000D01*
G75*
G02*
X93500000Y92610000I0J-150000D01*
G01*
G37*
G36*
G01*
X93500000Y93880000D02*
X93500000Y93580000D01*
G75*
G02*
X93350000Y93430000I-150000J0D01*
G01*
X91700000Y93430000D01*
G75*
G02*
X91550000Y93580000I0J150000D01*
G01*
X91550000Y93880000D01*
G75*
G02*
X91700000Y94030000I150000J0D01*
G01*
X93350000Y94030000D01*
G75*
G02*
X93500000Y93880000I0J-150000D01*
G01*
G37*
G36*
G01*
X93500000Y95150000D02*
X93500000Y94850000D01*
G75*
G02*
X93350000Y94700000I-150000J0D01*
G01*
X91700000Y94700000D01*
G75*
G02*
X91550000Y94850000I0J150000D01*
G01*
X91550000Y95150000D01*
G75*
G02*
X91700000Y95300000I150000J0D01*
G01*
X93350000Y95300000D01*
G75*
G02*
X93500000Y95150000I0J-150000D01*
G01*
G37*
G36*
G01*
X93500000Y96420000D02*
X93500000Y96120000D01*
G75*
G02*
X93350000Y95970000I-150000J0D01*
G01*
X91700000Y95970000D01*
G75*
G02*
X91550000Y96120000I0J150000D01*
G01*
X91550000Y96420000D01*
G75*
G02*
X91700000Y96570000I150000J0D01*
G01*
X93350000Y96570000D01*
G75*
G02*
X93500000Y96420000I0J-150000D01*
G01*
G37*
G36*
G01*
X93500000Y97690000D02*
X93500000Y97390000D01*
G75*
G02*
X93350000Y97240000I-150000J0D01*
G01*
X91700000Y97240000D01*
G75*
G02*
X91550000Y97390000I0J150000D01*
G01*
X91550000Y97690000D01*
G75*
G02*
X91700000Y97840000I150000J0D01*
G01*
X93350000Y97840000D01*
G75*
G02*
X93500000Y97690000I0J-150000D01*
G01*
G37*
G36*
G01*
X93500000Y98960000D02*
X93500000Y98660000D01*
G75*
G02*
X93350000Y98510000I-150000J0D01*
G01*
X91700000Y98510000D01*
G75*
G02*
X91550000Y98660000I0J150000D01*
G01*
X91550000Y98960000D01*
G75*
G02*
X91700000Y99110000I150000J0D01*
G01*
X93350000Y99110000D01*
G75*
G02*
X93500000Y98960000I0J-150000D01*
G01*
G37*
G36*
G01*
X98450000Y98960000D02*
X98450000Y98660000D01*
G75*
G02*
X98300000Y98510000I-150000J0D01*
G01*
X96650000Y98510000D01*
G75*
G02*
X96500000Y98660000I0J150000D01*
G01*
X96500000Y98960000D01*
G75*
G02*
X96650000Y99110000I150000J0D01*
G01*
X98300000Y99110000D01*
G75*
G02*
X98450000Y98960000I0J-150000D01*
G01*
G37*
G36*
G01*
X98450000Y97690000D02*
X98450000Y97390000D01*
G75*
G02*
X98300000Y97240000I-150000J0D01*
G01*
X96650000Y97240000D01*
G75*
G02*
X96500000Y97390000I0J150000D01*
G01*
X96500000Y97690000D01*
G75*
G02*
X96650000Y97840000I150000J0D01*
G01*
X98300000Y97840000D01*
G75*
G02*
X98450000Y97690000I0J-150000D01*
G01*
G37*
G36*
G01*
X98450000Y96420000D02*
X98450000Y96120000D01*
G75*
G02*
X98300000Y95970000I-150000J0D01*
G01*
X96650000Y95970000D01*
G75*
G02*
X96500000Y96120000I0J150000D01*
G01*
X96500000Y96420000D01*
G75*
G02*
X96650000Y96570000I150000J0D01*
G01*
X98300000Y96570000D01*
G75*
G02*
X98450000Y96420000I0J-150000D01*
G01*
G37*
G36*
G01*
X98450000Y95150000D02*
X98450000Y94850000D01*
G75*
G02*
X98300000Y94700000I-150000J0D01*
G01*
X96650000Y94700000D01*
G75*
G02*
X96500000Y94850000I0J150000D01*
G01*
X96500000Y95150000D01*
G75*
G02*
X96650000Y95300000I150000J0D01*
G01*
X98300000Y95300000D01*
G75*
G02*
X98450000Y95150000I0J-150000D01*
G01*
G37*
G36*
G01*
X98450000Y93880000D02*
X98450000Y93580000D01*
G75*
G02*
X98300000Y93430000I-150000J0D01*
G01*
X96650000Y93430000D01*
G75*
G02*
X96500000Y93580000I0J150000D01*
G01*
X96500000Y93880000D01*
G75*
G02*
X96650000Y94030000I150000J0D01*
G01*
X98300000Y94030000D01*
G75*
G02*
X98450000Y93880000I0J-150000D01*
G01*
G37*
G36*
G01*
X98450000Y92610000D02*
X98450000Y92310000D01*
G75*
G02*
X98300000Y92160000I-150000J0D01*
G01*
X96650000Y92160000D01*
G75*
G02*
X96500000Y92310000I0J150000D01*
G01*
X96500000Y92610000D01*
G75*
G02*
X96650000Y92760000I150000J0D01*
G01*
X98300000Y92760000D01*
G75*
G02*
X98450000Y92610000I0J-150000D01*
G01*
G37*
G36*
G01*
X98450000Y91340000D02*
X98450000Y91040000D01*
G75*
G02*
X98300000Y90890000I-150000J0D01*
G01*
X96650000Y90890000D01*
G75*
G02*
X96500000Y91040000I0J150000D01*
G01*
X96500000Y91340000D01*
G75*
G02*
X96650000Y91490000I150000J0D01*
G01*
X98300000Y91490000D01*
G75*
G02*
X98450000Y91340000I0J-150000D01*
G01*
G37*
G36*
G01*
X66650000Y56256250D02*
X66650000Y55743750D01*
G75*
G02*
X66431250Y55525000I-218750J0D01*
G01*
X65993750Y55525000D01*
G75*
G02*
X65775000Y55743750I0J218750D01*
G01*
X65775000Y56256250D01*
G75*
G02*
X65993750Y56475000I218750J0D01*
G01*
X66431250Y56475000D01*
G75*
G02*
X66650000Y56256250I0J-218750D01*
G01*
G37*
G36*
G01*
X68225000Y56256250D02*
X68225000Y55743750D01*
G75*
G02*
X68006250Y55525000I-218750J0D01*
G01*
X67568750Y55525000D01*
G75*
G02*
X67350000Y55743750I0J218750D01*
G01*
X67350000Y56256250D01*
G75*
G02*
X67568750Y56475000I218750J0D01*
G01*
X68006250Y56475000D01*
G75*
G02*
X68225000Y56256250I0J-218750D01*
G01*
G37*
G36*
G01*
X77650000Y73256250D02*
X77650000Y72743750D01*
G75*
G02*
X77431250Y72525000I-218750J0D01*
G01*
X76993750Y72525000D01*
G75*
G02*
X76775000Y72743750I0J218750D01*
G01*
X76775000Y73256250D01*
G75*
G02*
X76993750Y73475000I218750J0D01*
G01*
X77431250Y73475000D01*
G75*
G02*
X77650000Y73256250I0J-218750D01*
G01*
G37*
G36*
G01*
X79225000Y73256250D02*
X79225000Y72743750D01*
G75*
G02*
X79006250Y72525000I-218750J0D01*
G01*
X78568750Y72525000D01*
G75*
G02*
X78350000Y72743750I0J218750D01*
G01*
X78350000Y73256250D01*
G75*
G02*
X78568750Y73475000I218750J0D01*
G01*
X79006250Y73475000D01*
G75*
G02*
X79225000Y73256250I0J-218750D01*
G01*
G37*
G36*
G01*
X25350000Y23743750D02*
X25350000Y24256250D01*
G75*
G02*
X25568750Y24475000I218750J0D01*
G01*
X26006250Y24475000D01*
G75*
G02*
X26225000Y24256250I0J-218750D01*
G01*
X26225000Y23743750D01*
G75*
G02*
X26006250Y23525000I-218750J0D01*
G01*
X25568750Y23525000D01*
G75*
G02*
X25350000Y23743750I0J218750D01*
G01*
G37*
G36*
G01*
X23775000Y23743750D02*
X23775000Y24256250D01*
G75*
G02*
X23993750Y24475000I218750J0D01*
G01*
X24431250Y24475000D01*
G75*
G02*
X24650000Y24256250I0J-218750D01*
G01*
X24650000Y23743750D01*
G75*
G02*
X24431250Y23525000I-218750J0D01*
G01*
X23993750Y23525000D01*
G75*
G02*
X23775000Y23743750I0J218750D01*
G01*
G37*
G36*
G01*
X19650000Y20256250D02*
X19650000Y19743750D01*
G75*
G02*
X19431250Y19525000I-218750J0D01*
G01*
X18993750Y19525000D01*
G75*
G02*
X18775000Y19743750I0J218750D01*
G01*
X18775000Y20256250D01*
G75*
G02*
X18993750Y20475000I218750J0D01*
G01*
X19431250Y20475000D01*
G75*
G02*
X19650000Y20256250I0J-218750D01*
G01*
G37*
G36*
G01*
X21225000Y20256250D02*
X21225000Y19743750D01*
G75*
G02*
X21006250Y19525000I-218750J0D01*
G01*
X20568750Y19525000D01*
G75*
G02*
X20350000Y19743750I0J218750D01*
G01*
X20350000Y20256250D01*
G75*
G02*
X20568750Y20475000I218750J0D01*
G01*
X21006250Y20475000D01*
G75*
G02*
X21225000Y20256250I0J-218750D01*
G01*
G37*
G36*
G01*
X19650000Y24256250D02*
X19650000Y23743750D01*
G75*
G02*
X19431250Y23525000I-218750J0D01*
G01*
X18993750Y23525000D01*
G75*
G02*
X18775000Y23743750I0J218750D01*
G01*
X18775000Y24256250D01*
G75*
G02*
X18993750Y24475000I218750J0D01*
G01*
X19431250Y24475000D01*
G75*
G02*
X19650000Y24256250I0J-218750D01*
G01*
G37*
G36*
G01*
X21225000Y24256250D02*
X21225000Y23743750D01*
G75*
G02*
X21006250Y23525000I-218750J0D01*
G01*
X20568750Y23525000D01*
G75*
G02*
X20350000Y23743750I0J218750D01*
G01*
X20350000Y24256250D01*
G75*
G02*
X20568750Y24475000I218750J0D01*
G01*
X21006250Y24475000D01*
G75*
G02*
X21225000Y24256250I0J-218750D01*
G01*
G37*
G36*
G01*
X19650000Y12256250D02*
X19650000Y11743750D01*
G75*
G02*
X19431250Y11525000I-218750J0D01*
G01*
X18993750Y11525000D01*
G75*
G02*
X18775000Y11743750I0J218750D01*
G01*
X18775000Y12256250D01*
G75*
G02*
X18993750Y12475000I218750J0D01*
G01*
X19431250Y12475000D01*
G75*
G02*
X19650000Y12256250I0J-218750D01*
G01*
G37*
G36*
G01*
X21225000Y12256250D02*
X21225000Y11743750D01*
G75*
G02*
X21006250Y11525000I-218750J0D01*
G01*
X20568750Y11525000D01*
G75*
G02*
X20350000Y11743750I0J218750D01*
G01*
X20350000Y12256250D01*
G75*
G02*
X20568750Y12475000I218750J0D01*
G01*
X21006250Y12475000D01*
G75*
G02*
X21225000Y12256250I0J-218750D01*
G01*
G37*
G36*
G01*
X147350000Y19743750D02*
X147350000Y20256250D01*
G75*
G02*
X147568750Y20475000I218750J0D01*
G01*
X148006250Y20475000D01*
G75*
G02*
X148225000Y20256250I0J-218750D01*
G01*
X148225000Y19743750D01*
G75*
G02*
X148006250Y19525000I-218750J0D01*
G01*
X147568750Y19525000D01*
G75*
G02*
X147350000Y19743750I0J218750D01*
G01*
G37*
G36*
G01*
X145775000Y19743750D02*
X145775000Y20256250D01*
G75*
G02*
X145993750Y20475000I218750J0D01*
G01*
X146431250Y20475000D01*
G75*
G02*
X146650000Y20256250I0J-218750D01*
G01*
X146650000Y19743750D01*
G75*
G02*
X146431250Y19525000I-218750J0D01*
G01*
X145993750Y19525000D01*
G75*
G02*
X145775000Y19743750I0J218750D01*
G01*
G37*
G36*
G01*
X134350000Y19743750D02*
X134350000Y20256250D01*
G75*
G02*
X134568750Y20475000I218750J0D01*
G01*
X135006250Y20475000D01*
G75*
G02*
X135225000Y20256250I0J-218750D01*
G01*
X135225000Y19743750D01*
G75*
G02*
X135006250Y19525000I-218750J0D01*
G01*
X134568750Y19525000D01*
G75*
G02*
X134350000Y19743750I0J218750D01*
G01*
G37*
G36*
G01*
X132775000Y19743750D02*
X132775000Y20256250D01*
G75*
G02*
X132993750Y20475000I218750J0D01*
G01*
X133431250Y20475000D01*
G75*
G02*
X133650000Y20256250I0J-218750D01*
G01*
X133650000Y19743750D01*
G75*
G02*
X133431250Y19525000I-218750J0D01*
G01*
X132993750Y19525000D01*
G75*
G02*
X132775000Y19743750I0J218750D01*
G01*
G37*
G36*
G01*
X121350000Y19743750D02*
X121350000Y20256250D01*
G75*
G02*
X121568750Y20475000I218750J0D01*
G01*
X122006250Y20475000D01*
G75*
G02*
X122225000Y20256250I0J-218750D01*
G01*
X122225000Y19743750D01*
G75*
G02*
X122006250Y19525000I-218750J0D01*
G01*
X121568750Y19525000D01*
G75*
G02*
X121350000Y19743750I0J218750D01*
G01*
G37*
G36*
G01*
X119775000Y19743750D02*
X119775000Y20256250D01*
G75*
G02*
X119993750Y20475000I218750J0D01*
G01*
X120431250Y20475000D01*
G75*
G02*
X120650000Y20256250I0J-218750D01*
G01*
X120650000Y19743750D01*
G75*
G02*
X120431250Y19525000I-218750J0D01*
G01*
X119993750Y19525000D01*
G75*
G02*
X119775000Y19743750I0J218750D01*
G01*
G37*
G36*
G01*
X92350000Y19743750D02*
X92350000Y20256250D01*
G75*
G02*
X92568750Y20475000I218750J0D01*
G01*
X93006250Y20475000D01*
G75*
G02*
X93225000Y20256250I0J-218750D01*
G01*
X93225000Y19743750D01*
G75*
G02*
X93006250Y19525000I-218750J0D01*
G01*
X92568750Y19525000D01*
G75*
G02*
X92350000Y19743750I0J218750D01*
G01*
G37*
G36*
G01*
X90775000Y19743750D02*
X90775000Y20256250D01*
G75*
G02*
X90993750Y20475000I218750J0D01*
G01*
X91431250Y20475000D01*
G75*
G02*
X91650000Y20256250I0J-218750D01*
G01*
X91650000Y19743750D01*
G75*
G02*
X91431250Y19525000I-218750J0D01*
G01*
X90993750Y19525000D01*
G75*
G02*
X90775000Y19743750I0J218750D01*
G01*
G37*
G36*
G01*
X105350000Y19743750D02*
X105350000Y20256250D01*
G75*
G02*
X105568750Y20475000I218750J0D01*
G01*
X106006250Y20475000D01*
G75*
G02*
X106225000Y20256250I0J-218750D01*
G01*
X106225000Y19743750D01*
G75*
G02*
X106006250Y19525000I-218750J0D01*
G01*
X105568750Y19525000D01*
G75*
G02*
X105350000Y19743750I0J218750D01*
G01*
G37*
G36*
G01*
X103775000Y19743750D02*
X103775000Y20256250D01*
G75*
G02*
X103993750Y20475000I218750J0D01*
G01*
X104431250Y20475000D01*
G75*
G02*
X104650000Y20256250I0J-218750D01*
G01*
X104650000Y19743750D01*
G75*
G02*
X104431250Y19525000I-218750J0D01*
G01*
X103993750Y19525000D01*
G75*
G02*
X103775000Y19743750I0J218750D01*
G01*
G37*
G36*
G01*
X30350000Y26743750D02*
X30350000Y27256250D01*
G75*
G02*
X30568750Y27475000I218750J0D01*
G01*
X31006250Y27475000D01*
G75*
G02*
X31225000Y27256250I0J-218750D01*
G01*
X31225000Y26743750D01*
G75*
G02*
X31006250Y26525000I-218750J0D01*
G01*
X30568750Y26525000D01*
G75*
G02*
X30350000Y26743750I0J218750D01*
G01*
G37*
G36*
G01*
X28775000Y26743750D02*
X28775000Y27256250D01*
G75*
G02*
X28993750Y27475000I218750J0D01*
G01*
X29431250Y27475000D01*
G75*
G02*
X29650000Y27256250I0J-218750D01*
G01*
X29650000Y26743750D01*
G75*
G02*
X29431250Y26525000I-218750J0D01*
G01*
X28993750Y26525000D01*
G75*
G02*
X28775000Y26743750I0J218750D01*
G01*
G37*
G36*
G01*
X29650000Y33256250D02*
X29650000Y32743750D01*
G75*
G02*
X29431250Y32525000I-218750J0D01*
G01*
X28993750Y32525000D01*
G75*
G02*
X28775000Y32743750I0J218750D01*
G01*
X28775000Y33256250D01*
G75*
G02*
X28993750Y33475000I218750J0D01*
G01*
X29431250Y33475000D01*
G75*
G02*
X29650000Y33256250I0J-218750D01*
G01*
G37*
G36*
G01*
X31225000Y33256250D02*
X31225000Y32743750D01*
G75*
G02*
X31006250Y32525000I-218750J0D01*
G01*
X30568750Y32525000D01*
G75*
G02*
X30350000Y32743750I0J218750D01*
G01*
X30350000Y33256250D01*
G75*
G02*
X30568750Y33475000I218750J0D01*
G01*
X31006250Y33475000D01*
G75*
G02*
X31225000Y33256250I0J-218750D01*
G01*
G37*
G36*
G01*
X30350000Y29743750D02*
X30350000Y30256250D01*
G75*
G02*
X30568750Y30475000I218750J0D01*
G01*
X31006250Y30475000D01*
G75*
G02*
X31225000Y30256250I0J-218750D01*
G01*
X31225000Y29743750D01*
G75*
G02*
X31006250Y29525000I-218750J0D01*
G01*
X30568750Y29525000D01*
G75*
G02*
X30350000Y29743750I0J218750D01*
G01*
G37*
G36*
G01*
X28775000Y29743750D02*
X28775000Y30256250D01*
G75*
G02*
X28993750Y30475000I218750J0D01*
G01*
X29431250Y30475000D01*
G75*
G02*
X29650000Y30256250I0J-218750D01*
G01*
X29650000Y29743750D01*
G75*
G02*
X29431250Y29525000I-218750J0D01*
G01*
X28993750Y29525000D01*
G75*
G02*
X28775000Y29743750I0J218750D01*
G01*
G37*
G36*
G01*
X37350000Y26743750D02*
X37350000Y27256250D01*
G75*
G02*
X37568750Y27475000I218750J0D01*
G01*
X38006250Y27475000D01*
G75*
G02*
X38225000Y27256250I0J-218750D01*
G01*
X38225000Y26743750D01*
G75*
G02*
X38006250Y26525000I-218750J0D01*
G01*
X37568750Y26525000D01*
G75*
G02*
X37350000Y26743750I0J218750D01*
G01*
G37*
G36*
G01*
X35775000Y26743750D02*
X35775000Y27256250D01*
G75*
G02*
X35993750Y27475000I218750J0D01*
G01*
X36431250Y27475000D01*
G75*
G02*
X36650000Y27256250I0J-218750D01*
G01*
X36650000Y26743750D01*
G75*
G02*
X36431250Y26525000I-218750J0D01*
G01*
X35993750Y26525000D01*
G75*
G02*
X35775000Y26743750I0J218750D01*
G01*
G37*
G36*
G01*
X36650000Y33256250D02*
X36650000Y32743750D01*
G75*
G02*
X36431250Y32525000I-218750J0D01*
G01*
X35993750Y32525000D01*
G75*
G02*
X35775000Y32743750I0J218750D01*
G01*
X35775000Y33256250D01*
G75*
G02*
X35993750Y33475000I218750J0D01*
G01*
X36431250Y33475000D01*
G75*
G02*
X36650000Y33256250I0J-218750D01*
G01*
G37*
G36*
G01*
X38225000Y33256250D02*
X38225000Y32743750D01*
G75*
G02*
X38006250Y32525000I-218750J0D01*
G01*
X37568750Y32525000D01*
G75*
G02*
X37350000Y32743750I0J218750D01*
G01*
X37350000Y33256250D01*
G75*
G02*
X37568750Y33475000I218750J0D01*
G01*
X38006250Y33475000D01*
G75*
G02*
X38225000Y33256250I0J-218750D01*
G01*
G37*
G36*
G01*
X37350000Y29743750D02*
X37350000Y30256250D01*
G75*
G02*
X37568750Y30475000I218750J0D01*
G01*
X38006250Y30475000D01*
G75*
G02*
X38225000Y30256250I0J-218750D01*
G01*
X38225000Y29743750D01*
G75*
G02*
X38006250Y29525000I-218750J0D01*
G01*
X37568750Y29525000D01*
G75*
G02*
X37350000Y29743750I0J218750D01*
G01*
G37*
G36*
G01*
X35775000Y29743750D02*
X35775000Y30256250D01*
G75*
G02*
X35993750Y30475000I218750J0D01*
G01*
X36431250Y30475000D01*
G75*
G02*
X36650000Y30256250I0J-218750D01*
G01*
X36650000Y29743750D01*
G75*
G02*
X36431250Y29525000I-218750J0D01*
G01*
X35993750Y29525000D01*
G75*
G02*
X35775000Y29743750I0J218750D01*
G01*
G37*
G36*
G01*
X44350000Y26743750D02*
X44350000Y27256250D01*
G75*
G02*
X44568750Y27475000I218750J0D01*
G01*
X45006250Y27475000D01*
G75*
G02*
X45225000Y27256250I0J-218750D01*
G01*
X45225000Y26743750D01*
G75*
G02*
X45006250Y26525000I-218750J0D01*
G01*
X44568750Y26525000D01*
G75*
G02*
X44350000Y26743750I0J218750D01*
G01*
G37*
G36*
G01*
X42775000Y26743750D02*
X42775000Y27256250D01*
G75*
G02*
X42993750Y27475000I218750J0D01*
G01*
X43431250Y27475000D01*
G75*
G02*
X43650000Y27256250I0J-218750D01*
G01*
X43650000Y26743750D01*
G75*
G02*
X43431250Y26525000I-218750J0D01*
G01*
X42993750Y26525000D01*
G75*
G02*
X42775000Y26743750I0J218750D01*
G01*
G37*
G36*
G01*
X43650000Y33256250D02*
X43650000Y32743750D01*
G75*
G02*
X43431250Y32525000I-218750J0D01*
G01*
X42993750Y32525000D01*
G75*
G02*
X42775000Y32743750I0J218750D01*
G01*
X42775000Y33256250D01*
G75*
G02*
X42993750Y33475000I218750J0D01*
G01*
X43431250Y33475000D01*
G75*
G02*
X43650000Y33256250I0J-218750D01*
G01*
G37*
G36*
G01*
X45225000Y33256250D02*
X45225000Y32743750D01*
G75*
G02*
X45006250Y32525000I-218750J0D01*
G01*
X44568750Y32525000D01*
G75*
G02*
X44350000Y32743750I0J218750D01*
G01*
X44350000Y33256250D01*
G75*
G02*
X44568750Y33475000I218750J0D01*
G01*
X45006250Y33475000D01*
G75*
G02*
X45225000Y33256250I0J-218750D01*
G01*
G37*
G36*
G01*
X44350000Y29743750D02*
X44350000Y30256250D01*
G75*
G02*
X44568750Y30475000I218750J0D01*
G01*
X45006250Y30475000D01*
G75*
G02*
X45225000Y30256250I0J-218750D01*
G01*
X45225000Y29743750D01*
G75*
G02*
X45006250Y29525000I-218750J0D01*
G01*
X44568750Y29525000D01*
G75*
G02*
X44350000Y29743750I0J218750D01*
G01*
G37*
G36*
G01*
X42775000Y29743750D02*
X42775000Y30256250D01*
G75*
G02*
X42993750Y30475000I218750J0D01*
G01*
X43431250Y30475000D01*
G75*
G02*
X43650000Y30256250I0J-218750D01*
G01*
X43650000Y29743750D01*
G75*
G02*
X43431250Y29525000I-218750J0D01*
G01*
X42993750Y29525000D01*
G75*
G02*
X42775000Y29743750I0J218750D01*
G01*
G37*
G36*
G01*
X58350000Y26743750D02*
X58350000Y27256250D01*
G75*
G02*
X58568750Y27475000I218750J0D01*
G01*
X59006250Y27475000D01*
G75*
G02*
X59225000Y27256250I0J-218750D01*
G01*
X59225000Y26743750D01*
G75*
G02*
X59006250Y26525000I-218750J0D01*
G01*
X58568750Y26525000D01*
G75*
G02*
X58350000Y26743750I0J218750D01*
G01*
G37*
G36*
G01*
X56775000Y26743750D02*
X56775000Y27256250D01*
G75*
G02*
X56993750Y27475000I218750J0D01*
G01*
X57431250Y27475000D01*
G75*
G02*
X57650000Y27256250I0J-218750D01*
G01*
X57650000Y26743750D01*
G75*
G02*
X57431250Y26525000I-218750J0D01*
G01*
X56993750Y26525000D01*
G75*
G02*
X56775000Y26743750I0J218750D01*
G01*
G37*
G36*
G01*
X57650000Y33256250D02*
X57650000Y32743750D01*
G75*
G02*
X57431250Y32525000I-218750J0D01*
G01*
X56993750Y32525000D01*
G75*
G02*
X56775000Y32743750I0J218750D01*
G01*
X56775000Y33256250D01*
G75*
G02*
X56993750Y33475000I218750J0D01*
G01*
X57431250Y33475000D01*
G75*
G02*
X57650000Y33256250I0J-218750D01*
G01*
G37*
G36*
G01*
X59225000Y33256250D02*
X59225000Y32743750D01*
G75*
G02*
X59006250Y32525000I-218750J0D01*
G01*
X58568750Y32525000D01*
G75*
G02*
X58350000Y32743750I0J218750D01*
G01*
X58350000Y33256250D01*
G75*
G02*
X58568750Y33475000I218750J0D01*
G01*
X59006250Y33475000D01*
G75*
G02*
X59225000Y33256250I0J-218750D01*
G01*
G37*
G36*
G01*
X58350000Y29743750D02*
X58350000Y30256250D01*
G75*
G02*
X58568750Y30475000I218750J0D01*
G01*
X59006250Y30475000D01*
G75*
G02*
X59225000Y30256250I0J-218750D01*
G01*
X59225000Y29743750D01*
G75*
G02*
X59006250Y29525000I-218750J0D01*
G01*
X58568750Y29525000D01*
G75*
G02*
X58350000Y29743750I0J218750D01*
G01*
G37*
G36*
G01*
X56775000Y29743750D02*
X56775000Y30256250D01*
G75*
G02*
X56993750Y30475000I218750J0D01*
G01*
X57431250Y30475000D01*
G75*
G02*
X57650000Y30256250I0J-218750D01*
G01*
X57650000Y29743750D01*
G75*
G02*
X57431250Y29525000I-218750J0D01*
G01*
X56993750Y29525000D01*
G75*
G02*
X56775000Y29743750I0J218750D01*
G01*
G37*
G36*
G01*
X65350000Y26743750D02*
X65350000Y27256250D01*
G75*
G02*
X65568750Y27475000I218750J0D01*
G01*
X66006250Y27475000D01*
G75*
G02*
X66225000Y27256250I0J-218750D01*
G01*
X66225000Y26743750D01*
G75*
G02*
X66006250Y26525000I-218750J0D01*
G01*
X65568750Y26525000D01*
G75*
G02*
X65350000Y26743750I0J218750D01*
G01*
G37*
G36*
G01*
X63775000Y26743750D02*
X63775000Y27256250D01*
G75*
G02*
X63993750Y27475000I218750J0D01*
G01*
X64431250Y27475000D01*
G75*
G02*
X64650000Y27256250I0J-218750D01*
G01*
X64650000Y26743750D01*
G75*
G02*
X64431250Y26525000I-218750J0D01*
G01*
X63993750Y26525000D01*
G75*
G02*
X63775000Y26743750I0J218750D01*
G01*
G37*
G36*
G01*
X64650000Y33256250D02*
X64650000Y32743750D01*
G75*
G02*
X64431250Y32525000I-218750J0D01*
G01*
X63993750Y32525000D01*
G75*
G02*
X63775000Y32743750I0J218750D01*
G01*
X63775000Y33256250D01*
G75*
G02*
X63993750Y33475000I218750J0D01*
G01*
X64431250Y33475000D01*
G75*
G02*
X64650000Y33256250I0J-218750D01*
G01*
G37*
G36*
G01*
X66225000Y33256250D02*
X66225000Y32743750D01*
G75*
G02*
X66006250Y32525000I-218750J0D01*
G01*
X65568750Y32525000D01*
G75*
G02*
X65350000Y32743750I0J218750D01*
G01*
X65350000Y33256250D01*
G75*
G02*
X65568750Y33475000I218750J0D01*
G01*
X66006250Y33475000D01*
G75*
G02*
X66225000Y33256250I0J-218750D01*
G01*
G37*
G36*
G01*
X65350000Y29743750D02*
X65350000Y30256250D01*
G75*
G02*
X65568750Y30475000I218750J0D01*
G01*
X66006250Y30475000D01*
G75*
G02*
X66225000Y30256250I0J-218750D01*
G01*
X66225000Y29743750D01*
G75*
G02*
X66006250Y29525000I-218750J0D01*
G01*
X65568750Y29525000D01*
G75*
G02*
X65350000Y29743750I0J218750D01*
G01*
G37*
G36*
G01*
X63775000Y29743750D02*
X63775000Y30256250D01*
G75*
G02*
X63993750Y30475000I218750J0D01*
G01*
X64431250Y30475000D01*
G75*
G02*
X64650000Y30256250I0J-218750D01*
G01*
X64650000Y29743750D01*
G75*
G02*
X64431250Y29525000I-218750J0D01*
G01*
X63993750Y29525000D01*
G75*
G02*
X63775000Y29743750I0J218750D01*
G01*
G37*
G36*
G01*
X72350000Y26743750D02*
X72350000Y27256250D01*
G75*
G02*
X72568750Y27475000I218750J0D01*
G01*
X73006250Y27475000D01*
G75*
G02*
X73225000Y27256250I0J-218750D01*
G01*
X73225000Y26743750D01*
G75*
G02*
X73006250Y26525000I-218750J0D01*
G01*
X72568750Y26525000D01*
G75*
G02*
X72350000Y26743750I0J218750D01*
G01*
G37*
G36*
G01*
X70775000Y26743750D02*
X70775000Y27256250D01*
G75*
G02*
X70993750Y27475000I218750J0D01*
G01*
X71431250Y27475000D01*
G75*
G02*
X71650000Y27256250I0J-218750D01*
G01*
X71650000Y26743750D01*
G75*
G02*
X71431250Y26525000I-218750J0D01*
G01*
X70993750Y26525000D01*
G75*
G02*
X70775000Y26743750I0J218750D01*
G01*
G37*
G36*
G01*
X71650000Y33256250D02*
X71650000Y32743750D01*
G75*
G02*
X71431250Y32525000I-218750J0D01*
G01*
X70993750Y32525000D01*
G75*
G02*
X70775000Y32743750I0J218750D01*
G01*
X70775000Y33256250D01*
G75*
G02*
X70993750Y33475000I218750J0D01*
G01*
X71431250Y33475000D01*
G75*
G02*
X71650000Y33256250I0J-218750D01*
G01*
G37*
G36*
G01*
X73225000Y33256250D02*
X73225000Y32743750D01*
G75*
G02*
X73006250Y32525000I-218750J0D01*
G01*
X72568750Y32525000D01*
G75*
G02*
X72350000Y32743750I0J218750D01*
G01*
X72350000Y33256250D01*
G75*
G02*
X72568750Y33475000I218750J0D01*
G01*
X73006250Y33475000D01*
G75*
G02*
X73225000Y33256250I0J-218750D01*
G01*
G37*
G36*
G01*
X72350000Y29743750D02*
X72350000Y30256250D01*
G75*
G02*
X72568750Y30475000I218750J0D01*
G01*
X73006250Y30475000D01*
G75*
G02*
X73225000Y30256250I0J-218750D01*
G01*
X73225000Y29743750D01*
G75*
G02*
X73006250Y29525000I-218750J0D01*
G01*
X72568750Y29525000D01*
G75*
G02*
X72350000Y29743750I0J218750D01*
G01*
G37*
G36*
G01*
X70775000Y29743750D02*
X70775000Y30256250D01*
G75*
G02*
X70993750Y30475000I218750J0D01*
G01*
X71431250Y30475000D01*
G75*
G02*
X71650000Y30256250I0J-218750D01*
G01*
X71650000Y29743750D01*
G75*
G02*
X71431250Y29525000I-218750J0D01*
G01*
X70993750Y29525000D01*
G75*
G02*
X70775000Y29743750I0J218750D01*
G01*
G37*
G36*
G01*
X79350000Y26743750D02*
X79350000Y27256250D01*
G75*
G02*
X79568750Y27475000I218750J0D01*
G01*
X80006250Y27475000D01*
G75*
G02*
X80225000Y27256250I0J-218750D01*
G01*
X80225000Y26743750D01*
G75*
G02*
X80006250Y26525000I-218750J0D01*
G01*
X79568750Y26525000D01*
G75*
G02*
X79350000Y26743750I0J218750D01*
G01*
G37*
G36*
G01*
X77775000Y26743750D02*
X77775000Y27256250D01*
G75*
G02*
X77993750Y27475000I218750J0D01*
G01*
X78431250Y27475000D01*
G75*
G02*
X78650000Y27256250I0J-218750D01*
G01*
X78650000Y26743750D01*
G75*
G02*
X78431250Y26525000I-218750J0D01*
G01*
X77993750Y26525000D01*
G75*
G02*
X77775000Y26743750I0J218750D01*
G01*
G37*
G36*
G01*
X78650000Y33256250D02*
X78650000Y32743750D01*
G75*
G02*
X78431250Y32525000I-218750J0D01*
G01*
X77993750Y32525000D01*
G75*
G02*
X77775000Y32743750I0J218750D01*
G01*
X77775000Y33256250D01*
G75*
G02*
X77993750Y33475000I218750J0D01*
G01*
X78431250Y33475000D01*
G75*
G02*
X78650000Y33256250I0J-218750D01*
G01*
G37*
G36*
G01*
X80225000Y33256250D02*
X80225000Y32743750D01*
G75*
G02*
X80006250Y32525000I-218750J0D01*
G01*
X79568750Y32525000D01*
G75*
G02*
X79350000Y32743750I0J218750D01*
G01*
X79350000Y33256250D01*
G75*
G02*
X79568750Y33475000I218750J0D01*
G01*
X80006250Y33475000D01*
G75*
G02*
X80225000Y33256250I0J-218750D01*
G01*
G37*
G36*
G01*
X79350000Y29743750D02*
X79350000Y30256250D01*
G75*
G02*
X79568750Y30475000I218750J0D01*
G01*
X80006250Y30475000D01*
G75*
G02*
X80225000Y30256250I0J-218750D01*
G01*
X80225000Y29743750D01*
G75*
G02*
X80006250Y29525000I-218750J0D01*
G01*
X79568750Y29525000D01*
G75*
G02*
X79350000Y29743750I0J218750D01*
G01*
G37*
G36*
G01*
X77775000Y29743750D02*
X77775000Y30256250D01*
G75*
G02*
X77993750Y30475000I218750J0D01*
G01*
X78431250Y30475000D01*
G75*
G02*
X78650000Y30256250I0J-218750D01*
G01*
X78650000Y29743750D01*
G75*
G02*
X78431250Y29525000I-218750J0D01*
G01*
X77993750Y29525000D01*
G75*
G02*
X77775000Y29743750I0J218750D01*
G01*
G37*
G36*
G01*
X92650000Y28256250D02*
X92650000Y27743750D01*
G75*
G02*
X92431250Y27525000I-218750J0D01*
G01*
X91993750Y27525000D01*
G75*
G02*
X91775000Y27743750I0J218750D01*
G01*
X91775000Y28256250D01*
G75*
G02*
X91993750Y28475000I218750J0D01*
G01*
X92431250Y28475000D01*
G75*
G02*
X92650000Y28256250I0J-218750D01*
G01*
G37*
G36*
G01*
X94225000Y28256250D02*
X94225000Y27743750D01*
G75*
G02*
X94006250Y27525000I-218750J0D01*
G01*
X93568750Y27525000D01*
G75*
G02*
X93350000Y27743750I0J218750D01*
G01*
X93350000Y28256250D01*
G75*
G02*
X93568750Y28475000I218750J0D01*
G01*
X94006250Y28475000D01*
G75*
G02*
X94225000Y28256250I0J-218750D01*
G01*
G37*
G36*
G01*
X92650000Y32256250D02*
X92650000Y31743750D01*
G75*
G02*
X92431250Y31525000I-218750J0D01*
G01*
X91993750Y31525000D01*
G75*
G02*
X91775000Y31743750I0J218750D01*
G01*
X91775000Y32256250D01*
G75*
G02*
X91993750Y32475000I218750J0D01*
G01*
X92431250Y32475000D01*
G75*
G02*
X92650000Y32256250I0J-218750D01*
G01*
G37*
G36*
G01*
X94225000Y32256250D02*
X94225000Y31743750D01*
G75*
G02*
X94006250Y31525000I-218750J0D01*
G01*
X93568750Y31525000D01*
G75*
G02*
X93350000Y31743750I0J218750D01*
G01*
X93350000Y32256250D01*
G75*
G02*
X93568750Y32475000I218750J0D01*
G01*
X94006250Y32475000D01*
G75*
G02*
X94225000Y32256250I0J-218750D01*
G01*
G37*
G36*
G01*
X93350000Y29743750D02*
X93350000Y30256250D01*
G75*
G02*
X93568750Y30475000I218750J0D01*
G01*
X94006250Y30475000D01*
G75*
G02*
X94225000Y30256250I0J-218750D01*
G01*
X94225000Y29743750D01*
G75*
G02*
X94006250Y29525000I-218750J0D01*
G01*
X93568750Y29525000D01*
G75*
G02*
X93350000Y29743750I0J218750D01*
G01*
G37*
G36*
G01*
X91775000Y29743750D02*
X91775000Y30256250D01*
G75*
G02*
X91993750Y30475000I218750J0D01*
G01*
X92431250Y30475000D01*
G75*
G02*
X92650000Y30256250I0J-218750D01*
G01*
X92650000Y29743750D01*
G75*
G02*
X92431250Y29525000I-218750J0D01*
G01*
X91993750Y29525000D01*
G75*
G02*
X91775000Y29743750I0J218750D01*
G01*
G37*
G36*
G01*
X102650000Y28256250D02*
X102650000Y27743750D01*
G75*
G02*
X102431250Y27525000I-218750J0D01*
G01*
X101993750Y27525000D01*
G75*
G02*
X101775000Y27743750I0J218750D01*
G01*
X101775000Y28256250D01*
G75*
G02*
X101993750Y28475000I218750J0D01*
G01*
X102431250Y28475000D01*
G75*
G02*
X102650000Y28256250I0J-218750D01*
G01*
G37*
G36*
G01*
X104225000Y28256250D02*
X104225000Y27743750D01*
G75*
G02*
X104006250Y27525000I-218750J0D01*
G01*
X103568750Y27525000D01*
G75*
G02*
X103350000Y27743750I0J218750D01*
G01*
X103350000Y28256250D01*
G75*
G02*
X103568750Y28475000I218750J0D01*
G01*
X104006250Y28475000D01*
G75*
G02*
X104225000Y28256250I0J-218750D01*
G01*
G37*
G36*
G01*
X102650000Y32256250D02*
X102650000Y31743750D01*
G75*
G02*
X102431250Y31525000I-218750J0D01*
G01*
X101993750Y31525000D01*
G75*
G02*
X101775000Y31743750I0J218750D01*
G01*
X101775000Y32256250D01*
G75*
G02*
X101993750Y32475000I218750J0D01*
G01*
X102431250Y32475000D01*
G75*
G02*
X102650000Y32256250I0J-218750D01*
G01*
G37*
G36*
G01*
X104225000Y32256250D02*
X104225000Y31743750D01*
G75*
G02*
X104006250Y31525000I-218750J0D01*
G01*
X103568750Y31525000D01*
G75*
G02*
X103350000Y31743750I0J218750D01*
G01*
X103350000Y32256250D01*
G75*
G02*
X103568750Y32475000I218750J0D01*
G01*
X104006250Y32475000D01*
G75*
G02*
X104225000Y32256250I0J-218750D01*
G01*
G37*
G36*
G01*
X103350000Y29743750D02*
X103350000Y30256250D01*
G75*
G02*
X103568750Y30475000I218750J0D01*
G01*
X104006250Y30475000D01*
G75*
G02*
X104225000Y30256250I0J-218750D01*
G01*
X104225000Y29743750D01*
G75*
G02*
X104006250Y29525000I-218750J0D01*
G01*
X103568750Y29525000D01*
G75*
G02*
X103350000Y29743750I0J218750D01*
G01*
G37*
G36*
G01*
X101775000Y29743750D02*
X101775000Y30256250D01*
G75*
G02*
X101993750Y30475000I218750J0D01*
G01*
X102431250Y30475000D01*
G75*
G02*
X102650000Y30256250I0J-218750D01*
G01*
X102650000Y29743750D01*
G75*
G02*
X102431250Y29525000I-218750J0D01*
G01*
X101993750Y29525000D01*
G75*
G02*
X101775000Y29743750I0J218750D01*
G01*
G37*
G36*
G01*
X112650000Y28256250D02*
X112650000Y27743750D01*
G75*
G02*
X112431250Y27525000I-218750J0D01*
G01*
X111993750Y27525000D01*
G75*
G02*
X111775000Y27743750I0J218750D01*
G01*
X111775000Y28256250D01*
G75*
G02*
X111993750Y28475000I218750J0D01*
G01*
X112431250Y28475000D01*
G75*
G02*
X112650000Y28256250I0J-218750D01*
G01*
G37*
G36*
G01*
X114225000Y28256250D02*
X114225000Y27743750D01*
G75*
G02*
X114006250Y27525000I-218750J0D01*
G01*
X113568750Y27525000D01*
G75*
G02*
X113350000Y27743750I0J218750D01*
G01*
X113350000Y28256250D01*
G75*
G02*
X113568750Y28475000I218750J0D01*
G01*
X114006250Y28475000D01*
G75*
G02*
X114225000Y28256250I0J-218750D01*
G01*
G37*
G36*
G01*
X112650000Y32256250D02*
X112650000Y31743750D01*
G75*
G02*
X112431250Y31525000I-218750J0D01*
G01*
X111993750Y31525000D01*
G75*
G02*
X111775000Y31743750I0J218750D01*
G01*
X111775000Y32256250D01*
G75*
G02*
X111993750Y32475000I218750J0D01*
G01*
X112431250Y32475000D01*
G75*
G02*
X112650000Y32256250I0J-218750D01*
G01*
G37*
G36*
G01*
X114225000Y32256250D02*
X114225000Y31743750D01*
G75*
G02*
X114006250Y31525000I-218750J0D01*
G01*
X113568750Y31525000D01*
G75*
G02*
X113350000Y31743750I0J218750D01*
G01*
X113350000Y32256250D01*
G75*
G02*
X113568750Y32475000I218750J0D01*
G01*
X114006250Y32475000D01*
G75*
G02*
X114225000Y32256250I0J-218750D01*
G01*
G37*
G36*
G01*
X113350000Y29743750D02*
X113350000Y30256250D01*
G75*
G02*
X113568750Y30475000I218750J0D01*
G01*
X114006250Y30475000D01*
G75*
G02*
X114225000Y30256250I0J-218750D01*
G01*
X114225000Y29743750D01*
G75*
G02*
X114006250Y29525000I-218750J0D01*
G01*
X113568750Y29525000D01*
G75*
G02*
X113350000Y29743750I0J218750D01*
G01*
G37*
G36*
G01*
X111775000Y29743750D02*
X111775000Y30256250D01*
G75*
G02*
X111993750Y30475000I218750J0D01*
G01*
X112431250Y30475000D01*
G75*
G02*
X112650000Y30256250I0J-218750D01*
G01*
X112650000Y29743750D01*
G75*
G02*
X112431250Y29525000I-218750J0D01*
G01*
X111993750Y29525000D01*
G75*
G02*
X111775000Y29743750I0J218750D01*
G01*
G37*
G36*
G01*
X122650000Y28256250D02*
X122650000Y27743750D01*
G75*
G02*
X122431250Y27525000I-218750J0D01*
G01*
X121993750Y27525000D01*
G75*
G02*
X121775000Y27743750I0J218750D01*
G01*
X121775000Y28256250D01*
G75*
G02*
X121993750Y28475000I218750J0D01*
G01*
X122431250Y28475000D01*
G75*
G02*
X122650000Y28256250I0J-218750D01*
G01*
G37*
G36*
G01*
X124225000Y28256250D02*
X124225000Y27743750D01*
G75*
G02*
X124006250Y27525000I-218750J0D01*
G01*
X123568750Y27525000D01*
G75*
G02*
X123350000Y27743750I0J218750D01*
G01*
X123350000Y28256250D01*
G75*
G02*
X123568750Y28475000I218750J0D01*
G01*
X124006250Y28475000D01*
G75*
G02*
X124225000Y28256250I0J-218750D01*
G01*
G37*
G36*
G01*
X122650000Y32256250D02*
X122650000Y31743750D01*
G75*
G02*
X122431250Y31525000I-218750J0D01*
G01*
X121993750Y31525000D01*
G75*
G02*
X121775000Y31743750I0J218750D01*
G01*
X121775000Y32256250D01*
G75*
G02*
X121993750Y32475000I218750J0D01*
G01*
X122431250Y32475000D01*
G75*
G02*
X122650000Y32256250I0J-218750D01*
G01*
G37*
G36*
G01*
X124225000Y32256250D02*
X124225000Y31743750D01*
G75*
G02*
X124006250Y31525000I-218750J0D01*
G01*
X123568750Y31525000D01*
G75*
G02*
X123350000Y31743750I0J218750D01*
G01*
X123350000Y32256250D01*
G75*
G02*
X123568750Y32475000I218750J0D01*
G01*
X124006250Y32475000D01*
G75*
G02*
X124225000Y32256250I0J-218750D01*
G01*
G37*
G36*
G01*
X123350000Y29743750D02*
X123350000Y30256250D01*
G75*
G02*
X123568750Y30475000I218750J0D01*
G01*
X124006250Y30475000D01*
G75*
G02*
X124225000Y30256250I0J-218750D01*
G01*
X124225000Y29743750D01*
G75*
G02*
X124006250Y29525000I-218750J0D01*
G01*
X123568750Y29525000D01*
G75*
G02*
X123350000Y29743750I0J218750D01*
G01*
G37*
G36*
G01*
X121775000Y29743750D02*
X121775000Y30256250D01*
G75*
G02*
X121993750Y30475000I218750J0D01*
G01*
X122431250Y30475000D01*
G75*
G02*
X122650000Y30256250I0J-218750D01*
G01*
X122650000Y29743750D01*
G75*
G02*
X122431250Y29525000I-218750J0D01*
G01*
X121993750Y29525000D01*
G75*
G02*
X121775000Y29743750I0J218750D01*
G01*
G37*
G36*
G01*
X142650000Y28256250D02*
X142650000Y27743750D01*
G75*
G02*
X142431250Y27525000I-218750J0D01*
G01*
X141993750Y27525000D01*
G75*
G02*
X141775000Y27743750I0J218750D01*
G01*
X141775000Y28256250D01*
G75*
G02*
X141993750Y28475000I218750J0D01*
G01*
X142431250Y28475000D01*
G75*
G02*
X142650000Y28256250I0J-218750D01*
G01*
G37*
G36*
G01*
X144225000Y28256250D02*
X144225000Y27743750D01*
G75*
G02*
X144006250Y27525000I-218750J0D01*
G01*
X143568750Y27525000D01*
G75*
G02*
X143350000Y27743750I0J218750D01*
G01*
X143350000Y28256250D01*
G75*
G02*
X143568750Y28475000I218750J0D01*
G01*
X144006250Y28475000D01*
G75*
G02*
X144225000Y28256250I0J-218750D01*
G01*
G37*
G36*
G01*
X142650000Y32256250D02*
X142650000Y31743750D01*
G75*
G02*
X142431250Y31525000I-218750J0D01*
G01*
X141993750Y31525000D01*
G75*
G02*
X141775000Y31743750I0J218750D01*
G01*
X141775000Y32256250D01*
G75*
G02*
X141993750Y32475000I218750J0D01*
G01*
X142431250Y32475000D01*
G75*
G02*
X142650000Y32256250I0J-218750D01*
G01*
G37*
G36*
G01*
X144225000Y32256250D02*
X144225000Y31743750D01*
G75*
G02*
X144006250Y31525000I-218750J0D01*
G01*
X143568750Y31525000D01*
G75*
G02*
X143350000Y31743750I0J218750D01*
G01*
X143350000Y32256250D01*
G75*
G02*
X143568750Y32475000I218750J0D01*
G01*
X144006250Y32475000D01*
G75*
G02*
X144225000Y32256250I0J-218750D01*
G01*
G37*
G36*
G01*
X143350000Y29743750D02*
X143350000Y30256250D01*
G75*
G02*
X143568750Y30475000I218750J0D01*
G01*
X144006250Y30475000D01*
G75*
G02*
X144225000Y30256250I0J-218750D01*
G01*
X144225000Y29743750D01*
G75*
G02*
X144006250Y29525000I-218750J0D01*
G01*
X143568750Y29525000D01*
G75*
G02*
X143350000Y29743750I0J218750D01*
G01*
G37*
G36*
G01*
X141775000Y29743750D02*
X141775000Y30256250D01*
G75*
G02*
X141993750Y30475000I218750J0D01*
G01*
X142431250Y30475000D01*
G75*
G02*
X142650000Y30256250I0J-218750D01*
G01*
X142650000Y29743750D01*
G75*
G02*
X142431250Y29525000I-218750J0D01*
G01*
X141993750Y29525000D01*
G75*
G02*
X141775000Y29743750I0J218750D01*
G01*
G37*
G36*
G01*
X152650000Y28256250D02*
X152650000Y27743750D01*
G75*
G02*
X152431250Y27525000I-218750J0D01*
G01*
X151993750Y27525000D01*
G75*
G02*
X151775000Y27743750I0J218750D01*
G01*
X151775000Y28256250D01*
G75*
G02*
X151993750Y28475000I218750J0D01*
G01*
X152431250Y28475000D01*
G75*
G02*
X152650000Y28256250I0J-218750D01*
G01*
G37*
G36*
G01*
X154225000Y28256250D02*
X154225000Y27743750D01*
G75*
G02*
X154006250Y27525000I-218750J0D01*
G01*
X153568750Y27525000D01*
G75*
G02*
X153350000Y27743750I0J218750D01*
G01*
X153350000Y28256250D01*
G75*
G02*
X153568750Y28475000I218750J0D01*
G01*
X154006250Y28475000D01*
G75*
G02*
X154225000Y28256250I0J-218750D01*
G01*
G37*
G36*
G01*
X152650000Y32256250D02*
X152650000Y31743750D01*
G75*
G02*
X152431250Y31525000I-218750J0D01*
G01*
X151993750Y31525000D01*
G75*
G02*
X151775000Y31743750I0J218750D01*
G01*
X151775000Y32256250D01*
G75*
G02*
X151993750Y32475000I218750J0D01*
G01*
X152431250Y32475000D01*
G75*
G02*
X152650000Y32256250I0J-218750D01*
G01*
G37*
G36*
G01*
X154225000Y32256250D02*
X154225000Y31743750D01*
G75*
G02*
X154006250Y31525000I-218750J0D01*
G01*
X153568750Y31525000D01*
G75*
G02*
X153350000Y31743750I0J218750D01*
G01*
X153350000Y32256250D01*
G75*
G02*
X153568750Y32475000I218750J0D01*
G01*
X154006250Y32475000D01*
G75*
G02*
X154225000Y32256250I0J-218750D01*
G01*
G37*
G36*
G01*
X153350000Y29743750D02*
X153350000Y30256250D01*
G75*
G02*
X153568750Y30475000I218750J0D01*
G01*
X154006250Y30475000D01*
G75*
G02*
X154225000Y30256250I0J-218750D01*
G01*
X154225000Y29743750D01*
G75*
G02*
X154006250Y29525000I-218750J0D01*
G01*
X153568750Y29525000D01*
G75*
G02*
X153350000Y29743750I0J218750D01*
G01*
G37*
G36*
G01*
X151775000Y29743750D02*
X151775000Y30256250D01*
G75*
G02*
X151993750Y30475000I218750J0D01*
G01*
X152431250Y30475000D01*
G75*
G02*
X152650000Y30256250I0J-218750D01*
G01*
X152650000Y29743750D01*
G75*
G02*
X152431250Y29525000I-218750J0D01*
G01*
X151993750Y29525000D01*
G75*
G02*
X151775000Y29743750I0J218750D01*
G01*
G37*
G36*
G01*
X162650000Y28256250D02*
X162650000Y27743750D01*
G75*
G02*
X162431250Y27525000I-218750J0D01*
G01*
X161993750Y27525000D01*
G75*
G02*
X161775000Y27743750I0J218750D01*
G01*
X161775000Y28256250D01*
G75*
G02*
X161993750Y28475000I218750J0D01*
G01*
X162431250Y28475000D01*
G75*
G02*
X162650000Y28256250I0J-218750D01*
G01*
G37*
G36*
G01*
X164225000Y28256250D02*
X164225000Y27743750D01*
G75*
G02*
X164006250Y27525000I-218750J0D01*
G01*
X163568750Y27525000D01*
G75*
G02*
X163350000Y27743750I0J218750D01*
G01*
X163350000Y28256250D01*
G75*
G02*
X163568750Y28475000I218750J0D01*
G01*
X164006250Y28475000D01*
G75*
G02*
X164225000Y28256250I0J-218750D01*
G01*
G37*
G36*
G01*
X162650000Y32256250D02*
X162650000Y31743750D01*
G75*
G02*
X162431250Y31525000I-218750J0D01*
G01*
X161993750Y31525000D01*
G75*
G02*
X161775000Y31743750I0J218750D01*
G01*
X161775000Y32256250D01*
G75*
G02*
X161993750Y32475000I218750J0D01*
G01*
X162431250Y32475000D01*
G75*
G02*
X162650000Y32256250I0J-218750D01*
G01*
G37*
G36*
G01*
X164225000Y32256250D02*
X164225000Y31743750D01*
G75*
G02*
X164006250Y31525000I-218750J0D01*
G01*
X163568750Y31525000D01*
G75*
G02*
X163350000Y31743750I0J218750D01*
G01*
X163350000Y32256250D01*
G75*
G02*
X163568750Y32475000I218750J0D01*
G01*
X164006250Y32475000D01*
G75*
G02*
X164225000Y32256250I0J-218750D01*
G01*
G37*
G36*
G01*
X163350000Y29743750D02*
X163350000Y30256250D01*
G75*
G02*
X163568750Y30475000I218750J0D01*
G01*
X164006250Y30475000D01*
G75*
G02*
X164225000Y30256250I0J-218750D01*
G01*
X164225000Y29743750D01*
G75*
G02*
X164006250Y29525000I-218750J0D01*
G01*
X163568750Y29525000D01*
G75*
G02*
X163350000Y29743750I0J218750D01*
G01*
G37*
G36*
G01*
X161775000Y29743750D02*
X161775000Y30256250D01*
G75*
G02*
X161993750Y30475000I218750J0D01*
G01*
X162431250Y30475000D01*
G75*
G02*
X162650000Y30256250I0J-218750D01*
G01*
X162650000Y29743750D01*
G75*
G02*
X162431250Y29525000I-218750J0D01*
G01*
X161993750Y29525000D01*
G75*
G02*
X161775000Y29743750I0J218750D01*
G01*
G37*
G36*
G01*
X18650000Y78256250D02*
X18650000Y77743750D01*
G75*
G02*
X18431250Y77525000I-218750J0D01*
G01*
X17993750Y77525000D01*
G75*
G02*
X17775000Y77743750I0J218750D01*
G01*
X17775000Y78256250D01*
G75*
G02*
X17993750Y78475000I218750J0D01*
G01*
X18431250Y78475000D01*
G75*
G02*
X18650000Y78256250I0J-218750D01*
G01*
G37*
G36*
G01*
X20225000Y78256250D02*
X20225000Y77743750D01*
G75*
G02*
X20006250Y77525000I-218750J0D01*
G01*
X19568750Y77525000D01*
G75*
G02*
X19350000Y77743750I0J218750D01*
G01*
X19350000Y78256250D01*
G75*
G02*
X19568750Y78475000I218750J0D01*
G01*
X20006250Y78475000D01*
G75*
G02*
X20225000Y78256250I0J-218750D01*
G01*
G37*
G36*
G01*
X13350000Y67743750D02*
X13350000Y68256250D01*
G75*
G02*
X13568750Y68475000I218750J0D01*
G01*
X14006250Y68475000D01*
G75*
G02*
X14225000Y68256250I0J-218750D01*
G01*
X14225000Y67743750D01*
G75*
G02*
X14006250Y67525000I-218750J0D01*
G01*
X13568750Y67525000D01*
G75*
G02*
X13350000Y67743750I0J218750D01*
G01*
G37*
G36*
G01*
X11775000Y67743750D02*
X11775000Y68256250D01*
G75*
G02*
X11993750Y68475000I218750J0D01*
G01*
X12431250Y68475000D01*
G75*
G02*
X12650000Y68256250I0J-218750D01*
G01*
X12650000Y67743750D01*
G75*
G02*
X12431250Y67525000I-218750J0D01*
G01*
X11993750Y67525000D01*
G75*
G02*
X11775000Y67743750I0J218750D01*
G01*
G37*
D21*
X46140000Y67000000D03*
X47860000Y67000000D03*
X46140000Y79000000D03*
X47860000Y79000000D03*
X46140000Y75000000D03*
X47860000Y75000000D03*
D22*
X59000000Y49140000D03*
X59000000Y50860000D03*
D21*
X46140000Y71000000D03*
X47860000Y71000000D03*
X20860000Y16000000D03*
X19140000Y16000000D03*
G36*
G01*
X52650000Y75256250D02*
X52650000Y74743750D01*
G75*
G02*
X52431250Y74525000I-218750J0D01*
G01*
X51993750Y74525000D01*
G75*
G02*
X51775000Y74743750I0J218750D01*
G01*
X51775000Y75256250D01*
G75*
G02*
X51993750Y75475000I218750J0D01*
G01*
X52431250Y75475000D01*
G75*
G02*
X52650000Y75256250I0J-218750D01*
G01*
G37*
G36*
G01*
X54225000Y75256250D02*
X54225000Y74743750D01*
G75*
G02*
X54006250Y74525000I-218750J0D01*
G01*
X53568750Y74525000D01*
G75*
G02*
X53350000Y74743750I0J218750D01*
G01*
X53350000Y75256250D01*
G75*
G02*
X53568750Y75475000I218750J0D01*
G01*
X54006250Y75475000D01*
G75*
G02*
X54225000Y75256250I0J-218750D01*
G01*
G37*
G36*
G01*
X58743750Y55650000D02*
X59256250Y55650000D01*
G75*
G02*
X59475000Y55431250I0J-218750D01*
G01*
X59475000Y54993750D01*
G75*
G02*
X59256250Y54775000I-218750J0D01*
G01*
X58743750Y54775000D01*
G75*
G02*
X58525000Y54993750I0J218750D01*
G01*
X58525000Y55431250D01*
G75*
G02*
X58743750Y55650000I218750J0D01*
G01*
G37*
G36*
G01*
X58743750Y57225000D02*
X59256250Y57225000D01*
G75*
G02*
X59475000Y57006250I0J-218750D01*
G01*
X59475000Y56568750D01*
G75*
G02*
X59256250Y56350000I-218750J0D01*
G01*
X58743750Y56350000D01*
G75*
G02*
X58525000Y56568750I0J218750D01*
G01*
X58525000Y57006250D01*
G75*
G02*
X58743750Y57225000I218750J0D01*
G01*
G37*
G36*
G01*
X52650000Y71256250D02*
X52650000Y70743750D01*
G75*
G02*
X52431250Y70525000I-218750J0D01*
G01*
X51993750Y70525000D01*
G75*
G02*
X51775000Y70743750I0J218750D01*
G01*
X51775000Y71256250D01*
G75*
G02*
X51993750Y71475000I218750J0D01*
G01*
X52431250Y71475000D01*
G75*
G02*
X52650000Y71256250I0J-218750D01*
G01*
G37*
G36*
G01*
X54225000Y71256250D02*
X54225000Y70743750D01*
G75*
G02*
X54006250Y70525000I-218750J0D01*
G01*
X53568750Y70525000D01*
G75*
G02*
X53350000Y70743750I0J218750D01*
G01*
X53350000Y71256250D01*
G75*
G02*
X53568750Y71475000I218750J0D01*
G01*
X54006250Y71475000D01*
G75*
G02*
X54225000Y71256250I0J-218750D01*
G01*
G37*
G36*
G01*
X52650000Y67256250D02*
X52650000Y66743750D01*
G75*
G02*
X52431250Y66525000I-218750J0D01*
G01*
X51993750Y66525000D01*
G75*
G02*
X51775000Y66743750I0J218750D01*
G01*
X51775000Y67256250D01*
G75*
G02*
X51993750Y67475000I218750J0D01*
G01*
X52431250Y67475000D01*
G75*
G02*
X52650000Y67256250I0J-218750D01*
G01*
G37*
G36*
G01*
X54225000Y67256250D02*
X54225000Y66743750D01*
G75*
G02*
X54006250Y66525000I-218750J0D01*
G01*
X53568750Y66525000D01*
G75*
G02*
X53350000Y66743750I0J218750D01*
G01*
X53350000Y67256250D01*
G75*
G02*
X53568750Y67475000I218750J0D01*
G01*
X54006250Y67475000D01*
G75*
G02*
X54225000Y67256250I0J-218750D01*
G01*
G37*
G36*
G01*
X52650000Y79256250D02*
X52650000Y78743750D01*
G75*
G02*
X52431250Y78525000I-218750J0D01*
G01*
X51993750Y78525000D01*
G75*
G02*
X51775000Y78743750I0J218750D01*
G01*
X51775000Y79256250D01*
G75*
G02*
X51993750Y79475000I218750J0D01*
G01*
X52431250Y79475000D01*
G75*
G02*
X52650000Y79256250I0J-218750D01*
G01*
G37*
G36*
G01*
X54225000Y79256250D02*
X54225000Y78743750D01*
G75*
G02*
X54006250Y78525000I-218750J0D01*
G01*
X53568750Y78525000D01*
G75*
G02*
X53350000Y78743750I0J218750D01*
G01*
X53350000Y79256250D01*
G75*
G02*
X53568750Y79475000I218750J0D01*
G01*
X54006250Y79475000D01*
G75*
G02*
X54225000Y79256250I0J-218750D01*
G01*
G37*
G36*
G01*
X62256250Y52350000D02*
X61743750Y52350000D01*
G75*
G02*
X61525000Y52568750I0J218750D01*
G01*
X61525000Y53006250D01*
G75*
G02*
X61743750Y53225000I218750J0D01*
G01*
X62256250Y53225000D01*
G75*
G02*
X62475000Y53006250I0J-218750D01*
G01*
X62475000Y52568750D01*
G75*
G02*
X62256250Y52350000I-218750J0D01*
G01*
G37*
G36*
G01*
X62256250Y50775000D02*
X61743750Y50775000D01*
G75*
G02*
X61525000Y50993750I0J218750D01*
G01*
X61525000Y51431250D01*
G75*
G02*
X61743750Y51650000I218750J0D01*
G01*
X62256250Y51650000D01*
G75*
G02*
X62475000Y51431250I0J-218750D01*
G01*
X62475000Y50993750D01*
G75*
G02*
X62256250Y50775000I-218750J0D01*
G01*
G37*
G36*
G01*
X71743750Y51650000D02*
X72256250Y51650000D01*
G75*
G02*
X72475000Y51431250I0J-218750D01*
G01*
X72475000Y50993750D01*
G75*
G02*
X72256250Y50775000I-218750J0D01*
G01*
X71743750Y50775000D01*
G75*
G02*
X71525000Y50993750I0J218750D01*
G01*
X71525000Y51431250D01*
G75*
G02*
X71743750Y51650000I218750J0D01*
G01*
G37*
G36*
G01*
X71743750Y53225000D02*
X72256250Y53225000D01*
G75*
G02*
X72475000Y53006250I0J-218750D01*
G01*
X72475000Y52568750D01*
G75*
G02*
X72256250Y52350000I-218750J0D01*
G01*
X71743750Y52350000D01*
G75*
G02*
X71525000Y52568750I0J218750D01*
G01*
X71525000Y53006250D01*
G75*
G02*
X71743750Y53225000I218750J0D01*
G01*
G37*
G36*
G01*
X24650000Y12256250D02*
X24650000Y11743750D01*
G75*
G02*
X24431250Y11525000I-218750J0D01*
G01*
X23993750Y11525000D01*
G75*
G02*
X23775000Y11743750I0J218750D01*
G01*
X23775000Y12256250D01*
G75*
G02*
X23993750Y12475000I218750J0D01*
G01*
X24431250Y12475000D01*
G75*
G02*
X24650000Y12256250I0J-218750D01*
G01*
G37*
G36*
G01*
X26225000Y12256250D02*
X26225000Y11743750D01*
G75*
G02*
X26006250Y11525000I-218750J0D01*
G01*
X25568750Y11525000D01*
G75*
G02*
X25350000Y11743750I0J218750D01*
G01*
X25350000Y12256250D01*
G75*
G02*
X25568750Y12475000I218750J0D01*
G01*
X26006250Y12475000D01*
G75*
G02*
X26225000Y12256250I0J-218750D01*
G01*
G37*
G36*
G01*
X140650000Y20256250D02*
X140650000Y19743750D01*
G75*
G02*
X140431250Y19525000I-218750J0D01*
G01*
X139993750Y19525000D01*
G75*
G02*
X139775000Y19743750I0J218750D01*
G01*
X139775000Y20256250D01*
G75*
G02*
X139993750Y20475000I218750J0D01*
G01*
X140431250Y20475000D01*
G75*
G02*
X140650000Y20256250I0J-218750D01*
G01*
G37*
G36*
G01*
X142225000Y20256250D02*
X142225000Y19743750D01*
G75*
G02*
X142006250Y19525000I-218750J0D01*
G01*
X141568750Y19525000D01*
G75*
G02*
X141350000Y19743750I0J218750D01*
G01*
X141350000Y20256250D01*
G75*
G02*
X141568750Y20475000I218750J0D01*
G01*
X142006250Y20475000D01*
G75*
G02*
X142225000Y20256250I0J-218750D01*
G01*
G37*
G36*
G01*
X128350000Y19743750D02*
X128350000Y20256250D01*
G75*
G02*
X128568750Y20475000I218750J0D01*
G01*
X129006250Y20475000D01*
G75*
G02*
X129225000Y20256250I0J-218750D01*
G01*
X129225000Y19743750D01*
G75*
G02*
X129006250Y19525000I-218750J0D01*
G01*
X128568750Y19525000D01*
G75*
G02*
X128350000Y19743750I0J218750D01*
G01*
G37*
G36*
G01*
X126775000Y19743750D02*
X126775000Y20256250D01*
G75*
G02*
X126993750Y20475000I218750J0D01*
G01*
X127431250Y20475000D01*
G75*
G02*
X127650000Y20256250I0J-218750D01*
G01*
X127650000Y19743750D01*
G75*
G02*
X127431250Y19525000I-218750J0D01*
G01*
X126993750Y19525000D01*
G75*
G02*
X126775000Y19743750I0J218750D01*
G01*
G37*
G36*
G01*
X114650000Y20256250D02*
X114650000Y19743750D01*
G75*
G02*
X114431250Y19525000I-218750J0D01*
G01*
X113993750Y19525000D01*
G75*
G02*
X113775000Y19743750I0J218750D01*
G01*
X113775000Y20256250D01*
G75*
G02*
X113993750Y20475000I218750J0D01*
G01*
X114431250Y20475000D01*
G75*
G02*
X114650000Y20256250I0J-218750D01*
G01*
G37*
G36*
G01*
X116225000Y20256250D02*
X116225000Y19743750D01*
G75*
G02*
X116006250Y19525000I-218750J0D01*
G01*
X115568750Y19525000D01*
G75*
G02*
X115350000Y19743750I0J218750D01*
G01*
X115350000Y20256250D01*
G75*
G02*
X115568750Y20475000I218750J0D01*
G01*
X116006250Y20475000D01*
G75*
G02*
X116225000Y20256250I0J-218750D01*
G01*
G37*
G36*
G01*
X85650000Y20256250D02*
X85650000Y19743750D01*
G75*
G02*
X85431250Y19525000I-218750J0D01*
G01*
X84993750Y19525000D01*
G75*
G02*
X84775000Y19743750I0J218750D01*
G01*
X84775000Y20256250D01*
G75*
G02*
X84993750Y20475000I218750J0D01*
G01*
X85431250Y20475000D01*
G75*
G02*
X85650000Y20256250I0J-218750D01*
G01*
G37*
G36*
G01*
X87225000Y20256250D02*
X87225000Y19743750D01*
G75*
G02*
X87006250Y19525000I-218750J0D01*
G01*
X86568750Y19525000D01*
G75*
G02*
X86350000Y19743750I0J218750D01*
G01*
X86350000Y20256250D01*
G75*
G02*
X86568750Y20475000I218750J0D01*
G01*
X87006250Y20475000D01*
G75*
G02*
X87225000Y20256250I0J-218750D01*
G01*
G37*
G36*
G01*
X98650000Y20256250D02*
X98650000Y19743750D01*
G75*
G02*
X98431250Y19525000I-218750J0D01*
G01*
X97993750Y19525000D01*
G75*
G02*
X97775000Y19743750I0J218750D01*
G01*
X97775000Y20256250D01*
G75*
G02*
X97993750Y20475000I218750J0D01*
G01*
X98431250Y20475000D01*
G75*
G02*
X98650000Y20256250I0J-218750D01*
G01*
G37*
G36*
G01*
X100225000Y20256250D02*
X100225000Y19743750D01*
G75*
G02*
X100006250Y19525000I-218750J0D01*
G01*
X99568750Y19525000D01*
G75*
G02*
X99350000Y19743750I0J218750D01*
G01*
X99350000Y20256250D01*
G75*
G02*
X99568750Y20475000I218750J0D01*
G01*
X100006250Y20475000D01*
G75*
G02*
X100225000Y20256250I0J-218750D01*
G01*
G37*
G36*
G01*
X19350000Y83743750D02*
X19350000Y84256250D01*
G75*
G02*
X19568750Y84475000I218750J0D01*
G01*
X20006250Y84475000D01*
G75*
G02*
X20225000Y84256250I0J-218750D01*
G01*
X20225000Y83743750D01*
G75*
G02*
X20006250Y83525000I-218750J0D01*
G01*
X19568750Y83525000D01*
G75*
G02*
X19350000Y83743750I0J218750D01*
G01*
G37*
G36*
G01*
X17775000Y83743750D02*
X17775000Y84256250D01*
G75*
G02*
X17993750Y84475000I218750J0D01*
G01*
X18431250Y84475000D01*
G75*
G02*
X18650000Y84256250I0J-218750D01*
G01*
X18650000Y83743750D01*
G75*
G02*
X18431250Y83525000I-218750J0D01*
G01*
X17993750Y83525000D01*
G75*
G02*
X17775000Y83743750I0J218750D01*
G01*
G37*
M02*
